G04 Layer: TopLayer*
G04 EasyEDA Pro v3.2.148, 2026-07-04 18:32:14*
G04 Gerber Generator version 0.3*
G04 Scale: 100 percent, Rotated: No, Reflected: No*
G04 Dimensions in millimeters*
G04 Leading zeros omitted, absolute positions, 4 integers and 5 decimals*
G04 Generated by one-click*
G04 Object Configs: Pad,Via,Track,Text,Image,Dimension,BoardOutline,BoardCutout,CopperFilled,SolidRegion,FPCStiffener,Line,PlaneZone,ComponentProperty,ComponentSilkscreen,TearDrop*
G04 Layer Configs: 1,2,3,4,5,6,7,8,9,10,11,13,14,56*
G04 Copper Areas: 40*
%FSLAX45Y45*%
%MOMM*%
%ADD10C,0.2032*%
%ADD11C,0.254*%
%ADD12R,0.8X0.9*%
%ADD13R,0.9X0.8*%
%ADD14R,0.80648X0.86401*%
%ADD15R,0.86401X0.80648*%
%ADD16R,1.2X0.25001*%
%ADD17R,1.1280X2.88*%
%ADD18R,1.11999X2.88*%
%ADD19O,1.2X3.09999*%
%ADD20R,1.1X0.55001*%
%ADD21R,1.1X0.3*%
%ADD22O,2.0X1.1*%
%ADD23O,1.8X1.2*%
%ADD24R,0.55001X1.1*%
%ADD25R,0.3X1.1*%
%ADD26O,1.1X2.0*%
%ADD27O,1.2X1.8*%
%ADD28C,0.61*%
G75*


G04 Copper Start*
G36*
G01X2571256Y4291187D02*
G01X-247269Y4311464D01*
G01X-228921Y4316646D01*
G01X-211963Y4325358D01*
G01X-197065Y4337255D01*
G01X-184818Y4351866D01*
G01X-175706Y4368614D01*
G01X-170091Y4386833D01*
G01X-168194Y4405804D01*
G01X-168194Y4595804D01*
G01X930194Y4595804D01*
G01X930194Y4405804D01*
G01X932035Y4387112D01*
G01X937487Y4369138D01*
G01X946341Y4352573D01*
G01X958257Y4338053D01*
G01X972776Y4326138D01*
G01X989341Y4317284D01*
G01X1007315Y4311831D01*
G01X1026008Y4309990D01*
G01X1044700Y4311831D01*
G01X1062674Y4317284D01*
G01X1079239Y4326138D01*
G01X1093758Y4338053D01*
G01X1105674Y4352573D01*
G01X1114528Y4369138D01*
G01X1119980Y4387112D01*
G01X1121821Y4405804D01*
G01X1121821Y4595804D01*
G01X1119980Y4614496D01*
G01X1114528Y4632470D01*
G01X1105674Y4649035D01*
G01X1093758Y4663554D01*
G01X1079239Y4675470D01*
G01X1062674Y4684324D01*
G01X1044700Y4689776D01*
G01X1026008Y4691617D01*
G01X1007315Y4689776D01*
G01X989341Y4684324D01*
G01X972776Y4675470D01*
G01X958257Y4663554D01*
G01X946341Y4649035D01*
G01X937487Y4632470D01*
G01X932035Y4614496D01*
G01X930194Y4595804D01*
G01X930194Y4595804D01*
G01X-168194Y4595804D01*
G01X-170035Y4614496D01*
G01X-175487Y4632470D01*
G01X-184341Y4649035D01*
G01X-196257Y4663554D01*
G01X-210776Y4675470D01*
G01X-227341Y4684324D01*
G01X-245315Y4689776D01*
G01X-264008Y4691617D01*
G01X-282700Y4689776D01*
G01X-300674Y4684324D01*
G01X-317239Y4675470D01*
G01X-331758Y4663554D01*
G01X-343674Y4649035D01*
G01X-352528Y4632470D01*
G01X-357980Y4614496D01*
G01X-359821Y4595804D01*
G01X-359821Y4405804D01*
G01X-357963Y4387026D01*
G01X-352461Y4368977D01*
G01X-343529Y4352356D01*
G01X-331512Y4337808D01*
G01X-316877Y4325897D01*
G01X-300191Y4317085D01*
G01X-282102Y4311714D01*
G01X-744783Y4315043D01*
G01X-769919Y4326828D01*
G01X-793522Y4341445D01*
G01X-815273Y4358697D01*
G01X-834879Y4378351D01*
G01X-852078Y4400143D01*
G01X-857852Y4406580D01*
G01X-930812Y4470400D01*
G01X-854126Y4470400D01*
G01X-852210Y4446055D01*
G01X-846509Y4422309D01*
G01X-837163Y4399747D01*
G01X-824404Y4378926D01*
G01X-808544Y4360356D01*
G01X-789974Y4344496D01*
G01X-769153Y4331737D01*
G01X-746591Y4322391D01*
G01X-722845Y4316690D01*
G01X-698500Y4314774D01*
G01X-674155Y4316690D01*
G01X-650409Y4322391D01*
G01X-627847Y4331737D01*
G01X-607026Y4344496D01*
G01X-588456Y4360356D01*
G01X-572596Y4378926D01*
G01X-559837Y4399747D01*
G01X-550491Y4422309D01*
G01X-544790Y4446055D01*
G01X-542874Y4470400D01*
G01X-544790Y4494745D01*
G01X-550491Y4518491D01*
G01X-559837Y4541053D01*
G01X-572596Y4561874D01*
G01X-588456Y4580444D01*
G01X-607026Y4596304D01*
G01X-627847Y4609063D01*
G01X-650409Y4618409D01*
G01X-674155Y4624110D01*
G01X-698500Y4626026D01*
G01X-722845Y4624110D01*
G01X-746591Y4618409D01*
G01X-769153Y4609063D01*
G01X-789974Y4596304D01*
G01X-808544Y4580444D01*
G01X-824404Y4561874D01*
G01X-837163Y4541053D01*
G01X-846509Y4518491D01*
G01X-852210Y4494745D01*
G01X-854126Y4470400D01*
G01X-854126Y4470400D01*
G01X-930812Y4470400D01*
G01X-1355897Y4842229D01*
G01X-1372301Y4858774D01*
G01X-1386198Y4877474D01*
G01X-1397308Y4897952D01*
G01X-1405407Y4919798D01*
G01X-1410333Y4942569D01*
G01X-1411986Y4965809D01*
G01X-1411986Y5523796D01*
G01X-60800Y5523796D01*
G01X-60800Y5235796D01*
G01X-60800Y5235796D01*
G01X-59047Y5224729D01*
G01X-53960Y5214745D01*
G01X-46037Y5206822D01*
G01X-36053Y5201735D01*
G01X-24986Y5199982D01*
G01X87013Y5199982D01*
G01X98080Y5201735D01*
G01X108064Y5206822D01*
G01X115987Y5214745D01*
G01X121074Y5224729D01*
G01X122827Y5235796D01*
G01X122827Y5523796D01*
G01X122827Y5523796D01*
G01X189187Y5523796D01*
G01X189187Y5235796D01*
G01X190940Y5224729D01*
G01X196027Y5214745D01*
G01X203950Y5206822D01*
G01X213934Y5201735D01*
G01X225001Y5199982D01*
G01X337000Y5199982D01*
G01X348067Y5201735D01*
G01X358051Y5206822D01*
G01X365974Y5214745D01*
G01X371061Y5224729D01*
G01X372814Y5235796D01*
G01X372814Y5442457D01*
G01X389186Y5458830D01*
G01X389186Y5235796D01*
G01X390939Y5224729D01*
G01X396026Y5214745D01*
G01X403949Y5206822D01*
G01X413933Y5201735D01*
G01X425000Y5199982D01*
G01X536999Y5199982D01*
G01X548066Y5201735D01*
G01X558050Y5206822D01*
G01X565973Y5214745D01*
G01X571060Y5224729D01*
G01X572813Y5235796D01*
G01X572813Y5403000D01*
G01X639173Y5469360D01*
G01X639173Y5235796D01*
G01X640926Y5224729D01*
G01X646013Y5214745D01*
G01X653936Y5206822D01*
G01X663920Y5201735D01*
G01X674987Y5199982D01*
G01X786986Y5199982D01*
G01X798053Y5201735D01*
G01X808037Y5206822D01*
G01X815960Y5214745D01*
G01X821047Y5224729D01*
G01X822800Y5235796D01*
G01X822800Y5336286D01*
G01X932690Y5336286D01*
G01X945061Y5327188D01*
G01X959194Y5321179D01*
G01X974329Y5318582D01*
G01X989656Y5319536D01*
G01X1004353Y5323990D01*
G01X1017631Y5331706D01*
G01X1028778Y5342268D01*
G01X1037197Y5355111D01*
G01X1042436Y5369547D01*
G01X1044214Y5384800D01*
G01X1042436Y5400053D01*
G01X1037197Y5414489D01*
G01X1028778Y5427332D01*
G01X1017631Y5437894D01*
G01X1004353Y5445610D01*
G01X989656Y5450064D01*
G01X974329Y5451018D01*
G01X959194Y5448421D01*
G01X945061Y5442412D01*
G01X932690Y5433314D01*
G01X822800Y5433314D01*
G01X822800Y5503183D01*
G01X1295129Y5503183D01*
G01X1307686Y5504836D01*
G01X1319386Y5509682D01*
G01X1329434Y5517392D01*
G01X1584447Y5772405D01*
G01X1592157Y5782453D01*
G01X1597003Y5794153D01*
G01X1598656Y5806710D01*
G01X1598656Y5876831D01*
G01X1611666Y5889840D01*
G01X1619180Y5888006D01*
G01X1626890Y5887390D01*
G01X1712290Y5887390D01*
G01X1716684Y5887589D01*
G01X1772290Y5887589D01*
G01X1783357Y5889342D01*
G01X1793341Y5894429D01*
G01X1801264Y5902352D01*
G01X1806351Y5912336D01*
G01X1808104Y5923403D01*
G01X1808104Y5948404D01*
G01X1807384Y5955550D01*
G01X1805253Y5962409D01*
G01X1806172Y5964807D01*
G01X1904627Y5866352D01*
G01X1909465Y5860708D01*
G01X2662622Y5107551D01*
G01X2672670Y5099842D01*
G01X2684370Y5094995D01*
G01X2696927Y5093342D01*
G01X3178116Y5093342D01*
G01X3190672Y5094995D01*
G01X3202373Y5099842D01*
G01X3212421Y5107551D01*
G01X3269404Y5164535D01*
G01X3274862Y5171044D01*
G01X3279100Y5178405D01*
G01X3286926Y5175551D01*
G01X3295200Y5174582D01*
G01X3407199Y5174582D01*
G01X3418266Y5176335D01*
G01X3428250Y5181422D01*
G01X3436173Y5189345D01*
G01X3441260Y5199329D01*
G01X3443013Y5210396D01*
G01X3443013Y5498396D01*
G01X3441260Y5509464D01*
G01X3436173Y5519447D01*
G01X3428250Y5527371D01*
G01X3418266Y5532458D01*
G01X3407199Y5534210D01*
G01X3295200Y5534210D01*
G01X3284133Y5532458D01*
G01X3274149Y5527371D01*
G01X3266226Y5519447D01*
G01X3261139Y5509464D01*
G01X3259386Y5498396D01*
G01X3259386Y5339758D01*
G01X3243014Y5323386D01*
G01X3243014Y5498396D01*
G01X3241261Y5509464D01*
G01X3236174Y5519447D01*
G01X3228251Y5527371D01*
G01X3218267Y5532458D01*
G01X3207200Y5534210D01*
G01X3095201Y5534210D01*
G01X3084134Y5532458D01*
G01X3074150Y5527371D01*
G01X3066227Y5519447D01*
G01X3061140Y5509464D01*
G01X3059387Y5498396D01*
G01X3059387Y5356592D01*
G01X2993027Y5290232D01*
G01X2993027Y5498396D01*
G01X2991274Y5509464D01*
G01X2986187Y5519447D01*
G01X2978264Y5527371D01*
G01X2968280Y5532458D01*
G01X2957213Y5534210D01*
G01X2845214Y5534210D01*
G01X2834147Y5532458D01*
G01X2824163Y5527371D01*
G01X2816240Y5519447D01*
G01X2811153Y5509464D01*
G01X2809400Y5498396D01*
G01X2809400Y5231010D01*
G01X2733856Y5231010D01*
G01X2077476Y5887390D01*
G01X2157710Y5887390D01*
G01X2171545Y5889404D01*
G01X2267908Y5793041D01*
G01X2277956Y5785331D01*
G01X2289656Y5780485D01*
G01X2302213Y5778831D01*
G01X2716944Y5778831D01*
G01X2736369Y5759406D01*
G01X2738939Y5743320D01*
G01X2745352Y5728345D01*
G01X2755222Y5715386D01*
G01X2767955Y5705224D01*
G01X2782780Y5698473D01*
G01X2798804Y5695539D01*
G01X2815059Y5696601D01*
G01X2830565Y5701594D01*
G01X2844387Y5710216D01*
G01X2855689Y5721948D01*
G01X2863790Y5736081D01*
G01X2868201Y5751762D01*
G01X2881464Y5755214D01*
G01X2893734Y5761317D01*
G01X2904487Y5769813D01*
G01X2913265Y5780338D01*
G01X2919691Y5792442D01*
G01X2923492Y5805609D01*
G01X2924506Y5819275D01*
G01X2922689Y5832859D01*
G01X2918118Y5845779D01*
G01X2910990Y5857483D01*
G01X2914258Y5863102D01*
G01X3081486Y5863102D01*
G01X3081486Y5783102D01*
G01X3083431Y5771462D01*
G01X3089053Y5761086D01*
G01X3097743Y5753100D01*
G01X3089053Y5745114D01*
G01X3083431Y5734738D01*
G01X3081486Y5723098D01*
G01X3081486Y5643098D01*
G01X3083239Y5632031D01*
G01X3088326Y5622047D01*
G01X3096249Y5614124D01*
G01X3106233Y5609037D01*
G01X3117300Y5607284D01*
G01X3207300Y5607284D01*
G01X3218367Y5609037D01*
G01X3228351Y5614124D01*
G01X3236274Y5622047D01*
G01X3241361Y5632031D01*
G01X3243114Y5643098D01*
G01X3243114Y5723098D01*
G01X3241169Y5734738D01*
G01X3235547Y5745114D01*
G01X3226857Y5753100D01*
G01X3235547Y5761086D01*
G01X3241169Y5771462D01*
G01X3243114Y5783102D01*
G01X3243114Y5863102D01*
G01X3241572Y5873498D01*
G01X3237079Y5882998D01*
G01X3230022Y5890785D01*
G01X3221008Y5896189D01*
G01X3210814Y5898744D01*
G01X3210814Y5949190D01*
G01X3219912Y5961561D01*
G01X3225921Y5975694D01*
G01X3228518Y5990829D01*
G01X3227564Y6006156D01*
G01X3223110Y6020853D01*
G01X3215394Y6034131D01*
G01X3204832Y6045278D01*
G01X3191989Y6053697D01*
G01X3177553Y6058936D01*
G01X3162300Y6060714D01*
G01X3147047Y6058936D01*
G01X3132611Y6053697D01*
G01X3119768Y6045278D01*
G01X3109206Y6034131D01*
G01X3101490Y6020853D01*
G01X3097036Y6006156D01*
G01X3096082Y5990829D01*
G01X3098679Y5975694D01*
G01X3104688Y5961561D01*
G01X3113786Y5949190D01*
G01X3113786Y5898744D01*
G01X3103592Y5896189D01*
G01X3094578Y5890785D01*
G01X3087521Y5882998D01*
G01X3083028Y5873498D01*
G01X3081486Y5863102D01*
G01X3081486Y5863102D01*
G01X2914258Y5863102D01*
G01X2918016Y5869562D01*
G01X2922355Y5882846D01*
G01X2923814Y5896744D01*
G01X2922328Y5910639D01*
G01X2917964Y5923914D01*
G01X2910914Y5935980D01*
G01X2918884Y5950188D01*
G01X2923149Y5965910D01*
G01X2923452Y5982197D01*
G01X2919776Y5998067D01*
G01X2912342Y6012562D01*
G01X2901598Y6024807D01*
G01X2888193Y6034063D01*
G01X2872936Y6039772D01*
G01X2856748Y6041590D01*
G01X2840605Y6039406D01*
G01X2825481Y6033352D01*
G01X2812290Y6023794D01*
G01X2801600Y6023794D01*
G01X2789044Y6022141D01*
G01X2777343Y6017294D01*
G01X2767295Y6009584D01*
G01X2762525Y6004814D01*
G01X2358646Y6004814D01*
G01X2265214Y6098246D01*
G01X2361877Y6098246D01*
G01X2375200Y6100111D01*
G01X2387498Y6105563D01*
G01X4050901Y6105563D01*
G01X4162331Y5994133D01*
G01X4037674Y5994133D01*
G01X4037674Y5999500D01*
G01X4035921Y6010567D01*
G01X4030834Y6020551D01*
G01X4022911Y6028474D01*
G01X4012927Y6033561D01*
G01X4001860Y6035314D01*
G01X3921213Y6035314D01*
G01X3911599Y6034000D01*
G01X3902691Y6030153D01*
G01X3895142Y6024056D01*
G01X3889507Y6016156D01*
G01X3886200Y6007034D01*
G01X3882893Y6016156D01*
G01X3877258Y6024056D01*
G01X3869709Y6030153D01*
G01X3860801Y6034000D01*
G01X3851187Y6035314D01*
G01X3770540Y6035314D01*
G01X3760492Y6033876D01*
G01X3751251Y6029676D01*
G01X3743560Y6023053D01*
G01X3738035Y6014537D01*
G01X3735122Y6004814D01*
G01X3664710Y6004814D01*
G01X3652339Y6013912D01*
G01X3638206Y6019921D01*
G01X3623071Y6022518D01*
G01X3607744Y6021564D01*
G01X3593047Y6017110D01*
G01X3579769Y6009394D01*
G01X3568622Y5998832D01*
G01X3560203Y5985989D01*
G01X3554964Y5971553D01*
G01X3553186Y5956300D01*
G01X3554964Y5941047D01*
G01X3560203Y5926611D01*
G01X3568622Y5913768D01*
G01X3579769Y5903206D01*
G01X3593047Y5895490D01*
G01X3607744Y5891036D01*
G01X3623071Y5890082D01*
G01X3638206Y5892679D01*
G01X3652339Y5898688D01*
G01X3664710Y5907786D01*
G01X3735122Y5907786D01*
G01X3737744Y5898710D01*
G01X3742648Y5890635D01*
G01X3749492Y5884123D01*
G01X3757801Y5879628D01*
G01X3749280Y5872524D01*
G01X3743342Y5863153D01*
G01X3740556Y5852414D01*
G01X3672559Y5852414D01*
G01X3663773Y5865786D01*
G01X3652040Y5876664D01*
G01X3638042Y5884415D01*
G01X3622596Y5888588D01*
G01X3606600Y5888940D01*
G01X3590985Y5885450D01*
G01X3576661Y5878322D01*
G01X3564460Y5867971D01*
G01X3555095Y5854999D01*
G01X3549108Y5840161D01*
G01X3546850Y5824321D01*
G01X3548452Y5808401D01*
G01X3553819Y5793329D01*
G01X3562641Y5779980D01*
G01X3574403Y5769133D01*
G01X3588421Y5761419D01*
G01X3603878Y5757287D01*
G01X3619875Y5756978D01*
G01X3632200Y5755386D01*
G01X3740556Y5755386D01*
G01X3743111Y5745192D01*
G01X3748515Y5736178D01*
G01X3756302Y5729121D01*
G01X3765802Y5724628D01*
G01X3776198Y5723086D01*
G01X3856198Y5723086D01*
G01X3867838Y5725031D01*
G01X3878214Y5730653D01*
G01X3886200Y5739343D01*
G01X3894186Y5730653D01*
G01X3904562Y5725031D01*
G01X3916202Y5723086D01*
G01X3996202Y5723086D01*
G01X4007269Y5724839D01*
G01X4017253Y5729926D01*
G01X4025176Y5737849D01*
G01X4030263Y5747833D01*
G01X4032016Y5758900D01*
G01X4032016Y5848900D01*
G01X4030832Y5858032D01*
G01X4027359Y5866560D01*
G01X4021826Y5873921D01*
G01X4014599Y5879628D01*
G01X4022427Y5883780D01*
G01X4028996Y5889727D01*
G01X4033904Y5897105D01*
G01X4205583Y5897105D01*
G01X4205583Y5880607D01*
G01X4207396Y5869358D01*
G01X4205583Y5858109D01*
G01X4205583Y5803108D01*
G01X4206151Y5796755D01*
G01X4207837Y5790603D01*
G01X4206151Y5784452D01*
G01X4205583Y5778099D01*
G01X4205583Y5723098D01*
G01X4207395Y5711851D01*
G01X4212647Y5701742D01*
G01X4220807Y5693794D01*
G01X4231051Y5688811D01*
G01X4229619Y5686616D01*
G01X4202611Y5686616D01*
G01X4195852Y5700261D01*
G01X4186160Y5712004D01*
G01X4174044Y5721228D01*
G01X4160143Y5727444D01*
G01X4145191Y5730326D01*
G01X4129976Y5729721D01*
G01X4115300Y5725662D01*
G01X4101937Y5718362D01*
G01X4090591Y5708206D01*
G01X4081861Y5695730D01*
G01X4076207Y5681592D01*
G01X4073927Y5666536D01*
G01X3810301Y5402910D01*
G01X3693000Y5402910D01*
G01X3693000Y5498396D01*
G01X3691247Y5509464D01*
G01X3686160Y5519447D01*
G01X3678237Y5527371D01*
G01X3668253Y5532458D01*
G01X3657186Y5534210D01*
G01X3545187Y5534210D01*
G01X3534120Y5532458D01*
G01X3524136Y5527371D01*
G01X3516213Y5519447D01*
G01X3511126Y5509464D01*
G01X3509373Y5498396D01*
G01X3509373Y5210396D01*
G01X3511126Y5199329D01*
G01X3516213Y5189345D01*
G01X3524136Y5181422D01*
G01X3534120Y5176335D01*
G01X3545187Y5174582D01*
G01X3657186Y5174582D01*
G01X3668253Y5176335D01*
G01X3678237Y5181422D01*
G01X3686160Y5189345D01*
G01X3691247Y5199329D01*
G01X3693000Y5210396D01*
G01X3693000Y5305882D01*
G01X3830396Y5305882D01*
G01X3842953Y5307535D01*
G01X3854653Y5312382D01*
G01X3864701Y5320092D01*
G01X4141196Y5596587D01*
G01X4153268Y5591370D01*
G01X4166299Y5589588D01*
G01X4229619Y5589588D01*
G01X4240878Y5575208D01*
G01X4254787Y5563372D01*
G01X4270782Y5554559D01*
G01X4288218Y5549124D01*
G01X4306388Y5547288D01*
G01X4396388Y5547288D01*
G01X4414959Y5549207D01*
G01X4432745Y5554883D01*
G01X4448994Y5564076D01*
G01X4463020Y5576398D01*
G01X4474230Y5591327D01*
G01X4482150Y5608234D01*
G01X4486445Y5626402D01*
G01X4486935Y5645066D01*
G01X4483597Y5663434D01*
G01X4476574Y5680733D01*
G01X4466162Y5696229D01*
G01X4452801Y5709269D01*
G01X4437055Y5719301D01*
G01X4449063Y5727479D01*
G01X4459149Y5737935D01*
G01X4466889Y5750229D01*
G01X4471958Y5763845D01*
G01X4474141Y5778208D01*
G01X4473347Y5792714D01*
G01X4469609Y5806753D01*
G01X4463086Y5819734D01*
G01X4454050Y5831110D01*
G01X4442883Y5840403D01*
G01X4430055Y5847222D01*
G01X4416105Y5851279D01*
G01X4401620Y5852404D01*
G01X4387211Y5850550D01*
G01X4387211Y5858109D01*
G01X4385399Y5869358D01*
G01X4387211Y5880607D01*
G01X4387211Y5910607D01*
G01X4385785Y5920613D01*
G01X4387211Y5930619D01*
G01X4387211Y5960680D01*
G01X4397258Y5968389D01*
G01X4413602Y5984733D01*
G01X4421312Y5994780D01*
G01X4426158Y6006481D01*
G01X4427811Y6019037D01*
G01X4427811Y6072150D01*
G01X4426158Y6084707D01*
G01X4421312Y6096407D01*
G01X4413602Y6106455D01*
G01X4397258Y6122798D01*
G01X4387211Y6130508D01*
G01X4387211Y6160593D01*
G01X4385785Y6170600D01*
G01X4387211Y6180606D01*
G01X4387211Y6210606D01*
G01X4385785Y6220612D01*
G01X4387211Y6230619D01*
G01X4387211Y6260619D01*
G01X4385399Y6271868D01*
G01X4387211Y6283117D01*
G01X4387211Y6290676D01*
G01X4401618Y6288821D01*
G01X4416101Y6289946D01*
G01X4430049Y6294001D01*
G01X4442877Y6300818D01*
G01X4454043Y6310108D01*
G01X4463079Y6321482D01*
G01X4469605Y6334459D01*
G01X4473344Y6348496D01*
G01X4474142Y6363000D01*
G01X4471963Y6377362D01*
G01X4466899Y6390977D01*
G01X4459164Y6403272D01*
G01X4449083Y6413730D01*
G01X4437080Y6421911D01*
G01X4452820Y6431947D01*
G01X4466176Y6444989D01*
G01X4476584Y6460486D01*
G01X4483602Y6477784D01*
G01X4486936Y6496151D01*
G01X4486443Y6514812D01*
G01X4482146Y6532978D01*
G01X4474225Y6549882D01*
G01X4463014Y6564808D01*
G01X4448989Y6577128D01*
G01X4432741Y6586319D01*
G01X4414957Y6591994D01*
G01X4396388Y6593912D01*
G01X4306388Y6593912D01*
G01X4288644Y6592162D01*
G01X4271584Y6586978D01*
G01X4255865Y6578561D01*
G01X4242094Y6567234D01*
G01X4230802Y6553436D01*
G01X4222423Y6537696D01*
G01X4217281Y6520623D01*
G01X4215575Y6502875D01*
G01X4217369Y6485135D01*
G01X4222595Y6468087D01*
G01X4231051Y6452389D01*
G01X4220807Y6447406D01*
G01X4212647Y6439458D01*
G01X4207395Y6429349D01*
G01X4205583Y6418102D01*
G01X4205583Y6363101D01*
G01X4206150Y6356755D01*
G01X4207833Y6350610D01*
G01X4206150Y6344464D01*
G01X4205583Y6338118D01*
G01X4205583Y6337490D01*
G01X4194887Y6338684D01*
G01X4034961Y6338684D01*
G01X4032048Y6348407D01*
G01X4026524Y6356923D01*
G01X4018832Y6363546D01*
G01X4009592Y6367746D01*
G01X3999544Y6369184D01*
G01X3918896Y6369184D01*
G01X3909282Y6367870D01*
G01X3900374Y6364023D01*
G01X3892826Y6357926D01*
G01X3887191Y6350026D01*
G01X3883884Y6340904D01*
G01X3880576Y6350026D01*
G01X3874941Y6357926D01*
G01X3867393Y6364023D01*
G01X3858485Y6367870D01*
G01X3848871Y6369184D01*
G01X3768223Y6369184D01*
G01X3758175Y6367746D01*
G01X3748935Y6363546D01*
G01X3741243Y6356923D01*
G01X3735719Y6348407D01*
G01X3732806Y6338684D01*
G01X3621978Y6338684D01*
G01X3612113Y6349328D01*
G01X3600170Y6357571D01*
G01X3586719Y6363019D01*
G01X3572405Y6365411D01*
G01X3557913Y6364631D01*
G01X3543938Y6360718D01*
G01X3531149Y6353858D01*
G01X3520159Y6344381D01*
G01X3511493Y6332740D01*
G01X3505567Y6319493D01*
G01X3502665Y6305274D01*
G01X3502925Y6290764D01*
G01X3506335Y6276658D01*
G01X3512732Y6263631D01*
G01X3521809Y6252308D01*
G01X3533133Y6243231D01*
G01X2352361Y6243231D01*
G01X2339038Y6241366D01*
G01X2326740Y6235914D01*
G01X2167699Y6235914D01*
G01X2168124Y6241411D01*
G01X2168124Y6266412D01*
G01X2167405Y6273551D01*
G01X2165278Y6280404D01*
G01X2167405Y6287257D01*
G01X2168124Y6294396D01*
G01X2168124Y6319397D01*
G01X2167559Y6325729D01*
G01X2165884Y6331862D01*
G01X2259856Y6425833D01*
G01X2265573Y6418790D01*
G01X2272877Y6413408D01*
G01X2281299Y6410035D01*
G01X2290298Y6408886D01*
G01X2370298Y6408886D01*
G01X2381938Y6410831D01*
G01X2392314Y6416453D01*
G01X2400300Y6425143D01*
G01X2406098Y6418303D01*
G01X2413414Y6413118D01*
G01X2421788Y6409913D01*
G01X2421788Y6404387D01*
G01X2413414Y6401182D01*
G01X2406098Y6395997D01*
G01X2400300Y6389157D01*
G01X2392314Y6397847D01*
G01X2381938Y6403469D01*
G01X2370298Y6405414D01*
G01X2290298Y6405414D01*
G01X2279231Y6403661D01*
G01X2269247Y6398574D01*
G01X2261324Y6390651D01*
G01X2256237Y6380667D01*
G01X2254484Y6369600D01*
G01X2254484Y6279600D01*
G01X2256237Y6268533D01*
G01X2261324Y6258549D01*
G01X2269247Y6250626D01*
G01X2279231Y6245539D01*
G01X2290298Y6243786D01*
G01X2370298Y6243786D01*
G01X2381938Y6245731D01*
G01X2392314Y6251353D01*
G01X2400300Y6260043D01*
G01X2408286Y6251353D01*
G01X2418662Y6245731D01*
G01X2430302Y6243786D01*
G01X2510302Y6243786D01*
G01X2521369Y6245539D01*
G01X2531353Y6250626D01*
G01X2539276Y6258549D01*
G01X2544363Y6268533D01*
G01X2546116Y6279600D01*
G01X2546116Y6369600D01*
G01X2544153Y6381296D01*
G01X2538476Y6391710D01*
G01X2529711Y6399699D01*
G01X2518816Y6404387D01*
G01X2518816Y6409913D01*
G01X2529711Y6414601D01*
G01X2538476Y6422590D01*
G01X2544153Y6433004D01*
G01X2546116Y6444700D01*
G01X2546116Y6534700D01*
G01X2544363Y6545767D01*
G01X2539276Y6555751D01*
G01X2531353Y6563674D01*
G01X2521369Y6568761D01*
G01X2510302Y6570514D01*
G01X2458098Y6570514D01*
G01X2431707Y6596905D01*
G01X2421659Y6604614D01*
G01X2409959Y6609461D01*
G01X2397402Y6611114D01*
G01X2278741Y6611114D01*
G01X2266185Y6609461D01*
G01X2254484Y6604614D01*
G01X2244437Y6596905D01*
G01X2228093Y6580561D01*
G01X2220383Y6570513D01*
G01X2215537Y6558813D01*
G01X2213884Y6546256D01*
G01X2213884Y6517079D01*
G01X2052215Y6355410D01*
G01X1871294Y6355410D01*
G01X1858738Y6353757D01*
G01X1847037Y6348911D01*
G01X1836990Y6341201D01*
G01X1808104Y6312315D01*
G01X1808104Y6319397D01*
G01X1806351Y6330464D01*
G01X1801264Y6340448D01*
G01X1793341Y6348371D01*
G01X1783357Y6353458D01*
G01X1772290Y6355211D01*
G01X1732585Y6355211D01*
G01X1678091Y6409705D01*
G01X1668043Y6417414D01*
G01X1656343Y6422261D01*
G01X1643786Y6423914D01*
G01X1517244Y6423914D01*
G01X1514689Y6434108D01*
G01X1509285Y6443122D01*
G01X1501498Y6450179D01*
G01X1491998Y6454672D01*
G01X1481602Y6456214D01*
G01X1451021Y6456214D01*
G01X1494304Y6499497D01*
G01X1705811Y6499497D01*
G01X1718367Y6501150D01*
G01X1730068Y6505997D01*
G01X1740115Y6513707D01*
G01X1788825Y6562417D01*
G01X1796535Y6572464D01*
G01X1801381Y6584165D01*
G01X1803034Y6596721D01*
G01X1803034Y6892765D01*
G01X1801381Y6905322D01*
G01X1796535Y6917022D01*
G01X1788825Y6927070D01*
G01X1762434Y6953461D01*
G01X1762434Y7021214D01*
G01X1761274Y7030256D01*
G01X1757869Y7038712D01*
G01X1752439Y7046034D01*
G01X1745336Y7051748D01*
G01X1745336Y7148508D01*
G01X1753504Y7156746D01*
G01X1758610Y7167162D01*
G01X1774308Y7158706D01*
G01X1791355Y7153480D01*
G01X1809095Y7151686D01*
G01X1826844Y7153393D01*
G01X1843917Y7158535D01*
G01X1859656Y7166913D01*
G01X1873455Y7178206D01*
G01X1884781Y7191977D01*
G01X1893199Y7207695D01*
G01X1898382Y7224756D01*
G01X1900133Y7242500D01*
G01X1900133Y7332500D01*
G01X1898214Y7351070D01*
G01X1892538Y7368856D01*
G01X1884909Y7382340D01*
G01X2890487Y7382340D01*
G01X2890487Y7153167D01*
G01X2892141Y7140611D01*
G01X2896987Y7128910D01*
G01X2904697Y7118863D01*
G01X3172186Y6851374D01*
G01X3172186Y6772953D01*
G01X3173624Y6762905D01*
G01X3177824Y6753664D01*
G01X3184447Y6745973D01*
G01X3192963Y6740449D01*
G01X3202686Y6737535D01*
G01X3202686Y6603623D01*
G01X3193588Y6591252D01*
G01X3187579Y6577119D01*
G01X3184982Y6561984D01*
G01X3185936Y6546657D01*
G01X3190390Y6531960D01*
G01X3198106Y6518682D01*
G01X3208668Y6507535D01*
G01X3221511Y6499116D01*
G01X3235947Y6493877D01*
G01X3251200Y6492099D01*
G01X3266453Y6493877D01*
G01X3280889Y6499116D01*
G01X3293732Y6507535D01*
G01X3304294Y6518682D01*
G01X3312010Y6531960D01*
G01X3316464Y6546657D01*
G01X3317418Y6561984D01*
G01X3314821Y6577119D01*
G01X3308812Y6591252D01*
G01X3299714Y6603623D01*
G01X3299714Y6737535D01*
G01X3309437Y6740449D01*
G01X3317953Y6745973D01*
G01X3324576Y6753664D01*
G01X3328776Y6762905D01*
G01X3330214Y6772953D01*
G01X3330214Y6853600D01*
G01X3328900Y6863214D01*
G01X3325053Y6872122D01*
G01X3318956Y6879671D01*
G01X3311056Y6885306D01*
G01X3301934Y6888613D01*
G01X3311056Y6891921D01*
G01X3318956Y6897555D01*
G01X3325053Y6905104D01*
G01X3328900Y6914012D01*
G01X3330214Y6923626D01*
G01X3330214Y7004273D01*
G01X3328461Y7015340D01*
G01X3323374Y7025324D01*
G01X3315451Y7033247D01*
G01X3305467Y7038334D01*
G01X3294400Y7040087D01*
G01X3208000Y7040087D01*
G01X3196933Y7038334D01*
G01X3186949Y7033247D01*
G01X3179026Y7025324D01*
G01X3173939Y7015340D01*
G01X3172186Y7004273D01*
G01X3172186Y6988592D01*
G01X2987515Y7173262D01*
G01X2987515Y7173949D01*
G01X3004556Y7168859D01*
G01X3022263Y7167188D01*
G01X3039955Y7169000D01*
G01X3056955Y7174226D01*
G01X3072611Y7182664D01*
G01X3077594Y7172420D01*
G01X3085542Y7164260D01*
G01X3095651Y7159008D01*
G01X3106898Y7157197D01*
G01X3161899Y7157197D01*
G01X3168245Y7157763D01*
G01X3174390Y7159446D01*
G01X3180536Y7157763D01*
G01X3186882Y7157197D01*
G01X3241883Y7157197D01*
G01X3253132Y7159009D01*
G01X3264381Y7157197D01*
G01X3294381Y7157197D01*
G01X3304388Y7158623D01*
G01X3314394Y7157197D01*
G01X3329686Y7157197D01*
G01X3329686Y7144510D01*
G01X3320962Y7132787D01*
G01X3315017Y7119437D01*
G01X3312141Y7105110D01*
G01X3312472Y7090500D01*
G01X3315996Y7076318D01*
G01X3322539Y7063252D01*
G01X3331786Y7051936D01*
G01X3343287Y7042921D01*
G01X3356483Y7036643D01*
G01X3370733Y7033408D01*
G01X3385347Y7033372D01*
G01X3399613Y7036538D01*
G01X3409652Y7024959D01*
G01X3422081Y7015994D01*
G01X3436237Y7010122D01*
G01X3451362Y7007656D01*
G01X3466649Y7008727D01*
G01X3481283Y7013279D01*
G01X3494480Y7021069D01*
G01X3505537Y7031680D01*
G01X3513863Y7044546D01*
G01X3519014Y7058980D01*
G01X3520713Y7074210D01*
G01X3518871Y7089424D01*
G01X3513586Y7103809D01*
G01X3505140Y7116596D01*
G01X3505963Y7116596D01*
G01X3518519Y7118249D01*
G01X3530220Y7123096D01*
G01X3540267Y7130806D01*
G01X3556611Y7147149D01*
G01X3564320Y7157197D01*
G01X3594381Y7157197D01*
G01X3604387Y7158623D01*
G01X3614393Y7157197D01*
G01X3644393Y7157197D01*
G01X3655642Y7159009D01*
G01X3666891Y7157197D01*
G01X3721892Y7157197D01*
G01X3723386Y7157228D01*
G01X3723386Y7021557D01*
G01X3713192Y7019002D01*
G01X3704178Y7013599D01*
G01X3697121Y7005811D01*
G01X3692628Y6996311D01*
G01X3691086Y6985915D01*
G01X3691086Y6905916D01*
G01X3693031Y6894275D01*
G01X3698653Y6883899D01*
G01X3707343Y6875913D01*
G01X3698653Y6867927D01*
G01X3693031Y6857551D01*
G01X3691086Y6845911D01*
G01X3691086Y6830877D01*
G01X3674382Y6847581D01*
G01X3667737Y6853134D01*
G01X3660210Y6857416D01*
G01X3657305Y6868196D01*
G01X3651221Y6877558D01*
G01X3642550Y6884592D01*
G01X3632134Y6888613D01*
G01X3641256Y6891921D01*
G01X3649156Y6897555D01*
G01X3655253Y6905104D01*
G01X3659100Y6914012D01*
G01X3660414Y6923626D01*
G01X3660414Y7004273D01*
G01X3658661Y7015340D01*
G01X3653574Y7025324D01*
G01X3645651Y7033247D01*
G01X3635667Y7038334D01*
G01X3624600Y7040087D01*
G01X3538200Y7040087D01*
G01X3527133Y7038334D01*
G01X3517149Y7033247D01*
G01X3509226Y7025324D01*
G01X3504139Y7015340D01*
G01X3502386Y7004273D01*
G01X3502386Y6923626D01*
G01X3503700Y6914012D01*
G01X3507547Y6905104D01*
G01X3513644Y6897555D01*
G01X3521544Y6891921D01*
G01X3530666Y6888613D01*
G01X3521544Y6885306D01*
G01X3513644Y6879671D01*
G01X3507547Y6872122D01*
G01X3503700Y6863214D01*
G01X3502386Y6853600D01*
G01X3502386Y6853600D01*
G01X3502386Y6772953D01*
G01X3503824Y6762905D01*
G01X3508024Y6753664D01*
G01X3514647Y6745973D01*
G01X3523163Y6740449D01*
G01X3532886Y6737535D01*
G01X3532886Y6590923D01*
G01X3523788Y6578552D01*
G01X3517779Y6564419D01*
G01X3515182Y6549284D01*
G01X3516136Y6533957D01*
G01X3520590Y6519260D01*
G01X3528306Y6505982D01*
G01X3538868Y6494835D01*
G01X3551711Y6486416D01*
G01X3566147Y6481177D01*
G01X3581400Y6479399D01*
G01X3596653Y6481177D01*
G01X3611089Y6486416D01*
G01X3623932Y6494835D01*
G01X3634494Y6505982D01*
G01X3642210Y6519260D01*
G01X3646664Y6533957D01*
G01X3647618Y6549284D01*
G01X3645021Y6564419D01*
G01X3639012Y6578552D01*
G01X3629914Y6590923D01*
G01X3629914Y6737535D01*
G01X3636521Y6739181D01*
G01X3642697Y6742048D01*
G01X3681039Y6703706D01*
G01X3691087Y6695996D01*
G01X3702787Y6691150D01*
G01X3715344Y6689497D01*
G01X3828456Y6689497D01*
G01X3841013Y6691150D01*
G01X3852713Y6695996D01*
G01X3862761Y6703706D01*
G01X4022105Y6863050D01*
G01X4029814Y6873097D01*
G01X4034661Y6884798D01*
G01X4036314Y6897354D01*
G01X4036314Y7364338D01*
G01X4034661Y7376894D01*
G01X4029814Y7388595D01*
G01X4022105Y7398643D01*
G01X3955541Y7465206D01*
G01X3945494Y7472916D01*
G01X3933793Y7477762D01*
G01X3921237Y7479415D01*
G01X3788738Y7479415D01*
G01X3775573Y7481236D01*
G01X3704648Y7481236D01*
G01X3692092Y7479583D01*
G01X3680391Y7474736D01*
G01X3670344Y7467026D01*
G01X3547095Y7343778D01*
G01X3542772Y7338824D01*
G01X3514308Y7338824D01*
G01X3506598Y7348871D01*
G01X3490255Y7365215D01*
G01X3480207Y7372925D01*
G01X3468507Y7377771D01*
G01X3455950Y7379424D01*
G01X3402837Y7379424D01*
G01X3390281Y7377771D01*
G01X3378580Y7372925D01*
G01X3368533Y7365215D01*
G01X3352189Y7348871D01*
G01X3344479Y7338824D01*
G01X3327895Y7338824D01*
G01X3327895Y7350911D01*
G01X3326242Y7363468D01*
G01X3321396Y7375168D01*
G01X3313686Y7385216D01*
G01X3231876Y7467026D01*
G01X3221828Y7474736D01*
G01X3210127Y7479583D01*
G01X3197571Y7481236D01*
G01X3133201Y7481236D01*
G01X3120036Y7479415D01*
G01X2987563Y7479415D01*
G01X2975007Y7477762D01*
G01X2963306Y7472916D01*
G01X2953259Y7465206D01*
G01X2904697Y7416644D01*
G01X2896987Y7406597D01*
G01X2892141Y7394896D01*
G01X2890487Y7382340D01*
G01X1884909Y7382340D01*
G01X1883345Y7385106D01*
G01X1871023Y7399132D01*
G01X1856093Y7410341D01*
G01X1839187Y7418261D01*
G01X1821018Y7422557D01*
G01X1802355Y7423046D01*
G01X1783986Y7419709D01*
G01X1766688Y7412685D01*
G01X1751191Y7402273D01*
G01X1738152Y7388912D01*
G01X1728120Y7373167D01*
G01X1719942Y7385175D01*
G01X1709486Y7395261D01*
G01X1697191Y7403001D01*
G01X1683576Y7408069D01*
G01X1669213Y7410252D01*
G01X1654707Y7409458D01*
G01X1640668Y7405721D01*
G01X1627687Y7399197D01*
G01X1616310Y7390162D01*
G01X1607017Y7378995D01*
G01X1600199Y7366166D01*
G01X1596141Y7352216D01*
G01X1595016Y7337732D01*
G01X1596871Y7323323D01*
G01X1589312Y7323323D01*
G01X1578063Y7321510D01*
G01X1566814Y7323323D01*
G01X1557752Y7323323D01*
G01X1562759Y7336532D01*
G01X1564855Y7350503D01*
G01X1563944Y7364601D01*
G01X1560068Y7378186D01*
G01X1553401Y7390641D01*
G01X1544248Y7401402D01*
G01X1533024Y7409980D01*
G01X1520236Y7415985D01*
G01X1506467Y7419146D01*
G01X1492341Y7419318D01*
G01X1465655Y7446005D01*
G01X1455607Y7453715D01*
G01X1443907Y7458561D01*
G01X1431350Y7460214D01*
G01X1382970Y7460214D01*
G01X1370413Y7458561D01*
G01X1358713Y7453715D01*
G01X1348665Y7446005D01*
G01X1274609Y7371949D01*
G01X1266900Y7361901D01*
G01X1262053Y7350201D01*
G01X1260400Y7337644D01*
G01X1260400Y7323323D01*
G01X1247534Y7323323D01*
G01X1247534Y7338191D01*
G01X1245881Y7350747D01*
G01X1241035Y7362448D01*
G01X1233325Y7372496D01*
G01X1154296Y7451525D01*
G01X1144248Y7459234D01*
G01X1132548Y7464081D01*
G01X1119991Y7465734D01*
G01X1055622Y7465734D01*
G01X1042457Y7463914D01*
G01X909984Y7463914D01*
G01X897427Y7462261D01*
G01X885727Y7457414D01*
G01X875679Y7449704D01*
G01X827117Y7401143D01*
G01X819408Y7391095D01*
G01X814561Y7379394D01*
G01X812908Y7366838D01*
G01X812908Y7201166D01*
G01X814561Y7188609D01*
G01X819408Y7176909D01*
G01X827117Y7166861D01*
G01X1120006Y6873972D01*
G01X1120006Y6795551D01*
G01X1121445Y6785503D01*
G01X1125644Y6776263D01*
G01X1132268Y6768571D01*
G01X1140783Y6763047D01*
G01X1150506Y6760134D01*
G01X1150506Y6677022D01*
G01X1141408Y6664650D01*
G01X1135399Y6650518D01*
G01X1132803Y6635382D01*
G01X1133757Y6620055D01*
G01X1138211Y6605359D01*
G01X1145926Y6592081D01*
G01X1156488Y6580933D01*
G01X1169332Y6572515D01*
G01X1183767Y6567276D01*
G01X1199020Y6565497D01*
G01X1214274Y6567276D01*
G01X1228709Y6572515D01*
G01X1241553Y6580933D01*
G01X1252115Y6592081D01*
G01X1259830Y6605359D01*
G01X1264284Y6620055D01*
G01X1265238Y6635382D01*
G01X1262641Y6650518D01*
G01X1256633Y6664650D01*
G01X1247534Y6677022D01*
G01X1247534Y6760134D01*
G01X1257258Y6763047D01*
G01X1265773Y6768571D01*
G01X1272397Y6776263D01*
G01X1276596Y6785503D01*
G01X1278035Y6795551D01*
G01X1278035Y6876199D01*
G01X1276720Y6885813D01*
G01X1272873Y6894721D01*
G01X1266776Y6902269D01*
G01X1258877Y6907904D01*
G01X1249755Y6911211D01*
G01X1258877Y6914519D01*
G01X1266776Y6920154D01*
G01X1272873Y6927702D01*
G01X1276720Y6936610D01*
G01X1278035Y6946224D01*
G01X1278035Y7026872D01*
G01X1276282Y7037939D01*
G01X1271195Y7047923D01*
G01X1263272Y7055846D01*
G01X1253288Y7060933D01*
G01X1242221Y7062686D01*
G01X1155820Y7062686D01*
G01X1144753Y7060933D01*
G01X1134769Y7055846D01*
G01X1126846Y7047923D01*
G01X1121759Y7037939D01*
G01X1120006Y7026872D01*
G01X1120006Y7011191D01*
G01X974389Y7156808D01*
G01X985041Y7161326D01*
G01X995031Y7167162D01*
G01X1000015Y7156919D01*
G01X1007963Y7148758D01*
G01X1018071Y7143507D01*
G01X1029318Y7141695D01*
G01X1084319Y7141695D01*
G01X1090665Y7142262D01*
G01X1096811Y7143944D01*
G01X1102956Y7142262D01*
G01X1109303Y7141695D01*
G01X1164304Y7141695D01*
G01X1175553Y7143507D01*
G01X1186802Y7141695D01*
G01X1216802Y7141695D01*
G01X1226808Y7143121D01*
G01X1236814Y7141695D01*
G01X1266900Y7141695D01*
G01X1274609Y7131648D01*
G01X1290953Y7115304D01*
G01X1301001Y7107594D01*
G01X1312701Y7102748D01*
G01X1325258Y7101095D01*
G01X1378371Y7101095D01*
G01X1390927Y7102748D01*
G01X1402628Y7107594D01*
G01X1412675Y7115304D01*
G01X1429019Y7131648D01*
G01X1436728Y7141695D01*
G01X1453287Y7141695D01*
G01X1453287Y7093524D01*
G01X1435149Y7075386D01*
G01X1422520Y7075386D01*
G01X1411453Y7073633D01*
G01X1401469Y7068546D01*
G01X1393546Y7060623D01*
G01X1388459Y7050639D01*
G01X1386706Y7039572D01*
G01X1386706Y6958924D01*
G01X1388021Y6949310D01*
G01X1391868Y6940402D01*
G01X1397965Y6932854D01*
G01X1405864Y6927219D01*
G01X1414986Y6923911D01*
G01X1405864Y6920604D01*
G01X1397965Y6914969D01*
G01X1391868Y6907421D01*
G01X1388021Y6898513D01*
G01X1386706Y6888899D01*
G01X1386706Y6808251D01*
G01X1388459Y6797184D01*
G01X1393546Y6787200D01*
G01X1401469Y6779277D01*
G01X1411453Y6774190D01*
G01X1422520Y6772437D01*
G01X1508921Y6772437D01*
G01X1519988Y6774190D01*
G01X1529972Y6779277D01*
G01X1537895Y6787200D01*
G01X1542982Y6797184D01*
G01X1544735Y6808251D01*
G01X1544735Y6888899D01*
G01X1543420Y6898513D01*
G01X1539573Y6907421D01*
G01X1533476Y6914969D01*
G01X1525577Y6920604D01*
G01X1516455Y6923911D01*
G01X1525577Y6927219D01*
G01X1533476Y6932854D01*
G01X1539573Y6940402D01*
G01X1543420Y6949310D01*
G01X1544735Y6958924D01*
G01X1544735Y7039572D01*
G01X1543548Y7048714D01*
G01X1548593Y7060617D01*
G01X1550315Y7073429D01*
G01X1550315Y7141695D01*
G01X1566814Y7141695D01*
G01X1578063Y7143507D01*
G01X1589312Y7141695D01*
G01X1644313Y7141695D01*
G01X1648308Y7141918D01*
G01X1648308Y7057028D01*
G01X1636621Y7057028D01*
G01X1625553Y7055275D01*
G01X1615570Y7050188D01*
G01X1607646Y7042265D01*
G01X1602559Y7032281D01*
G01X1600807Y7021214D01*
G01X1600807Y6941214D01*
G01X1602751Y6929574D01*
G01X1608373Y6919197D01*
G01X1617063Y6911211D01*
G01X1608373Y6903226D01*
G01X1602751Y6892849D01*
G01X1600807Y6881209D01*
G01X1600807Y6801209D01*
G01X1602559Y6790142D01*
G01X1607646Y6780158D01*
G01X1615570Y6772235D01*
G01X1625553Y6767148D01*
G01X1636621Y6765395D01*
G01X1706006Y6765395D01*
G01X1706006Y6616816D01*
G01X1685716Y6596525D01*
G01X1474209Y6596525D01*
G01X1461653Y6594872D01*
G01X1449952Y6590026D01*
G01X1439904Y6582316D01*
G01X1313802Y6456214D01*
G01X1261598Y6456214D01*
G01X1250531Y6454461D01*
G01X1240547Y6449374D01*
G01X1232624Y6441451D01*
G01X1227537Y6431467D01*
G01X1225784Y6420400D01*
G01X1225784Y6330400D01*
G01X1227028Y6321041D01*
G01X1230675Y6312332D01*
G01X1236471Y6304879D01*
G01X1244014Y6299200D01*
G01X1235228Y6292234D01*
G01X1229027Y6282892D01*
G01X1226018Y6272091D01*
G01X1196573Y6301536D01*
G01X1194259Y6316718D01*
G01X1188514Y6330959D01*
G01X1179648Y6343498D01*
G01X1168136Y6353661D01*
G01X1154594Y6360904D01*
G01X1139750Y6364837D01*
G01X1124399Y6365251D01*
G01X1109364Y6362122D01*
G01X1095452Y6355620D01*
G01X1083409Y6346091D01*
G01X1073880Y6334048D01*
G01X1067378Y6320136D01*
G01X1064249Y6305101D01*
G01X1064663Y6289750D01*
G01X1068596Y6274906D01*
G01X1075839Y6261364D01*
G01X1086002Y6249852D01*
G01X1098541Y6240986D01*
G01X1112782Y6235241D01*
G01X1127964Y6232927D01*
G01X1172195Y6188695D01*
G01X1182243Y6180986D01*
G01X1193944Y6176139D01*
G01X1206500Y6174486D01*
G01X1225956Y6174486D01*
G01X1228701Y6163843D01*
G01X1234544Y6154533D01*
G01X1242935Y6147433D01*
G01X1253084Y6143213D01*
G01X1253084Y6137687D01*
G01X1242189Y6132999D01*
G01X1233424Y6125010D01*
G01X1227747Y6114596D01*
G01X1225784Y6102900D01*
G01X1225784Y6102900D01*
G01X1225784Y6012900D01*
G01X1227747Y6001204D01*
G01X1233424Y5990790D01*
G01X1242189Y5982801D01*
G01X1253084Y5978113D01*
G01X1253084Y5959887D01*
G01X1242189Y5955199D01*
G01X1233424Y5947210D01*
G01X1227747Y5936796D01*
G01X1225784Y5925100D01*
G01X1225784Y5855714D01*
G01X668947Y5855714D01*
G01X656391Y5854061D01*
G01X644690Y5849214D01*
G01X634643Y5841505D01*
G01X350219Y5557081D01*
G01X343729Y5558972D01*
G01X337000Y5559610D01*
G01X225001Y5559610D01*
G01X213934Y5557858D01*
G01X203950Y5552771D01*
G01X196027Y5544847D01*
G01X190940Y5534864D01*
G01X189187Y5523796D01*
G01X122827Y5523796D01*
G01X121074Y5534864D01*
G01X115987Y5544847D01*
G01X108064Y5552771D01*
G01X98080Y5557858D01*
G01X87013Y5559610D01*
G01X-24986Y5559610D01*
G01X-36053Y5557858D01*
G01X-46037Y5552771D01*
G01X-53960Y5544847D01*
G01X-59047Y5534864D01*
G01X-60800Y5523796D01*
G01X-1411986Y5523796D01*
G01X-1411986Y5952002D01*
G01X211286Y5952002D01*
G01X211286Y5872002D01*
G01X213231Y5860362D01*
G01X218853Y5849986D01*
G01X227543Y5842000D01*
G01X218853Y5834014D01*
G01X213231Y5823638D01*
G01X211286Y5811998D01*
G01X211286Y5731998D01*
G01X213039Y5720931D01*
G01X218126Y5710947D01*
G01X226049Y5703024D01*
G01X236033Y5697937D01*
G01X247100Y5696184D01*
G01X337100Y5696184D01*
G01X348167Y5697937D01*
G01X358151Y5703024D01*
G01X366074Y5710947D01*
G01X371161Y5720931D01*
G01X372914Y5731998D01*
G01X372914Y5811998D01*
G01X370969Y5823638D01*
G01X365347Y5834014D01*
G01X356657Y5842000D01*
G01X365347Y5849986D01*
G01X370969Y5860362D01*
G01X372914Y5872002D01*
G01X372914Y5952002D01*
G01X371372Y5962398D01*
G01X366879Y5971898D01*
G01X359822Y5979685D01*
G01X350808Y5985089D01*
G01X340614Y5987644D01*
G01X340614Y6139690D01*
G01X349712Y6152061D01*
G01X355721Y6166194D01*
G01X358318Y6181329D01*
G01X357364Y6196656D01*
G01X352910Y6211353D01*
G01X345194Y6224631D01*
G01X334632Y6235778D01*
G01X321789Y6244197D01*
G01X307353Y6249436D01*
G01X292100Y6251214D01*
G01X276847Y6249436D01*
G01X262411Y6244197D01*
G01X249568Y6235778D01*
G01X239006Y6224631D01*
G01X231290Y6211353D01*
G01X226836Y6196656D01*
G01X225882Y6181329D01*
G01X228479Y6166194D01*
G01X234488Y6152061D01*
G01X243586Y6139690D01*
G01X243586Y5987644D01*
G01X243586Y5987644D01*
G01X233392Y5985089D01*
G01X224378Y5979685D01*
G01X217321Y5971898D01*
G01X212828Y5962398D01*
G01X211286Y5952002D01*
G01X-1411986Y5952002D01*
G01X-1411986Y6506451D01*
G01X-1410111Y6531192D01*
G01X-1404530Y6555368D01*
G01X-1395369Y6578427D01*
G01X-1382837Y6599842D01*
G01X-1367222Y6619124D01*
G01X-1348880Y6635833D01*
G01X-1114919Y6818615D01*
G01X-941724Y6818615D01*
G01X-939663Y6807860D01*
G01X-934448Y6798230D01*
G01X-926566Y6790627D01*
G01X-916756Y6785760D01*
G01X-905933Y6784086D01*
G01X-471192Y6784086D01*
G01X-463191Y6784991D01*
G01X-455594Y6787661D01*
G01X-448786Y6791961D01*
G01X47807Y7190221D01*
G01X55028Y7198039D01*
G01X59633Y7207635D01*
G01X61214Y7218160D01*
G01X61214Y7581900D01*
G01X61214Y7581900D01*
G01X59369Y7593246D01*
G01X54025Y7603423D01*
G01X45732Y7611383D01*
G01X35344Y7616306D01*
G01X23932Y7617684D01*
G01X12671Y7615376D01*
G01X2721Y7609619D01*
G01X-928612Y6847619D01*
G01X-935928Y6839469D01*
G01X-940439Y6829491D01*
G01X-941724Y6818615D01*
G01X-1114919Y6818615D01*
G01X-24123Y7670800D01*
G01X111074Y7670800D01*
G01X112990Y7646455D01*
G01X118691Y7622709D01*
G01X128037Y7600147D01*
G01X140796Y7579326D01*
G01X156656Y7560756D01*
G01X175226Y7544896D01*
G01X196047Y7532137D01*
G01X218609Y7522791D01*
G01X242355Y7517090D01*
G01X266700Y7515174D01*
G01X291045Y7517090D01*
G01X296500Y7518400D01*
G01X4213174Y7518400D01*
G01X4215090Y7494055D01*
G01X4220791Y7470309D01*
G01X4230137Y7447747D01*
G01X4242896Y7426926D01*
G01X4258756Y7408356D01*
G01X4277326Y7392496D01*
G01X4298147Y7379737D01*
G01X4320709Y7370391D01*
G01X4344455Y7364690D01*
G01X4368800Y7362774D01*
G01X4393145Y7364690D01*
G01X4416891Y7370391D01*
G01X4439453Y7379737D01*
G01X4460274Y7392496D01*
G01X4478844Y7408356D01*
G01X4494704Y7426926D01*
G01X4507463Y7447747D01*
G01X4516809Y7470309D01*
G01X4522510Y7494055D01*
G01X4524426Y7518400D01*
G01X4522510Y7542745D01*
G01X4516809Y7566491D01*
G01X4507463Y7589053D01*
G01X4494704Y7609874D01*
G01X4478844Y7628444D01*
G01X4460274Y7644304D01*
G01X4439453Y7657063D01*
G01X4416891Y7666409D01*
G01X4393145Y7672110D01*
G01X4368800Y7674026D01*
G01X4344455Y7672110D01*
G01X4320709Y7666409D01*
G01X4298147Y7657063D01*
G01X4277326Y7644304D01*
G01X4258756Y7628444D01*
G01X4242896Y7609874D01*
G01X4230137Y7589053D01*
G01X4220791Y7566491D01*
G01X4215090Y7542745D01*
G01X4213174Y7518400D01*
G01X4213174Y7518400D01*
G01X296500Y7518400D01*
G01X314791Y7522791D01*
G01X337353Y7532137D01*
G01X358174Y7544896D01*
G01X376744Y7560756D01*
G01X392604Y7579326D01*
G01X405363Y7600147D01*
G01X414709Y7622709D01*
G01X420410Y7646455D01*
G01X422326Y7670800D01*
G01X420410Y7695145D01*
G01X414709Y7718891D01*
G01X406995Y7737514D01*
G01X848508Y7737514D01*
G01X848508Y7677514D01*
G01X850349Y7658822D01*
G01X855801Y7640848D01*
G01X864656Y7624283D01*
G01X876571Y7609764D01*
G01X891091Y7597848D01*
G01X907656Y7588994D01*
G01X925630Y7583541D01*
G01X944322Y7581700D01*
G01X963014Y7583541D01*
G01X980988Y7588994D01*
G01X997553Y7597848D01*
G01X1012073Y7609764D01*
G01X1023988Y7624283D01*
G01X1032842Y7640848D01*
G01X1038295Y7658822D01*
G01X1040136Y7677514D01*
G01X1040136Y7677514D01*
G01X1040136Y7737514D01*
G01X1713505Y7737514D01*
G01X1713505Y7677514D01*
G01X1715346Y7658822D01*
G01X1720798Y7640848D01*
G01X1729653Y7624283D01*
G01X1741568Y7609764D01*
G01X1756088Y7597848D01*
G01X1772653Y7588994D01*
G01X1790627Y7583541D01*
G01X1809319Y7581700D01*
G01X1828011Y7583541D01*
G01X1845985Y7588994D01*
G01X1862550Y7597848D01*
G01X1877070Y7609764D01*
G01X1888985Y7624283D01*
G01X1897839Y7640848D01*
G01X1903292Y7658822D01*
G01X1905133Y7677514D01*
G01X1905133Y7677514D01*
G01X1905133Y7737514D01*
G01X1903606Y7753016D01*
G01X2926088Y7753016D01*
G01X2926088Y7693016D01*
G01X2927929Y7674323D01*
G01X2933381Y7656349D01*
G01X2942235Y7639785D01*
G01X2954151Y7625265D01*
G01X2968670Y7613350D01*
G01X2985235Y7604495D01*
G01X3003209Y7599043D01*
G01X3021902Y7597202D01*
G01X3040594Y7599043D01*
G01X3058568Y7604495D01*
G01X3075133Y7613350D01*
G01X3089652Y7625265D01*
G01X3101568Y7639785D01*
G01X3110422Y7656349D01*
G01X3115874Y7674323D01*
G01X3117715Y7693016D01*
G01X3117715Y7693016D01*
G01X3117715Y7753016D01*
G01X3791085Y7753016D01*
G01X3791085Y7693016D01*
G01X3792926Y7674323D01*
G01X3798378Y7656349D01*
G01X3807232Y7639785D01*
G01X3819148Y7625265D01*
G01X3833667Y7613350D01*
G01X3850232Y7604495D01*
G01X3868206Y7599043D01*
G01X3886899Y7597202D01*
G01X3905591Y7599043D01*
G01X3923565Y7604495D01*
G01X3940130Y7613350D01*
G01X3954649Y7625265D01*
G01X3966565Y7639785D01*
G01X3975419Y7656349D01*
G01X3980871Y7674323D01*
G01X3982712Y7693016D01*
G01X3982712Y7693016D01*
G01X3982712Y7753016D01*
G01X3980871Y7771708D01*
G01X3975419Y7789682D01*
G01X3966565Y7806247D01*
G01X3954649Y7820766D01*
G01X3940130Y7832682D01*
G01X3923565Y7841536D01*
G01X3905591Y7846989D01*
G01X3886899Y7848830D01*
G01X3868206Y7846989D01*
G01X3850232Y7841536D01*
G01X3833667Y7832682D01*
G01X3819148Y7820766D01*
G01X3807232Y7806247D01*
G01X3798378Y7789682D01*
G01X3792926Y7771708D01*
G01X3791085Y7753016D01*
G01X3117715Y7753016D01*
G01X3115874Y7771708D01*
G01X3110422Y7789682D01*
G01X3101568Y7806247D01*
G01X3089652Y7820766D01*
G01X3075133Y7832682D01*
G01X3058568Y7841536D01*
G01X3040594Y7846989D01*
G01X3021902Y7848830D01*
G01X3003209Y7846989D01*
G01X2985235Y7841536D01*
G01X2968670Y7832682D01*
G01X2954151Y7820766D01*
G01X2942235Y7806247D01*
G01X2933381Y7789682D01*
G01X2927929Y7771708D01*
G01X2926088Y7753016D01*
G01X1903606Y7753016D01*
G01X1903292Y7756206D01*
G01X1897839Y7774181D01*
G01X1888985Y7790745D01*
G01X1877070Y7805265D01*
G01X1862550Y7817180D01*
G01X1845985Y7826035D01*
G01X1828011Y7831487D01*
G01X1809319Y7833328D01*
G01X1790627Y7831487D01*
G01X1772653Y7826035D01*
G01X1756088Y7817180D01*
G01X1741568Y7805265D01*
G01X1729653Y7790745D01*
G01X1720798Y7774181D01*
G01X1715346Y7756206D01*
G01X1713505Y7737514D01*
G01X1040136Y7737514D01*
G01X1038295Y7756206D01*
G01X1032842Y7774181D01*
G01X1023988Y7790745D01*
G01X1012073Y7805265D01*
G01X997553Y7817180D01*
G01X980988Y7826035D01*
G01X963014Y7831487D01*
G01X944322Y7833328D01*
G01X925630Y7831487D01*
G01X907656Y7826035D01*
G01X891091Y7817180D01*
G01X876571Y7805265D01*
G01X864656Y7790745D01*
G01X855801Y7774181D01*
G01X850349Y7756206D01*
G01X848508Y7737514D01*
G01X406995Y7737514D01*
G01X405363Y7741453D01*
G01X392604Y7762274D01*
G01X376744Y7780844D01*
G01X358174Y7796704D01*
G01X337353Y7809463D01*
G01X314791Y7818809D01*
G01X291045Y7824510D01*
G01X266700Y7826426D01*
G01X242355Y7824510D01*
G01X218609Y7818809D01*
G01X196047Y7809463D01*
G01X175226Y7796704D01*
G01X156656Y7780844D01*
G01X140796Y7762274D01*
G01X128037Y7741453D01*
G01X118691Y7718891D01*
G01X112990Y7695145D01*
G01X111074Y7670800D01*
G01X111074Y7670800D01*
G01X-24123Y7670800D01*
G01X146130Y7803810D01*
G01X163953Y7815938D01*
G01X183211Y7825627D01*
G01X203573Y7832708D01*
G01X224688Y7837061D01*
G01X246190Y7838610D01*
G01X4188510Y7863096D01*
G01X4213110Y7861398D01*
G01X4237178Y7856034D01*
G01X4260171Y7847126D01*
G01X4281571Y7834875D01*
G01X4300894Y7819558D01*
G01X4838964Y7322878D01*
G01X4854456Y7306467D01*
G01X4867551Y7288087D01*
G01X4878002Y7268084D01*
G01X4885611Y7246838D01*
G01X4890235Y7224749D01*
G01X4891786Y7202234D01*
G01X4891786Y6534897D01*
G01X4883400Y6552665D01*
G01X4871566Y6568348D01*
G01X4856781Y6581288D01*
G01X4839668Y6590940D01*
G01X4820946Y6596898D01*
G01X4801403Y6598912D01*
G01X4741403Y6598912D01*
G01X4722710Y6597071D01*
G01X4704736Y6591619D01*
G01X4688171Y6582765D01*
G01X4673652Y6570849D01*
G01X4661736Y6556330D01*
G01X4652882Y6539765D01*
G01X4647430Y6521791D01*
G01X4645589Y6503099D01*
G01X4647430Y6484406D01*
G01X4652882Y6466432D01*
G01X4661736Y6449867D01*
G01X4673652Y6435348D01*
G01X4688171Y6423432D01*
G01X4704736Y6414578D01*
G01X4722710Y6409126D01*
G01X4741403Y6407285D01*
G01X4801403Y6407285D01*
G01X4820946Y6409299D01*
G01X4839668Y6415257D01*
G01X4856781Y6424909D01*
G01X4871566Y6437849D01*
G01X4883400Y6453532D01*
G01X4891786Y6471300D01*
G01X4891786Y5669900D01*
G01X4883400Y5687668D01*
G01X4871566Y5703351D01*
G01X4856781Y5716291D01*
G01X4839668Y5725943D01*
G01X4820946Y5731901D01*
G01X4801403Y5733915D01*
G01X4741403Y5733915D01*
G01X4722710Y5732074D01*
G01X4704736Y5726622D01*
G01X4688171Y5717768D01*
G01X4673652Y5705852D01*
G01X4661736Y5691333D01*
G01X4652882Y5674768D01*
G01X4647430Y5656794D01*
G01X4645589Y5638102D01*
G01X4647430Y5619409D01*
G01X4652882Y5601435D01*
G01X4661736Y5584870D01*
G01X4673652Y5570351D01*
G01X4688171Y5558435D01*
G01X4704736Y5549581D01*
G01X4722710Y5544129D01*
G01X4741403Y5542288D01*
G01X4801403Y5542288D01*
G01X4820946Y5544302D01*
G01X4839668Y5550260D01*
G01X4856781Y5559912D01*
G01X4871566Y5572852D01*
G01X4883400Y5588535D01*
G01X4891786Y5606303D01*
G01X4891786Y4927109D01*
G01X4890263Y4904798D01*
G01X4885722Y4882901D01*
G01X4878248Y4861824D01*
G01X4867979Y4841958D01*
G01X4855106Y4823672D01*
G01X4515023Y4404426D01*
G01X4521551Y4427925D01*
G01X4524327Y4452156D01*
G01X4523283Y4476523D01*
G01X4518445Y4500428D01*
G01X4509932Y4523284D01*
G01X4497952Y4544528D01*
G01X4482800Y4563640D01*
G01X4464848Y4580150D01*
G01X4444537Y4593653D01*
G01X4422367Y4603816D01*
G01X4398880Y4610391D01*
G01X4374655Y4613215D01*
G01X4350285Y4612220D01*
G01X4326371Y4607430D01*
G01X4303499Y4598962D01*
G01X4282230Y4587025D01*
G01X4263088Y4571912D01*
G01X4246542Y4553993D01*
G01X4232999Y4533709D01*
G01X4222791Y4511559D01*
G01X4216170Y4488085D01*
G01X4213297Y4463866D01*
G01X4214243Y4439494D01*
G01X4218985Y4415570D01*
G01X4227407Y4392681D01*
G01X4239302Y4371389D01*
G01X4254377Y4352217D01*
G01X4272263Y4335635D01*
G01X4292520Y4322051D01*
G01X4314650Y4311799D01*
G01X4338110Y4305131D01*
G01X4362324Y4302209D01*
G01X4386697Y4303107D01*
G01X4410630Y4307801D01*
G01X4433536Y4316178D01*
G01X4454852Y4328030D01*
G01X4435494Y4312112D01*
G01X4414512Y4298406D01*
G01X4392157Y4287075D01*
G01X4368698Y4278255D01*
G01X2639841Y4290693D01*
G01X2657155Y4299268D01*
G01X2672397Y4311142D01*
G01X2684946Y4325832D01*
G01X2694293Y4342741D01*
G01X2700058Y4361182D01*
G01X2702006Y4380404D01*
G01X2702006Y4570404D01*
G01X3800394Y4570404D01*
G01X3800394Y4380404D01*
G01X3802235Y4361712D01*
G01X3807687Y4343738D01*
G01X3816541Y4327173D01*
G01X3828457Y4312653D01*
G01X3842976Y4300738D01*
G01X3859541Y4291884D01*
G01X3877515Y4286431D01*
G01X3896208Y4284590D01*
G01X3914900Y4286431D01*
G01X3932874Y4291884D01*
G01X3949439Y4300738D01*
G01X3963958Y4312653D01*
G01X3975874Y4327173D01*
G01X3984728Y4343738D01*
G01X3990180Y4361712D01*
G01X3992021Y4380404D01*
G01X3992021Y4570404D01*
G01X3990180Y4589096D01*
G01X3984728Y4607070D01*
G01X3975874Y4623635D01*
G01X3963958Y4638154D01*
G01X3949439Y4650070D01*
G01X3932874Y4658924D01*
G01X3914900Y4664376D01*
G01X3896208Y4666217D01*
G01X3877515Y4664376D01*
G01X3859541Y4658924D01*
G01X3842976Y4650070D01*
G01X3828457Y4638154D01*
G01X3816541Y4623635D01*
G01X3807687Y4607070D01*
G01X3802235Y4589096D01*
G01X3800394Y4570404D01*
G01X3800394Y4570404D01*
G01X2702006Y4570404D01*
G01X2700165Y4589096D01*
G01X2694713Y4607070D01*
G01X2685859Y4623635D01*
G01X2673943Y4638154D01*
G01X2659424Y4650070D01*
G01X2642859Y4658924D01*
G01X2624885Y4664376D01*
G01X2606192Y4666217D01*
G01X2587500Y4664376D01*
G01X2569526Y4658924D01*
G01X2552961Y4650070D01*
G01X2538442Y4638154D01*
G01X2526526Y4623635D01*
G01X2517672Y4607070D01*
G01X2512220Y4589096D01*
G01X2510379Y4570404D01*
G01X2510379Y4380404D01*
G01X2512281Y4361407D01*
G01X2517912Y4343164D01*
G01X2527048Y4326400D01*
G01X2539327Y4311780D01*
G01X2554260Y4299885D01*
G01X2571256Y4291187D01*
G37*
G36*
G01X1976496Y6241411D02*
G01X1977216Y6234265D01*
G01X1979347Y6227407D01*
G01X1977216Y6220548D01*
G01X1976496Y6213403D01*
G01X1976496Y6188401D01*
G01X1977216Y6181256D01*
G01X1979347Y6174397D01*
G01X1977216Y6167539D01*
G01X1976496Y6160393D01*
G01X1976496Y6136204D01*
G01X1966538Y6137237D01*
G01X1829191Y6137237D01*
G01X1834495Y6142540D01*
G01X1842205Y6152588D01*
G01X1847051Y6164289D01*
G01X1848704Y6176845D01*
G01X1848704Y6215697D01*
G01X1891389Y6258382D01*
G01X1976496Y6258382D01*
G01X1976496Y6241411D01*
G37*
G54D10*
G01X2571256Y4291187D02*
G01X-247269Y4311464D01*
G03X-168194Y4405804I-16739J94340D01*
G01X-168194Y4595804D01*
G03X-359821Y4595804I-95814J0D01*
G01X-359821Y4405804D01*
G03X-282102Y4311714I95814J0D01*
G01X-744783Y4315043D01*
G02X-852078Y4400143I88863J222227D01*
G03X-857852Y4406580I-29353J-20520D01*
G01X-1355897Y4842229D01*
G02X-1411986Y4965809I108097J123580D01*
G01X-1411986Y6506451D01*
G02X-1348880Y6635833I164186J0D01*
G01X146130Y7803810D01*
G02X246190Y7838610I101080J-129383D01*
G01X4188510Y7863096D01*
G02X4300894Y7819558I1020J-164183D01*
G01X4838964Y7322878D01*
G02X4891786Y7202234I-111364J-120645D01*
G01X4891786Y6534897D01*
G03X4801403Y6598912I-90383J-31799D01*
G01X4741403Y6598912D01*
G03X4741403Y6407285I0J-95814D01*
G01X4801403Y6407285D01*
G03X4891786Y6471300I0J95814D01*
G01X4891786Y5669900D01*
G03X4801403Y5733915I-90383J-31799D01*
G01X4741403Y5733915D01*
G03X4741403Y5542288I0J-95814D01*
G01X4801403Y5542288D01*
G03X4891786Y5606303I0J95814D01*
G01X4891786Y4927109D01*
G02X4855106Y4823672I-164186J0D01*
G01X4515023Y4404426D01*
G03X4246542Y4553993I-146223J53274D01*
G03X4454852Y4328030I122258J-96293D01*
G02X4368698Y4278255I-154872J168618D01*
G01X2639841Y4290693D01*
G03X2702006Y4380404I-33649J89711D01*
G01X2702006Y4570404D01*
G03X2510379Y4570404I-95814J0D01*
G01X2510379Y4380404D01*
G03X2571256Y4291187I95814J0D01*
G01X61214Y7581900D02*
G03X2721Y7609619I-35814J0D01*
G01X-928612Y6847619D01*
G03X-905933Y6784086I22679J-27719D01*
G01X-471192Y6784086D01*
G03X-448786Y6791961I0J35814D01*
G01X47807Y7190221D01*
G03X61214Y7218160I-22407J27939D01*
G01X61214Y7581900D01*
G01X-854126Y4470400D02*
G03X-542874Y4470400I155626J0D01*
G03X-854126Y4470400I-155626J0D01*
G01X-60800Y5235796D02*
G03X-24986Y5199982I35814J0D01*
G01X87013Y5199982D01*
G03X122827Y5235796I0J35814D01*
G01X122827Y5523796D01*
G03X87013Y5559610I-35814J0D01*
G01X-24986Y5559610D01*
G03X-60800Y5523796I0J-35814D01*
G01X-60800Y5235796D01*
G01X111074Y7670800D02*
G03X422326Y7670800I155626J0D01*
G03X111074Y7670800I-155626J0D01*
G01X1225784Y6102900D02*
G01X1225784Y6012900D01*
G03X1253084Y5978113I35814J0D01*
G01X1253084Y5959887D01*
G03X1225784Y5925100I8514J-34787D01*
G01X1225784Y5855714D01*
G01X668947Y5855714D01*
G03X634643Y5841505I0J-48514D01*
G01X350219Y5557081D01*
G03X337000Y5559610I-13220J-33285D01*
G01X225001Y5559610D01*
G03X189187Y5523796I0J-35814D01*
G01X189187Y5235796D01*
G03X225001Y5199982I35814J0D01*
G01X337000Y5199982D01*
G03X372814Y5235796I0J35814D01*
G01X372814Y5442457D01*
G01X389186Y5458830D01*
G01X389186Y5235796D01*
G03X425000Y5199982I35814J0D01*
G01X536999Y5199982D01*
G03X572813Y5235796I0J35814D01*
G01X572813Y5403000D01*
G01X639173Y5469360D01*
G01X639173Y5235796D01*
G03X674987Y5199982I35814J0D01*
G01X786986Y5199982D01*
G03X822800Y5235796I0J35814D01*
G01X822800Y5336286D01*
G01X932690Y5336286D01*
G03X1044214Y5384800I45210J48514D01*
G03X932690Y5433314I-66314J0D01*
G01X822800Y5433314D01*
G01X822800Y5503183D01*
G01X1295129Y5503183D01*
G03X1329434Y5517392I0J48514D01*
G01X1584447Y5772405D01*
G03X1598656Y5806710I-34305J34305D01*
G01X1598656Y5876831D01*
G01X1611666Y5889840D01*
G03X1626890Y5887390I15224J46063D01*
G01X1712290Y5887390D01*
G03X1716684Y5887589I0J48514D01*
G01X1772290Y5887589D01*
G03X1808104Y5923403I0J35814D01*
G01X1808104Y5948404D01*
G03X1805253Y5962409I-35814J0D01*
G03X1806172Y5964807I-32962J14004D01*
G01X1904627Y5866352D01*
G03X1909465Y5860708I39143J28661D01*
G01X2662622Y5107551D01*
G03X2696927Y5093342I34305J34305D01*
G01X3178116Y5093342D01*
G03X3212421Y5107551I0J48514D01*
G01X3269404Y5164535D01*
G03X3279100Y5178405I-34305J34305D01*
G03X3295200Y5174582I16100J31991D01*
G01X3407199Y5174582D01*
G03X3443013Y5210396I0J35814D01*
G01X3443013Y5498396D01*
G03X3407199Y5534210I-35814J0D01*
G01X3295200Y5534210D01*
G03X3259386Y5498396I0J-35814D01*
G01X3259386Y5339758D01*
G01X3243014Y5323386D01*
G01X3243014Y5498396D01*
G03X3207200Y5534210I-35814J0D01*
G01X3095201Y5534210D01*
G03X3059387Y5498396I0J-35814D01*
G01X3059387Y5356592D01*
G01X2993027Y5290232D01*
G01X2993027Y5498396D01*
G03X2957213Y5534210I-35814J0D01*
G01X2845214Y5534210D01*
G03X2809400Y5498396I0J-35814D01*
G01X2809400Y5231010D01*
G01X2733856Y5231010D01*
G01X2077476Y5887390D01*
G01X2157710Y5887390D01*
G03X2171545Y5889404I0J48514D01*
G01X2267908Y5793041D01*
G03X2302213Y5778831I34305J34305D01*
G01X2716944Y5778831D01*
G01X2736369Y5759406D01*
G03X2798804Y5695539I66273J2336D01*
G03X2868201Y5751762I3839J66203D01*
G03X2919691Y5792442I-9980J65559D01*
G03X2910990Y5857483I-61470J24879D01*
G03X2923814Y5896744I-53490J39197D01*
G03X2910914Y5935980I-66314J-64D01*
G03X2901598Y6024807I-53414J39300D01*
G03X2812290Y6023794I-44098J-49527D01*
G01X2801600Y6023794D01*
G03X2767295Y6009584I0J-48514D01*
G01X2762525Y6004814D01*
G01X2358646Y6004814D01*
G01X2265214Y6098246D01*
G01X2361877Y6098246D01*
G03X2387498Y6105563I0J48514D01*
G01X4050901Y6105563D01*
G01X4162331Y5994133D01*
G01X4037674Y5994133D01*
G01X4037674Y5999500D01*
G03X4001860Y6035314I-35814J0D01*
G01X3921213Y6035314D01*
G03X3886200Y6007034I0J-35814D01*
G03X3851187Y6035314I-35013J-7534D01*
G01X3770540Y6035314D01*
G03X3735122Y6004814I0J-35814D01*
G01X3664710Y6004814D01*
G03X3553186Y5956300I-45210J-48514D01*
G03X3664710Y5907786I66314J0D01*
G01X3735122Y5907786D01*
G03X3757801Y5879628I35418J5314D01*
G03X3740556Y5852414I18397J-30728D01*
G01X3672559Y5852414D01*
G03X3555095Y5854999I-59409J-29464D01*
G03X3619875Y5756978I58055J-32049D01*
G03X3632200Y5755386I12325J46922D01*
G01X3740556Y5755386D01*
G03X3776198Y5723086I35641J3514D01*
G01X3856198Y5723086D01*
G03X3886200Y5739343I0J35814D01*
G03X3916202Y5723086I30002J19557D01*
G01X3996202Y5723086D01*
G03X4032016Y5758900I0J35814D01*
G01X4032016Y5848900D01*
G03X4014599Y5879628I-35814J0D01*
G03X4033904Y5897105I-12739J33472D01*
G01X4205583Y5897105D01*
G01X4205583Y5880607D01*
G03X4207396Y5869358I35814J0D01*
G03X4205583Y5858109I34002J-11249D01*
G01X4205583Y5803108D01*
G03X4207837Y5790603I35814J0D01*
G03X4205583Y5778099I33560J-12504D01*
G01X4205583Y5723098D01*
G03X4231051Y5688811I35814J0D01*
G03X4229619Y5686616I75338J-50709D01*
G01X4202611Y5686616D01*
G03X4129976Y5729721I-62411J-22415D01*
G03X4073927Y5666536I10224J-65521D01*
G01X3810301Y5402910D01*
G01X3693000Y5402910D01*
G01X3693000Y5498396D01*
G03X3657186Y5534210I-35814J0D01*
G01X3545187Y5534210D01*
G03X3509373Y5498396I0J-35814D01*
G01X3509373Y5210396D01*
G03X3545187Y5174582I35814J0D01*
G01X3657186Y5174582D01*
G03X3693000Y5210396I0J35814D01*
G01X3693000Y5305882D01*
G01X3830396Y5305882D01*
G03X3864701Y5320092I0J48514D01*
G01X4141196Y5596587D01*
G03X4166299Y5589588I25103J41515D01*
G01X4229619Y5589588D01*
G03X4306388Y5547288I76769J48514D01*
G01X4396388Y5547288D01*
G03X4437055Y5719301I0J90814D01*
G03X4469609Y5806753I-33648J62311D01*
G03X4387211Y5850550I-66202J-25141D01*
G01X4387211Y5858109D01*
G03X4385399Y5869358I-35814J0D01*
G03X4387211Y5880607I-34002J11249D01*
G01X4387211Y5910607D01*
G03X4385785Y5920613I-35814J0D01*
G03X4387211Y5930619I-34388J10006D01*
G01X4387211Y5960680D01*
G03X4397258Y5968389I-24257J42014D01*
G01X4413602Y5984733D01*
G03X4427811Y6019037I-34305J34305D01*
G01X4427811Y6072150D01*
G03X4413602Y6106455I-48514J0D01*
G01X4397258Y6122798D01*
G03X4387211Y6130508I-34305J-34305D01*
G01X4387211Y6160593D01*
G03X4385785Y6170600I-35814J0D01*
G03X4387211Y6180606I-34388J10006D01*
G01X4387211Y6210606D01*
G03X4385785Y6220612I-35814J0D01*
G03X4387211Y6230619I-34388J10006D01*
G01X4387211Y6260619D01*
G03X4385399Y6271868I-35814J0D01*
G03X4387211Y6283117I-34002J11249D01*
G01X4387211Y6290676D01*
G03X4469605Y6334459I16196J68938D01*
G03X4437080Y6421911I-66197J25154D01*
G03X4396388Y6593912I-40692J81187D01*
G01X4306388Y6593912D01*
G03X4231051Y6452389I0J-90814D01*
G03X4205583Y6418102I10347J-34287D01*
G01X4205583Y6363101D01*
G03X4207833Y6350610I35814J0D01*
G03X4205583Y6338118I33565J-12492D01*
G01X4205583Y6337490D01*
G03X4194887Y6338684I-10696J-47320D01*
G01X4034961Y6338684D01*
G03X3999544Y6369184I-35418J-5314D01*
G01X3918896Y6369184D01*
G03X3883884Y6340904I0J-35814D01*
G03X3848871Y6369184I-35013J-7534D01*
G01X3768223Y6369184D01*
G03X3732806Y6338684I0J-35814D01*
G01X3621978Y6338684D01*
G03X3520159Y6344381I-53278J-39484D01*
G03X3533133Y6243231I48541J-45181D01*
G01X2352361Y6243231D01*
G03X2326740Y6235914I0J-48514D01*
G01X2167699Y6235914D01*
G03X2168124Y6241411I-35390J5497D01*
G01X2168124Y6266412D01*
G03X2165278Y6280404I-35814J0D01*
G03X2168124Y6294396I-32968J13992D01*
G01X2168124Y6319397D01*
G03X2165884Y6331862I-35814J0D01*
G01X2259856Y6425833D01*
G03X2290298Y6408886I30442J18867D01*
G01X2370298Y6408886D01*
G03X2400300Y6425143I0J35814D01*
G03X2421788Y6409913I30002J19557D01*
G01X2421788Y6404387D01*
G03X2400300Y6389157I8514J-34787D01*
G03X2370298Y6405414I-30002J-19557D01*
G01X2290298Y6405414D01*
G03X2254484Y6369600I0J-35814D01*
G01X2254484Y6279600D01*
G03X2290298Y6243786I35814J0D01*
G01X2370298Y6243786D01*
G03X2400300Y6260043I0J35814D01*
G03X2430302Y6243786I30002J19557D01*
G01X2510302Y6243786D01*
G03X2546116Y6279600I0J35814D01*
G01X2546116Y6369600D01*
G03X2518816Y6404387I-35814J0D01*
G01X2518816Y6409913D01*
G03X2546116Y6444700I-8514J34787D01*
G01X2546116Y6534700D01*
G03X2510302Y6570514I-35814J0D01*
G01X2458098Y6570514D01*
G01X2431707Y6596905D01*
G03X2397402Y6611114I-34305J-34305D01*
G01X2278741Y6611114D01*
G03X2244437Y6596905I0J-48514D01*
G01X2228093Y6580561D01*
G03X2213884Y6546256I34305J-34305D01*
G01X2213884Y6517079D01*
G01X2052215Y6355410D01*
G01X1871294Y6355410D01*
G03X1836990Y6341201I0J-48514D01*
G01X1808104Y6312315D01*
G01X1808104Y6319397D01*
G03X1772290Y6355211I-35814J0D01*
G01X1732585Y6355211D01*
G01X1678091Y6409705D01*
G03X1643786Y6423914I-34305J-34305D01*
G01X1517244Y6423914D01*
G03X1481602Y6456214I-35641J-3514D01*
G01X1451021Y6456214D01*
G01X1494304Y6499497D01*
G01X1705811Y6499497D01*
G03X1740115Y6513707I0J48514D01*
G01X1788825Y6562417D01*
G03X1803034Y6596721I-34305J34305D01*
G01X1803034Y6892765D01*
G03X1788825Y6927070I-48514J0D01*
G01X1762434Y6953461D01*
G01X1762434Y7021214D01*
G03X1745336Y7051748I-35814J0D01*
G01X1745336Y7148508D01*
G03X1758610Y7167162I-21013J29001D01*
G03X1900133Y7242500I50709J75338D01*
G01X1900133Y7332500D01*
G03X1728120Y7373167I-90814J0D01*
G03X1640668Y7405721I-62311J-33648D01*
G03X1596871Y7323323I25141J-66202D01*
G01X1589312Y7323323D01*
G03X1578063Y7321510I0J-35814D01*
G03X1566814Y7323323I-11249J-34002D01*
G01X1557752Y7323323D01*
G03X1553401Y7390641I-59152J29977D01*
G03X1492341Y7419318I-54801J-37341D01*
G01X1465655Y7446005D01*
G03X1431350Y7460214I-34305J-34305D01*
G01X1382970Y7460214D01*
G03X1348665Y7446005I0J-48514D01*
G01X1274609Y7371949D01*
G03X1260400Y7337644I34305J-34305D01*
G01X1260400Y7323323D01*
G01X1247534Y7323323D01*
G01X1247534Y7338191D01*
G03X1233325Y7372496I-48514J0D01*
G01X1154296Y7451525D01*
G03X1119991Y7465734I-34305J-34305D01*
G01X1055622Y7465734D01*
G03X1042457Y7463914I0J-48514D01*
G01X909984Y7463914D01*
G03X875679Y7449704I0J-48514D01*
G01X827117Y7401143D01*
G03X812908Y7366838I34305J-34305D01*
G01X812908Y7201166D01*
G03X827117Y7166861I48514J0D01*
G01X1120006Y6873972D01*
G01X1120006Y6795551D01*
G03X1150506Y6760134I35814J0D01*
G01X1150506Y6677022D01*
G03X1199020Y6565497I48514J-45210D01*
G03X1247534Y6677022I0J66314D01*
G01X1247534Y6760134D01*
G03X1278035Y6795551I-5314J35418D01*
G01X1278035Y6876199D01*
G03X1249755Y6911211I-35814J0D01*
G03X1278035Y6946224I-7534J35013D01*
G01X1278035Y7026872D01*
G03X1242221Y7062686I-35814J0D01*
G01X1155820Y7062686D01*
G03X1120006Y7026872I0J-35814D01*
G01X1120006Y7011191D01*
G01X974389Y7156808D01*
G03X995031Y7167162I-30067J85692D01*
G03X1029318Y7141695I34287J10347D01*
G01X1084319Y7141695D01*
G03X1096811Y7143944I0J35814D01*
G03X1109303Y7141695I12492J33565D01*
G01X1164304Y7141695D01*
G03X1175553Y7143507I0J35814D01*
G03X1186802Y7141695I11249J34002D01*
G01X1216802Y7141695D01*
G03X1226808Y7143121I0J35814D01*
G03X1236814Y7141695I10006J34388D01*
G01X1266900Y7141695D01*
G03X1274609Y7131648I42014J24257D01*
G01X1290953Y7115304D01*
G03X1325258Y7101095I34305J34305D01*
G01X1378371Y7101095D01*
G03X1412675Y7115304I0J48514D01*
G01X1429019Y7131648D01*
G03X1436728Y7141695I-34305J34305D01*
G01X1453287Y7141695D01*
G01X1453287Y7093524D01*
G01X1435149Y7075386D01*
G01X1422520Y7075386D01*
G03X1386706Y7039572I0J-35814D01*
G01X1386706Y6958924D01*
G03X1414986Y6923911I35814J0D01*
G03X1386706Y6888899I7534J-35013D01*
G01X1386706Y6808251D01*
G03X1422520Y6772437I35814J0D01*
G01X1508921Y6772437D01*
G03X1544735Y6808251I0J35814D01*
G01X1544735Y6888899D01*
G03X1516455Y6923911I-35814J0D01*
G03X1544735Y6958924I-7534J35013D01*
G01X1544735Y7039572D01*
G03X1543548Y7048714I-35814J0D01*
G03X1550315Y7073429I-41747J24714D01*
G01X1550315Y7141695D01*
G01X1566814Y7141695D01*
G03X1578063Y7143507I0J35814D01*
G03X1589312Y7141695I11249J34002D01*
G01X1644313Y7141695D01*
G03X1648308Y7141918I0J35814D01*
G01X1648308Y7057028D01*
G01X1636621Y7057028D01*
G03X1600807Y7021214I0J-35814D01*
G01X1600807Y6941214D01*
G03X1617063Y6911211I35814J0D01*
G03X1600807Y6881209I19557J-30002D01*
G01X1600807Y6801209D01*
G03X1636621Y6765395I35814J0D01*
G01X1706006Y6765395D01*
G01X1706006Y6616816D01*
G01X1685716Y6596525D01*
G01X1474209Y6596525D01*
G03X1439904Y6582316I0J-48514D01*
G01X1313802Y6456214D01*
G01X1261598Y6456214D01*
G03X1225784Y6420400I0J-35814D01*
G01X1225784Y6330400D01*
G03X1244014Y6299200I35814J0D01*
G03X1226018Y6272091I17584J-31200D01*
G01X1196573Y6301536D01*
G03X1083409Y6346091I-66273J-2336D01*
G03X1127964Y6232927I46891J-46891D01*
G01X1172195Y6188695D01*
G03X1206500Y6174486I34305J34305D01*
G01X1225956Y6174486D01*
G03X1253084Y6143213I35641J3514D01*
G01X1253084Y6137687D01*
G03X1225784Y6102900I8514J-34787D01*
G01X243586Y5987644D02*
G03X211286Y5952002I3514J-35641D01*
G01X211286Y5872002D01*
G03X227543Y5842000I35814J0D01*
G03X211286Y5811998I19557J-30002D01*
G01X211286Y5731998D01*
G03X247100Y5696184I35814J0D01*
G01X337100Y5696184D01*
G03X372914Y5731998I0J35814D01*
G01X372914Y5811998D01*
G03X356657Y5842000I-35814J0D01*
G03X372914Y5872002I-19557J30002D01*
G01X372914Y5952002D01*
G03X340614Y5987644I-35814J0D01*
G01X340614Y6139690D01*
G03X292100Y6251214I-48514J45210D01*
G03X243586Y6139690I0J-66314D01*
G01X243586Y5987644D01*
G01X1040136Y7677514D02*
G01X1040136Y7737514D01*
G03X848508Y7737514I-95814J0D01*
G01X848508Y7677514D01*
G03X1040136Y7677514I95814J0D01*
G01X930194Y4595804D02*
G01X930194Y4405804D01*
G03X1121821Y4405804I95814J0D01*
G01X1121821Y4595804D01*
G03X930194Y4595804I-95814J0D01*
G01X1905133Y7677514D02*
G01X1905133Y7737514D01*
G03X1713505Y7737514I-95814J0D01*
G01X1713505Y7677514D01*
G03X1905133Y7677514I95814J0D01*
G01X3502386Y6853600D02*
G01X3502386Y6772953D01*
G03X3532886Y6737535I35814J0D01*
G01X3532886Y6590923D01*
G03X3581400Y6479399I48514J-45210D01*
G03X3629914Y6590923I0J66314D01*
G01X3629914Y6737535D01*
G03X3642697Y6742048I-5314J35418D01*
G01X3681039Y6703706D01*
G03X3715344Y6689497I34305J34305D01*
G01X3828456Y6689497D01*
G03X3862761Y6703706I0J48514D01*
G01X4022105Y6863050D01*
G03X4036314Y6897354I-34305J34305D01*
G01X4036314Y7364338D01*
G03X4022105Y7398643I-48514J0D01*
G01X3955541Y7465206D01*
G03X3921237Y7479415I-34305J-34305D01*
G01X3788738Y7479415D01*
G03X3775573Y7481236I-13165J-46694D01*
G01X3704648Y7481236D01*
G03X3670344Y7467026I0J-48514D01*
G01X3547095Y7343778D01*
G03X3542772Y7338824I34305J-34305D01*
G01X3514308Y7338824D01*
G03X3506598Y7348871I-42014J-24257D01*
G01X3490255Y7365215D01*
G03X3455950Y7379424I-34305J-34305D01*
G01X3402837Y7379424D01*
G03X3368533Y7365215I0J-48514D01*
G01X3352189Y7348871D01*
G03X3344479Y7338824I34305J-34305D01*
G01X3327895Y7338824D01*
G01X3327895Y7350911D01*
G03X3313686Y7385216I-48514J0D01*
G01X3231876Y7467026D01*
G03X3197571Y7481236I-34305J-34305D01*
G01X3133201Y7481236D01*
G03X3120036Y7479415I0J-48514D01*
G01X2987563Y7479415D01*
G03X2953259Y7465206I0J-48514D01*
G01X2904697Y7416644D01*
G03X2890487Y7382340I34305J-34305D01*
G01X2890487Y7153167D01*
G03X2904697Y7118863I48514J0D01*
G01X3172186Y6851374D01*
G01X3172186Y6772953D01*
G03X3202686Y6737535I35814J0D01*
G01X3202686Y6603623D01*
G03X3251200Y6492099I48514J-45210D01*
G03X3299714Y6603623I0J66314D01*
G01X3299714Y6737535D01*
G03X3330214Y6772953I-5314J35418D01*
G01X3330214Y6853600D01*
G03X3301934Y6888613I-35814J0D01*
G03X3330214Y6923626I-7534J35013D01*
G01X3330214Y7004273D01*
G03X3294400Y7040087I-35814J0D01*
G01X3208000Y7040087D01*
G03X3172186Y7004273I0J-35814D01*
G01X3172186Y6988592D01*
G01X2987515Y7173262D01*
G01X2987515Y7173949D01*
G03X3072611Y7182664I34386J84052D01*
G03X3106898Y7157197I34287J10347D01*
G01X3161899Y7157197D01*
G03X3174390Y7159446I0J35814D01*
G03X3186882Y7157197I12492J33565D01*
G01X3241883Y7157197D01*
G03X3253132Y7159009I0J35814D01*
G03X3264381Y7157197I11249J34002D01*
G01X3294381Y7157197D01*
G03X3304388Y7158623I0J35814D01*
G03X3314394Y7157197I10006J34388D01*
G01X3329686Y7157197D01*
G01X3329686Y7144510D01*
G03X3322539Y7063252I48514J-45210D01*
G03X3399613Y7036538I55661J36048D01*
G03X3494480Y7021069I54787J37362D01*
G03X3505140Y7116596I-40080J52831D01*
G01X3505963Y7116596D01*
G03X3540267Y7130806I0J48514D01*
G01X3556611Y7147149D01*
G03X3564320Y7157197I-34305J34305D01*
G01X3594381Y7157197D01*
G03X3604387Y7158623I0J35814D01*
G03X3614393Y7157197I10006J34388D01*
G01X3644393Y7157197D01*
G03X3655642Y7159009I0J35814D01*
G03X3666891Y7157197I11249J34002D01*
G01X3721892Y7157197D01*
G01X3723386Y7157228D01*
G01X3723386Y7021557D01*
G03X3691086Y6985915I3514J-35641D01*
G01X3691086Y6905916D01*
G03X3707343Y6875913I35814J0D01*
G03X3691086Y6845911I19557J-30002D01*
G01X3691086Y6830877D01*
G01X3674382Y6847581D01*
G03X3660210Y6857416I-34305J-34305D01*
G03X3632134Y6888613I-35610J-3815D01*
G03X3660414Y6923626I-7534J35013D01*
G01X3660414Y7004273D01*
G03X3624600Y7040087I-35814J0D01*
G01X3538200Y7040087D01*
G03X3502386Y7004273I0J-35814D01*
G01X3502386Y6923626D01*
G03X3530666Y6888613I35814J0D01*
G03X3502386Y6853600I7534J-35013D01*
G01X3117715Y7693016D02*
G01X3117715Y7753016D01*
G03X2926088Y7753016I-95814J0D01*
G01X2926088Y7693016D01*
G03X3117715Y7693016I95814J0D01*
G01X3081486Y5863102D02*
G01X3081486Y5783102D01*
G03X3097743Y5753100I35814J0D01*
G03X3081486Y5723098I19557J-30002D01*
G01X3081486Y5643098D01*
G03X3117300Y5607284I35814J0D01*
G01X3207300Y5607284D01*
G03X3243114Y5643098I0J35814D01*
G01X3243114Y5723098D01*
G03X3226857Y5753100I-35814J0D01*
G03X3243114Y5783102I-19557J30002D01*
G01X3243114Y5863102D01*
G03X3210814Y5898744I-35814J0D01*
G01X3210814Y5949190D01*
G03X3162300Y6060714I-48514J45210D01*
G03X3113786Y5949190I0J-66314D01*
G01X3113786Y5898744D01*
G03X3081486Y5863102I3514J-35641D01*
G01X3982712Y7693016D02*
G01X3982712Y7753016D01*
G03X3791085Y7753016I-95814J0D01*
G01X3791085Y7693016D01*
G03X3982712Y7693016I95814J0D01*
G01X3800394Y4570404D02*
G01X3800394Y4380404D01*
G03X3992021Y4380404I95814J0D01*
G01X3992021Y4570404D01*
G03X3800394Y4570404I-95814J0D01*
G01X4213174Y7518400D02*
G03X4524426Y7518400I155626J0D01*
G03X4213174Y7518400I-155626J0D01*
G01X1976496Y6241411D02*
G03X1979347Y6227407I35814J0D01*
G03X1976496Y6213403I32962J-14004D01*
G01X1976496Y6188401D01*
G03X1979347Y6174397I35814J0D01*
G03X1976496Y6160393I32962J-14004D01*
G01X1976496Y6136204D01*
G03X1966538Y6137237I-9958J-47481D01*
G01X1829191Y6137237D01*
G01X1834495Y6142540D01*
G03X1848704Y6176845I-34305J34305D01*
G01X1848704Y6215697D01*
G01X1891389Y6258382D01*
G01X1976496Y6258382D01*
G01X1976496Y6241411D01*
G54D11*
G01X31013Y5379796D02*
G01X-50640Y5379796D01*
G01X31013Y5379796D02*
G01X112667Y5379796D01*
G01X31013Y5379796D02*
G01X31013Y5549450D01*
G01X31013Y5379796D02*
G01X31013Y5210142D01*
G01X292100Y5771998D02*
G01X292100Y5706344D01*
G01X292100Y5771998D02*
G01X221446Y5771998D01*
G01X292100Y5771998D02*
G01X362754Y5771998D01*
G01X1136803Y7232509D02*
G01X1136803Y7151855D01*
G01X1199020Y6986548D02*
G01X1199020Y7052526D01*
G01X1199020Y6986548D02*
G01X1267875Y6986548D01*
G01X1465720Y6848575D02*
G01X1465720Y6782597D01*
G01X1465720Y6848575D02*
G01X1534575Y6848575D01*
G01X1465720Y6848575D02*
G01X1396866Y6848575D01*
G01X1616812Y7232509D02*
G01X1616812Y7151855D01*
G01X1681620Y6841209D02*
G01X1681620Y6775555D01*
G01X1681620Y6841209D02*
G01X1610967Y6841209D01*
G01X2072310Y6253912D02*
G01X2157964Y6253912D01*
G01X2072310Y6253912D02*
G01X1986656Y6253912D01*
G01X2330298Y6324600D02*
G01X2264644Y6324600D01*
G01X2330298Y6324600D02*
G01X2330298Y6395254D01*
G01X2330298Y6324600D02*
G01X2330298Y6253946D01*
G01X2330298Y6489700D02*
G01X2330298Y6419046D01*
G01X2901213Y5354396D02*
G01X2819560Y5354396D01*
G01X2901213Y5354396D02*
G01X2982867Y5354396D01*
G01X2901213Y5354396D02*
G01X2901213Y5524050D01*
G01X3162300Y5683098D02*
G01X3162300Y5617444D01*
G01X3162300Y5683098D02*
G01X3091646Y5683098D01*
G01X3162300Y5683098D02*
G01X3232954Y5683098D01*
G01X3214383Y7248010D02*
G01X3214383Y7167357D01*
G01X3251200Y6963949D02*
G01X3251200Y7029927D01*
G01X3251200Y6963949D02*
G01X3320054Y6963949D01*
G01X3581400Y6963949D02*
G01X3581400Y7029927D01*
G01X3581400Y6963949D02*
G01X3512546Y6963949D01*
G01X3581400Y6963949D02*
G01X3650254Y6963949D01*
G01X3694392Y7248010D02*
G01X3694392Y7167357D01*
G01X3956202Y5803900D02*
G01X4021856Y5803900D01*
G01X3956202Y5803900D02*
G01X3956202Y5733246D01*
G01X4296397Y5830608D02*
G01X4215743Y5830608D01*
G04 Copper End*

G04 Pad Start*
G54D12*
G01X3816198Y5803900D03*
G01X3956202Y5803900D03*
G54D13*
G01X1681620Y6981214D03*
G01X1681620Y6841209D03*
G01X3771900Y6945915D03*
G01X3771900Y6805911D03*
G01X292100Y5912002D03*
G01X292100Y5771998D03*
G01X3162300Y5823102D03*
G01X3162300Y5683098D03*
G54D12*
G01X2470302Y6324600D03*
G01X2330298Y6324600D03*
G01X2470302Y6489700D03*
G01X2330298Y6489700D03*
G01X1301598Y6375400D03*
G01X1441602Y6375400D03*
G01X1301598Y6223000D03*
G01X1441602Y6223000D03*
G01X1301598Y6057900D03*
G01X1441602Y6057900D03*
G01X1301598Y5880100D03*
G01X1441602Y5880100D03*
G54D14*
G01X3961536Y5956300D03*
G01X3810864Y5956300D03*
G01X3959220Y6290170D03*
G01X3808547Y6290170D03*
G54D15*
G01X3581400Y6963949D03*
G01X3581400Y6813277D03*
G01X3251200Y6963949D03*
G01X3251200Y6813277D03*
G01X1199020Y6986548D03*
G01X1199020Y6835875D03*
G01X1465720Y6848575D03*
G01X1465720Y6999248D03*
G54D16*
G01X2072310Y5935904D03*
G01X2072310Y5988914D03*
G01X2072310Y6041898D03*
G01X2072310Y6094908D03*
G01X2072310Y6147892D03*
G01X2072310Y6200902D03*
G01X2072310Y6253912D03*
G01X2072310Y6306896D03*
G01X1712290Y6306896D03*
G01X1712290Y6253912D03*
G01X1712290Y6200902D03*
G01X1712290Y6147892D03*
G01X1712290Y6094908D03*
G01X1712290Y6041898D03*
G01X1712290Y5988914D03*
G01X1712290Y5935904D03*
G54D18*
G01X3601187Y5354396D03*
G01X3351200Y5354396D03*
G01X3151200Y5354396D03*
G01X2901213Y5354396D03*
G54D19*
G01X3896208Y4475404D03*
G01X2606192Y4475404D03*
G54D18*
G01X730987Y5379796D03*
G01X481000Y5379796D03*
G01X281000Y5379796D03*
G01X31013Y5379796D03*
G54D19*
G01X1026008Y4500804D03*
G01X-264008Y4500804D03*
G54D20*
G01X4296397Y5750598D03*
G01X4296397Y5830608D03*
G54D21*
G01X4296397Y5895607D03*
G01X4296397Y5945619D03*
G01X4296397Y5995607D03*
G01X4296397Y6045594D03*
G01X4296397Y6095606D03*
G01X4296397Y6145594D03*
G01X4296397Y6195606D03*
G01X4296397Y6245619D03*
G54D20*
G01X4296397Y6310617D03*
G01X4296397Y6390602D03*
G54D22*
G01X4351388Y5638102D03*
G01X4351388Y6503099D03*
G54D23*
G01X4771403Y5638102D03*
G01X4771403Y6503099D03*
G54D24*
G01X1696822Y7232509D03*
G01X1616812Y7232509D03*
G54D25*
G01X1551814Y7232509D03*
G01X1501801Y7232509D03*
G01X1451814Y7232509D03*
G01X1401827Y7232509D03*
G01X1351814Y7232509D03*
G01X1301827Y7232509D03*
G01X1251814Y7232509D03*
G01X1201802Y7232509D03*
G54D24*
G01X1136803Y7232509D03*
G01X1056819Y7232509D03*
G54D26*
G01X1809319Y7287500D03*
G01X944322Y7287500D03*
G54D27*
G01X1809319Y7707514D03*
G01X944322Y7707514D03*
G54D24*
G01X3774402Y7248010D03*
G01X3694392Y7248010D03*
G54D25*
G01X3629393Y7248010D03*
G01X3579381Y7248010D03*
G01X3529394Y7248010D03*
G01X3479406Y7248010D03*
G01X3429394Y7248010D03*
G01X3379407Y7248010D03*
G01X3329394Y7248010D03*
G01X3279381Y7248010D03*
G54D24*
G01X3214383Y7248010D03*
G01X3134398Y7248010D03*
G54D26*
G01X3886899Y7303001D03*
G01X3021902Y7303001D03*
G54D27*
G01X3886899Y7723016D03*
G01X3021902Y7723016D03*
G04 Pad End*

G04 Via Start*
G54D28*
G01X2857500Y5975280D03*
G01X2857500Y5896680D03*
G01X2858221Y5817321D03*
G01X2802642Y5761742D03*
G01X3613150Y5822950D03*
G01X3619500Y5956300D03*
G01X3568700Y6299200D03*
G01X292100Y6184900D03*
G01X3162300Y5994400D03*
G01X1199020Y6631811D03*
G01X1465720Y6644511D03*
G01X1681620Y6606411D03*
G01X3251200Y6558413D03*
G01X3581400Y6545713D03*
G01X3886200Y7066413D03*
G01X3378200Y7099300D03*
G01X3454400Y7073900D03*
G01X4140200Y5664200D03*
G01X1407160Y7353300D03*
G01X1498600Y7353300D03*
G01X1130300Y6299200D03*
G01X977900Y5384800D03*
G01X1600200Y6070600D03*
G04 Via End*

G04 Track Start*
G54D11*
G01X1465720Y7037348D02*
G01X1501801Y7073429D01*
G01X1501801Y7232509D01*
G01X1199020Y7024648D02*
G01X1199020Y7125834D01*
G01X1158902Y7165952D01*
G01X1158902Y7210410D01*
G01X1136803Y7232509D01*
G01X3771900Y6971315D02*
G01X3771900Y7245508D01*
G01X3774402Y7248010D01*
G01X3581400Y6989349D02*
G01X3694392Y7102341D01*
G01X3694392Y7248010D01*
G01X3959220Y6290170D02*
G01X4194887Y6290170D01*
G01X4229841Y6255217D01*
G01X4286799Y6255217D01*
G01X4296397Y6245619D01*
G01X3162300Y5615483D02*
G01X2901213Y5354396D01*
G01X292100Y5771998D02*
G01X31013Y5510911D01*
G01X31013Y5379796D01*
G01X3251200Y6963949D02*
G01X3581400Y6963949D01*
G01X3613861Y6963949D01*
G01X3771900Y6805911D01*
G01X1681620Y6841209D02*
G01X1674254Y6848575D01*
G01X1465720Y6848575D01*
G01X1327748Y6986548D01*
G01X1199020Y6986548D01*
G01X1441602Y6223000D02*
G01X1441602Y6375400D01*
G01X1643786Y6375400D01*
G01X1712290Y6306896D01*
G01X1441602Y5880100D02*
G01X1441602Y6057900D01*
G01X1637614Y6253912D01*
G01X1712290Y6253912D01*
G01X2330298Y6223000D02*
G01X2162169Y6223000D01*
G01X2143866Y6241303D01*
G01X2084919Y6241303D01*
G01X2072310Y6253912D01*
G01X1681620Y6841209D02*
G01X1681620Y6856757D01*
G01X1608720Y6929657D01*
G01X1608720Y7224417D01*
G01X1616812Y7232509D01*
G01X3251200Y6813277D02*
G01X3251200Y6840969D01*
G01X2939001Y7382340D02*
G01X2987563Y7430901D01*
G01X3131381Y7430901D01*
G01X3133201Y7432722D01*
G01X3197571Y7432722D01*
G01X3251200Y6840969D02*
G01X2939001Y7153167D01*
G01X2939001Y7382340D01*
G01X3197571Y7432722D02*
G01X3279381Y7350911D01*
G01X3279381Y7248010D01*
G01X3581400Y6813277D02*
G01X3640078Y6813277D01*
G01X3715344Y6738011D01*
G01X3828456Y6738011D01*
G01X3921237Y7430901D02*
G01X3777394Y7430901D01*
G01X3775573Y7432722D01*
G01X3704648Y7432722D01*
G01X3581400Y7309474D01*
G01X3581400Y7250030D01*
G01X3579381Y7248010D01*
G01X1199020Y6835875D02*
G01X1199020Y6863567D01*
G01X861422Y7366838D02*
G01X909984Y7415400D01*
G01X1053801Y7415400D01*
G01X1055622Y7417220D01*
G01X1119991Y7417220D01*
G01X1199020Y6863567D02*
G01X861422Y7201166D01*
G01X861422Y7366838D01*
G01X1119991Y7417220D02*
G01X1199020Y7338191D01*
G01X1199020Y7235290D01*
G01X1201802Y7232509D01*
G01X2330298Y6388100D02*
G01X2330298Y6324600D01*
G01X2330298Y6223000D01*
G01X4296397Y5945619D02*
G01X3972217Y5945619D01*
G01X3961536Y5956300D01*
G01X4296397Y5995607D02*
G01X4303484Y6002694D01*
G01X4362954Y6002694D01*
G01X4379297Y6019037D01*
G01X4379297Y6072150D01*
G01X4362954Y6088494D01*
G01X4310971Y6088494D01*
G01X4306118Y6093346D01*
G01X4298657Y6093346D01*
G01X4296397Y6095606D01*
G01X4213497Y6069050D02*
G01X4213497Y6122163D01*
G01X4229841Y6138506D01*
G01X4289310Y6138506D01*
G01X4296397Y6145594D01*
G01X1712290Y5935904D02*
G01X1626890Y5935904D01*
G01X1712290Y5988914D02*
G01X1626890Y5988914D01*
G01X1626890Y5935904D02*
G01X1620705Y5942089D01*
G01X1595305Y5942089D01*
G01X1626890Y5988914D02*
G01X1620705Y5982729D01*
G01X1578472Y5982729D01*
G01X1509502Y5913759D01*
G01X1509502Y5823544D01*
G01X1493159Y5807200D01*
G01X1595305Y5942089D02*
G01X1550142Y5896926D01*
G01X1550142Y5806710D01*
G01X1493159Y5807200D02*
G01X668947Y5807200D01*
G01X1550142Y5806710D02*
G01X1295129Y5551697D01*
G01X652900Y5551697D01*
G01X481000Y5379796D01*
G01X668947Y5807200D02*
G01X281000Y5419253D01*
G01X281000Y5379796D01*
G01X1712290Y6094908D02*
G01X1797690Y6094908D01*
G01X1712290Y6041898D02*
G01X1797690Y6041898D01*
G01X3351200Y5337563D02*
G01X3351200Y5354396D01*
G01X1797690Y6094908D02*
G01X1803875Y6088723D01*
G01X3120540Y5349136D02*
G01X3145940Y5349136D01*
G01X3151200Y5354396D01*
G01X3296733Y5308496D02*
G01X3322133Y5308496D01*
G01X3351200Y5337563D01*
G01X1803875Y6088723D02*
G01X1966538Y6088723D01*
G01X1984410Y6070851D01*
G01X1984410Y5911847D01*
G01X2968769Y5182496D02*
G01X2985113Y5198839D01*
G01X2985113Y5213709D01*
G01X3120540Y5349136D01*
G01X3235100Y5198839D02*
G01X3235100Y5246863D01*
G01X3296733Y5308496D01*
G01X1797690Y6041898D02*
G01X1943770Y5895818D01*
G01X1943770Y5895013D01*
G01X2696927Y5141856D01*
G01X3178116Y5141856D01*
G01X3235100Y5198839D01*
G01X1984410Y5911847D02*
G01X2713761Y5182496D01*
G01X2968769Y5182496D01*
G01X2072310Y6094908D02*
G01X2157710Y6094908D01*
G01X2206128Y6088723D02*
G01X2338551Y5956300D01*
G01X2072310Y6041898D02*
G01X2157710Y6041898D01*
G01X2189295Y6048083D02*
G01X2321717Y5915660D01*
G01X2801600Y5975280D02*
G01X2857500Y5975280D01*
G01X2801600Y5896680D02*
G01X2857500Y5896680D01*
G01X2782620Y5956300D02*
G01X2801600Y5975280D01*
G01X2157710Y6041898D02*
G01X2163895Y6048083D01*
G01X2189295Y6048083D01*
G01X2782620Y5915660D02*
G01X2801600Y5896680D01*
G01X2157710Y6094908D02*
G01X2163895Y6088723D01*
G01X2206128Y6088723D01*
G01X2338551Y5956300D02*
G01X2782620Y5956300D01*
G01X2321717Y5915660D02*
G01X2782620Y5915660D01*
G01X1308914Y7239596D02*
G01X1301827Y7232509D01*
G01X2072310Y5988914D02*
G01X2157710Y5988914D01*
G01X2072310Y5935904D02*
G01X2157710Y5935904D01*
G01X2157710Y5988914D02*
G01X2163895Y5982729D01*
G01X2157710Y5935904D02*
G01X2163895Y5942089D01*
G01X2163895Y5982729D02*
G01X2204303Y5982729D01*
G01X2306972Y5880060D01*
G01X2767874Y5880060D01*
G01X2786854Y5861080D01*
G01X2787620Y5861080D01*
G01X2791852Y5856848D01*
G01X2814742Y5856848D01*
G01X2833310Y5838280D01*
G01X2837262Y5838280D01*
G01X2858221Y5817321D01*
G01X2163895Y5942089D02*
G01X2187469Y5942089D01*
G01X2302213Y5827345D01*
G01X2737039Y5827345D01*
G01X2802642Y5761742D01*
G01X3479406Y7248010D02*
G01X3477146Y7250270D01*
G01X3477146Y7257731D01*
G01X3472294Y7262584D01*
G01X3472294Y7314567D01*
G01X3455950Y7330910D01*
G01X3402837Y7330910D01*
G01X3386494Y7314567D01*
G01X3386494Y7255098D01*
G01X3379407Y7248010D01*
G01X3816198Y5803900D02*
G01X3632200Y5803900D01*
G01X3613150Y5822950D01*
G01X3810864Y5956300D02*
G01X3619500Y5956300D01*
G01X3808547Y6290170D02*
G01X3577730Y6290170D01*
G01X3568700Y6299200D01*
G01X292100Y5912002D02*
G01X292100Y6184900D01*
G01X3162300Y5733898D02*
G01X3162300Y5683098D01*
G01X3162300Y5615483D01*
G01X3162300Y5823102D02*
G01X3162300Y5994400D01*
G01X1199020Y6835875D02*
G01X1199020Y6631811D01*
G01X1465720Y6848575D02*
G01X1465720Y6644511D01*
G01X1681620Y6841209D02*
G01X1681620Y6606411D01*
G01X3251200Y6813277D02*
G01X3251200Y6558413D01*
G01X3581400Y6813277D02*
G01X3581400Y6545713D01*
G01X3828456Y6738011D02*
G01X3987800Y6897354D01*
G01X3987800Y7364338D01*
G01X3921237Y7430901D01*
G01X3886200Y7060215D02*
G01X3886200Y7066413D01*
G01X3134398Y7248010D02*
G01X3079407Y7303001D01*
G01X3021902Y7303001D01*
G01X3774402Y7248010D02*
G01X3831908Y7248010D01*
G01X3886899Y7303001D01*
G01X3771900Y6945915D02*
G01X3886200Y7060215D01*
G01X1056819Y7232509D02*
G01X1001828Y7287500D01*
G01X944322Y7287500D01*
G01X1696822Y7232509D02*
G01X1754328Y7232509D01*
G01X1809319Y7287500D01*
G01X4279564Y5995607D02*
G01X4296397Y5995607D01*
G01X2072310Y6200902D02*
G01X2133921Y6200902D01*
G01X2147423Y6187400D01*
G01X2345044Y6187400D01*
G01X2352361Y6194717D01*
G01X2072310Y6147892D02*
G01X2129457Y6147892D01*
G01X2130589Y6146760D01*
G01X2361877Y6146760D01*
G01X2369194Y6154077D01*
G01X4272477Y6002694D02*
G01X4279564Y5995607D01*
G01X2369194Y6154077D02*
G01X4070996Y6154077D01*
G01X4222380Y6002694D01*
G01X4272477Y6002694D01*
G01X2352361Y6194717D02*
G01X4087830Y6194717D01*
G01X4296397Y6045594D02*
G01X4294137Y6047854D01*
G01X4234693Y6047854D02*
G01X4294137Y6047854D01*
G01X4296397Y6390602D02*
G01X4351388Y6445593D01*
G01X4351388Y6503099D01*
G01X4296397Y5750598D02*
G01X4351388Y5695607D01*
G01X4351388Y5638102D01*
G01X3971400Y5809697D02*
G01X4270705Y5809697D01*
G01X3529394Y7248010D02*
G01X3522306Y7240923D01*
G01X3522306Y7181454D01*
G01X3505963Y7165110D01*
G01X3452850Y7165110D01*
G01X3436506Y7181454D01*
G01X3436506Y7238131D01*
G01X3429757Y7244881D01*
G01X3250474Y6965580D02*
G01X3250474Y7167461D01*
G01X3236481Y7181454D01*
G01X3236481Y7227964D01*
G01X3207740Y7256705D01*
G01X3378200Y7099300D02*
G01X3378200Y7246804D01*
G01X3379407Y7248010D01*
G01X3454400Y7073900D02*
G01X3436600Y7091700D01*
G01X3436600Y7123490D01*
G01X3429394Y7130697D01*
G01X3429394Y7248010D01*
G01X4087830Y6194717D02*
G01X4213497Y6069050D01*
G01X4234693Y6047854D01*
G01X4362954Y5852707D02*
G01X4318496Y5852707D01*
G01X4296397Y6310617D02*
G01X4318496Y6288519D01*
G01X4362954Y6288519D01*
G01X4414897Y6236575D01*
G01X4414897Y5904650D01*
G01X4362954Y5852707D01*
G01X4318496Y5852707D02*
G01X4296397Y5830608D01*
G01X4270705Y5809697D02*
G01X4296808Y5835799D01*
G01X4351388Y5638102D02*
G01X4166299Y5638102D01*
G01X4140200Y5664200D01*
G01X3830396Y5354396D01*
G01X3601187Y5354396D01*
G01X1301598Y6375400D02*
G01X1301598Y6223000D01*
G01X1301598Y6057900D01*
G01X1301598Y5880100D01*
G01X1871294Y6306896D02*
G01X2072310Y6306896D01*
G01X1712290Y6147892D02*
G01X1724899Y6160501D01*
G01X1783847Y6160501D01*
G01X1800190Y6176845D01*
G01X1800190Y6235792D01*
G01X1871294Y6306896D01*
G01X2262398Y6546256D02*
G01X2278741Y6562600D01*
G01X2072310Y6306896D02*
G01X2262398Y6496984D01*
G01X2262398Y6546256D01*
G01X2278741Y6562600D02*
G01X2397402Y6562600D01*
G01X2470302Y6489700D01*
G01X2470302Y6324600D01*
G01X1407160Y7353300D02*
G01X1407160Y7344093D01*
G01X1444727Y7239596D02*
G01X1451814Y7232509D01*
G01X1407160Y7344093D02*
G01X1444727Y7306526D01*
G01X1444727Y7239596D01*
G01X1498600Y7353300D02*
G01X1489750Y7353300D01*
G01X1431350Y7411700D01*
G01X1382970Y7411700D01*
G01X1696822Y7232509D02*
G01X1696822Y6996416D01*
G01X1681620Y6981214D01*
G01X1681620Y6965666D01*
G01X1754520Y6892765D01*
G01X1754520Y6596721D01*
G01X1705811Y6548011D01*
G01X1474209Y6548011D01*
G01X1301598Y6375400D01*
G01X1130300Y6299200D02*
G01X1206500Y6223000D01*
G01X1301598Y6223000D01*
G01X1308914Y7337644D02*
G01X1308914Y7239596D01*
G01X1308914Y7337644D02*
G01X1382970Y7411700D01*
G01X1407160Y7353300D02*
G01X1351814Y7297954D01*
G01X1351814Y7232509D01*
G01X1301827Y7232509D02*
G01X1308914Y7225422D01*
G01X1308914Y7165952D01*
G01X1325258Y7149609D01*
G01X1378371Y7149609D01*
G01X1394714Y7165952D01*
G01X1394714Y7225396D01*
G01X1401827Y7232509D01*
G01X977900Y5384800D02*
G01X735990Y5384800D01*
G01X730987Y5379796D01*
G01X1712290Y6147892D02*
G01X1699707Y6135309D01*
G01X1640734Y6135309D01*
G01X1600200Y6094775D01*
G01X1600200Y6070600D01*
G04 Track End*

M02*

