G04 Layer: BottomLayer*
G04 EasyEDA Pro v3.2.148, 2026-07-04 18:32:14*
G04 Gerber Generator version 0.3*
G04 Scale: 100 percent, Rotated: No, Reflected: No*
G04 Dimensions in millimeters*
G04 Leading zeros omitted, absolute positions, 4 integers and 5 decimals*
G04 Generated by one-click*
G04 Object Configs: Pad,Via,Track,Text,Image,Dimension,BoardOutline,BoardCutout,CopperFilled,SolidRegion,FPCStiffener,Line,PlaneZone,ComponentProperty,ComponentSilkscreen,TearDrop*
G04 Layer Configs: 1,2,3,4,5,6,7,8,9,10,11,13,14,56*
G04 Copper Areas: 61*
%FSLAX45Y45*%
%MOMM*%
%ADD10C,0.2032*%
%ADD11C,0.254*%
%ADD12O,1.2X3.09999*%
%ADD13O,2.0X1.1*%
%ADD14O,1.8X1.2*%
%ADD15O,1.1029X2.0*%
%ADD16O,1.1X2.0*%
%ADD17O,1.2X1.8*%
%ADD18C,0.61*%
G75*


G04 Copper Start*
G36*
G01X2571256Y4291187D02*
G01X-247269Y4311464D01*
G01X-228921Y4316646D01*
G01X-211963Y4325358D01*
G01X-197065Y4337255D01*
G01X-184818Y4351866D01*
G01X-175706Y4368614D01*
G01X-170091Y4386833D01*
G01X-168194Y4405804D01*
G01X-168194Y4595804D01*
G01X930194Y4595804D01*
G01X930194Y4405804D01*
G01X932035Y4387112D01*
G01X937487Y4369138D01*
G01X946341Y4352573D01*
G01X958257Y4338053D01*
G01X972776Y4326138D01*
G01X989341Y4317284D01*
G01X1007315Y4311831D01*
G01X1026008Y4309990D01*
G01X1044700Y4311831D01*
G01X1062674Y4317284D01*
G01X1079239Y4326138D01*
G01X1093758Y4338053D01*
G01X1105674Y4352573D01*
G01X1114528Y4369138D01*
G01X1119980Y4387112D01*
G01X1121821Y4405804D01*
G01X1121821Y4595804D01*
G01X1119980Y4614496D01*
G01X1114528Y4632470D01*
G01X1105674Y4649035D01*
G01X1093758Y4663554D01*
G01X1079239Y4675470D01*
G01X1062674Y4684324D01*
G01X1044700Y4689776D01*
G01X1026008Y4691617D01*
G01X1007315Y4689776D01*
G01X989341Y4684324D01*
G01X972776Y4675470D01*
G01X958257Y4663554D01*
G01X946341Y4649035D01*
G01X937487Y4632470D01*
G01X932035Y4614496D01*
G01X930194Y4595804D01*
G01X930194Y4595804D01*
G01X-168194Y4595804D01*
G01X-170035Y4614496D01*
G01X-175487Y4632470D01*
G01X-184341Y4649035D01*
G01X-196257Y4663554D01*
G01X-210776Y4675470D01*
G01X-227341Y4684324D01*
G01X-245315Y4689776D01*
G01X-264008Y4691617D01*
G01X-282700Y4689776D01*
G01X-300674Y4684324D01*
G01X-317239Y4675470D01*
G01X-331758Y4663554D01*
G01X-343674Y4649035D01*
G01X-352528Y4632470D01*
G01X-357980Y4614496D01*
G01X-359821Y4595804D01*
G01X-359821Y4405804D01*
G01X-357963Y4387026D01*
G01X-352461Y4368977D01*
G01X-343529Y4352356D01*
G01X-331512Y4337808D01*
G01X-316877Y4325897D01*
G01X-300191Y4317085D01*
G01X-282102Y4311714D01*
G01X-744783Y4315043D01*
G01X-769919Y4326828D01*
G01X-793522Y4341445D01*
G01X-815273Y4358697D01*
G01X-834879Y4378351D01*
G01X-852078Y4400143D01*
G01X-857852Y4406580D01*
G01X-930812Y4470400D01*
G01X-854126Y4470400D01*
G01X-852210Y4446055D01*
G01X-846509Y4422309D01*
G01X-837163Y4399747D01*
G01X-824404Y4378926D01*
G01X-808544Y4360356D01*
G01X-789974Y4344496D01*
G01X-769153Y4331737D01*
G01X-746591Y4322391D01*
G01X-722845Y4316690D01*
G01X-698500Y4314774D01*
G01X-674155Y4316690D01*
G01X-650409Y4322391D01*
G01X-627847Y4331737D01*
G01X-607026Y4344496D01*
G01X-588456Y4360356D01*
G01X-572596Y4378926D01*
G01X-559837Y4399747D01*
G01X-550491Y4422309D01*
G01X-544790Y4446055D01*
G01X-542874Y4470400D01*
G01X-544790Y4494745D01*
G01X-550491Y4518491D01*
G01X-559837Y4541053D01*
G01X-572596Y4561874D01*
G01X-588456Y4580444D01*
G01X-607026Y4596304D01*
G01X-627847Y4609063D01*
G01X-650409Y4618409D01*
G01X-674155Y4624110D01*
G01X-698500Y4626026D01*
G01X-722845Y4624110D01*
G01X-746591Y4618409D01*
G01X-769153Y4609063D01*
G01X-789974Y4596304D01*
G01X-808544Y4580444D01*
G01X-824404Y4561874D01*
G01X-837163Y4541053D01*
G01X-846509Y4518491D01*
G01X-852210Y4494745D01*
G01X-854126Y4470400D01*
G01X-854126Y4470400D01*
G01X-930812Y4470400D01*
G01X-1355897Y4842229D01*
G01X-1372301Y4858774D01*
G01X-1386198Y4877474D01*
G01X-1397308Y4897952D01*
G01X-1405407Y4919798D01*
G01X-1410333Y4942569D01*
G01X-1411986Y4965809D01*
G01X-1411986Y5647594D01*
G01X4216072Y5647594D01*
G01X4216072Y5628609D01*
G01X4220019Y5610038D01*
G01X4227741Y5592695D01*
G01X4238901Y5577335D01*
G01X4253009Y5564632D01*
G01X4269451Y5555139D01*
G01X4287507Y5549272D01*
G01X4306388Y5547288D01*
G01X4396388Y5547288D01*
G01X4414959Y5549207D01*
G01X4432745Y5554883D01*
G01X4448994Y5564076D01*
G01X4463020Y5576398D01*
G01X4474230Y5591327D01*
G01X4482150Y5608234D01*
G01X4486445Y5626402D01*
G01X4486935Y5645066D01*
G01X4483597Y5663434D01*
G01X4476574Y5680733D01*
G01X4466162Y5696229D01*
G01X4452801Y5709269D01*
G01X4437055Y5719301D01*
G01X4450366Y5728605D01*
G01X4461207Y5740697D01*
G01X4469009Y5754941D01*
G01X4473359Y5770588D01*
G01X4474031Y5786815D01*
G01X4470989Y5802768D01*
G01X4464392Y5817608D01*
G01X4454587Y5830555D01*
G01X4442091Y5840927D01*
G01X4427560Y5848181D01*
G01X4411759Y5851933D01*
G01X4395519Y5851986D01*
G01X4379693Y5848338D01*
G01X4365115Y5841181D01*
G01X4352551Y5830890D01*
G01X4342662Y5818008D01*
G01X4335967Y5803212D01*
G01X4332819Y5787279D01*
G01X4333384Y5771049D01*
G01X4337632Y5755374D01*
G01X4345340Y5741079D01*
G01X4356101Y5728915D01*
G01X4306388Y5728915D01*
G01X4306388Y5728915D01*
G01X4287507Y5726931D01*
G01X4269451Y5721064D01*
G01X4253009Y5711571D01*
G01X4238901Y5698868D01*
G01X4227741Y5683508D01*
G01X4220019Y5666165D01*
G01X4216072Y5647594D01*
G01X-1411986Y5647594D01*
G01X-1411986Y6506451D01*
G01X-1410111Y6531192D01*
G01X-1404530Y6555368D01*
G01X-1395369Y6578427D01*
G01X-1382837Y6599842D01*
G01X-1367222Y6619124D01*
G01X-1353295Y6631811D01*
G01X1132706Y6631811D01*
G01X1134633Y6615941D01*
G01X1140302Y6600994D01*
G01X1149384Y6587837D01*
G01X1161350Y6577236D01*
G01X1175505Y6569807D01*
G01X1191027Y6565981D01*
G01X1207014Y6565981D01*
G01X1222536Y6569807D01*
G01X1236691Y6577236D01*
G01X1248657Y6587837D01*
G01X1257739Y6600994D01*
G01X1263408Y6615941D01*
G01X1265335Y6631811D01*
G01X1263792Y6644511D01*
G01X1399406Y6644511D01*
G01X1401333Y6628641D01*
G01X1407002Y6613694D01*
G01X1416084Y6600537D01*
G01X1428050Y6589936D01*
G01X1442205Y6582507D01*
G01X1457727Y6578681D01*
G01X1473714Y6578681D01*
G01X1489236Y6582507D01*
G01X1503391Y6589936D01*
G01X1515357Y6600537D01*
G01X1519412Y6606411D01*
G01X1615306Y6606411D01*
G01X1617233Y6590541D01*
G01X1622902Y6575594D01*
G01X1631984Y6562437D01*
G01X1643950Y6551836D01*
G01X1658105Y6544407D01*
G01X1673627Y6540581D01*
G01X1689614Y6540581D01*
G01X1705136Y6544407D01*
G01X1719291Y6551836D01*
G01X1731257Y6562437D01*
G01X1740339Y6575594D01*
G01X1746008Y6590541D01*
G01X1747935Y6606411D01*
G01X1746008Y6622281D01*
G01X1740339Y6637229D01*
G01X1731257Y6650386D01*
G01X1719291Y6660987D01*
G01X1705136Y6668416D01*
G01X1689614Y6672242D01*
G01X1673627Y6672242D01*
G01X1658105Y6668416D01*
G01X1643950Y6660987D01*
G01X1631984Y6650386D01*
G01X1622902Y6637229D01*
G01X1617233Y6622281D01*
G01X1615306Y6606411D01*
G01X1615306Y6606411D01*
G01X1519412Y6606411D01*
G01X1524439Y6613694D01*
G01X1530108Y6628641D01*
G01X1532035Y6644511D01*
G01X1530108Y6660381D01*
G01X1524439Y6675329D01*
G01X1515357Y6688486D01*
G01X1503391Y6699087D01*
G01X1489236Y6706516D01*
G01X1473714Y6710342D01*
G01X1457727Y6710342D01*
G01X1442205Y6706516D01*
G01X1428050Y6699087D01*
G01X1416084Y6688486D01*
G01X1407002Y6675329D01*
G01X1401333Y6660381D01*
G01X1399406Y6644511D01*
G01X1399406Y6644511D01*
G01X1263792Y6644511D01*
G01X1263408Y6647681D01*
G01X1257739Y6662629D01*
G01X1248657Y6675786D01*
G01X1236691Y6686387D01*
G01X1222536Y6693816D01*
G01X1207014Y6697642D01*
G01X1191027Y6697642D01*
G01X1175505Y6693816D01*
G01X1161350Y6686387D01*
G01X1149384Y6675786D01*
G01X1140302Y6662629D01*
G01X1134633Y6647681D01*
G01X1132706Y6631811D01*
G01X1132706Y6631811D01*
G01X-1353295Y6631811D01*
G01X-1348880Y6635833D01*
G01X-1114919Y6818615D01*
G01X-941724Y6818615D01*
G01X-939663Y6807860D01*
G01X-934448Y6798230D01*
G01X-926566Y6790627D01*
G01X-916756Y6785760D01*
G01X-905933Y6784086D01*
G01X-471192Y6784086D01*
G01X-463191Y6784991D01*
G01X-455594Y6787661D01*
G01X-448786Y6791961D01*
G01X47807Y7190221D01*
G01X55028Y7198039D01*
G01X59633Y7207635D01*
G01X61214Y7218160D01*
G01X61214Y7332500D01*
G01X853508Y7332500D01*
G01X853508Y7242500D01*
G01X855493Y7223619D01*
G01X861359Y7205563D01*
G01X870852Y7189121D01*
G01X883556Y7175012D01*
G01X898915Y7163853D01*
G01X916259Y7156131D01*
G01X934829Y7152183D01*
G01X953815Y7152183D01*
G01X972385Y7156131D01*
G01X989729Y7163853D01*
G01X1005088Y7175012D01*
G01X1017792Y7189121D01*
G01X1027285Y7205563D01*
G01X1033151Y7223619D01*
G01X1035136Y7242500D01*
G01X1035136Y7292184D01*
G01X1047302Y7281431D01*
G01X1061599Y7273732D01*
G01X1077273Y7269492D01*
G01X1093500Y7268933D01*
G01X1109429Y7272086D01*
G01X1124221Y7278783D01*
G01X1137098Y7288674D01*
G01X1147383Y7301239D01*
G01X1154537Y7315815D01*
G01X1158182Y7331638D01*
G01X1158129Y7347353D01*
G01X1341113Y7347353D01*
G01X1344005Y7333075D01*
G01X1349945Y7319774D01*
G01X1358646Y7308090D01*
G01X1358646Y7248886D01*
G01X1360299Y7236330D01*
G01X1365146Y7224629D01*
G01X1372855Y7214582D01*
G01X2706082Y5881355D01*
G01X2706082Y5881355D01*
G01X2716129Y5873646D01*
G01X2727830Y5868799D01*
G01X2740386Y5867146D01*
G01X2762525Y5867146D01*
G01X2767295Y5862376D01*
G01X2776751Y5855013D01*
G01X2787722Y5850193D01*
G01X2799540Y5848210D01*
G01X2795228Y5838043D01*
G01X2792662Y5827301D01*
G01X2777994Y5823306D01*
G01X2764622Y5816075D01*
G01X2753248Y5805989D01*
G01X2744469Y5793577D01*
G01X2738748Y5779493D01*
G01X2736385Y5764476D01*
G01X2737503Y5749315D01*
G01X2742045Y5734807D01*
G01X2749771Y5721715D01*
G01X2760276Y5710726D01*
G01X2773007Y5702419D01*
G01X2787296Y5697228D01*
G01X2802391Y5695429D01*
G01X2817500Y5697114D01*
G01X2831827Y5702196D01*
G01X2844621Y5710407D01*
G01X2882411Y5710407D01*
G01X2894967Y5712060D01*
G01X2906668Y5716906D01*
G01X2916716Y5724616D01*
G01X2990845Y5798745D01*
G01X2998555Y5808793D01*
G01X3003401Y5820493D01*
G01X3005054Y5833050D01*
G01X3005054Y5863471D01*
G01X3453145Y6311562D01*
G01X3460854Y6321609D01*
G01X3465701Y6333310D01*
G01X3467354Y6345866D01*
G01X3467354Y6357845D01*
G01X3488705Y6379195D01*
G01X3496414Y6389243D01*
G01X3501261Y6400944D01*
G01X3502914Y6413500D01*
G01X3502914Y6545713D01*
G01X3515086Y6545713D01*
G01X3517013Y6529843D01*
G01X3522682Y6514895D01*
G01X3531763Y6501739D01*
G01X3543729Y6491138D01*
G01X3557885Y6483708D01*
G01X3573407Y6479883D01*
G01X3589393Y6479883D01*
G01X3604915Y6483708D01*
G01X3619071Y6491138D01*
G01X3631037Y6501739D01*
G01X3638528Y6512591D01*
G01X4216072Y6512591D01*
G01X4216072Y6493606D01*
G01X4220019Y6475035D01*
G01X4227741Y6457692D01*
G01X4238901Y6442332D01*
G01X4253009Y6429629D01*
G01X4269451Y6420136D01*
G01X4287507Y6414269D01*
G01X4306388Y6412285D01*
G01X4356073Y6412285D01*
G01X4345320Y6400118D01*
G01X4337620Y6385822D01*
G01X4333380Y6370148D01*
G01X4332822Y6353920D01*
G01X4335974Y6337992D01*
G01X4342672Y6323200D01*
G01X4352563Y6310323D01*
G01X4365127Y6300037D01*
G01X4379704Y6292884D01*
G01X4395527Y6289239D01*
G01X4411764Y6289294D01*
G01X4427562Y6293046D01*
G01X4442090Y6300297D01*
G01X4454585Y6310668D01*
G01X4464388Y6323612D01*
G01X4470986Y6338448D01*
G01X4474030Y6354398D01*
G01X4473362Y6370622D01*
G01X4469016Y6386267D01*
G01X4461220Y6400510D01*
G01X4450385Y6412604D01*
G01X4437080Y6421911D01*
G01X4452820Y6431947D01*
G01X4466176Y6444989D01*
G01X4476584Y6460486D01*
G01X4483602Y6477784D01*
G01X4486936Y6496151D01*
G01X4486443Y6514812D01*
G01X4482146Y6532978D01*
G01X4474225Y6549882D01*
G01X4463014Y6564808D01*
G01X4448989Y6577128D01*
G01X4432741Y6586319D01*
G01X4414957Y6591994D01*
G01X4396388Y6593912D01*
G01X4396388Y6593912D01*
G01X4306388Y6593912D01*
G01X4287507Y6591928D01*
G01X4269451Y6586061D01*
G01X4253009Y6576568D01*
G01X4238901Y6563865D01*
G01X4227741Y6548505D01*
G01X4220019Y6531162D01*
G01X4216072Y6512591D01*
G01X3638528Y6512591D01*
G01X3640118Y6514895D01*
G01X3645787Y6529843D01*
G01X3647714Y6545713D01*
G01X3645787Y6561583D01*
G01X3640118Y6576531D01*
G01X3631037Y6589687D01*
G01X3619071Y6600289D01*
G01X3604915Y6607718D01*
G01X3589393Y6611544D01*
G01X3573407Y6611544D01*
G01X3557885Y6607718D01*
G01X3543729Y6600289D01*
G01X3531763Y6589687D01*
G01X3522682Y6576531D01*
G01X3517013Y6561583D01*
G01X3515086Y6545713D01*
G01X3515086Y6545713D01*
G01X3502914Y6545713D01*
G01X3502914Y7028690D01*
G01X3511638Y7040413D01*
G01X3517583Y7053763D01*
G01X3520459Y7068090D01*
G01X3520128Y7082700D01*
G01X3516604Y7096882D01*
G01X3510061Y7109948D01*
G01X3500814Y7121264D01*
G01X3489313Y7130279D01*
G01X3476117Y7136557D01*
G01X3461867Y7139792D01*
G01X3447253Y7139828D01*
G01X3432987Y7136662D01*
G01X3422771Y7148402D01*
G01X3410099Y7157438D01*
G01X3395670Y7163271D01*
G01X3380279Y7165581D01*
G01X3364774Y7164241D01*
G01X3350008Y7159323D01*
G01X3336795Y7151099D01*
G01X3325863Y7140023D01*
G01X3317813Y7126703D01*
G01X3313089Y7111874D01*
G01X3311951Y7096352D01*
G01X3314463Y7080993D01*
G01X3320485Y7066642D01*
G01X3329686Y7054090D01*
G01X3329686Y6382795D01*
G01X2923794Y5976903D01*
G01X2921684Y5991952D01*
G01X2916204Y6006124D01*
G01X2907642Y6018678D01*
G01X2896446Y6028952D01*
G01X2883206Y6036409D01*
G01X2868616Y6040656D01*
G01X2853443Y6041470D01*
G01X2838482Y6038808D01*
G01X2824520Y6032812D01*
G01X2812290Y6023794D01*
G01X2801600Y6023794D01*
G01X2790244Y6022446D01*
G01X2779519Y6018477D01*
G01X2770021Y6012109D01*
G01X2223716Y6558413D01*
G01X3184886Y6558413D01*
G01X3186813Y6542543D01*
G01X3192482Y6527595D01*
G01X3201563Y6514439D01*
G01X3213529Y6503838D01*
G01X3227685Y6496408D01*
G01X3243207Y6492583D01*
G01X3259193Y6492583D01*
G01X3274715Y6496408D01*
G01X3288871Y6503838D01*
G01X3300837Y6514439D01*
G01X3309918Y6527595D01*
G01X3315587Y6542543D01*
G01X3317514Y6558413D01*
G01X3315587Y6574283D01*
G01X3309918Y6589231D01*
G01X3300837Y6602387D01*
G01X3288871Y6612989D01*
G01X3274715Y6620418D01*
G01X3259193Y6624244D01*
G01X3243207Y6624244D01*
G01X3227685Y6620418D01*
G01X3213529Y6612989D01*
G01X3201563Y6602387D01*
G01X3192482Y6589231D01*
G01X3186813Y6574283D01*
G01X3184886Y6558413D01*
G01X3184886Y6558413D01*
G01X2223716Y6558413D01*
G01X1547114Y7235015D01*
G01X1547114Y7308090D01*
G01X1555815Y7319774D01*
G01X1561109Y7331630D01*
G01X1595435Y7331630D01*
G01X1599082Y7315805D01*
G01X1606240Y7301227D01*
G01X1616530Y7288662D01*
G01X1629412Y7278773D01*
G01X1644209Y7272078D01*
G01X1660141Y7268931D01*
G01X1676372Y7269496D01*
G01X1692047Y7273744D01*
G01X1706342Y7281451D01*
G01X1718505Y7292212D01*
G01X1718505Y7242500D01*
G01X1720490Y7223619D01*
G01X1726356Y7205563D01*
G01X1735849Y7189121D01*
G01X1748553Y7175012D01*
G01X1763912Y7163853D01*
G01X1781256Y7156131D01*
G01X1799826Y7152183D01*
G01X1818812Y7152183D01*
G01X1837382Y7156131D01*
G01X1854726Y7163853D01*
G01X1870085Y7175012D01*
G01X1882789Y7189121D01*
G01X1892282Y7205563D01*
G01X1898148Y7223619D01*
G01X1900133Y7242500D01*
G01X1900133Y7332500D01*
G01X1898531Y7348001D01*
G01X2931088Y7348001D01*
G01X2931088Y7258001D01*
G01X2933072Y7239120D01*
G01X2938939Y7221064D01*
G01X2948432Y7204622D01*
G01X2961135Y7190514D01*
G01X2976495Y7179354D01*
G01X2993838Y7171632D01*
G01X3012409Y7167685D01*
G01X3031394Y7167685D01*
G01X3049965Y7171632D01*
G01X3067308Y7179354D01*
G01X3082668Y7190514D01*
G01X3095371Y7204622D01*
G01X3104864Y7221064D01*
G01X3110731Y7239120D01*
G01X3112715Y7258001D01*
G01X3112715Y7307686D01*
G01X3124882Y7296933D01*
G01X3139178Y7289234D01*
G01X3154852Y7284993D01*
G01X3171080Y7284435D01*
G01X3187008Y7287587D01*
G01X3201800Y7294285D01*
G01X3214677Y7304176D01*
G01X3224963Y7316740D01*
G01X3232116Y7331317D01*
G01X3235760Y7347132D01*
G01X3673014Y7347132D01*
G01X3676662Y7331306D01*
G01X3683819Y7316728D01*
G01X3694110Y7304164D01*
G01X3706992Y7294275D01*
G01X3721788Y7287580D01*
G01X3737721Y7284433D01*
G01X3753951Y7284998D01*
G01X3769626Y7289245D01*
G01X3783921Y7296953D01*
G01X3796085Y7307714D01*
G01X3796085Y7258001D01*
G01X3798069Y7239120D01*
G01X3803936Y7221064D01*
G01X3813429Y7204622D01*
G01X3826132Y7190514D01*
G01X3841492Y7179354D01*
G01X3858835Y7171632D01*
G01X3877406Y7167685D01*
G01X3896391Y7167685D01*
G01X3914962Y7171632D01*
G01X3932305Y7179354D01*
G01X3947665Y7190514D01*
G01X3960368Y7204622D01*
G01X3969861Y7221064D01*
G01X3975728Y7239120D01*
G01X3977712Y7258001D01*
G01X3977712Y7348001D01*
G01X3975793Y7366572D01*
G01X3970117Y7384358D01*
G01X3960924Y7400607D01*
G01X3948602Y7414633D01*
G01X3933673Y7425843D01*
G01X3916766Y7433763D01*
G01X3898598Y7438058D01*
G01X3879934Y7438548D01*
G01X3861566Y7435210D01*
G01X3844267Y7428187D01*
G01X3828771Y7417775D01*
G01X3815731Y7404414D01*
G01X3805699Y7388668D01*
G01X3805699Y7388668D01*
G01X3796395Y7401979D01*
G01X3784303Y7412821D01*
G01X3770059Y7420622D01*
G01X3754412Y7424973D01*
G01X3738185Y7425644D01*
G01X3722232Y7422602D01*
G01X3707392Y7416005D01*
G01X3694445Y7406200D01*
G01X3684073Y7393704D01*
G01X3676819Y7379173D01*
G01X3673067Y7363372D01*
G01X3673067Y7363372D01*
G01X3673014Y7347132D01*
G01X3235760Y7347132D01*
G01X3235761Y7347140D01*
G01X3235706Y7363377D01*
G01X3231954Y7379175D01*
G01X3224703Y7393703D01*
G01X3214332Y7406198D01*
G01X3201388Y7416001D01*
G01X3186552Y7422599D01*
G01X3170602Y7425643D01*
G01X3154378Y7424975D01*
G01X3138733Y7420629D01*
G01X3124490Y7412833D01*
G01X3112396Y7401998D01*
G01X3103089Y7388693D01*
G01X3093053Y7404433D01*
G01X3080011Y7417790D01*
G01X3064514Y7428197D01*
G01X3047216Y7435216D01*
G01X3028849Y7438549D01*
G01X3010188Y7438057D01*
G01X2992022Y7433759D01*
G01X2975118Y7425838D01*
G01X2960192Y7414627D01*
G01X2947872Y7400602D01*
G01X2938681Y7384354D01*
G01X2933006Y7366570D01*
G01X2931088Y7348001D01*
G01X2931088Y7348001D01*
G01X1898531Y7348001D01*
G01X1898214Y7351070D01*
G01X1892538Y7368856D01*
G01X1883345Y7385106D01*
G01X1871023Y7399132D01*
G01X1856093Y7410341D01*
G01X1839187Y7418261D01*
G01X1821018Y7422557D01*
G01X1802355Y7423046D01*
G01X1783986Y7419709D01*
G01X1766688Y7412685D01*
G01X1751191Y7402273D01*
G01X1738152Y7388912D01*
G01X1728120Y7373167D01*
G01X1718815Y7386478D01*
G01X1706723Y7397319D01*
G01X1692479Y7405120D01*
G01X1676832Y7409471D01*
G01X1660606Y7410143D01*
G01X1644653Y7407100D01*
G01X1629813Y7400503D01*
G01X1616866Y7390699D01*
G01X1606493Y7378202D01*
G01X1599240Y7363672D01*
G01X1595488Y7347871D01*
G01X1595488Y7347871D01*
G01X1595435Y7331630D01*
G01X1561109Y7331630D01*
G01X1561755Y7333075D01*
G01X1564647Y7347353D01*
G01X1564352Y7361918D01*
G01X1560884Y7376066D01*
G01X1554410Y7389116D01*
G01X1545243Y7400438D01*
G01X1533825Y7409485D01*
G01X1520707Y7415821D01*
G01X1506523Y7419139D01*
G01X1491956Y7419280D01*
G01X1477709Y7416238D01*
G01X1464471Y7410158D01*
G01X1452880Y7401334D01*
G01X1441289Y7410158D01*
G01X1428051Y7416238D01*
G01X1413804Y7419280D01*
G01X1399237Y7419139D01*
G01X1385053Y7415821D01*
G01X1371935Y7409485D01*
G01X1360517Y7400438D01*
G01X1351350Y7389116D01*
G01X1344876Y7376066D01*
G01X1341408Y7361918D01*
G01X1341113Y7347353D01*
G01X1158129Y7347353D01*
G01X1158127Y7347876D01*
G01X1154375Y7363674D01*
G01X1147123Y7378202D01*
G01X1136752Y7390696D01*
G01X1123809Y7400500D01*
G01X1108972Y7407097D01*
G01X1093023Y7410142D01*
G01X1076799Y7409473D01*
G01X1061154Y7405127D01*
G01X1046910Y7397331D01*
G01X1034817Y7386496D01*
G01X1025509Y7373191D01*
G01X1015474Y7388932D01*
G01X1002432Y7402288D01*
G01X986935Y7412695D01*
G01X969637Y7419714D01*
G01X951269Y7423047D01*
G01X932608Y7422555D01*
G01X914442Y7418257D01*
G01X897539Y7410336D01*
G01X882612Y7399126D01*
G01X870293Y7385100D01*
G01X861102Y7368852D01*
G01X855427Y7351068D01*
G01X853508Y7332500D01*
G01X853508Y7332500D01*
G01X61214Y7332500D01*
G01X61214Y7581900D01*
G01X61214Y7581900D01*
G01X59369Y7593246D01*
G01X54025Y7603423D01*
G01X45732Y7611383D01*
G01X35344Y7616306D01*
G01X23932Y7617684D01*
G01X12671Y7615376D01*
G01X2721Y7609619D01*
G01X-928612Y6847619D01*
G01X-935928Y6839469D01*
G01X-940439Y6829491D01*
G01X-941724Y6818615D01*
G01X-1114919Y6818615D01*
G01X-24123Y7670800D01*
G01X111074Y7670800D01*
G01X112990Y7646455D01*
G01X118691Y7622709D01*
G01X128037Y7600147D01*
G01X140796Y7579326D01*
G01X156656Y7560756D01*
G01X175226Y7544896D01*
G01X196047Y7532137D01*
G01X218609Y7522791D01*
G01X242355Y7517090D01*
G01X266700Y7515174D01*
G01X291045Y7517090D01*
G01X296500Y7518400D01*
G01X4213174Y7518400D01*
G01X4215090Y7494055D01*
G01X4220791Y7470309D01*
G01X4230137Y7447747D01*
G01X4242896Y7426926D01*
G01X4258756Y7408356D01*
G01X4277326Y7392496D01*
G01X4298147Y7379737D01*
G01X4320709Y7370391D01*
G01X4344455Y7364690D01*
G01X4368800Y7362774D01*
G01X4393145Y7364690D01*
G01X4416891Y7370391D01*
G01X4439453Y7379737D01*
G01X4460274Y7392496D01*
G01X4478844Y7408356D01*
G01X4494704Y7426926D01*
G01X4507463Y7447747D01*
G01X4516809Y7470309D01*
G01X4522510Y7494055D01*
G01X4524426Y7518400D01*
G01X4522510Y7542745D01*
G01X4516809Y7566491D01*
G01X4507463Y7589053D01*
G01X4494704Y7609874D01*
G01X4478844Y7628444D01*
G01X4460274Y7644304D01*
G01X4439453Y7657063D01*
G01X4416891Y7666409D01*
G01X4393145Y7672110D01*
G01X4368800Y7674026D01*
G01X4344455Y7672110D01*
G01X4320709Y7666409D01*
G01X4298147Y7657063D01*
G01X4277326Y7644304D01*
G01X4258756Y7628444D01*
G01X4242896Y7609874D01*
G01X4230137Y7589053D01*
G01X4220791Y7566491D01*
G01X4215090Y7542745D01*
G01X4213174Y7518400D01*
G01X4213174Y7518400D01*
G01X296500Y7518400D01*
G01X314791Y7522791D01*
G01X337353Y7532137D01*
G01X358174Y7544896D01*
G01X376744Y7560756D01*
G01X392604Y7579326D01*
G01X405363Y7600147D01*
G01X414709Y7622709D01*
G01X420410Y7646455D01*
G01X422326Y7670800D01*
G01X420410Y7695145D01*
G01X414709Y7718891D01*
G01X406995Y7737514D01*
G01X848508Y7737514D01*
G01X848508Y7677514D01*
G01X850349Y7658822D01*
G01X855801Y7640848D01*
G01X864656Y7624283D01*
G01X876571Y7609764D01*
G01X891091Y7597848D01*
G01X907656Y7588994D01*
G01X925630Y7583541D01*
G01X944322Y7581700D01*
G01X963014Y7583541D01*
G01X980988Y7588994D01*
G01X997553Y7597848D01*
G01X1012073Y7609764D01*
G01X1023988Y7624283D01*
G01X1032842Y7640848D01*
G01X1038295Y7658822D01*
G01X1040136Y7677514D01*
G01X1040136Y7677514D01*
G01X1040136Y7737514D01*
G01X1713505Y7737514D01*
G01X1713505Y7677514D01*
G01X1715346Y7658822D01*
G01X1720798Y7640848D01*
G01X1729653Y7624283D01*
G01X1741568Y7609764D01*
G01X1756088Y7597848D01*
G01X1772653Y7588994D01*
G01X1790627Y7583541D01*
G01X1809319Y7581700D01*
G01X1828011Y7583541D01*
G01X1845985Y7588994D01*
G01X1862550Y7597848D01*
G01X1877070Y7609764D01*
G01X1888985Y7624283D01*
G01X1897839Y7640848D01*
G01X1903292Y7658822D01*
G01X1905133Y7677514D01*
G01X1905133Y7677514D01*
G01X1905133Y7737514D01*
G01X1903606Y7753016D01*
G01X2926088Y7753016D01*
G01X2926088Y7693016D01*
G01X2927929Y7674323D01*
G01X2933381Y7656349D01*
G01X2942235Y7639785D01*
G01X2954151Y7625265D01*
G01X2968670Y7613350D01*
G01X2985235Y7604495D01*
G01X3003209Y7599043D01*
G01X3021902Y7597202D01*
G01X3040594Y7599043D01*
G01X3058568Y7604495D01*
G01X3075133Y7613350D01*
G01X3089652Y7625265D01*
G01X3101568Y7639785D01*
G01X3110422Y7656349D01*
G01X3115874Y7674323D01*
G01X3117715Y7693016D01*
G01X3117715Y7693016D01*
G01X3117715Y7753016D01*
G01X3791085Y7753016D01*
G01X3791085Y7693016D01*
G01X3792926Y7674323D01*
G01X3798378Y7656349D01*
G01X3807232Y7639785D01*
G01X3819148Y7625265D01*
G01X3833667Y7613350D01*
G01X3850232Y7604495D01*
G01X3868206Y7599043D01*
G01X3886899Y7597202D01*
G01X3905591Y7599043D01*
G01X3923565Y7604495D01*
G01X3940130Y7613350D01*
G01X3954649Y7625265D01*
G01X3966565Y7639785D01*
G01X3975419Y7656349D01*
G01X3980871Y7674323D01*
G01X3982712Y7693016D01*
G01X3982712Y7693016D01*
G01X3982712Y7753016D01*
G01X3980871Y7771708D01*
G01X3975419Y7789682D01*
G01X3966565Y7806247D01*
G01X3954649Y7820766D01*
G01X3940130Y7832682D01*
G01X3923565Y7841536D01*
G01X3905591Y7846989D01*
G01X3886899Y7848830D01*
G01X3868206Y7846989D01*
G01X3850232Y7841536D01*
G01X3833667Y7832682D01*
G01X3819148Y7820766D01*
G01X3807232Y7806247D01*
G01X3798378Y7789682D01*
G01X3792926Y7771708D01*
G01X3791085Y7753016D01*
G01X3117715Y7753016D01*
G01X3115874Y7771708D01*
G01X3110422Y7789682D01*
G01X3101568Y7806247D01*
G01X3089652Y7820766D01*
G01X3075133Y7832682D01*
G01X3058568Y7841536D01*
G01X3040594Y7846989D01*
G01X3021902Y7848830D01*
G01X3003209Y7846989D01*
G01X2985235Y7841536D01*
G01X2968670Y7832682D01*
G01X2954151Y7820766D01*
G01X2942235Y7806247D01*
G01X2933381Y7789682D01*
G01X2927929Y7771708D01*
G01X2926088Y7753016D01*
G01X1903606Y7753016D01*
G01X1903292Y7756206D01*
G01X1897839Y7774181D01*
G01X1888985Y7790745D01*
G01X1877070Y7805265D01*
G01X1862550Y7817180D01*
G01X1845985Y7826035D01*
G01X1828011Y7831487D01*
G01X1809319Y7833328D01*
G01X1790627Y7831487D01*
G01X1772653Y7826035D01*
G01X1756088Y7817180D01*
G01X1741568Y7805265D01*
G01X1729653Y7790745D01*
G01X1720798Y7774181D01*
G01X1715346Y7756206D01*
G01X1713505Y7737514D01*
G01X1040136Y7737514D01*
G01X1038295Y7756206D01*
G01X1032842Y7774181D01*
G01X1023988Y7790745D01*
G01X1012073Y7805265D01*
G01X997553Y7817180D01*
G01X980988Y7826035D01*
G01X963014Y7831487D01*
G01X944322Y7833328D01*
G01X925630Y7831487D01*
G01X907656Y7826035D01*
G01X891091Y7817180D01*
G01X876571Y7805265D01*
G01X864656Y7790745D01*
G01X855801Y7774181D01*
G01X850349Y7756206D01*
G01X848508Y7737514D01*
G01X406995Y7737514D01*
G01X405363Y7741453D01*
G01X392604Y7762274D01*
G01X376744Y7780844D01*
G01X358174Y7796704D01*
G01X337353Y7809463D01*
G01X314791Y7818809D01*
G01X291045Y7824510D01*
G01X266700Y7826426D01*
G01X242355Y7824510D01*
G01X218609Y7818809D01*
G01X196047Y7809463D01*
G01X175226Y7796704D01*
G01X156656Y7780844D01*
G01X140796Y7762274D01*
G01X128037Y7741453D01*
G01X118691Y7718891D01*
G01X112990Y7695145D01*
G01X111074Y7670800D01*
G01X111074Y7670800D01*
G01X-24123Y7670800D01*
G01X146130Y7803810D01*
G01X163953Y7815938D01*
G01X183211Y7825627D01*
G01X203573Y7832708D01*
G01X224688Y7837061D01*
G01X246190Y7838610D01*
G01X4188510Y7863096D01*
G01X4213110Y7861398D01*
G01X4237178Y7856034D01*
G01X4260171Y7847126D01*
G01X4281571Y7834875D01*
G01X4300894Y7819558D01*
G01X4838964Y7322878D01*
G01X4854456Y7306467D01*
G01X4867551Y7288087D01*
G01X4878002Y7268084D01*
G01X4885611Y7246838D01*
G01X4890235Y7224749D01*
G01X4891786Y7202234D01*
G01X4891786Y6534897D01*
G01X4883400Y6552665D01*
G01X4871566Y6568348D01*
G01X4856781Y6581288D01*
G01X4839668Y6590940D01*
G01X4820946Y6596898D01*
G01X4801403Y6598912D01*
G01X4741403Y6598912D01*
G01X4722710Y6597071D01*
G01X4704736Y6591619D01*
G01X4688171Y6582765D01*
G01X4673652Y6570849D01*
G01X4661736Y6556330D01*
G01X4652882Y6539765D01*
G01X4647430Y6521791D01*
G01X4645589Y6503099D01*
G01X4647430Y6484406D01*
G01X4652882Y6466432D01*
G01X4661736Y6449867D01*
G01X4673652Y6435348D01*
G01X4688171Y6423432D01*
G01X4704736Y6414578D01*
G01X4722710Y6409126D01*
G01X4741403Y6407285D01*
G01X4801403Y6407285D01*
G01X4820946Y6409299D01*
G01X4839668Y6415257D01*
G01X4856781Y6424909D01*
G01X4871566Y6437849D01*
G01X4883400Y6453532D01*
G01X4891786Y6471300D01*
G01X4891786Y5669900D01*
G01X4883400Y5687668D01*
G01X4871566Y5703351D01*
G01X4856781Y5716291D01*
G01X4839668Y5725943D01*
G01X4820946Y5731901D01*
G01X4801403Y5733915D01*
G01X4741403Y5733915D01*
G01X4722710Y5732074D01*
G01X4704736Y5726622D01*
G01X4688171Y5717768D01*
G01X4673652Y5705852D01*
G01X4661736Y5691333D01*
G01X4652882Y5674768D01*
G01X4647430Y5656794D01*
G01X4645589Y5638102D01*
G01X4647430Y5619409D01*
G01X4652882Y5601435D01*
G01X4661736Y5584870D01*
G01X4673652Y5570351D01*
G01X4688171Y5558435D01*
G01X4704736Y5549581D01*
G01X4722710Y5544129D01*
G01X4741403Y5542288D01*
G01X4801403Y5542288D01*
G01X4820946Y5544302D01*
G01X4839668Y5550260D01*
G01X4856781Y5559912D01*
G01X4871566Y5572852D01*
G01X4883400Y5588535D01*
G01X4891786Y5606303D01*
G01X4891786Y4927109D01*
G01X4890263Y4904798D01*
G01X4885722Y4882901D01*
G01X4878248Y4861824D01*
G01X4867979Y4841958D01*
G01X4855106Y4823672D01*
G01X4515023Y4404426D01*
G01X4521551Y4427925D01*
G01X4524327Y4452156D01*
G01X4523283Y4476523D01*
G01X4518445Y4500428D01*
G01X4509932Y4523284D01*
G01X4497952Y4544528D01*
G01X4482800Y4563640D01*
G01X4464848Y4580150D01*
G01X4444537Y4593653D01*
G01X4422367Y4603816D01*
G01X4398880Y4610391D01*
G01X4374655Y4613215D01*
G01X4350285Y4612220D01*
G01X4326371Y4607430D01*
G01X4303499Y4598962D01*
G01X4282230Y4587025D01*
G01X4263088Y4571912D01*
G01X4246542Y4553993D01*
G01X4232999Y4533709D01*
G01X4222791Y4511559D01*
G01X4216170Y4488085D01*
G01X4213297Y4463866D01*
G01X4214243Y4439494D01*
G01X4218985Y4415570D01*
G01X4227407Y4392681D01*
G01X4239302Y4371389D01*
G01X4254377Y4352217D01*
G01X4272263Y4335635D01*
G01X4292520Y4322051D01*
G01X4314650Y4311799D01*
G01X4338110Y4305131D01*
G01X4362324Y4302209D01*
G01X4386697Y4303107D01*
G01X4410630Y4307801D01*
G01X4433536Y4316178D01*
G01X4454852Y4328030D01*
G01X4435494Y4312112D01*
G01X4414512Y4298406D01*
G01X4392157Y4287075D01*
G01X4368698Y4278255D01*
G01X2639841Y4290693D01*
G01X2657155Y4299268D01*
G01X2672397Y4311142D01*
G01X2684946Y4325832D01*
G01X2694293Y4342741D01*
G01X2700058Y4361182D01*
G01X2702006Y4380404D01*
G01X2702006Y4570404D01*
G01X3800394Y4570404D01*
G01X3800394Y4380404D01*
G01X3802235Y4361712D01*
G01X3807687Y4343738D01*
G01X3816541Y4327173D01*
G01X3828457Y4312653D01*
G01X3842976Y4300738D01*
G01X3859541Y4291884D01*
G01X3877515Y4286431D01*
G01X3896208Y4284590D01*
G01X3914900Y4286431D01*
G01X3932874Y4291884D01*
G01X3949439Y4300738D01*
G01X3963958Y4312653D01*
G01X3975874Y4327173D01*
G01X3984728Y4343738D01*
G01X3990180Y4361712D01*
G01X3992021Y4380404D01*
G01X3992021Y4570404D01*
G01X3990180Y4589096D01*
G01X3984728Y4607070D01*
G01X3975874Y4623635D01*
G01X3963958Y4638154D01*
G01X3949439Y4650070D01*
G01X3932874Y4658924D01*
G01X3914900Y4664376D01*
G01X3896208Y4666217D01*
G01X3877515Y4664376D01*
G01X3859541Y4658924D01*
G01X3842976Y4650070D01*
G01X3828457Y4638154D01*
G01X3816541Y4623635D01*
G01X3807687Y4607070D01*
G01X3802235Y4589096D01*
G01X3800394Y4570404D01*
G01X3800394Y4570404D01*
G01X2702006Y4570404D01*
G01X2700165Y4589096D01*
G01X2694713Y4607070D01*
G01X2685859Y4623635D01*
G01X2673943Y4638154D01*
G01X2659424Y4650070D01*
G01X2642859Y4658924D01*
G01X2624885Y4664376D01*
G01X2606192Y4666217D01*
G01X2587500Y4664376D01*
G01X2569526Y4658924D01*
G01X2552961Y4650070D01*
G01X2538442Y4638154D01*
G01X2526526Y4623635D01*
G01X2517672Y4607070D01*
G01X2512220Y4589096D01*
G01X2510379Y4570404D01*
G01X2510379Y4380404D01*
G01X2512281Y4361407D01*
G01X2517912Y4343164D01*
G01X2527048Y4326400D01*
G01X2539327Y4311780D01*
G01X2554260Y4299885D01*
G01X2571256Y4291187D01*
G37*
G54D10*
G01X2571256Y4291187D02*
G01X-247269Y4311464D01*
G03X-168194Y4405804I-16739J94340D01*
G01X-168194Y4595804D01*
G03X-359821Y4595804I-95814J0D01*
G01X-359821Y4405804D01*
G03X-282102Y4311714I95814J0D01*
G01X-744783Y4315043D01*
G02X-852078Y4400143I88863J222227D01*
G03X-857852Y4406580I-29353J-20520D01*
G01X-1355897Y4842229D01*
G02X-1411986Y4965809I108097J123580D01*
G01X-1411986Y6506451D01*
G02X-1348880Y6635833I164186J0D01*
G01X146130Y7803810D01*
G02X246190Y7838610I101080J-129383D01*
G01X4188510Y7863096D01*
G02X4300894Y7819558I1020J-164183D01*
G01X4838964Y7322878D01*
G02X4891786Y7202234I-111364J-120645D01*
G01X4891786Y6534897D01*
G03X4801403Y6598912I-90383J-31799D01*
G01X4741403Y6598912D01*
G03X4741403Y6407285I0J-95814D01*
G01X4801403Y6407285D01*
G03X4891786Y6471300I0J95814D01*
G01X4891786Y5669900D01*
G03X4801403Y5733915I-90383J-31799D01*
G01X4741403Y5733915D01*
G03X4741403Y5542288I0J-95814D01*
G01X4801403Y5542288D01*
G03X4891786Y5606303I0J95814D01*
G01X4891786Y4927109D01*
G02X4855106Y4823672I-164186J0D01*
G01X4515023Y4404426D01*
G03X4246542Y4553993I-146223J53274D01*
G03X4454852Y4328030I122258J-96293D01*
G02X4368698Y4278255I-154872J168618D01*
G01X2639841Y4290693D01*
G03X2702006Y4380404I-33649J89711D01*
G01X2702006Y4570404D01*
G03X2510379Y4570404I-95814J0D01*
G01X2510379Y4380404D01*
G03X2571256Y4291187I95814J0D01*
G01X61214Y7581900D02*
G03X2721Y7609619I-35814J0D01*
G01X-928612Y6847619D01*
G03X-905933Y6784086I22679J-27719D01*
G01X-471192Y6784086D01*
G03X-448786Y6791961I0J35814D01*
G01X47807Y7190221D01*
G03X61214Y7218160I-22407J27939D01*
G01X61214Y7581900D01*
G01X-854126Y4470400D02*
G03X-542874Y4470400I155626J0D01*
G03X-854126Y4470400I-155626J0D01*
G01X111074Y7670800D02*
G03X422326Y7670800I155626J0D01*
G03X111074Y7670800I-155626J0D01*
G01X1040136Y7677514D02*
G01X1040136Y7737514D01*
G03X848508Y7737514I-95814J0D01*
G01X848508Y7677514D01*
G03X1040136Y7677514I95814J0D01*
G01X853508Y7332500D02*
G01X853508Y7242500D01*
G03X1035136Y7242500I90814J0D01*
G01X1035136Y7292184D01*
G03X1158127Y7347876I52671J47335D01*
G03X1025509Y7373191I-70320J-8357D01*
G03X853508Y7332500I-81187J-40692D01*
G01X930194Y4595804D02*
G01X930194Y4405804D01*
G03X1121821Y4405804I95814J0D01*
G01X1121821Y4595804D01*
G03X930194Y4595804I-95814J0D01*
G01X1132706Y6631811D02*
G03X1265335Y6631811I66314J0D01*
G03X1132706Y6631811I-66314J0D01*
G01X2706082Y5881355D02*
G03X2740386Y5867146I34305J34305D01*
G01X2762525Y5867146D01*
G01X2767295Y5862376D01*
G03X2799540Y5848210I34305J34305D01*
G03X2792662Y5827301I58681J-30889D01*
G03X2742045Y5734807I9980J-65559D01*
G03X2844621Y5710407I60597J26935D01*
G01X2882411Y5710407D01*
G03X2916716Y5724616I0J48514D01*
G01X2990845Y5798745D01*
G03X3005054Y5833050I-34305J34305D01*
G01X3005054Y5863471D01*
G01X3453145Y6311562D01*
G03X3467354Y6345866I-34305J34305D01*
G01X3467354Y6357845D01*
G01X3488705Y6379195D01*
G03X3502914Y6413500I-34305J34305D01*
G01X3502914Y7028690D01*
G03X3510061Y7109948I-48514J45210D01*
G03X3432987Y7136662I-55661J-36048D01*
G03X3336795Y7151099I-54787J-37362D01*
G03X3329686Y7054090I41405J-51799D01*
G01X3329686Y6382795D01*
G01X2923794Y5976903D01*
G03X2883206Y6036409I-66294J-1623D01*
G03X2812290Y6023794I-25706J-61129D01*
G01X2801600Y6023794D01*
G03X2770021Y6012109I0J-48514D01*
G01X1547114Y7235015D01*
G01X1547114Y7308090D01*
G03X1545243Y7400438I-48514J45210D01*
G03X1452880Y7401334I-46643J-47138D01*
G03X1360517Y7400438I-45720J-48034D01*
G03X1358646Y7308090I46643J-47138D01*
G01X1358646Y7248886D01*
G03X1372855Y7214582I48514J0D01*
G01X2706082Y5881355D01*
G01X1399406Y6644511D02*
G03X1532035Y6644511I66314J0D01*
G03X1399406Y6644511I-66314J0D01*
G01X1595488Y7347871D02*
G03X1718505Y7292212I70321J-8352D01*
G01X1718505Y7242500D01*
G03X1900133Y7242500I90814J0D01*
G01X1900133Y7332500D01*
G03X1728120Y7373167I-90814J0D01*
G03X1595488Y7347871I-62311J-33648D01*
G01X1615306Y6606411D02*
G03X1747935Y6606411I66314J0D01*
G03X1615306Y6606411I-66314J0D01*
G01X1905133Y7677514D02*
G01X1905133Y7737514D01*
G03X1713505Y7737514I-95814J0D01*
G01X1713505Y7677514D01*
G03X1905133Y7677514I95814J0D01*
G01X3117715Y7693016D02*
G01X3117715Y7753016D01*
G03X2926088Y7753016I-95814J0D01*
G01X2926088Y7693016D01*
G03X3117715Y7693016I95814J0D01*
G01X2931088Y7348001D02*
G01X2931088Y7258001D01*
G03X3112715Y7258001I90814J0D01*
G01X3112715Y7307686D01*
G03X3235706Y7363377I52671J47335D01*
G03X3103089Y7388693I-70320J-8357D01*
G03X2931088Y7348001I-81187J-40692D01*
G01X3184886Y6558413D02*
G03X3317514Y6558413I66314J0D01*
G03X3184886Y6558413I-66314J0D01*
G01X3515086Y6545713D02*
G03X3647714Y6545713I66314J0D01*
G03X3515086Y6545713I-66314J0D01*
G01X3673067Y7363372D02*
G03X3796085Y7307714I70321J-8352D01*
G01X3796085Y7258001D01*
G03X3977712Y7258001I90814J0D01*
G01X3977712Y7348001D01*
G03X3805699Y7388668I-90814J0D01*
G03X3673067Y7363372I-62311J-33648D01*
G01X3982712Y7693016D02*
G01X3982712Y7753016D01*
G03X3791085Y7753016I-95814J0D01*
G01X3791085Y7693016D01*
G03X3982712Y7693016I95814J0D01*
G01X3800394Y4570404D02*
G01X3800394Y4380404D01*
G03X3992021Y4380404I95814J0D01*
G01X3992021Y4570404D01*
G03X3800394Y4570404I-95814J0D01*
G01X4213174Y7518400D02*
G03X4524426Y7518400I155626J0D01*
G03X4213174Y7518400I-155626J0D01*
G01X4306388Y5728915D02*
G03X4306388Y5547288I0J-90814D01*
G01X4396388Y5547288D01*
G03X4437055Y5719301I0J90814D01*
G03X4411759Y5851933I-33648J62311D01*
G03X4356101Y5728915I-8352J-70321D01*
G01X4306388Y5728915D01*
G01X4396388Y6593912D02*
G01X4306388Y6593912D01*
G03X4306388Y6412285I0J-90814D01*
G01X4356073Y6412285D01*
G03X4411764Y6289294I47335J-52671D01*
G03X4437080Y6421911I-8357J70320D01*
G03X4396388Y6593912I-40692J81187D01*
G54D11*
G01X-264008Y4500804D02*
G01X-349661Y4500804D01*
G01X-264008Y4500804D02*
G01X-178354Y4500804D01*
G01X-264008Y4500804D02*
G01X-264008Y4681457D01*
G01X944322Y7287500D02*
G01X1024976Y7287500D01*
G01X944322Y7287500D02*
G01X863668Y7287500D01*
G01X944322Y7287500D02*
G01X944322Y7161846D01*
G01X944322Y7287500D02*
G01X944322Y7413154D01*
G01X944322Y7707514D02*
G01X1029976Y7707514D01*
G01X944322Y7707514D02*
G01X858668Y7707514D01*
G01X944322Y7707514D02*
G01X944322Y7591860D01*
G01X944322Y7707514D02*
G01X944322Y7823168D01*
G01X1026008Y4500804D02*
G01X940354Y4500804D01*
G01X1026008Y4500804D02*
G01X1111661Y4500804D01*
G01X1026008Y4500804D02*
G01X1026008Y4681457D01*
G01X1026008Y4500804D02*
G01X1026008Y4320150D01*
G01X1809319Y7707514D02*
G01X1894973Y7707514D01*
G01X1809319Y7707514D02*
G01X1723665Y7707514D01*
G01X1809319Y7707514D02*
G01X1809319Y7591860D01*
G01X1809319Y7707514D02*
G01X1809319Y7823168D01*
G01X1809319Y7287500D02*
G01X1889973Y7287500D01*
G01X1809319Y7287500D02*
G01X1728665Y7287500D01*
G01X1809319Y7287500D02*
G01X1809319Y7161846D01*
G01X1809319Y7287500D02*
G01X1809319Y7413154D01*
G01X2606192Y4475404D02*
G01X2520539Y4475404D01*
G01X2606192Y4475404D02*
G01X2691846Y4475404D01*
G01X2606192Y4475404D02*
G01X2606192Y4656057D01*
G01X3021902Y7303001D02*
G01X3102555Y7303001D01*
G01X3021902Y7303001D02*
G01X2941248Y7303001D01*
G01X3021902Y7303001D02*
G01X3021902Y7177348D01*
G01X3021902Y7303001D02*
G01X3021902Y7428655D01*
G01X3021902Y7723016D02*
G01X3107555Y7723016D01*
G01X3021902Y7723016D02*
G01X2936248Y7723016D01*
G01X3021902Y7723016D02*
G01X3021902Y7607362D01*
G01X3021902Y7723016D02*
G01X3021902Y7838670D01*
G01X3886899Y7303001D02*
G01X3967552Y7303001D01*
G01X3886899Y7303001D02*
G01X3806245Y7303001D01*
G01X3886899Y7303001D02*
G01X3886899Y7177348D01*
G01X3886899Y7303001D02*
G01X3886899Y7428655D01*
G01X3886899Y7723016D02*
G01X3972552Y7723016D01*
G01X3886899Y7723016D02*
G01X3801245Y7723016D01*
G01X3886899Y7723016D02*
G01X3886899Y7607362D01*
G01X3886899Y7723016D02*
G01X3886899Y7838670D01*
G01X3896208Y4475404D02*
G01X3810554Y4475404D01*
G01X3896208Y4475404D02*
G01X3981861Y4475404D01*
G01X3896208Y4475404D02*
G01X3896208Y4656057D01*
G01X3896208Y4475404D02*
G01X3896208Y4294750D01*
G01X4351388Y5638102D02*
G01X4351388Y5557448D01*
G01X4351388Y5638102D02*
G01X4351388Y5718755D01*
G01X4351388Y5638102D02*
G01X4225735Y5638102D01*
G01X4351388Y5638102D02*
G01X4477042Y5638102D01*
G01X4351388Y6503099D02*
G01X4351388Y6422445D01*
G01X4351388Y6503099D02*
G01X4351388Y6583752D01*
G01X4351388Y6503099D02*
G01X4225735Y6503099D01*
G01X4351388Y6503099D02*
G01X4477042Y6503099D01*
G01X4771403Y5638102D02*
G01X4771403Y5552448D01*
G01X4771403Y5638102D02*
G01X4771403Y5723755D01*
G01X4771403Y5638102D02*
G01X4655749Y5638102D01*
G01X4771403Y6503099D02*
G01X4771403Y6417445D01*
G01X4771403Y6503099D02*
G01X4771403Y6588752D01*
G01X4771403Y6503099D02*
G01X4655749Y6503099D01*
G04 Copper End*

G04 Pad Start*
G54D12*
G01X3896208Y4475404D03*
G01X2606192Y4475404D03*
G01X1026008Y4500804D03*
G01X-264008Y4500804D03*
G54D13*
G01X4351388Y5638102D03*
G01X4351388Y6503099D03*
G54D14*
G01X4771403Y5638102D03*
G01X4771403Y6503099D03*
G54D16*
G01X1809319Y7287500D03*
G01X944322Y7287500D03*
G54D17*
G01X1809319Y7707514D03*
G01X944322Y7707514D03*
G54D16*
G01X3886899Y7303001D03*
G01X3021902Y7303001D03*
G54D17*
G01X3886899Y7723016D03*
G01X3021902Y7723016D03*
G04 Pad End*

G04 Via Start*
G54D18*
G01X2857500Y5975280D03*
G01X2857500Y5896680D03*
G01X2858221Y5817321D03*
G01X2802642Y5761742D03*
G01X3613150Y5822950D03*
G01X3619500Y5956300D03*
G01X3568700Y6299200D03*
G01X292100Y6184900D03*
G01X3162300Y5994400D03*
G01X1199020Y6631811D03*
G01X1465720Y6644511D03*
G01X1681620Y6606411D03*
G01X3251200Y6558413D03*
G01X3581400Y6545713D03*
G01X3886200Y7066413D03*
G01X3378200Y7099300D03*
G01X3454400Y7073900D03*
G01X4140200Y5664200D03*
G01X1407160Y7353300D03*
G01X1498600Y7353300D03*
G01X1130300Y6299200D03*
G01X977900Y5384800D03*
G01X1600200Y6070600D03*
G04 Via End*

G04 Track Start*
G54D11*
G01X2857500Y5896680D02*
G01X2801600Y5896680D01*
G01X2857500Y5975280D02*
G01X2801600Y5975280D01*
G01X2782620Y5956300D01*
G01X2757220Y5956300D01*
G01X2801600Y5896680D02*
G01X2782620Y5915660D01*
G01X2740386Y5915660D01*
G01X1407160Y7248886D01*
G01X1407160Y7353300D01*
G01X2915900Y5872490D02*
G01X2915900Y5900400D01*
G01X3378200Y6362700D01*
G01X2858221Y5817321D02*
G01X2860731Y5817321D01*
G01X2915900Y5872490D01*
G01X3378200Y6362700D02*
G01X3378200Y7099300D01*
G01X3454400Y6413500D02*
G01X3454400Y7073900D01*
G01X2802642Y5761742D02*
G01X2831209Y5761742D01*
G01X2834031Y5758921D01*
G01X2882411Y5758921D01*
G01X2956540Y5883567D02*
G01X3418840Y6345866D01*
G01X3418840Y6377940D01*
G01X3454400Y6413500D01*
G01X2882411Y5758921D02*
G01X2956540Y5833050D01*
G01X2956540Y5883567D01*
G01X2757220Y5956300D02*
G01X1498600Y7214920D01*
G01X1498600Y7353300D01*
G01X292100Y6184900D02*
G01X977900Y5499100D01*
G01X977900Y5384800D01*
G01X1600200Y6070600D02*
G01X1358900Y6070600D01*
G01X1130300Y6299200D01*
G04 Track End*

M02*

