;TYPE=PLATED
;Layer: PTH_Through_Via
;EasyEDA Pro v3.2.148, 2026-07-04 18:32:15
;Gerber Generator version 0.3
M48
METRIC,LZ,0000.00000
;Hole size 1 = 0.30500 METRIC
T01C0.30500
%
G05
G90
T01
X28.575Y59.7528
X28.575Y58.9668
X28.58221Y58.17321
X28.02642Y57.61742
X36.1315Y58.2295
X36.195Y59.563
X35.687Y62.992
X2.921Y61.849
X31.623Y59.944
X11.9902Y66.31811
X14.6572Y66.44511
X16.8162Y66.06411
X32.512Y65.58413
X35.814Y65.45713
X38.862Y70.66413
X33.782Y70.993
X34.544Y70.739
X41.402Y56.642
X14.0716Y73.533
X14.986Y73.533
X11.303Y62.992
X9.779Y53.848
X16.002Y60.706
M30