;TYPE=PLATED
;Layer: PTH_Through
;EasyEDA Pro v3.2.148, 2026-07-04 18:32:15
;Gerber Generator version 0.3
M48
METRIC,LZ,0000.00000
;Hole size 1 = 0.30500 METRIC
T01C0.30500
;Hole size 2 = 0.60000 METRIC
T02C0.60000
;Hole size 3 = 0.70002 METRIC
T03C0.70002
%
G05
G90
T01
X28.575Y59.7528
X28.575Y58.9668
X28.58221Y58.17321
X28.02642Y57.61742
X36.1315Y58.2295
X36.195Y59.563
X35.687Y62.992
X2.921Y61.849
X31.623Y59.944
X11.9902Y66.31811
X14.6572Y66.44511
X16.8162Y66.06411
X32.512Y65.58413
X35.814Y65.45713
X38.862Y70.66413
X33.782Y70.993
X34.544Y70.739
X41.402Y56.642
X14.0716Y73.533
X14.986Y73.533
X11.303Y62.992
X9.779Y53.848
X16.002Y60.706
T02
X43.06396Y56.38107G85X43.96396Y56.38107
X43.06397Y65.03109G85X43.964Y65.03109
X47.41403Y56.38102G85X48.01403Y56.38102
X47.41403Y65.03099G85X48.01403Y65.03099
X18.09314Y72.42507G85X18.09314Y73.32507
X9.44312Y72.42509G85X9.44312Y73.32511
X18.09319Y76.77514G85X18.09319Y77.37514
X9.44322Y76.77514G85X9.44322Y77.37514
X38.86893Y72.58009G85X38.86893Y73.48009
X30.21891Y72.5801G85X30.21891Y73.48013
X38.86898Y76.93016G85X38.86898Y77.53016
X30.21902Y76.93016G85X30.21902Y77.53016
T03
X38.96208Y45.65402G85X38.96208Y43.85405
X26.06192Y45.65402G85X26.06192Y43.85405
X10.26008Y45.90802G85X10.26008Y44.10805
X-2.64008Y45.90802G85X-2.64008Y44.10805
M30