G04 Layer: TopPasteMaskLayer*
G04 EasyEDA Pro v3.2.148, 2026-07-04 18:32:14*
G04 Gerber Generator version 0.3*
G04 Scale: 100 percent, Rotated: No, Reflected: No*
G04 Dimensions in millimeters*
G04 Leading zeros omitted, absolute positions, 4 integers and 5 decimals*
G04 Generated by one-click*
G04 Object Configs: Pad,Via,Track,Text,Image,Dimension,BoardOutline,BoardCutout,CopperFilled,SolidRegion,FPCStiffener,Line,PlaneZone,ComponentProperty,ComponentSilkscreen,TearDrop*
G04 Layer Configs: 1,2,3,4,5,6,7,8,9,10,11,13,14,56*
G04 Copper Areas: 0*
%FSLAX45Y45*%
%MOMM*%
%ADD10R,0.8X0.9*%
%ADD11R,0.9X0.8*%
%ADD12R,1.2X0.25001*%
%ADD13C,0.2288*%
G75*


G04 PolygonModel Start*
G36*
G01X4005702Y6001299D02*
G01X4010701Y5996297D01*
G01X4010701Y5916298D01*
G01X4005702Y5911299D01*
G01X3925702Y5911299D01*
G01X3920701Y5916298D01*
G01X3920701Y5940501D01*
G01X3957701Y5940501D01*
G01X3957701Y5973501D01*
G01X3920701Y5973501D01*
G01X3920701Y5996297D01*
G01X3925702Y6001299D01*
G01X4005702Y6001299D01*
G37*
G36*
G01X3766698Y5911301D02*
G01X3761699Y5916303D01*
G01X3761699Y5996302D01*
G01X3766698Y6001301D01*
G01X3846698Y6001301D01*
G01X3851699Y5996302D01*
G01X3851699Y5972099D01*
G01X3814699Y5972099D01*
G01X3814699Y5939099D01*
G01X3851699Y5939099D01*
G01X3851699Y5916303D01*
G01X3846698Y5911301D01*
G01X3766698Y5911301D01*
G37*
G36*
G01X4003385Y6335169D02*
G01X4008384Y6330167D01*
G01X4008384Y6250168D01*
G01X4003385Y6245169D01*
G01X3923386Y6245169D01*
G01X3918384Y6250168D01*
G01X3918384Y6274371D01*
G01X3955385Y6274371D01*
G01X3955385Y6307371D01*
G01X3918384Y6307371D01*
G01X3918384Y6330167D01*
G01X3923386Y6335169D01*
G01X4003385Y6335169D01*
G37*
G36*
G01X3764382Y6245171D02*
G01X3759383Y6250173D01*
G01X3759383Y6330173D01*
G01X3764382Y6335171D01*
G01X3844381Y6335171D01*
G01X3849383Y6330173D01*
G01X3849383Y6305969D01*
G01X3812383Y6305969D01*
G01X3812383Y6272969D01*
G01X3849383Y6272969D01*
G01X3849383Y6250173D01*
G01X3844381Y6245171D01*
G01X3764382Y6245171D01*
G37*
G36*
G01X3536401Y7008115D02*
G01X3541403Y7013114D01*
G01X3621402Y7013114D01*
G01X3626401Y7008115D01*
G01X3626401Y6928115D01*
G01X3621402Y6923114D01*
G01X3597199Y6923114D01*
G01X3597199Y6960114D01*
G01X3564199Y6960114D01*
G01X3564199Y6923114D01*
G01X3541403Y6923114D01*
G01X3536401Y6928115D01*
G01X3536401Y7008115D01*
G37*
G36*
G01X3626399Y6769111D02*
G01X3621397Y6764112D01*
G01X3541398Y6764112D01*
G01X3536399Y6769111D01*
G01X3536399Y6849111D01*
G01X3541398Y6854112D01*
G01X3565601Y6854112D01*
G01X3565601Y6817112D01*
G01X3598601Y6817112D01*
G01X3598601Y6854112D01*
G01X3621397Y6854112D01*
G01X3626399Y6849111D01*
G01X3626399Y6769111D01*
G37*
G36*
G01X3206201Y7008115D02*
G01X3211203Y7013114D01*
G01X3291202Y7013114D01*
G01X3296201Y7008115D01*
G01X3296201Y6928115D01*
G01X3291202Y6923114D01*
G01X3266999Y6923114D01*
G01X3266999Y6960114D01*
G01X3233999Y6960114D01*
G01X3233999Y6923114D01*
G01X3211203Y6923114D01*
G01X3206201Y6928115D01*
G01X3206201Y7008115D01*
G37*
G36*
G01X3296199Y6769111D02*
G01X3291197Y6764112D01*
G01X3211198Y6764112D01*
G01X3206199Y6769111D01*
G01X3206199Y6849111D01*
G01X3211198Y6854112D01*
G01X3235401Y6854112D01*
G01X3235401Y6817112D01*
G01X3268401Y6817112D01*
G01X3268401Y6854112D01*
G01X3291197Y6854112D01*
G01X3296199Y6849111D01*
G01X3296199Y6769111D01*
G37*
G36*
G01X1154022Y7030713D02*
G01X1159023Y7035712D01*
G01X1239023Y7035712D01*
G01X1244022Y7030713D01*
G01X1244022Y6950714D01*
G01X1239023Y6945712D01*
G01X1214819Y6945712D01*
G01X1214819Y6982712D01*
G01X1181820Y6982712D01*
G01X1181820Y6945712D01*
G01X1159023Y6945712D01*
G01X1154022Y6950714D01*
G01X1154022Y7030713D01*
G37*
G36*
G01X1244019Y6791710D02*
G01X1239018Y6786711D01*
G01X1159018Y6786711D01*
G01X1154019Y6791710D01*
G01X1154019Y6871709D01*
G01X1159018Y6876711D01*
G01X1183222Y6876711D01*
G01X1183222Y6839710D01*
G01X1216221Y6839710D01*
G01X1216221Y6876711D01*
G01X1239018Y6876711D01*
G01X1244019Y6871709D01*
G01X1244019Y6791710D01*
G37*
G36*
G01X1510719Y6804410D02*
G01X1505718Y6799411D01*
G01X1425718Y6799411D01*
G01X1420719Y6804410D01*
G01X1420719Y6884409D01*
G01X1425718Y6889411D01*
G01X1449922Y6889411D01*
G01X1449922Y6852410D01*
G01X1482921Y6852410D01*
G01X1482921Y6889411D01*
G01X1505718Y6889411D01*
G01X1510719Y6884409D01*
G01X1510719Y6804410D01*
G37*
G36*
G01X1420722Y7043413D02*
G01X1425723Y7048412D01*
G01X1505723Y7048412D01*
G01X1510722Y7043413D01*
G01X1510722Y6963414D01*
G01X1505723Y6958412D01*
G01X1481519Y6958412D01*
G01X1481519Y6995412D01*
G01X1448520Y6995412D01*
G01X1448520Y6958412D01*
G01X1425723Y6958412D01*
G01X1420722Y6963414D01*
G01X1420722Y7043413D01*
G37*
G36*
G01X2546193Y4570405D02*
G02X2666192Y4570405I60000J0D01*
G01X2666192Y4380403D01*
G02X2546193Y4380403I-60000J0D01*
G01X2546193Y4570405D01*
G37*
G36*
G01X3836208Y4570405D02*
G02X3956207Y4570405I60000J0D01*
G01X3956207Y4380403D01*
G02X3836208Y4380403I-60000J0D01*
G01X3836208Y4570405D01*
G37*
G36*
G01X3545200Y5498396D02*
G01X3657199Y5498396D01*
G01X3657199Y5210396D01*
G01X3545200Y5210396D01*
G01X3545200Y5498396D01*
G37*
G36*
G01X3295200Y5498396D02*
G01X3407199Y5498396D01*
G01X3407199Y5210396D01*
G01X3295200Y5210396D01*
G01X3295200Y5498396D01*
G37*
G36*
G01X3095201Y5498396D02*
G01X3207200Y5498396D01*
G01X3207200Y5210396D01*
G01X3095201Y5210396D01*
G01X3095201Y5498396D01*
G37*
G36*
G01X2845201Y5498396D02*
G01X2957200Y5498396D01*
G01X2957200Y5210396D01*
G01X2845201Y5210396D01*
G01X2845201Y5498396D01*
G37*
G36*
G01X-324007Y4595805D02*
G02X-204008Y4595805I60000J0D01*
G01X-204008Y4405803D01*
G02X-324007Y4405803I-60000J0D01*
G01X-324007Y4595805D01*
G37*
G36*
G01X966008Y4595805D02*
G02X1086007Y4595805I60000J0D01*
G01X1086007Y4405803D01*
G02X966008Y4405803I-60000J0D01*
G01X966008Y4595805D01*
G37*
G36*
G01X675000Y5523796D02*
G01X786999Y5523796D01*
G01X786999Y5235796D01*
G01X675000Y5235796D01*
G01X675000Y5523796D01*
G37*
G36*
G01X425000Y5523796D02*
G01X536999Y5523796D01*
G01X536999Y5235796D01*
G01X425000Y5235796D01*
G01X425000Y5523796D01*
G37*
G36*
G01X225001Y5523796D02*
G01X337000Y5523796D01*
G01X337000Y5235796D01*
G01X225001Y5235796D01*
G01X225001Y5523796D01*
G37*
G36*
G01X-24999Y5523796D02*
G01X87000Y5523796D01*
G01X87000Y5235796D01*
G01X-24999Y5235796D01*
G01X-24999Y5523796D01*
G37*
G36*
G01X4351396Y6210607D02*
G01X4351396Y6180605D01*
G01X4241396Y6180605D01*
G01X4241396Y6210607D01*
G01X4351396Y6210607D01*
G37*
G36*
G01X4241396Y6230617D02*
G01X4241396Y6260620D01*
G01X4351396Y6260620D01*
G01X4351396Y6230617D01*
G01X4241396Y6230617D01*
G37*
G36*
G01X4241396Y5720598D02*
G01X4241396Y5780598D01*
G01X4351396Y5780598D01*
G01X4351396Y5720598D01*
G01X4241396Y5720598D01*
G37*
G36*
G01X4351396Y6160595D02*
G01X4351396Y6130592D01*
G01X4241396Y6130592D01*
G01X4241396Y6160595D01*
G01X4351396Y6160595D01*
G37*
G36*
G01X4241396Y6280617D02*
G01X4241396Y6340617D01*
G01X4351396Y6340617D01*
G01X4351396Y6280617D01*
G01X4241396Y6280617D01*
G37*
G36*
G01X4351396Y6420602D02*
G01X4351396Y6360602D01*
G01X4241396Y6360602D01*
G01X4241396Y6420602D01*
G01X4351396Y6420602D01*
G37*
G36*
G01X4351396Y6110608D02*
G01X4351396Y6080605D01*
G01X4241396Y6080605D01*
G01X4241396Y6110608D01*
G01X4351396Y6110608D01*
G37*
G36*
G01X4351396Y6060595D02*
G01X4351396Y6030592D01*
G01X4241396Y6030592D01*
G01X4241396Y6060595D01*
G01X4351396Y6060595D01*
G37*
G36*
G01X4241396Y5800608D02*
G01X4241396Y5860608D01*
G01X4351396Y5860608D01*
G01X4351396Y5800608D01*
G01X4241396Y5800608D01*
G37*
G36*
G01X4351396Y6010608D02*
G01X4351396Y5980605D01*
G01X4241396Y5980605D01*
G01X4241396Y6010608D01*
G01X4351396Y6010608D01*
G37*
G36*
G01X4351396Y5960621D02*
G01X4351396Y5930618D01*
G01X4241396Y5930618D01*
G01X4241396Y5960621D01*
G01X4351396Y5960621D01*
G37*
G36*
G01X4351396Y5910608D02*
G01X4351396Y5880605D01*
G01X4241396Y5880605D01*
G01X4241396Y5910608D01*
G01X4351396Y5910608D01*
G37*
G36*
G01X4251556Y6507582D02*
G01X4251853Y6510558D01*
G01X4252300Y6513518D01*
G01X4252892Y6516449D01*
G01X4253631Y6519349D01*
G01X4254513Y6522207D01*
G01X4255536Y6525019D01*
G01X4256697Y6527775D01*
G01X4257995Y6530472D01*
G01X4259428Y6533098D01*
G01X4260987Y6535651D01*
G01X4262671Y6538123D01*
G01X4264480Y6540508D01*
G01X4266402Y6542799D01*
G01X4268437Y6544993D01*
G01X4270578Y6547081D01*
G01X4272821Y6549062D01*
G01X4275160Y6550927D01*
G01X4277589Y6552672D01*
G01X4280103Y6554295D01*
G01X4282694Y6555791D01*
G01X4285356Y6557157D01*
G01X4288081Y6558387D01*
G01X4290868Y6559479D01*
G01X4293702Y6560434D01*
G01X4296583Y6561244D01*
G01X4299499Y6561910D01*
G01X4302445Y6562428D01*
G01X4305414Y6562801D01*
G01X4308399Y6563025D01*
G01X4311388Y6563098D01*
G01X4391388Y6563098D01*
G01X4394378Y6563025D01*
G01X4397362Y6562801D01*
G01X4400332Y6562428D01*
G01X4403278Y6561910D01*
G01X4406194Y6561244D01*
G01X4409074Y6560434D01*
G01X4411909Y6559479D01*
G01X4414695Y6558387D01*
G01X4417421Y6557157D01*
G01X4420083Y6555791D01*
G01X4422673Y6554295D01*
G01X4425188Y6552672D01*
G01X4427616Y6550927D01*
G01X4429956Y6549062D01*
G01X4432198Y6547081D01*
G01X4434340Y6544993D01*
G01X4436374Y6542799D01*
G01X4438297Y6540508D01*
G01X4440105Y6538123D01*
G01X4441789Y6535651D01*
G01X4443349Y6533098D01*
G01X4444782Y6530472D01*
G01X4446080Y6527775D01*
G01X4447240Y6525019D01*
G01X4448264Y6522207D01*
G01X4449145Y6519349D01*
G01X4449884Y6516449D01*
G01X4450476Y6513518D01*
G01X4450923Y6510558D01*
G01X4451220Y6507582D01*
G01X4451370Y6504595D01*
G01X4451370Y6501602D01*
G01X4451220Y6498615D01*
G01X4450923Y6495639D01*
G01X4450476Y6492679D01*
G01X4449884Y6489748D01*
G01X4449145Y6486848D01*
G01X4448264Y6483990D01*
G01X4447240Y6481178D01*
G01X4446080Y6478422D01*
G01X4444782Y6475725D01*
G01X4443349Y6473099D01*
G01X4441789Y6470546D01*
G01X4440105Y6468074D01*
G01X4438297Y6465689D01*
G01X4436374Y6463398D01*
G01X4434340Y6461204D01*
G01X4432198Y6459116D01*
G01X4429956Y6457135D01*
G01X4427616Y6455270D01*
G01X4425188Y6453525D01*
G01X4422673Y6451902D01*
G01X4420083Y6450406D01*
G01X4417421Y6449040D01*
G01X4414695Y6447810D01*
G01X4411909Y6446718D01*
G01X4409074Y6445763D01*
G01X4406194Y6444953D01*
G01X4403278Y6444287D01*
G01X4400332Y6443769D01*
G01X4397362Y6443396D01*
G01X4394378Y6443172D01*
G01X4391388Y6443099D01*
G01X4311388Y6443099D01*
G01X4308399Y6443172D01*
G01X4305414Y6443396D01*
G01X4302445Y6443769D01*
G01X4299499Y6444287D01*
G01X4296583Y6444953D01*
G01X4293702Y6445763D01*
G01X4290868Y6446718D01*
G01X4288081Y6447810D01*
G01X4285356Y6449040D01*
G01X4282694Y6450406D01*
G01X4280103Y6451902D01*
G01X4277589Y6453525D01*
G01X4275160Y6455270D01*
G01X4272821Y6457135D01*
G01X4270578Y6459116D01*
G01X4268437Y6461204D01*
G01X4266402Y6463398D01*
G01X4264480Y6465689D01*
G01X4262671Y6468074D01*
G01X4260987Y6470546D01*
G01X4259428Y6473099D01*
G01X4257995Y6475725D01*
G01X4256697Y6478422D01*
G01X4255536Y6481178D01*
G01X4254513Y6483990D01*
G01X4253631Y6486848D01*
G01X4252892Y6489748D01*
G01X4252300Y6492679D01*
G01X4251853Y6495639D01*
G01X4251556Y6498615D01*
G01X4251406Y6501602D01*
G01X4251406Y6504595D01*
G01X4251556Y6507582D01*
G37*
G36*
G01X4251406Y5636605D02*
G01X4251406Y5639598D01*
G01X4251556Y5642585D01*
G01X4251853Y5645561D01*
G01X4252300Y5648521D01*
G01X4252892Y5651452D01*
G01X4253631Y5654352D01*
G01X4254513Y5657210D01*
G01X4255536Y5660022D01*
G01X4256697Y5662778D01*
G01X4257995Y5665475D01*
G01X4259428Y5668101D01*
G01X4260987Y5670654D01*
G01X4262671Y5673126D01*
G01X4264480Y5675511D01*
G01X4266402Y5677802D01*
G01X4268437Y5679996D01*
G01X4270578Y5682084D01*
G01X4272821Y5684065D01*
G01X4275160Y5685930D01*
G01X4277589Y5687675D01*
G01X4280103Y5689298D01*
G01X4282694Y5690794D01*
G01X4285356Y5692160D01*
G01X4288081Y5693390D01*
G01X4290868Y5694482D01*
G01X4293702Y5695437D01*
G01X4296583Y5696247D01*
G01X4299499Y5696913D01*
G01X4302445Y5697431D01*
G01X4305414Y5697804D01*
G01X4308399Y5698028D01*
G01X4311388Y5698101D01*
G01X4391388Y5698101D01*
G01X4394378Y5698028D01*
G01X4397362Y5697804D01*
G01X4400332Y5697431D01*
G01X4403278Y5696913D01*
G01X4406194Y5696247D01*
G01X4409074Y5695437D01*
G01X4411909Y5694482D01*
G01X4414695Y5693390D01*
G01X4417421Y5692160D01*
G01X4420083Y5690794D01*
G01X4422673Y5689298D01*
G01X4425188Y5687675D01*
G01X4427616Y5685930D01*
G01X4429956Y5684065D01*
G01X4432198Y5682084D01*
G01X4434340Y5679996D01*
G01X4436374Y5677802D01*
G01X4438297Y5675511D01*
G01X4440105Y5673126D01*
G01X4441789Y5670654D01*
G01X4443349Y5668101D01*
G01X4444782Y5665475D01*
G01X4446080Y5662778D01*
G01X4447240Y5660022D01*
G01X4448264Y5657210D01*
G01X4449145Y5654352D01*
G01X4449884Y5651452D01*
G01X4450476Y5648521D01*
G01X4450923Y5645561D01*
G01X4451220Y5642585D01*
G01X4451370Y5639598D01*
G01X4451370Y5636605D01*
G01X4451220Y5633618D01*
G01X4450923Y5630642D01*
G01X4450476Y5627682D01*
G01X4449884Y5624751D01*
G01X4449145Y5621851D01*
G01X4448264Y5618993D01*
G01X4447240Y5616181D01*
G01X4446080Y5613425D01*
G01X4444782Y5610728D01*
G01X4443349Y5608102D01*
G01X4441789Y5605549D01*
G01X4440105Y5603077D01*
G01X4438297Y5600692D01*
G01X4436374Y5598401D01*
G01X4434340Y5596207D01*
G01X4432198Y5594119D01*
G01X4429956Y5592138D01*
G01X4427616Y5590273D01*
G01X4425188Y5588528D01*
G01X4422673Y5586905D01*
G01X4420083Y5585409D01*
G01X4417421Y5584043D01*
G01X4414695Y5582813D01*
G01X4411909Y5581721D01*
G01X4409074Y5580766D01*
G01X4406194Y5579956D01*
G01X4403278Y5579290D01*
G01X4400332Y5578772D01*
G01X4397362Y5578399D01*
G01X4394378Y5578175D01*
G01X4391388Y5578102D01*
G01X4311388Y5578102D01*
G01X4308399Y5578175D01*
G01X4305414Y5578399D01*
G01X4302445Y5578772D01*
G01X4299499Y5579290D01*
G01X4296583Y5579956D01*
G01X4293702Y5580766D01*
G01X4290868Y5581721D01*
G01X4288081Y5582813D01*
G01X4285356Y5584043D01*
G01X4282694Y5585409D01*
G01X4280103Y5586905D01*
G01X4277589Y5588528D01*
G01X4275160Y5590273D01*
G01X4272821Y5592138D01*
G01X4270578Y5594119D01*
G01X4268437Y5596207D01*
G01X4266402Y5598401D01*
G01X4264480Y5600692D01*
G01X4262671Y5603077D01*
G01X4260987Y5605549D01*
G01X4259428Y5608102D01*
G01X4257995Y5610728D01*
G01X4256697Y5613425D01*
G01X4255536Y5616181D01*
G01X4254513Y5618993D01*
G01X4253631Y5621851D01*
G01X4252892Y5624751D01*
G01X4252300Y5627682D01*
G01X4251853Y5630642D01*
G01X4251556Y5633618D01*
G01X4251406Y5636605D01*
G37*
G36*
G01X4696572Y5642585D02*
G01X4696869Y5645561D01*
G01X4697316Y5648521D01*
G01X4697908Y5651452D01*
G01X4698647Y5654352D01*
G01X4699528Y5657210D01*
G01X4700552Y5660022D01*
G01X4701713Y5662778D01*
G01X4703011Y5665475D01*
G01X4704443Y5668101D01*
G01X4706003Y5670654D01*
G01X4707687Y5673126D01*
G01X4709495Y5675511D01*
G01X4711418Y5677802D01*
G01X4713453Y5679996D01*
G01X4715594Y5682084D01*
G01X4717837Y5684065D01*
G01X4720176Y5685930D01*
G01X4722604Y5687675D01*
G01X4725119Y5689298D01*
G01X4727710Y5690794D01*
G01X4730372Y5692160D01*
G01X4733097Y5693390D01*
G01X4735883Y5694482D01*
G01X4738718Y5695437D01*
G01X4741598Y5696247D01*
G01X4744514Y5696913D01*
G01X4747461Y5697431D01*
G01X4750430Y5697804D01*
G01X4753414Y5698028D01*
G01X4756404Y5698101D01*
G01X4786404Y5698101D01*
G01X4789394Y5698028D01*
G01X4792378Y5697804D01*
G01X4795347Y5697431D01*
G01X4798294Y5696913D01*
G01X4801210Y5696247D01*
G01X4804090Y5695437D01*
G01X4806925Y5694482D01*
G01X4809711Y5693390D01*
G01X4812436Y5692160D01*
G01X4815098Y5690794D01*
G01X4817689Y5689298D01*
G01X4820204Y5687675D01*
G01X4822632Y5685930D01*
G01X4824971Y5684065D01*
G01X4827214Y5682084D01*
G01X4829355Y5679996D01*
G01X4831390Y5677802D01*
G01X4833313Y5675511D01*
G01X4835121Y5673126D01*
G01X4836805Y5670654D01*
G01X4838365Y5668101D01*
G01X4839797Y5665475D01*
G01X4841095Y5662778D01*
G01X4842256Y5660022D01*
G01X4843280Y5657210D01*
G01X4844161Y5654352D01*
G01X4844900Y5651452D01*
G01X4845492Y5648521D01*
G01X4845939Y5645561D01*
G01X4846236Y5642585D01*
G01X4846386Y5639598D01*
G01X4846386Y5636605D01*
G01X4846236Y5633618D01*
G01X4845939Y5630642D01*
G01X4845492Y5627682D01*
G01X4844900Y5624751D01*
G01X4844161Y5621851D01*
G01X4843280Y5618993D01*
G01X4842256Y5616181D01*
G01X4841095Y5613425D01*
G01X4839797Y5610728D01*
G01X4838365Y5608102D01*
G01X4836805Y5605549D01*
G01X4835121Y5603077D01*
G01X4833313Y5600692D01*
G01X4831390Y5598401D01*
G01X4829355Y5596207D01*
G01X4827214Y5594119D01*
G01X4824971Y5592138D01*
G01X4822632Y5590273D01*
G01X4820204Y5588528D01*
G01X4817689Y5586905D01*
G01X4815098Y5585409D01*
G01X4812436Y5584043D01*
G01X4809711Y5582813D01*
G01X4806925Y5581721D01*
G01X4804090Y5580766D01*
G01X4801210Y5579956D01*
G01X4798294Y5579290D01*
G01X4795347Y5578772D01*
G01X4792378Y5578399D01*
G01X4789394Y5578175D01*
G01X4786404Y5578102D01*
G01X4756404Y5578102D01*
G01X4753414Y5578175D01*
G01X4750430Y5578399D01*
G01X4747461Y5578772D01*
G01X4744514Y5579290D01*
G01X4741598Y5579956D01*
G01X4738718Y5580766D01*
G01X4735883Y5581721D01*
G01X4733097Y5582813D01*
G01X4730372Y5584043D01*
G01X4727710Y5585409D01*
G01X4725119Y5586905D01*
G01X4722604Y5588528D01*
G01X4720176Y5590273D01*
G01X4717837Y5592138D01*
G01X4715594Y5594119D01*
G01X4713453Y5596207D01*
G01X4711418Y5598401D01*
G01X4709495Y5600692D01*
G01X4707687Y5603077D01*
G01X4706003Y5605549D01*
G01X4704443Y5608102D01*
G01X4703011Y5610728D01*
G01X4701713Y5613425D01*
G01X4700552Y5616181D01*
G01X4699528Y5618993D01*
G01X4698647Y5621851D01*
G01X4697908Y5624751D01*
G01X4697316Y5627682D01*
G01X4696869Y5630642D01*
G01X4696572Y5633618D01*
G01X4696422Y5636605D01*
G01X4696422Y5639598D01*
G01X4696572Y5642585D01*
G37*
G36*
G01X4696422Y6501602D02*
G01X4696422Y6504595D01*
G01X4696572Y6507582D01*
G01X4696869Y6510558D01*
G01X4697316Y6513518D01*
G01X4697908Y6516449D01*
G01X4698647Y6519349D01*
G01X4699528Y6522207D01*
G01X4700552Y6525019D01*
G01X4701713Y6527775D01*
G01X4703011Y6530472D01*
G01X4704443Y6533098D01*
G01X4706003Y6535651D01*
G01X4707687Y6538123D01*
G01X4709495Y6540508D01*
G01X4711418Y6542799D01*
G01X4713453Y6544993D01*
G01X4715594Y6547081D01*
G01X4717837Y6549062D01*
G01X4720176Y6550927D01*
G01X4722604Y6552672D01*
G01X4725119Y6554295D01*
G01X4727710Y6555791D01*
G01X4730372Y6557157D01*
G01X4733097Y6558387D01*
G01X4735883Y6559479D01*
G01X4738718Y6560434D01*
G01X4741598Y6561244D01*
G01X4744514Y6561910D01*
G01X4747461Y6562428D01*
G01X4750430Y6562801D01*
G01X4753414Y6563025D01*
G01X4756404Y6563098D01*
G01X4786404Y6563098D01*
G01X4789394Y6563025D01*
G01X4792378Y6562801D01*
G01X4795347Y6562428D01*
G01X4798294Y6561910D01*
G01X4801210Y6561244D01*
G01X4804090Y6560434D01*
G01X4806925Y6559479D01*
G01X4809711Y6558387D01*
G01X4812436Y6557157D01*
G01X4815098Y6555791D01*
G01X4817689Y6554295D01*
G01X4820204Y6552672D01*
G01X4822632Y6550927D01*
G01X4824971Y6549062D01*
G01X4827214Y6547081D01*
G01X4829355Y6544993D01*
G01X4831390Y6542799D01*
G01X4833313Y6540508D01*
G01X4835121Y6538123D01*
G01X4836805Y6535651D01*
G01X4838365Y6533098D01*
G01X4839797Y6530472D01*
G01X4841095Y6527775D01*
G01X4842256Y6525019D01*
G01X4843280Y6522207D01*
G01X4844161Y6519349D01*
G01X4844900Y6516449D01*
G01X4845492Y6513518D01*
G01X4845939Y6510558D01*
G01X4846236Y6507582D01*
G01X4846386Y6504595D01*
G01X4846386Y6501602D01*
G01X4846236Y6498615D01*
G01X4845939Y6495639D01*
G01X4845492Y6492679D01*
G01X4844900Y6489748D01*
G01X4844161Y6486848D01*
G01X4843280Y6483990D01*
G01X4842256Y6481178D01*
G01X4841095Y6478422D01*
G01X4839797Y6475725D01*
G01X4838365Y6473099D01*
G01X4836805Y6470546D01*
G01X4835121Y6468074D01*
G01X4833313Y6465689D01*
G01X4831390Y6463398D01*
G01X4829355Y6461204D01*
G01X4827214Y6459116D01*
G01X4824971Y6457135D01*
G01X4822632Y6455270D01*
G01X4820204Y6453525D01*
G01X4817689Y6451902D01*
G01X4815098Y6450406D01*
G01X4812436Y6449040D01*
G01X4809711Y6447810D01*
G01X4806925Y6446718D01*
G01X4804090Y6445763D01*
G01X4801210Y6444953D01*
G01X4798294Y6444287D01*
G01X4795347Y6443769D01*
G01X4792378Y6443396D01*
G01X4789394Y6443172D01*
G01X4786404Y6443099D01*
G01X4756404Y6443099D01*
G01X4753414Y6443172D01*
G01X4750430Y6443396D01*
G01X4747461Y6443769D01*
G01X4744514Y6444287D01*
G01X4741598Y6444953D01*
G01X4738718Y6445763D01*
G01X4735883Y6446718D01*
G01X4733097Y6447810D01*
G01X4730372Y6449040D01*
G01X4727710Y6450406D01*
G01X4725119Y6451902D01*
G01X4722604Y6453525D01*
G01X4720176Y6455270D01*
G01X4717837Y6457135D01*
G01X4715594Y6459116D01*
G01X4713453Y6461204D01*
G01X4711418Y6463398D01*
G01X4709495Y6465689D01*
G01X4707687Y6468074D01*
G01X4706003Y6470546D01*
G01X4704443Y6473099D01*
G01X4703011Y6475725D01*
G01X4701713Y6478422D01*
G01X4700552Y6481178D01*
G01X4699528Y6483990D01*
G01X4698647Y6486848D01*
G01X4697908Y6489748D01*
G01X4697316Y6492679D01*
G01X4696869Y6495639D01*
G01X4696572Y6498615D01*
G01X4696422Y6501602D01*
G37*
G36*
G01X1236813Y7287507D02*
G01X1266816Y7287507D01*
G01X1266816Y7177508D01*
G01X1236813Y7177508D01*
G01X1236813Y7287507D01*
G37*
G36*
G01X1216803Y7177508D02*
G01X1186801Y7177508D01*
G01X1186801Y7287507D01*
G01X1216803Y7287507D01*
G01X1216803Y7177508D01*
G37*
G36*
G01X1726822Y7177508D02*
G01X1666822Y7177508D01*
G01X1666822Y7287507D01*
G01X1726822Y7287507D01*
G01X1726822Y7177508D01*
G37*
G36*
G01X1286826Y7287507D02*
G01X1316828Y7287507D01*
G01X1316828Y7177508D01*
G01X1286826Y7177508D01*
G01X1286826Y7287507D01*
G37*
G36*
G01X1166803Y7177508D02*
G01X1106803Y7177508D01*
G01X1106803Y7287507D01*
G01X1166803Y7287507D01*
G01X1166803Y7177508D01*
G37*
G36*
G01X1026819Y7287507D02*
G01X1086819Y7287507D01*
G01X1086819Y7177508D01*
G01X1026819Y7177508D01*
G01X1026819Y7287507D01*
G37*
G36*
G01X1336813Y7287507D02*
G01X1366815Y7287507D01*
G01X1366815Y7177508D01*
G01X1336813Y7177508D01*
G01X1336813Y7287507D01*
G37*
G36*
G01X1386826Y7287507D02*
G01X1416828Y7287507D01*
G01X1416828Y7177508D01*
G01X1386826Y7177508D01*
G01X1386826Y7287507D01*
G37*
G36*
G01X1646812Y7177508D02*
G01X1586812Y7177508D01*
G01X1586812Y7287507D01*
G01X1646812Y7287507D01*
G01X1646812Y7177508D01*
G37*
G36*
G01X1436813Y7287507D02*
G01X1466815Y7287507D01*
G01X1466815Y7177508D01*
G01X1436813Y7177508D01*
G01X1436813Y7287507D01*
G37*
G36*
G01X1486800Y7287507D02*
G01X1516802Y7287507D01*
G01X1516802Y7177508D01*
G01X1486800Y7177508D01*
G01X1486800Y7287507D01*
G37*
G36*
G01X1536813Y7287507D02*
G01X1566815Y7287507D01*
G01X1566815Y7177508D01*
G01X1536813Y7177508D01*
G01X1536813Y7287507D01*
G37*
G36*
G01X939839Y7187668D02*
G01X936862Y7187965D01*
G01X933903Y7188412D01*
G01X930972Y7189004D01*
G01X928071Y7189743D01*
G01X925214Y7190624D01*
G01X922402Y7191648D01*
G01X919646Y7192809D01*
G01X916948Y7194107D01*
G01X914322Y7195539D01*
G01X911769Y7197099D01*
G01X909298Y7198783D01*
G01X906913Y7200591D01*
G01X904622Y7202514D01*
G01X902427Y7204548D01*
G01X900339Y7206690D01*
G01X898358Y7208932D01*
G01X896494Y7211272D01*
G01X894749Y7213700D01*
G01X893126Y7216215D01*
G01X891630Y7218805D01*
G01X890263Y7221467D01*
G01X889034Y7224193D01*
G01X887942Y7226979D01*
G01X886987Y7229814D01*
G01X886176Y7232694D01*
G01X885511Y7235610D01*
G01X884993Y7238557D01*
G01X884619Y7241526D01*
G01X884396Y7244510D01*
G01X884322Y7247500D01*
G01X884322Y7327500D01*
G01X884396Y7330489D01*
G01X884619Y7333474D01*
G01X884993Y7336443D01*
G01X885511Y7339389D01*
G01X886176Y7342305D01*
G01X886987Y7345186D01*
G01X887942Y7348020D01*
G01X889034Y7350807D01*
G01X890263Y7353532D01*
G01X891630Y7356194D01*
G01X893126Y7358785D01*
G01X894749Y7361299D01*
G01X896494Y7363728D01*
G01X898358Y7366067D01*
G01X900339Y7368310D01*
G01X902427Y7370451D01*
G01X904622Y7372486D01*
G01X906913Y7374408D01*
G01X909298Y7376217D01*
G01X911769Y7377901D01*
G01X914322Y7379460D01*
G01X916948Y7380893D01*
G01X919646Y7382191D01*
G01X922402Y7383352D01*
G01X925214Y7384375D01*
G01X928071Y7385257D01*
G01X930972Y7385996D01*
G01X933903Y7386588D01*
G01X936862Y7387035D01*
G01X939839Y7387332D01*
G01X942826Y7387482D01*
G01X945818Y7387482D01*
G01X948805Y7387332D01*
G01X951782Y7387035D01*
G01X954741Y7386588D01*
G01X957672Y7385996D01*
G01X960573Y7385257D01*
G01X963430Y7384375D01*
G01X966242Y7383352D01*
G01X968998Y7382191D01*
G01X971696Y7380893D01*
G01X974322Y7379460D01*
G01X976875Y7377901D01*
G01X979346Y7376217D01*
G01X981731Y7374408D01*
G01X984022Y7372486D01*
G01X986217Y7370451D01*
G01X988305Y7368310D01*
G01X990286Y7366067D01*
G01X992150Y7363728D01*
G01X993895Y7361299D01*
G01X995518Y7358785D01*
G01X997014Y7356194D01*
G01X998381Y7353532D01*
G01X999610Y7350807D01*
G01X1000702Y7348020D01*
G01X1001657Y7345186D01*
G01X1002468Y7342305D01*
G01X1003133Y7339389D01*
G01X1003651Y7336443D01*
G01X1004025Y7333474D01*
G01X1004248Y7330489D01*
G01X1004322Y7327500D01*
G01X1004322Y7247500D01*
G01X1004248Y7244510D01*
G01X1004025Y7241526D01*
G01X1003651Y7238557D01*
G01X1003133Y7235610D01*
G01X1002468Y7232694D01*
G01X1001657Y7229814D01*
G01X1000702Y7226979D01*
G01X999610Y7224193D01*
G01X998381Y7221467D01*
G01X997014Y7218805D01*
G01X995518Y7216215D01*
G01X993895Y7213700D01*
G01X992150Y7211272D01*
G01X990286Y7208932D01*
G01X988305Y7206690D01*
G01X986217Y7204548D01*
G01X984022Y7202514D01*
G01X981731Y7200591D01*
G01X979346Y7198783D01*
G01X976875Y7197099D01*
G01X974322Y7195539D01*
G01X971696Y7194107D01*
G01X968998Y7192809D01*
G01X966242Y7191648D01*
G01X963430Y7190624D01*
G01X960573Y7189743D01*
G01X957672Y7189004D01*
G01X954741Y7188412D01*
G01X951782Y7187965D01*
G01X948805Y7187668D01*
G01X945818Y7187518D01*
G01X942826Y7187518D01*
G01X939839Y7187668D01*
G37*
G36*
G01X1810815Y7187518D02*
G01X1807823Y7187518D01*
G01X1804836Y7187668D01*
G01X1801859Y7187965D01*
G01X1798900Y7188412D01*
G01X1795969Y7189004D01*
G01X1793068Y7189743D01*
G01X1790211Y7190624D01*
G01X1787399Y7191648D01*
G01X1784643Y7192809D01*
G01X1781945Y7194107D01*
G01X1779319Y7195539D01*
G01X1776766Y7197099D01*
G01X1774295Y7198783D01*
G01X1771910Y7200591D01*
G01X1769619Y7202514D01*
G01X1767424Y7204548D01*
G01X1765336Y7206690D01*
G01X1763355Y7208932D01*
G01X1761491Y7211272D01*
G01X1759746Y7213700D01*
G01X1758123Y7216215D01*
G01X1756627Y7218805D01*
G01X1755260Y7221467D01*
G01X1754031Y7224193D01*
G01X1752939Y7226979D01*
G01X1751984Y7229814D01*
G01X1751173Y7232694D01*
G01X1750508Y7235610D01*
G01X1749990Y7238557D01*
G01X1749616Y7241526D01*
G01X1749393Y7244510D01*
G01X1749319Y7247500D01*
G01X1749319Y7327500D01*
G01X1749393Y7330489D01*
G01X1749616Y7333474D01*
G01X1749990Y7336443D01*
G01X1750508Y7339389D01*
G01X1751173Y7342305D01*
G01X1751984Y7345186D01*
G01X1752939Y7348020D01*
G01X1754031Y7350807D01*
G01X1755260Y7353532D01*
G01X1756627Y7356194D01*
G01X1758123Y7358785D01*
G01X1759746Y7361299D01*
G01X1761491Y7363728D01*
G01X1763355Y7366067D01*
G01X1765336Y7368310D01*
G01X1767424Y7370451D01*
G01X1769619Y7372486D01*
G01X1771910Y7374408D01*
G01X1774295Y7376217D01*
G01X1776766Y7377901D01*
G01X1779319Y7379460D01*
G01X1781945Y7380893D01*
G01X1784643Y7382191D01*
G01X1787399Y7383352D01*
G01X1790211Y7384375D01*
G01X1793068Y7385257D01*
G01X1795969Y7385996D01*
G01X1798900Y7386588D01*
G01X1801859Y7387035D01*
G01X1804836Y7387332D01*
G01X1807823Y7387482D01*
G01X1810815Y7387482D01*
G01X1813802Y7387332D01*
G01X1816779Y7387035D01*
G01X1819738Y7386588D01*
G01X1822669Y7385996D01*
G01X1825570Y7385257D01*
G01X1828427Y7384375D01*
G01X1831239Y7383352D01*
G01X1833995Y7382191D01*
G01X1836693Y7380893D01*
G01X1839319Y7379460D01*
G01X1841872Y7377901D01*
G01X1844343Y7376217D01*
G01X1846728Y7374408D01*
G01X1849019Y7372486D01*
G01X1851214Y7370451D01*
G01X1853302Y7368310D01*
G01X1855283Y7366067D01*
G01X1857147Y7363728D01*
G01X1858892Y7361299D01*
G01X1860515Y7358785D01*
G01X1862011Y7356194D01*
G01X1863378Y7353532D01*
G01X1864607Y7350807D01*
G01X1865699Y7348020D01*
G01X1866654Y7345186D01*
G01X1867465Y7342305D01*
G01X1868130Y7339389D01*
G01X1868648Y7336443D01*
G01X1869022Y7333474D01*
G01X1869245Y7330489D01*
G01X1869319Y7327500D01*
G01X1869319Y7247500D01*
G01X1869245Y7244510D01*
G01X1869022Y7241526D01*
G01X1868648Y7238557D01*
G01X1868130Y7235610D01*
G01X1867465Y7232694D01*
G01X1866654Y7229814D01*
G01X1865699Y7226979D01*
G01X1864607Y7224193D01*
G01X1863378Y7221467D01*
G01X1862011Y7218805D01*
G01X1860515Y7216215D01*
G01X1858892Y7213700D01*
G01X1857147Y7211272D01*
G01X1855283Y7208932D01*
G01X1853302Y7206690D01*
G01X1851214Y7204548D01*
G01X1849019Y7202514D01*
G01X1846728Y7200591D01*
G01X1844343Y7198783D01*
G01X1841872Y7197099D01*
G01X1839319Y7195539D01*
G01X1836693Y7194107D01*
G01X1833995Y7192809D01*
G01X1831239Y7191648D01*
G01X1828427Y7190624D01*
G01X1825570Y7189743D01*
G01X1822669Y7189004D01*
G01X1819738Y7188412D01*
G01X1816779Y7187965D01*
G01X1813802Y7187668D01*
G01X1810815Y7187518D01*
G37*
G36*
G01X1804836Y7632683D02*
G01X1801859Y7632980D01*
G01X1798900Y7633427D01*
G01X1795969Y7634019D01*
G01X1793068Y7634758D01*
G01X1790211Y7635640D01*
G01X1787399Y7636663D01*
G01X1784643Y7637824D01*
G01X1781945Y7639122D01*
G01X1779319Y7640555D01*
G01X1776766Y7642114D01*
G01X1774295Y7643798D01*
G01X1771910Y7645607D01*
G01X1769619Y7647530D01*
G01X1767424Y7649564D01*
G01X1765336Y7651705D01*
G01X1763355Y7653948D01*
G01X1761491Y7656287D01*
G01X1759746Y7658716D01*
G01X1758123Y7661230D01*
G01X1756627Y7663821D01*
G01X1755260Y7666483D01*
G01X1754031Y7669208D01*
G01X1752939Y7671995D01*
G01X1751984Y7674829D01*
G01X1751173Y7677710D01*
G01X1750508Y7680626D01*
G01X1749990Y7683572D01*
G01X1749616Y7686541D01*
G01X1749393Y7689526D01*
G01X1749319Y7692515D01*
G01X1749319Y7722515D01*
G01X1749393Y7725505D01*
G01X1749616Y7728489D01*
G01X1749990Y7731459D01*
G01X1750508Y7734405D01*
G01X1751173Y7737321D01*
G01X1751984Y7740201D01*
G01X1752939Y7743036D01*
G01X1754031Y7745822D01*
G01X1755260Y7748548D01*
G01X1756627Y7751210D01*
G01X1758123Y7753801D01*
G01X1759746Y7756315D01*
G01X1761491Y7758743D01*
G01X1763355Y7761083D01*
G01X1765336Y7763326D01*
G01X1767424Y7765467D01*
G01X1769619Y7767501D01*
G01X1771910Y7769424D01*
G01X1774295Y7771233D01*
G01X1776766Y7772917D01*
G01X1779319Y7774476D01*
G01X1781945Y7775909D01*
G01X1784643Y7777207D01*
G01X1787399Y7778367D01*
G01X1790211Y7779391D01*
G01X1793068Y7780272D01*
G01X1795969Y7781012D01*
G01X1798900Y7781603D01*
G01X1801859Y7782050D01*
G01X1804836Y7782348D01*
G01X1807823Y7782498D01*
G01X1810815Y7782498D01*
G01X1813802Y7782348D01*
G01X1816779Y7782050D01*
G01X1819738Y7781603D01*
G01X1822669Y7781012D01*
G01X1825570Y7780272D01*
G01X1828427Y7779391D01*
G01X1831239Y7778367D01*
G01X1833995Y7777207D01*
G01X1836693Y7775909D01*
G01X1839319Y7774476D01*
G01X1841872Y7772917D01*
G01X1844343Y7771233D01*
G01X1846728Y7769424D01*
G01X1849019Y7767501D01*
G01X1851214Y7765467D01*
G01X1853302Y7763326D01*
G01X1855283Y7761083D01*
G01X1857147Y7758743D01*
G01X1858892Y7756315D01*
G01X1860515Y7753801D01*
G01X1862011Y7751210D01*
G01X1863378Y7748548D01*
G01X1864607Y7745822D01*
G01X1865699Y7743036D01*
G01X1866654Y7740201D01*
G01X1867465Y7737321D01*
G01X1868130Y7734405D01*
G01X1868648Y7731459D01*
G01X1869022Y7728489D01*
G01X1869245Y7725505D01*
G01X1869319Y7722515D01*
G01X1869319Y7692515D01*
G01X1869245Y7689526D01*
G01X1869022Y7686541D01*
G01X1868648Y7683572D01*
G01X1868130Y7680626D01*
G01X1867465Y7677710D01*
G01X1866654Y7674829D01*
G01X1865699Y7671995D01*
G01X1864607Y7669208D01*
G01X1863378Y7666483D01*
G01X1862011Y7663821D01*
G01X1860515Y7661230D01*
G01X1858892Y7658716D01*
G01X1857147Y7656287D01*
G01X1855283Y7653948D01*
G01X1853302Y7651705D01*
G01X1851214Y7649564D01*
G01X1849019Y7647530D01*
G01X1846728Y7645607D01*
G01X1844343Y7643798D01*
G01X1841872Y7642114D01*
G01X1839319Y7640555D01*
G01X1836693Y7639122D01*
G01X1833995Y7637824D01*
G01X1831239Y7636663D01*
G01X1828427Y7635640D01*
G01X1825570Y7634758D01*
G01X1822669Y7634019D01*
G01X1819738Y7633427D01*
G01X1816779Y7632980D01*
G01X1813802Y7632683D01*
G01X1810815Y7632533D01*
G01X1807823Y7632533D01*
G01X1804836Y7632683D01*
G37*
G36*
G01X945818Y7632533D02*
G01X942826Y7632533D01*
G01X939839Y7632683D01*
G01X936862Y7632980D01*
G01X933903Y7633427D01*
G01X930972Y7634019D01*
G01X928071Y7634758D01*
G01X925214Y7635640D01*
G01X922402Y7636663D01*
G01X919646Y7637824D01*
G01X916948Y7639122D01*
G01X914322Y7640555D01*
G01X911769Y7642114D01*
G01X909298Y7643798D01*
G01X906913Y7645607D01*
G01X904622Y7647530D01*
G01X902427Y7649564D01*
G01X900339Y7651705D01*
G01X898358Y7653948D01*
G01X896494Y7656287D01*
G01X894749Y7658716D01*
G01X893126Y7661230D01*
G01X891630Y7663821D01*
G01X890263Y7666483D01*
G01X889034Y7669208D01*
G01X887942Y7671995D01*
G01X886987Y7674829D01*
G01X886176Y7677710D01*
G01X885511Y7680626D01*
G01X884993Y7683572D01*
G01X884619Y7686541D01*
G01X884396Y7689526D01*
G01X884322Y7692515D01*
G01X884322Y7722515D01*
G01X884396Y7725505D01*
G01X884619Y7728489D01*
G01X884993Y7731459D01*
G01X885511Y7734405D01*
G01X886176Y7737321D01*
G01X886987Y7740201D01*
G01X887942Y7743036D01*
G01X889034Y7745822D01*
G01X890263Y7748548D01*
G01X891630Y7751210D01*
G01X893126Y7753801D01*
G01X894749Y7756315D01*
G01X896494Y7758743D01*
G01X898358Y7761083D01*
G01X900339Y7763326D01*
G01X902427Y7765467D01*
G01X904622Y7767501D01*
G01X906913Y7769424D01*
G01X909298Y7771233D01*
G01X911769Y7772917D01*
G01X914322Y7774476D01*
G01X916948Y7775909D01*
G01X919646Y7777207D01*
G01X922402Y7778367D01*
G01X925214Y7779391D01*
G01X928071Y7780272D01*
G01X930972Y7781012D01*
G01X933903Y7781603D01*
G01X936862Y7782050D01*
G01X939839Y7782348D01*
G01X942826Y7782498D01*
G01X945818Y7782498D01*
G01X948805Y7782348D01*
G01X951782Y7782050D01*
G01X954741Y7781603D01*
G01X957672Y7781012D01*
G01X960573Y7780272D01*
G01X963430Y7779391D01*
G01X966242Y7778367D01*
G01X968998Y7777207D01*
G01X971696Y7775909D01*
G01X974322Y7774476D01*
G01X976875Y7772917D01*
G01X979346Y7771233D01*
G01X981731Y7769424D01*
G01X984022Y7767501D01*
G01X986217Y7765467D01*
G01X988305Y7763326D01*
G01X990286Y7761083D01*
G01X992150Y7758743D01*
G01X993895Y7756315D01*
G01X995518Y7753801D01*
G01X997014Y7751210D01*
G01X998381Y7748548D01*
G01X999610Y7745822D01*
G01X1000702Y7743036D01*
G01X1001657Y7740201D01*
G01X1002468Y7737321D01*
G01X1003133Y7734405D01*
G01X1003651Y7731459D01*
G01X1004025Y7728489D01*
G01X1004248Y7725505D01*
G01X1004322Y7722515D01*
G01X1004322Y7692515D01*
G01X1004248Y7689526D01*
G01X1004025Y7686541D01*
G01X1003651Y7683572D01*
G01X1003133Y7680626D01*
G01X1002468Y7677710D01*
G01X1001657Y7674829D01*
G01X1000702Y7671995D01*
G01X999610Y7669208D01*
G01X998381Y7666483D01*
G01X997014Y7663821D01*
G01X995518Y7661230D01*
G01X993895Y7658716D01*
G01X992150Y7656287D01*
G01X990286Y7653948D01*
G01X988305Y7651705D01*
G01X986217Y7649564D01*
G01X984022Y7647530D01*
G01X981731Y7645607D01*
G01X979346Y7643798D01*
G01X976875Y7642114D01*
G01X974322Y7640555D01*
G01X971696Y7639122D01*
G01X968998Y7637824D01*
G01X966242Y7636663D01*
G01X963430Y7635640D01*
G01X960573Y7634758D01*
G01X957672Y7634019D01*
G01X954741Y7633427D01*
G01X951782Y7632980D01*
G01X948805Y7632683D01*
G01X945818Y7632533D01*
G37*
G36*
G01X3314393Y7303009D02*
G01X3344395Y7303009D01*
G01X3344395Y7193009D01*
G01X3314393Y7193009D01*
G01X3314393Y7303009D01*
G37*
G36*
G01X3294383Y7193009D02*
G01X3264380Y7193009D01*
G01X3264380Y7303009D01*
G01X3294383Y7303009D01*
G01X3294383Y7193009D01*
G37*
G36*
G01X3804402Y7193009D02*
G01X3744402Y7193009D01*
G01X3744402Y7303009D01*
G01X3804402Y7303009D01*
G01X3804402Y7193009D01*
G37*
G36*
G01X3364405Y7303009D02*
G01X3394408Y7303009D01*
G01X3394408Y7193009D01*
G01X3364405Y7193009D01*
G01X3364405Y7303009D01*
G37*
G36*
G01X3244383Y7193009D02*
G01X3184383Y7193009D01*
G01X3184383Y7303009D01*
G01X3244383Y7303009D01*
G01X3244383Y7193009D01*
G37*
G36*
G01X3104398Y7303009D02*
G01X3164398Y7303009D01*
G01X3164398Y7193009D01*
G01X3104398Y7193009D01*
G01X3104398Y7303009D01*
G37*
G36*
G01X3414392Y7303009D02*
G01X3444395Y7303009D01*
G01X3444395Y7193009D01*
G01X3414392Y7193009D01*
G01X3414392Y7303009D01*
G37*
G36*
G01X3464405Y7303009D02*
G01X3494408Y7303009D01*
G01X3494408Y7193009D01*
G01X3464405Y7193009D01*
G01X3464405Y7303009D01*
G37*
G36*
G01X3724392Y7193009D02*
G01X3664392Y7193009D01*
G01X3664392Y7303009D01*
G01X3724392Y7303009D01*
G01X3724392Y7193009D01*
G37*
G36*
G01X3514392Y7303009D02*
G01X3544395Y7303009D01*
G01X3544395Y7193009D01*
G01X3514392Y7193009D01*
G01X3514392Y7303009D01*
G37*
G36*
G01X3564379Y7303009D02*
G01X3594382Y7303009D01*
G01X3594382Y7193009D01*
G01X3564379Y7193009D01*
G01X3564379Y7303009D01*
G37*
G36*
G01X3614392Y7303009D02*
G01X3644395Y7303009D01*
G01X3644395Y7193009D01*
G01X3614392Y7193009D01*
G01X3614392Y7303009D01*
G37*
G36*
G01X3017418Y7203169D02*
G01X3014442Y7203466D01*
G01X3011482Y7203913D01*
G01X3008551Y7204505D01*
G01X3005651Y7205244D01*
G01X3002793Y7206126D01*
G01X2999981Y7207149D01*
G01X2997225Y7208310D01*
G01X2994528Y7209608D01*
G01X2991902Y7211041D01*
G01X2989349Y7212600D01*
G01X2986877Y7214284D01*
G01X2984492Y7216093D01*
G01X2982201Y7218016D01*
G01X2980007Y7220050D01*
G01X2977919Y7222191D01*
G01X2975938Y7224434D01*
G01X2974073Y7226773D01*
G01X2972328Y7229202D01*
G01X2970705Y7231716D01*
G01X2969209Y7234307D01*
G01X2967843Y7236969D01*
G01X2966613Y7239694D01*
G01X2965521Y7242481D01*
G01X2964566Y7245315D01*
G01X2963756Y7248196D01*
G01X2963090Y7251112D01*
G01X2962572Y7254058D01*
G01X2962199Y7257027D01*
G01X2961975Y7260012D01*
G01X2961902Y7263001D01*
G01X2961902Y7343001D01*
G01X2961975Y7345991D01*
G01X2962199Y7348975D01*
G01X2962572Y7351945D01*
G01X2963090Y7354891D01*
G01X2963756Y7357807D01*
G01X2964566Y7360687D01*
G01X2965521Y7363522D01*
G01X2966613Y7366308D01*
G01X2967843Y7369034D01*
G01X2969209Y7371696D01*
G01X2970705Y7374286D01*
G01X2972328Y7376801D01*
G01X2974073Y7379229D01*
G01X2975938Y7381569D01*
G01X2977919Y7383811D01*
G01X2980007Y7385953D01*
G01X2982201Y7387987D01*
G01X2984492Y7389910D01*
G01X2986877Y7391719D01*
G01X2989349Y7393403D01*
G01X2991902Y7394962D01*
G01X2994528Y7396395D01*
G01X2997225Y7397693D01*
G01X2999981Y7398853D01*
G01X3002793Y7399877D01*
G01X3005651Y7400758D01*
G01X3008551Y7401498D01*
G01X3011482Y7402089D01*
G01X3014442Y7402536D01*
G01X3017418Y7402834D01*
G01X3020405Y7402983D01*
G01X3023398Y7402983D01*
G01X3026385Y7402834D01*
G01X3029361Y7402536D01*
G01X3032321Y7402089D01*
G01X3035252Y7401498D01*
G01X3038152Y7400758D01*
G01X3041010Y7399877D01*
G01X3043822Y7398853D01*
G01X3046578Y7397693D01*
G01X3049275Y7396395D01*
G01X3051901Y7394962D01*
G01X3054454Y7393403D01*
G01X3056926Y7391719D01*
G01X3059311Y7389910D01*
G01X3061602Y7387987D01*
G01X3063796Y7385953D01*
G01X3065884Y7383811D01*
G01X3067865Y7381569D01*
G01X3069730Y7379229D01*
G01X3071475Y7376801D01*
G01X3073098Y7374286D01*
G01X3074594Y7371696D01*
G01X3075960Y7369034D01*
G01X3077190Y7366308D01*
G01X3078282Y7363522D01*
G01X3079237Y7360687D01*
G01X3080047Y7357807D01*
G01X3080713Y7354891D01*
G01X3081231Y7351945D01*
G01X3081604Y7348975D01*
G01X3081828Y7345991D01*
G01X3081901Y7343001D01*
G01X3081901Y7263001D01*
G01X3081828Y7260012D01*
G01X3081604Y7257027D01*
G01X3081231Y7254058D01*
G01X3080713Y7251112D01*
G01X3080047Y7248196D01*
G01X3079237Y7245315D01*
G01X3078282Y7242481D01*
G01X3077190Y7239694D01*
G01X3075960Y7236969D01*
G01X3074594Y7234307D01*
G01X3073098Y7231716D01*
G01X3071475Y7229202D01*
G01X3069730Y7226773D01*
G01X3067865Y7224434D01*
G01X3065884Y7222191D01*
G01X3063796Y7220050D01*
G01X3061602Y7218016D01*
G01X3059311Y7216093D01*
G01X3056926Y7214284D01*
G01X3054454Y7212600D01*
G01X3051901Y7211041D01*
G01X3049275Y7209608D01*
G01X3046578Y7208310D01*
G01X3043822Y7207149D01*
G01X3041010Y7206126D01*
G01X3038152Y7205244D01*
G01X3035252Y7204505D01*
G01X3032321Y7203913D01*
G01X3029361Y7203466D01*
G01X3026385Y7203169D01*
G01X3023398Y7203019D01*
G01X3020405Y7203019D01*
G01X3017418Y7203169D01*
G37*
G36*
G01X3888395Y7203019D02*
G01X3885402Y7203019D01*
G01X3882415Y7203169D01*
G01X3879439Y7203466D01*
G01X3876479Y7203913D01*
G01X3873548Y7204505D01*
G01X3870648Y7205244D01*
G01X3867790Y7206126D01*
G01X3864978Y7207149D01*
G01X3862222Y7208310D01*
G01X3859525Y7209608D01*
G01X3856899Y7211041D01*
G01X3854346Y7212600D01*
G01X3851874Y7214284D01*
G01X3849489Y7216093D01*
G01X3847198Y7218016D01*
G01X3845004Y7220050D01*
G01X3842916Y7222191D01*
G01X3840935Y7224434D01*
G01X3839070Y7226773D01*
G01X3837325Y7229202D01*
G01X3835702Y7231716D01*
G01X3834206Y7234307D01*
G01X3832840Y7236969D01*
G01X3831610Y7239694D01*
G01X3830518Y7242481D01*
G01X3829563Y7245315D01*
G01X3828753Y7248196D01*
G01X3828087Y7251112D01*
G01X3827569Y7254058D01*
G01X3827196Y7257027D01*
G01X3826972Y7260012D01*
G01X3826899Y7263001D01*
G01X3826899Y7343001D01*
G01X3826972Y7345991D01*
G01X3827196Y7348975D01*
G01X3827569Y7351945D01*
G01X3828087Y7354891D01*
G01X3828753Y7357807D01*
G01X3829563Y7360687D01*
G01X3830518Y7363522D01*
G01X3831610Y7366308D01*
G01X3832840Y7369034D01*
G01X3834206Y7371696D01*
G01X3835702Y7374286D01*
G01X3837325Y7376801D01*
G01X3839070Y7379229D01*
G01X3840935Y7381569D01*
G01X3842916Y7383811D01*
G01X3845004Y7385953D01*
G01X3847198Y7387987D01*
G01X3849489Y7389910D01*
G01X3851874Y7391719D01*
G01X3854346Y7393403D01*
G01X3856899Y7394962D01*
G01X3859525Y7396395D01*
G01X3862222Y7397693D01*
G01X3864978Y7398853D01*
G01X3867790Y7399877D01*
G01X3870648Y7400758D01*
G01X3873548Y7401498D01*
G01X3876479Y7402089D01*
G01X3879439Y7402536D01*
G01X3882415Y7402834D01*
G01X3885402Y7402983D01*
G01X3888395Y7402983D01*
G01X3891382Y7402834D01*
G01X3894358Y7402536D01*
G01X3897318Y7402089D01*
G01X3900249Y7401498D01*
G01X3903149Y7400758D01*
G01X3906007Y7399877D01*
G01X3908819Y7398853D01*
G01X3911575Y7397693D01*
G01X3914272Y7396395D01*
G01X3916898Y7394962D01*
G01X3919451Y7393403D01*
G01X3921923Y7391719D01*
G01X3924308Y7389910D01*
G01X3926599Y7387987D01*
G01X3928793Y7385953D01*
G01X3930881Y7383811D01*
G01X3932862Y7381569D01*
G01X3934727Y7379229D01*
G01X3936472Y7376801D01*
G01X3938095Y7374286D01*
G01X3939591Y7371696D01*
G01X3940957Y7369034D01*
G01X3942187Y7366308D01*
G01X3943279Y7363522D01*
G01X3944234Y7360687D01*
G01X3945044Y7357807D01*
G01X3945710Y7354891D01*
G01X3946228Y7351945D01*
G01X3946601Y7348975D01*
G01X3946825Y7345991D01*
G01X3946898Y7343001D01*
G01X3946898Y7263001D01*
G01X3946825Y7260012D01*
G01X3946601Y7257027D01*
G01X3946228Y7254058D01*
G01X3945710Y7251112D01*
G01X3945044Y7248196D01*
G01X3944234Y7245315D01*
G01X3943279Y7242481D01*
G01X3942187Y7239694D01*
G01X3940957Y7236969D01*
G01X3939591Y7234307D01*
G01X3938095Y7231716D01*
G01X3936472Y7229202D01*
G01X3934727Y7226773D01*
G01X3932862Y7224434D01*
G01X3930881Y7222191D01*
G01X3928793Y7220050D01*
G01X3926599Y7218016D01*
G01X3924308Y7216093D01*
G01X3921923Y7214284D01*
G01X3919451Y7212600D01*
G01X3916898Y7211041D01*
G01X3914272Y7209608D01*
G01X3911575Y7208310D01*
G01X3908819Y7207149D01*
G01X3906007Y7206126D01*
G01X3903149Y7205244D01*
G01X3900249Y7204505D01*
G01X3897318Y7203913D01*
G01X3894358Y7203466D01*
G01X3891382Y7203169D01*
G01X3888395Y7203019D01*
G37*
G36*
G01X3882415Y7648185D02*
G01X3879439Y7648482D01*
G01X3876479Y7648929D01*
G01X3873548Y7649521D01*
G01X3870648Y7650260D01*
G01X3867790Y7651141D01*
G01X3864978Y7652165D01*
G01X3862222Y7653326D01*
G01X3859525Y7654624D01*
G01X3856899Y7656056D01*
G01X3854346Y7657616D01*
G01X3851874Y7659300D01*
G01X3849489Y7661108D01*
G01X3847198Y7663031D01*
G01X3845004Y7665066D01*
G01X3842916Y7667207D01*
G01X3840935Y7669450D01*
G01X3839070Y7671789D01*
G01X3837325Y7674217D01*
G01X3835702Y7676732D01*
G01X3834206Y7679323D01*
G01X3832840Y7681985D01*
G01X3831610Y7684710D01*
G01X3830518Y7687496D01*
G01X3829563Y7690331D01*
G01X3828753Y7693211D01*
G01X3828087Y7696127D01*
G01X3827569Y7699074D01*
G01X3827196Y7702043D01*
G01X3826972Y7705028D01*
G01X3826899Y7708017D01*
G01X3826899Y7738017D01*
G01X3826972Y7741007D01*
G01X3827196Y7743991D01*
G01X3827569Y7746960D01*
G01X3828087Y7749907D01*
G01X3828753Y7752823D01*
G01X3829563Y7755703D01*
G01X3830518Y7758538D01*
G01X3831610Y7761324D01*
G01X3832840Y7764049D01*
G01X3834206Y7766711D01*
G01X3835702Y7769302D01*
G01X3837325Y7771817D01*
G01X3839070Y7774245D01*
G01X3840935Y7776584D01*
G01X3842916Y7778827D01*
G01X3845004Y7780968D01*
G01X3847198Y7783003D01*
G01X3849489Y7784926D01*
G01X3851874Y7786734D01*
G01X3854346Y7788418D01*
G01X3856899Y7789978D01*
G01X3859525Y7791410D01*
G01X3862222Y7792708D01*
G01X3864978Y7793869D01*
G01X3867790Y7794893D01*
G01X3870648Y7795774D01*
G01X3873548Y7796513D01*
G01X3876479Y7797105D01*
G01X3879439Y7797552D01*
G01X3882415Y7797849D01*
G01X3885402Y7797999D01*
G01X3888395Y7797999D01*
G01X3891382Y7797849D01*
G01X3894358Y7797552D01*
G01X3897318Y7797105D01*
G01X3900249Y7796513D01*
G01X3903149Y7795774D01*
G01X3906007Y7794893D01*
G01X3908819Y7793869D01*
G01X3911575Y7792708D01*
G01X3914272Y7791410D01*
G01X3916898Y7789978D01*
G01X3919451Y7788418D01*
G01X3921923Y7786734D01*
G01X3924308Y7784926D01*
G01X3926599Y7783003D01*
G01X3928793Y7780968D01*
G01X3930881Y7778827D01*
G01X3932862Y7776584D01*
G01X3934727Y7774245D01*
G01X3936472Y7771817D01*
G01X3938095Y7769302D01*
G01X3939591Y7766711D01*
G01X3940957Y7764049D01*
G01X3942187Y7761324D01*
G01X3943279Y7758538D01*
G01X3944234Y7755703D01*
G01X3945044Y7752823D01*
G01X3945710Y7749907D01*
G01X3946228Y7746960D01*
G01X3946601Y7743991D01*
G01X3946825Y7741007D01*
G01X3946898Y7738017D01*
G01X3946898Y7708017D01*
G01X3946825Y7705028D01*
G01X3946601Y7702043D01*
G01X3946228Y7699074D01*
G01X3945710Y7696127D01*
G01X3945044Y7693211D01*
G01X3944234Y7690331D01*
G01X3943279Y7687496D01*
G01X3942187Y7684710D01*
G01X3940957Y7681985D01*
G01X3939591Y7679323D01*
G01X3938095Y7676732D01*
G01X3936472Y7674217D01*
G01X3934727Y7671789D01*
G01X3932862Y7669450D01*
G01X3930881Y7667207D01*
G01X3928793Y7665066D01*
G01X3926599Y7663031D01*
G01X3924308Y7661108D01*
G01X3921923Y7659300D01*
G01X3919451Y7657616D01*
G01X3916898Y7656056D01*
G01X3914272Y7654624D01*
G01X3911575Y7653326D01*
G01X3908819Y7652165D01*
G01X3906007Y7651141D01*
G01X3903149Y7650260D01*
G01X3900249Y7649521D01*
G01X3897318Y7648929D01*
G01X3894358Y7648482D01*
G01X3891382Y7648185D01*
G01X3888395Y7648035D01*
G01X3885402Y7648035D01*
G01X3882415Y7648185D01*
G37*
G36*
G01X3023398Y7648035D02*
G01X3020405Y7648035D01*
G01X3017418Y7648185D01*
G01X3014442Y7648482D01*
G01X3011482Y7648929D01*
G01X3008551Y7649521D01*
G01X3005651Y7650260D01*
G01X3002793Y7651141D01*
G01X2999981Y7652165D01*
G01X2997225Y7653326D01*
G01X2994528Y7654624D01*
G01X2991902Y7656056D01*
G01X2989349Y7657616D01*
G01X2986877Y7659300D01*
G01X2984492Y7661108D01*
G01X2982201Y7663031D01*
G01X2980007Y7665066D01*
G01X2977919Y7667207D01*
G01X2975938Y7669450D01*
G01X2974073Y7671789D01*
G01X2972328Y7674217D01*
G01X2970705Y7676732D01*
G01X2969209Y7679323D01*
G01X2967843Y7681985D01*
G01X2966613Y7684710D01*
G01X2965521Y7687496D01*
G01X2964566Y7690331D01*
G01X2963756Y7693211D01*
G01X2963090Y7696127D01*
G01X2962572Y7699074D01*
G01X2962199Y7702043D01*
G01X2961975Y7705028D01*
G01X2961902Y7708017D01*
G01X2961902Y7738017D01*
G01X2961975Y7741007D01*
G01X2962199Y7743991D01*
G01X2962572Y7746960D01*
G01X2963090Y7749907D01*
G01X2963756Y7752823D01*
G01X2964566Y7755703D01*
G01X2965521Y7758538D01*
G01X2966613Y7761324D01*
G01X2967843Y7764049D01*
G01X2969209Y7766711D01*
G01X2970705Y7769302D01*
G01X2972328Y7771817D01*
G01X2974073Y7774245D01*
G01X2975938Y7776584D01*
G01X2977919Y7778827D01*
G01X2980007Y7780968D01*
G01X2982201Y7783003D01*
G01X2984492Y7784926D01*
G01X2986877Y7786734D01*
G01X2989349Y7788418D01*
G01X2991902Y7789978D01*
G01X2994528Y7791410D01*
G01X2997225Y7792708D01*
G01X2999981Y7793869D01*
G01X3002793Y7794893D01*
G01X3005651Y7795774D01*
G01X3008551Y7796513D01*
G01X3011482Y7797105D01*
G01X3014442Y7797552D01*
G01X3017418Y7797849D01*
G01X3020405Y7797999D01*
G01X3023398Y7797999D01*
G01X3026385Y7797849D01*
G01X3029361Y7797552D01*
G01X3032321Y7797105D01*
G01X3035252Y7796513D01*
G01X3038152Y7795774D01*
G01X3041010Y7794893D01*
G01X3043822Y7793869D01*
G01X3046578Y7792708D01*
G01X3049275Y7791410D01*
G01X3051901Y7789978D01*
G01X3054454Y7788418D01*
G01X3056926Y7786734D01*
G01X3059311Y7784926D01*
G01X3061602Y7783003D01*
G01X3063796Y7780968D01*
G01X3065884Y7778827D01*
G01X3067865Y7776584D01*
G01X3069730Y7774245D01*
G01X3071475Y7771817D01*
G01X3073098Y7769302D01*
G01X3074594Y7766711D01*
G01X3075960Y7764049D01*
G01X3077190Y7761324D01*
G01X3078282Y7758538D01*
G01X3079237Y7755703D01*
G01X3080047Y7752823D01*
G01X3080713Y7749907D01*
G01X3081231Y7746960D01*
G01X3081604Y7743991D01*
G01X3081828Y7741007D01*
G01X3081901Y7738017D01*
G01X3081901Y7708017D01*
G01X3081828Y7705028D01*
G01X3081604Y7702043D01*
G01X3081231Y7699074D01*
G01X3080713Y7696127D01*
G01X3080047Y7693211D01*
G01X3079237Y7690331D01*
G01X3078282Y7687496D01*
G01X3077190Y7684710D01*
G01X3075960Y7681985D01*
G01X3074594Y7679323D01*
G01X3073098Y7676732D01*
G01X3071475Y7674217D01*
G01X3069730Y7671789D01*
G01X3067865Y7669450D01*
G01X3065884Y7667207D01*
G01X3063796Y7665066D01*
G01X3061602Y7663031D01*
G01X3059311Y7661108D01*
G01X3056926Y7659300D01*
G01X3054454Y7657616D01*
G01X3051901Y7656056D01*
G01X3049275Y7654624D01*
G01X3046578Y7653326D01*
G01X3043822Y7652165D01*
G01X3041010Y7651141D01*
G01X3038152Y7650260D01*
G01X3035252Y7649521D01*
G01X3032321Y7648929D01*
G01X3029361Y7648482D01*
G01X3026385Y7648185D01*
G01X3023398Y7648035D01*
G37*

G04 Pad Start*
G54D10*
G01X3816198Y5803900D03*
G01X3956202Y5803900D03*
G54D11*
G01X1681620Y6981214D03*
G01X1681620Y6841209D03*
G01X3771900Y6945915D03*
G01X3771900Y6805911D03*
G01X292100Y5912002D03*
G01X292100Y5771998D03*
G01X3162300Y5823102D03*
G01X3162300Y5683098D03*
G54D10*
G01X2470302Y6324600D03*
G01X2330298Y6324600D03*
G01X2470302Y6489700D03*
G01X2330298Y6489700D03*
G01X1301598Y6375400D03*
G01X1441602Y6375400D03*
G01X1301598Y6223000D03*
G01X1441602Y6223000D03*
G01X1301598Y6057900D03*
G01X1441602Y6057900D03*
G01X1301598Y5880100D03*
G01X1441602Y5880100D03*
G54D12*
G01X2072310Y5935904D03*
G01X2072310Y5988914D03*
G01X2072310Y6041898D03*
G01X2072310Y6094908D03*
G01X2072310Y6147892D03*
G01X2072310Y6200902D03*
G01X2072310Y6253912D03*
G01X2072310Y6306896D03*
G01X1712290Y6306896D03*
G01X1712290Y6253912D03*
G01X1712290Y6200902D03*
G01X1712290Y6147892D03*
G01X1712290Y6094908D03*
G01X1712290Y6041898D03*
G01X1712290Y5988914D03*
G01X1712290Y5935904D03*
G04 Pad End*

M02*

