G04 Layer: TopSolderMaskLayer*
G04 EasyEDA Pro v3.2.148, 2026-07-04 18:32:14*
G04 Gerber Generator version 0.3*
G04 Scale: 100 percent, Rotated: No, Reflected: No*
G04 Dimensions in millimeters*
G04 Leading zeros omitted, absolute positions, 4 integers and 5 decimals*
G04 Generated by one-click*
G04 Object Configs: Pad,Via,Track,Text,Image,Dimension,BoardOutline,BoardCutout,CopperFilled,SolidRegion,FPCStiffener,Line,PlaneZone,ComponentProperty,ComponentSilkscreen,TearDrop*
G04 Layer Configs: 1,2,3,4,5,6,7,8,9,10,11,13,14,56*
G04 Copper Areas: 0*
%FSLAX45Y45*%
%MOMM*%
%AMRoundRect*1,1,$1,$2,$3*1,1,$1,$4,$5*1,1,$1,0-$2,0-$3*1,1,$1,0-$4,0-$5*20,1,$1,$2,$3,$4,$5,0*20,1,$1,$4,$5,0-$2,0-$3,0*20,1,$1,0-$2,0-$3,0-$4,0-$5,0*20,1,$1,0-$4,0-$5,$2,$3,0*4,1,4,$2,$3,$4,$5,0-$2,0-$3,0-$4,0-$5,$2,$3,0*%
%ADD10RoundRect,0.1016X-0.4X0.45X0.4X0.45*%
%ADD11RoundRect,0.1016X-0.45X-0.4X-0.45X0.4*%
%ADD12RoundRect,0.1016X-0.40324X0.432X0.40324X0.432*%
%ADD13RoundRect,0.1016X-0.432X-0.40324X-0.432X0.40324*%
%ADD14RoundRect,0.10003X-0.6X0.12501X0.6X0.12501*%
%ADD15RoundRect,0.1016X-0.55999X1.44X0.55999X1.44*%
%ADD16O,1.3004X3.20159*%
%ADD17O,1.3016X3.20159*%
%ADD18RoundRect,0.10003X-0.55X-0.27501X-0.55X0.27501*%
%ADD19RoundRect,0.10003X-0.55X-0.15X-0.55X0.15*%
%ADD20O,2.10002X1.20002*%
%ADD21O,1.90002X1.30002*%
%ADD22RoundRect,0.10003X-0.27501X0.55X0.27501X0.55*%
%ADD23RoundRect,0.10003X-0.15X0.55X0.15X0.55*%
%ADD24O,1.20002X2.10002*%
%ADD25O,1.30002X1.90002*%
G75*


G04 Pad Start*
G54D10*
G01X3816198Y5803900D03*
G01X3956202Y5803900D03*
G54D11*
G01X1681620Y6981214D03*
G01X1681620Y6841209D03*
G01X3771900Y6945915D03*
G01X3771900Y6805911D03*
G01X292100Y5912002D03*
G01X292100Y5771998D03*
G01X3162300Y5823102D03*
G01X3162300Y5683098D03*
G54D10*
G01X2470302Y6324600D03*
G01X2330298Y6324600D03*
G01X2470302Y6489700D03*
G01X2330298Y6489700D03*
G01X1301598Y6375400D03*
G01X1441602Y6375400D03*
G01X1301598Y6223000D03*
G01X1441602Y6223000D03*
G01X1301598Y6057900D03*
G01X1441602Y6057900D03*
G01X1301598Y5880100D03*
G01X1441602Y5880100D03*
G54D12*
G01X3961536Y5956300D03*
G01X3810864Y5956300D03*
G01X3959220Y6290170D03*
G01X3808547Y6290170D03*
G54D13*
G01X3581400Y6963949D03*
G01X3581400Y6813277D03*
G01X3251200Y6963949D03*
G01X3251200Y6813277D03*
G01X1199020Y6986548D03*
G01X1199020Y6835875D03*
G01X1465720Y6848575D03*
G01X1465720Y6999248D03*
G54D14*
G01X2072310Y5935904D03*
G01X2072310Y5988914D03*
G01X2072310Y6041898D03*
G01X2072310Y6094908D03*
G01X2072310Y6147892D03*
G01X2072310Y6200902D03*
G01X2072310Y6253912D03*
G01X2072310Y6306896D03*
G01X1712290Y6306896D03*
G01X1712290Y6253912D03*
G01X1712290Y6200902D03*
G01X1712290Y6147892D03*
G01X1712290Y6094908D03*
G01X1712290Y6041898D03*
G01X1712290Y5988914D03*
G01X1712290Y5935904D03*
G54D15*
G01X3601187Y5354396D03*
G01X3351200Y5354396D03*
G01X3151200Y5354396D03*
G01X2901213Y5354396D03*
G54D17*
G01X3896208Y4475404D03*
G01X2606192Y4475404D03*
G54D15*
G01X730987Y5379796D03*
G01X481000Y5379796D03*
G01X281000Y5379796D03*
G01X31013Y5379796D03*
G54D17*
G01X1026008Y4500804D03*
G01X-264008Y4500804D03*
G54D18*
G01X4296397Y5750598D03*
G01X4296397Y5830608D03*
G54D19*
G01X4296397Y5895607D03*
G01X4296397Y5945619D03*
G01X4296397Y5995607D03*
G01X4296397Y6045594D03*
G01X4296397Y6095606D03*
G01X4296397Y6145594D03*
G01X4296397Y6195606D03*
G01X4296397Y6245619D03*
G54D18*
G01X4296397Y6310617D03*
G01X4296397Y6390602D03*
G54D20*
G01X4351388Y5638102D03*
G01X4351388Y6503099D03*
G54D21*
G01X4771403Y5638102D03*
G01X4771403Y6503099D03*
G54D22*
G01X1696822Y7232509D03*
G01X1616812Y7232509D03*
G54D23*
G01X1551814Y7232509D03*
G01X1501801Y7232509D03*
G01X1451814Y7232509D03*
G01X1401827Y7232509D03*
G01X1351814Y7232509D03*
G01X1301827Y7232509D03*
G01X1251814Y7232509D03*
G01X1201802Y7232509D03*
G54D22*
G01X1136803Y7232509D03*
G01X1056819Y7232509D03*
G54D24*
G01X1809319Y7287500D03*
G01X944322Y7287500D03*
G54D25*
G01X1809319Y7707514D03*
G01X944322Y7707514D03*
G54D22*
G01X3774402Y7248010D03*
G01X3694392Y7248010D03*
G54D23*
G01X3629393Y7248010D03*
G01X3579381Y7248010D03*
G01X3529394Y7248010D03*
G01X3479406Y7248010D03*
G01X3429394Y7248010D03*
G01X3379407Y7248010D03*
G01X3329394Y7248010D03*
G01X3279381Y7248010D03*
G54D22*
G01X3214383Y7248010D03*
G01X3134398Y7248010D03*
G54D24*
G01X3886899Y7303001D03*
G01X3021902Y7303001D03*
G54D25*
G01X3886899Y7723016D03*
G01X3021902Y7723016D03*
G04 Pad End*

M02*

