G04 Layer: DrillDrawingLayer*
G04 EasyEDA Pro v3.2.148, 2026-07-04 18:32:14*
G04 Gerber Generator version 0.3*
G04 Scale: 100 percent, Rotated: No, Reflected: No*
G04 Dimensions in millimeters*
G04 Leading zeros omitted, absolute positions, 4 integers and 5 decimals*
G04 Generated by one-click*
G04 Object Configs: Pad,Via,Track,Text,Image,Dimension,BoardOutline,BoardCutout,CopperFilled,SolidRegion,FPCStiffener,Line,PlaneZone,ComponentProperty,ComponentSilkscreen,TearDrop*
G04 Layer Configs: 1,2,3,4,5,6,7,8,9,10,11,13,14,56*
G04 Copper Areas: 0*
%FSLAX45Y45*%
%MOMM*%
%AMIconRect*4,1,4,0.28,-0.28,-0.28,-0.28,-0.28,0.28,0.28,0.28,0.28,-0.28,0*4,0,4,0.233333,-0.233333,0.233333,0.233333,-0.233333,0.233333,-0.233333,-0.233333,0.233333,-0.233333,0*%
%AMIconTriangle*4,1,3,-0.339593,0.240473,0.339593,0.240473,0,-0.37884,-0.339593,0.240473,0*4,0,3,-0.265673,0.19404,0,-0.27342,0.266233,0.19404,-0.265673,0.19404,0*%
%AMIconStar6*4,1,12,0.12068,0.20888,0.298527,0.172713,0.241313,0,0.298527,-0.17206,0.12068,-0.208227,0,-0.344073,-0.120073,-0.208227,-0.298573,-0.17206,-0.240707,0,-0.298573,0.17206,-0.120073,0.20888,0,0.344073,0.12068,0.20888,0*4,0,12,-0.000467,0.273467,-0.090067,0.171733,-0.237533,0.136733,-0.193667,-0.007467,-0.237533,-0.1372,-0.090067,-0.171733,-0.000467,-0.273933,0.090067,-0.171733,0.237533,-0.1372,0.194133,0.007,0.237533,0.1372,0.090067,0.171267,-0.000467,0.273467,0*%
%AMIconStar4*4,1,8,-0.311733,0.311733,0,0.202533,0.311733,0.311733,0.202533,0,0.311733,-0.311733,0,-0.202533,-0.304407,-0.311733,-0.202533,0,-0.311733,0.311733,0*4,0,8,0.233333,-0.233333,0.1512,0,0.233333,0.233333,0,0.1512,-0.233333,0.233333,-0.1512,0,-0.233333,-0.233333,0,-0.1512,0.233333,-0.233333,0*%
%AMIconPlus*4,1,12,0.1736,-0.28,-0.1736,-0.28,-0.1736,-0.1736,-0.28,-0.1736,-0.28,0.1736,-0.1736,0.1736,-0.1736,0.28,0.1736,0.28,0.1736,0.1736,0.28,0.1736,0.28,-0.1736,0.1736,-0.1736,0.1736,-0.28,0*4,0,12,0.126933,-0.233333,0.126933,-0.126933,0.233333,-0.126933,0.233333,0.126933,0.126933,0.126933,0.126933,0.233333,-0.126933,0.233333,-0.126933,0.126933,-0.233333,0.126933,-0.233333,-0.126933,-0.126933,-0.126933,-0.126933,-0.233333,0.126933,-0.233333,0*%
%ADD10IconRect*%
%ADD11C,0.616X0.522667*%
%ADD12IconTriangle*%
%ADD13IconStar6*%
%ADD14IconStar4*%
%ADD15IconPlus*%
%ADD16C,0.2032*%
%ADD17C,0.254*%
G75*


G04 Drill Drawing Start*
G54D10*
G01X-264008Y4500804D03*
G01X1026008Y4500804D03*
G01X2606192Y4475404D03*
G01X3896208Y4475404D03*
G54D11*
G01X-698500Y4470400D03*
G01X266700Y7670800D03*
G01X4368800Y4457700D03*
G01X4368800Y7518400D03*
G54D12*
G01X944312Y7287510D03*
G01X1809314Y7287507D03*
G01X3021891Y7303012D03*
G01X3886893Y7303009D03*
G01X4351396Y5638107D03*
G01X4351398Y6503109D03*
G54D13*
G01X944322Y7707514D03*
G01X1809319Y7707514D03*
G01X3021902Y7723016D03*
G01X3886899Y7723016D03*
G01X4771403Y5638102D03*
G01X4771403Y6503099D03*
G54D14*
G01X1087807Y7339519D03*
G01X1665809Y7339519D03*
G01X3165386Y7355021D03*
G01X3743389Y7355021D03*
G01X4403408Y5781612D03*
G01X4403408Y6359614D03*
G54D15*
G01X292100Y6184900D03*
G01X977900Y5384800D03*
G01X1130300Y6299200D03*
G01X1199020Y6631811D03*
G01X1407160Y7353300D03*
G01X1465720Y6644511D03*
G01X1498600Y7353300D03*
G01X1600200Y6070600D03*
G01X1681620Y6606411D03*
G01X2802642Y5761742D03*
G01X2857500Y5896680D03*
G01X2857500Y5975280D03*
G01X2858221Y5817321D03*
G01X3162300Y5994400D03*
G01X3251200Y6558413D03*
G01X3378200Y7099300D03*
G01X3454400Y7073900D03*
G01X3568700Y6299200D03*
G01X3581400Y6545713D03*
G01X3613150Y5822950D03*
G01X3619500Y5956300D03*
G01X3886200Y7066413D03*
G01X4140200Y5664200D03*
G04 Drill Drawing End*

G04 Text Start*
G54D16*
G01X7228046Y7677208D02*
G01X7228046Y7557066D01*
G01X7228046Y7677208D02*
G01X7273766Y7557066D01*
G01X7319486Y7677208D02*
G01X7273766Y7557066D01*
G01X7319486Y7677208D02*
G01X7319486Y7557066D01*
G01X7435818Y7637076D02*
G01X7435818Y7557066D01*
G01X7435818Y7620058D02*
G01X7424388Y7631488D01*
G01X7412958Y7637076D01*
G01X7395940Y7637076D01*
G01X7384510Y7631488D01*
G01X7373080Y7620058D01*
G01X7367238Y7602786D01*
G01X7367238Y7591356D01*
G01X7373080Y7574338D01*
G01X7384510Y7562908D01*
G01X7395940Y7557066D01*
G01X7412958Y7557066D01*
G01X7424388Y7562908D01*
G01X7435818Y7574338D01*
G01X7483570Y7637076D02*
G01X7483570Y7557066D01*
G01X7483570Y7602786D02*
G01X7489412Y7620058D01*
G01X7500842Y7631488D01*
G01X7512272Y7637076D01*
G01X7529290Y7637076D01*
G01X7577042Y7677208D02*
G01X7577042Y7557066D01*
G01X7634192Y7637076D02*
G01X7577042Y7579926D01*
G01X7599902Y7602786D02*
G01X7640034Y7557066D01*
G01X8765326Y7648506D02*
G01X8759484Y7659936D01*
G01X8748054Y7671366D01*
G01X8736624Y7677208D01*
G01X8713764Y7677208D01*
G01X8702334Y7671366D01*
G01X8690904Y7659936D01*
G01X8685316Y7648506D01*
G01X8679474Y7631488D01*
G01X8679474Y7602786D01*
G01X8685316Y7585768D01*
G01X8690904Y7574338D01*
G01X8702334Y7562908D01*
G01X8713764Y7557066D01*
G01X8736624Y7557066D01*
G01X8748054Y7562908D01*
G01X8759484Y7574338D01*
G01X8765326Y7585768D01*
G01X8841780Y7637076D02*
G01X8830350Y7631488D01*
G01X8818920Y7620058D01*
G01X8813078Y7602786D01*
G01X8813078Y7591356D01*
G01X8818920Y7574338D01*
G01X8830350Y7562908D01*
G01X8841780Y7557066D01*
G01X8858798Y7557066D01*
G01X8870228Y7562908D01*
G01X8881658Y7574338D01*
G01X8887500Y7591356D01*
G01X8887500Y7602786D01*
G01X8881658Y7620058D01*
G01X8870228Y7631488D01*
G01X8858798Y7637076D01*
G01X8841780Y7637076D01*
G01X8935252Y7637076D02*
G01X8935252Y7579926D01*
G01X8941094Y7562908D01*
G01X8952524Y7557066D01*
G01X8969542Y7557066D01*
G01X8980972Y7562908D01*
G01X8998244Y7579926D01*
G01X8998244Y7637076D02*
G01X8998244Y7557066D01*
G01X9045996Y7637076D02*
G01X9045996Y7557066D01*
G01X9045996Y7614216D02*
G01X9063268Y7631488D01*
G01X9074698Y7637076D01*
G01X9091716Y7637076D01*
G01X9103146Y7631488D01*
G01X9108988Y7614216D01*
G01X9108988Y7557066D01*
G01X9174012Y7677208D02*
G01X9174012Y7579926D01*
G01X9179600Y7562908D01*
G01X9191030Y7557066D01*
G01X9202460Y7557066D01*
G01X9156740Y7637076D02*
G01X9196872Y7637076D01*
G01X10173647Y7659936D02*
G01X10162217Y7671366D01*
G01X10145199Y7677208D01*
G01X10122339Y7677208D01*
G01X10105067Y7671366D01*
G01X10093637Y7659936D01*
G01X10093637Y7648506D01*
G01X10099479Y7637076D01*
G01X10105067Y7631488D01*
G01X10116497Y7625646D01*
G01X10150787Y7614216D01*
G01X10162217Y7608628D01*
G01X10168059Y7602786D01*
G01X10173647Y7591356D01*
G01X10173647Y7574338D01*
G01X10162217Y7562908D01*
G01X10145199Y7557066D01*
G01X10122339Y7557066D01*
G01X10105067Y7562908D01*
G01X10093637Y7574338D01*
G01X10221399Y7677208D02*
G01X10227241Y7671366D01*
G01X10232829Y7677208D01*
G01X10227241Y7682796D01*
G01X10221399Y7677208D01*
G01X10227241Y7637076D02*
G01X10227241Y7557066D01*
G01X10343573Y7637076D02*
G01X10280581Y7557066D01*
G01X10280581Y7637076D02*
G01X10343573Y7637076D01*
G01X10280581Y7557066D02*
G01X10343573Y7557066D01*
G01X10391325Y7602786D02*
G01X10459905Y7602786D01*
G01X10459905Y7614216D01*
G01X10454317Y7625646D01*
G01X10448475Y7631488D01*
G01X10437045Y7637076D01*
G01X10420027Y7637076D01*
G01X10408597Y7631488D01*
G01X10397167Y7620058D01*
G01X10391325Y7602786D01*
G01X10391325Y7591356D01*
G01X10397167Y7574338D01*
G01X10408597Y7562908D01*
G01X10420027Y7557066D01*
G01X10437045Y7557066D01*
G01X10448475Y7562908D01*
G01X10459905Y7574338D01*
G01X13981761Y7677208D02*
G01X13981761Y7557066D01*
G01X13981761Y7677208D02*
G01X14033323Y7677208D01*
G01X14050341Y7671366D01*
G01X14056183Y7665778D01*
G01X14061771Y7654348D01*
G01X14061771Y7637076D01*
G01X14056183Y7625646D01*
G01X14050341Y7620058D01*
G01X14033323Y7614216D01*
G01X13981761Y7614216D01*
G01X14109523Y7677208D02*
G01X14109523Y7557066D01*
G01X14225855Y7637076D02*
G01X14225855Y7557066D01*
G01X14225855Y7620058D02*
G01X14214425Y7631488D01*
G01X14202995Y7637076D01*
G01X14185977Y7637076D01*
G01X14174547Y7631488D01*
G01X14163117Y7620058D01*
G01X14157275Y7602786D01*
G01X14157275Y7591356D01*
G01X14163117Y7574338D01*
G01X14174547Y7562908D01*
G01X14185977Y7557066D01*
G01X14202995Y7557066D01*
G01X14214425Y7562908D01*
G01X14225855Y7574338D01*
G01X14290879Y7677208D02*
G01X14290879Y7579926D01*
G01X14296467Y7562908D01*
G01X14307897Y7557066D01*
G01X14319327Y7557066D01*
G01X14273607Y7637076D02*
G01X14313739Y7637076D01*
G01X14367079Y7602786D02*
G01X14435659Y7602786D01*
G01X14435659Y7614216D01*
G01X14430071Y7625646D01*
G01X14424229Y7631488D01*
G01X14412799Y7637076D01*
G01X14395781Y7637076D01*
G01X14384351Y7631488D01*
G01X14372921Y7620058D01*
G01X14367079Y7602786D01*
G01X14367079Y7591356D01*
G01X14372921Y7574338D01*
G01X14384351Y7562908D01*
G01X14395781Y7557066D01*
G01X14412799Y7557066D01*
G01X14424229Y7562908D01*
G01X14435659Y7574338D01*
G01X14551991Y7677208D02*
G01X14551991Y7557066D01*
G01X14551991Y7620058D02*
G01X14540561Y7631488D01*
G01X14529131Y7637076D01*
G01X14512113Y7637076D01*
G01X14500683Y7631488D01*
G01X14489253Y7620058D01*
G01X14483411Y7602786D01*
G01X14483411Y7591356D01*
G01X14489253Y7574338D01*
G01X14500683Y7562908D01*
G01X14512113Y7557066D01*
G01X14529131Y7557066D01*
G01X14540561Y7562908D01*
G01X14551991Y7574338D01*
G01X15523178Y7659936D02*
G01X15511748Y7671366D01*
G01X15494730Y7677208D01*
G01X15471870Y7677208D01*
G01X15454598Y7671366D01*
G01X15443168Y7659936D01*
G01X15443168Y7648506D01*
G01X15449010Y7637076D01*
G01X15454598Y7631488D01*
G01X15466028Y7625646D01*
G01X15500318Y7614216D01*
G01X15511748Y7608628D01*
G01X15517590Y7602786D01*
G01X15523178Y7591356D01*
G01X15523178Y7574338D01*
G01X15511748Y7562908D01*
G01X15494730Y7557066D01*
G01X15471870Y7557066D01*
G01X15454598Y7562908D01*
G01X15443168Y7574338D01*
G01X15570930Y7677208D02*
G01X15570930Y7557066D01*
G01X15570930Y7614216D02*
G01X15588202Y7631488D01*
G01X15599632Y7637076D01*
G01X15616650Y7637076D01*
G01X15628080Y7631488D01*
G01X15633922Y7614216D01*
G01X15633922Y7557066D01*
G01X15750254Y7637076D02*
G01X15750254Y7557066D01*
G01X15750254Y7620058D02*
G01X15738824Y7631488D01*
G01X15727394Y7637076D01*
G01X15710376Y7637076D01*
G01X15698946Y7631488D01*
G01X15687516Y7620058D01*
G01X15681674Y7602786D01*
G01X15681674Y7591356D01*
G01X15687516Y7574338D01*
G01X15698946Y7562908D01*
G01X15710376Y7557066D01*
G01X15727394Y7557066D01*
G01X15738824Y7562908D01*
G01X15750254Y7574338D01*
G01X15798006Y7637076D02*
G01X15798006Y7517188D01*
G01X15798006Y7620058D02*
G01X15809436Y7631488D01*
G01X15820866Y7637076D01*
G01X15838138Y7637076D01*
G01X15849568Y7631488D01*
G01X15860998Y7620058D01*
G01X15866586Y7602786D01*
G01X15866586Y7591356D01*
G01X15860998Y7574338D01*
G01X15849568Y7562908D01*
G01X15838138Y7557066D01*
G01X15820866Y7557066D01*
G01X15809436Y7562908D01*
G01X15798006Y7574338D01*
G01X15914338Y7602786D02*
G01X15982918Y7602786D01*
G01X15982918Y7614216D01*
G01X15977330Y7625646D01*
G01X15971488Y7631488D01*
G01X15960058Y7637076D01*
G01X15943040Y7637076D01*
G01X15931610Y7631488D01*
G01X15920180Y7620058D01*
G01X15914338Y7602786D01*
G01X15914338Y7591356D01*
G01X15920180Y7574338D01*
G01X15931610Y7562908D01*
G01X15943040Y7557066D01*
G01X15960058Y7557066D01*
G01X15971488Y7562908D01*
G01X15982918Y7574338D01*
G01X16874349Y7677208D02*
G01X16920069Y7557066D01*
G01X16965789Y7677208D02*
G01X16920069Y7557066D01*
G01X17013541Y7677208D02*
G01X17019383Y7671366D01*
G01X17024971Y7677208D01*
G01X17019383Y7682796D01*
G01X17013541Y7677208D01*
G01X17019383Y7637076D02*
G01X17019383Y7557066D01*
G01X17141303Y7637076D02*
G01X17141303Y7557066D01*
G01X17141303Y7620058D02*
G01X17129873Y7631488D01*
G01X17118443Y7637076D01*
G01X17101425Y7637076D01*
G01X17089995Y7631488D01*
G01X17078565Y7620058D01*
G01X17072723Y7602786D01*
G01X17072723Y7591356D01*
G01X17078565Y7574338D01*
G01X17089995Y7562908D01*
G01X17101425Y7557066D01*
G01X17118443Y7557066D01*
G01X17129873Y7562908D01*
G01X17141303Y7574338D01*
G01X17291925Y7700068D02*
G01X17189055Y7517188D01*
G01X17339677Y7677208D02*
G01X17339677Y7557066D01*
G01X17339677Y7677208D02*
G01X17391239Y7677208D01*
G01X17408257Y7671366D01*
G01X17414099Y7665778D01*
G01X17419687Y7654348D01*
G01X17419687Y7637076D01*
G01X17414099Y7625646D01*
G01X17408257Y7620058D01*
G01X17391239Y7614216D01*
G01X17339677Y7614216D01*
G01X17536019Y7637076D02*
G01X17536019Y7557066D01*
G01X17536019Y7620058D02*
G01X17524589Y7631488D01*
G01X17513159Y7637076D01*
G01X17496141Y7637076D01*
G01X17484711Y7631488D01*
G01X17473281Y7620058D01*
G01X17467439Y7602786D01*
G01X17467439Y7591356D01*
G01X17473281Y7574338D01*
G01X17484711Y7562908D01*
G01X17496141Y7557066D01*
G01X17513159Y7557066D01*
G01X17524589Y7562908D01*
G01X17536019Y7574338D01*
G01X17652351Y7677208D02*
G01X17652351Y7557066D01*
G01X17652351Y7620058D02*
G01X17640921Y7631488D01*
G01X17629491Y7637076D01*
G01X17612473Y7637076D01*
G01X17601043Y7631488D01*
G01X17589613Y7620058D01*
G01X17583771Y7602786D01*
G01X17583771Y7591356D01*
G01X17589613Y7574338D01*
G01X17601043Y7562908D01*
G01X17612473Y7557066D01*
G01X17629491Y7557066D01*
G01X17640921Y7562908D01*
G01X17652351Y7574338D01*
G01X18543528Y7677208D02*
G01X18543528Y7557066D01*
G01X18543528Y7677208D02*
G01X18595090Y7677208D01*
G01X18612108Y7671366D01*
G01X18617950Y7665778D01*
G01X18623538Y7654348D01*
G01X18623538Y7637076D01*
G01X18617950Y7625646D01*
G01X18612108Y7620058D01*
G01X18595090Y7614216D01*
G01X18543528Y7614216D01*
G01X18739870Y7637076D02*
G01X18739870Y7557066D01*
G01X18739870Y7620058D02*
G01X18728440Y7631488D01*
G01X18717010Y7637076D01*
G01X18699992Y7637076D01*
G01X18688562Y7631488D01*
G01X18677132Y7620058D01*
G01X18671290Y7602786D01*
G01X18671290Y7591356D01*
G01X18677132Y7574338D01*
G01X18688562Y7562908D01*
G01X18699992Y7557066D01*
G01X18717010Y7557066D01*
G01X18728440Y7562908D01*
G01X18739870Y7574338D01*
G01X18856202Y7677208D02*
G01X18856202Y7557066D01*
G01X18856202Y7620058D02*
G01X18844772Y7631488D01*
G01X18833342Y7637076D01*
G01X18816324Y7637076D01*
G01X18804894Y7631488D01*
G01X18793464Y7620058D01*
G01X18787622Y7602786D01*
G01X18787622Y7591356D01*
G01X18793464Y7574338D01*
G01X18804894Y7562908D01*
G01X18816324Y7557066D01*
G01X18833342Y7557066D01*
G01X18844772Y7562908D01*
G01X18856202Y7574338D01*
G01X19111980Y7659936D02*
G01X19100550Y7671366D01*
G01X19083532Y7677208D01*
G01X19060672Y7677208D01*
G01X19043400Y7671366D01*
G01X19031970Y7659936D01*
G01X19031970Y7648506D01*
G01X19037812Y7637076D01*
G01X19043400Y7631488D01*
G01X19054830Y7625646D01*
G01X19089120Y7614216D01*
G01X19100550Y7608628D01*
G01X19106392Y7602786D01*
G01X19111980Y7591356D01*
G01X19111980Y7574338D01*
G01X19100550Y7562908D01*
G01X19083532Y7557066D01*
G01X19060672Y7557066D01*
G01X19043400Y7562908D01*
G01X19031970Y7574338D01*
G01X19159732Y7677208D02*
G01X19159732Y7557066D01*
G01X19159732Y7614216D02*
G01X19177004Y7631488D01*
G01X19188434Y7637076D01*
G01X19205452Y7637076D01*
G01X19216882Y7631488D01*
G01X19222724Y7614216D01*
G01X19222724Y7557066D01*
G01X19339056Y7637076D02*
G01X19339056Y7557066D01*
G01X19339056Y7620058D02*
G01X19327626Y7631488D01*
G01X19316196Y7637076D01*
G01X19299178Y7637076D01*
G01X19287748Y7631488D01*
G01X19276318Y7620058D01*
G01X19270476Y7602786D01*
G01X19270476Y7591356D01*
G01X19276318Y7574338D01*
G01X19287748Y7562908D01*
G01X19299178Y7557066D01*
G01X19316196Y7557066D01*
G01X19327626Y7562908D01*
G01X19339056Y7574338D01*
G01X19386808Y7637076D02*
G01X19386808Y7517188D01*
G01X19386808Y7620058D02*
G01X19398238Y7631488D01*
G01X19409668Y7637076D01*
G01X19426940Y7637076D01*
G01X19438370Y7631488D01*
G01X19449800Y7620058D01*
G01X19455388Y7602786D01*
G01X19455388Y7591356D01*
G01X19449800Y7574338D01*
G01X19438370Y7562908D01*
G01X19426940Y7557066D01*
G01X19409668Y7557066D01*
G01X19398238Y7562908D01*
G01X19386808Y7574338D01*
G01X19503140Y7602786D02*
G01X19571720Y7602786D01*
G01X19571720Y7614216D01*
G01X19566132Y7625646D01*
G01X19560290Y7631488D01*
G01X19548860Y7637076D01*
G01X19531842Y7637076D01*
G01X19520412Y7631488D01*
G01X19508982Y7620058D01*
G01X19503140Y7602786D01*
G01X19503140Y7591356D01*
G01X19508982Y7574338D01*
G01X19520412Y7562908D01*
G01X19531842Y7557066D01*
G01X19548860Y7557066D01*
G01X19560290Y7562908D01*
G01X19571720Y7574338D01*
G01X20462897Y7677208D02*
G01X20462897Y7557066D01*
G01X20462897Y7557066D02*
G01X20531477Y7557066D01*
G01X20647809Y7637076D02*
G01X20647809Y7557066D01*
G01X20647809Y7620058D02*
G01X20636379Y7631488D01*
G01X20624949Y7637076D01*
G01X20607931Y7637076D01*
G01X20596501Y7631488D01*
G01X20585071Y7620058D01*
G01X20579229Y7602786D01*
G01X20579229Y7591356D01*
G01X20585071Y7574338D01*
G01X20596501Y7562908D01*
G01X20607931Y7557066D01*
G01X20624949Y7557066D01*
G01X20636379Y7562908D01*
G01X20647809Y7574338D01*
G01X20701403Y7637076D02*
G01X20735693Y7557066D01*
G01X20769983Y7637076D02*
G01X20735693Y7557066D01*
G01X20724263Y7534206D01*
G01X20712833Y7522776D01*
G01X20701403Y7517188D01*
G01X20695561Y7517188D01*
G01X20817735Y7602786D02*
G01X20886315Y7602786D01*
G01X20886315Y7614216D01*
G01X20880727Y7625646D01*
G01X20874885Y7631488D01*
G01X20863455Y7637076D01*
G01X20846437Y7637076D01*
G01X20835007Y7631488D01*
G01X20823577Y7620058D01*
G01X20817735Y7602786D01*
G01X20817735Y7591356D01*
G01X20823577Y7574338D01*
G01X20835007Y7562908D01*
G01X20846437Y7557066D01*
G01X20863455Y7557066D01*
G01X20874885Y7562908D01*
G01X20886315Y7574338D01*
G01X20934067Y7637076D02*
G01X20934067Y7557066D01*
G01X20934067Y7602786D02*
G01X20939909Y7620058D01*
G01X20951339Y7631488D01*
G01X20962769Y7637076D01*
G01X20979787Y7637076D01*
G01X21155555Y7677208D02*
G01X21155555Y7557066D01*
G01X21155555Y7677208D02*
G01X21207117Y7677208D01*
G01X21224135Y7671366D01*
G01X21229977Y7665778D01*
G01X21235565Y7654348D01*
G01X21235565Y7637076D01*
G01X21229977Y7625646D01*
G01X21224135Y7620058D01*
G01X21207117Y7614216D01*
G01X21155555Y7614216D01*
G01X21351897Y7637076D02*
G01X21351897Y7557066D01*
G01X21351897Y7620058D02*
G01X21340467Y7631488D01*
G01X21329037Y7637076D01*
G01X21312019Y7637076D01*
G01X21300589Y7631488D01*
G01X21289159Y7620058D01*
G01X21283317Y7602786D01*
G01X21283317Y7591356D01*
G01X21289159Y7574338D01*
G01X21300589Y7562908D01*
G01X21312019Y7557066D01*
G01X21329037Y7557066D01*
G01X21340467Y7562908D01*
G01X21351897Y7574338D01*
G01X21399649Y7677208D02*
G01X21405491Y7671366D01*
G01X21411079Y7677208D01*
G01X21405491Y7682796D01*
G01X21399649Y7677208D01*
G01X21405491Y7637076D02*
G01X21405491Y7557066D01*
G01X21458831Y7637076D02*
G01X21458831Y7557066D01*
G01X21458831Y7602786D02*
G01X21464673Y7620058D01*
G01X21476103Y7631488D01*
G01X21487533Y7637076D01*
G01X21504551Y7637076D01*
G01X8736624Y7096636D02*
G01X8679474Y7016626D01*
G01X8765326Y7016626D01*
G01X8736624Y7096636D02*
G01X8736624Y6976494D01*
G01X10099479Y7067934D02*
G01X10099479Y7073776D01*
G01X10105067Y7085206D01*
G01X10110909Y7090794D01*
G01X10122339Y7096636D01*
G01X10145199Y7096636D01*
G01X10156629Y7090794D01*
G01X10162217Y7085206D01*
G01X10168059Y7073776D01*
G01X10168059Y7062346D01*
G01X10162217Y7050916D01*
G01X10150787Y7033644D01*
G01X10093637Y6976494D01*
G01X10173647Y6976494D01*
G01X10301409Y7096636D02*
G01X10244259Y6976494D01*
G01X10221399Y7096636D02*
G01X10301409Y7096636D01*
G01X10355003Y7005196D02*
G01X10349161Y6999354D01*
G01X10355003Y6993766D01*
G01X10360591Y6999354D01*
G01X10355003Y7005196D01*
G01X10476923Y7079364D02*
G01X10471335Y7090794D01*
G01X10454063Y7096636D01*
G01X10442633Y7096636D01*
G01X10425615Y7090794D01*
G01X10414185Y7073776D01*
G01X10408343Y7045074D01*
G01X10408343Y7016626D01*
G01X10414185Y6993766D01*
G01X10425615Y6982336D01*
G01X10442633Y6976494D01*
G01X10448475Y6976494D01*
G01X10465493Y6982336D01*
G01X10476923Y6993766D01*
G01X10482765Y7010784D01*
G01X10482765Y7016626D01*
G01X10476923Y7033644D01*
G01X10465493Y7045074D01*
G01X10448475Y7050916D01*
G01X10442633Y7050916D01*
G01X10425615Y7045074D01*
G01X10414185Y7033644D01*
G01X10408343Y7016626D01*
G01X10530517Y7056504D02*
G01X10593509Y6976494D01*
G01X10593509Y7056504D02*
G01X10530517Y6976494D01*
G01X10715683Y7056504D02*
G01X10709841Y7039486D01*
G01X10698411Y7028056D01*
G01X10681393Y7022214D01*
G01X10675551Y7022214D01*
G01X10658533Y7028056D01*
G01X10647103Y7039486D01*
G01X10641261Y7056504D01*
G01X10641261Y7062346D01*
G01X10647103Y7079364D01*
G01X10658533Y7090794D01*
G01X10675551Y7096636D01*
G01X10681393Y7096636D01*
G01X10698411Y7090794D01*
G01X10709841Y7079364D01*
G01X10715683Y7056504D01*
G01X10715683Y7028056D01*
G01X10709841Y6999354D01*
G01X10698411Y6982336D01*
G01X10681393Y6976494D01*
G01X10669963Y6976494D01*
G01X10652691Y6982336D01*
G01X10647103Y6993766D01*
G01X10792137Y7096636D02*
G01X10774865Y7090794D01*
G01X10769277Y7079364D01*
G01X10769277Y7067934D01*
G01X10774865Y7056504D01*
G01X10786295Y7050916D01*
G01X10809155Y7045074D01*
G01X10826427Y7039486D01*
G01X10837857Y7028056D01*
G01X10843445Y7016626D01*
G01X10843445Y6999354D01*
G01X10837857Y6987924D01*
G01X10832015Y6982336D01*
G01X10814997Y6976494D01*
G01X10792137Y6976494D01*
G01X10774865Y6982336D01*
G01X10769277Y6987924D01*
G01X10763435Y6999354D01*
G01X10763435Y7016626D01*
G01X10769277Y7028056D01*
G01X10780707Y7039486D01*
G01X10797725Y7045074D01*
G01X10820585Y7050916D01*
G01X10832015Y7056504D01*
G01X10837857Y7067934D01*
G01X10837857Y7079364D01*
G01X10832015Y7090794D01*
G01X10814997Y7096636D01*
G01X10792137Y7096636D01*
G01X10897039Y7005196D02*
G01X10891197Y6999354D01*
G01X10897039Y6993766D01*
G01X10902627Y6999354D01*
G01X10897039Y7005196D01*
G01X11007529Y7096636D02*
G01X10950379Y7016626D01*
G01X11036231Y7016626D01*
G01X11007529Y7096636D02*
G01X11007529Y6976494D01*
G01X11083983Y7056504D02*
G01X11083983Y6976494D01*
G01X11083983Y7033644D02*
G01X11101255Y7050916D01*
G01X11112685Y7056504D01*
G01X11129703Y7056504D01*
G01X11141133Y7050916D01*
G01X11146975Y7033644D01*
G01X11146975Y6976494D01*
G01X11146975Y7033644D02*
G01X11163993Y7050916D01*
G01X11175423Y7056504D01*
G01X11192695Y7056504D01*
G01X11204125Y7050916D01*
G01X11209713Y7033644D01*
G01X11209713Y6976494D01*
G01X11257465Y7096636D02*
G01X11263307Y7090794D01*
G01X11268895Y7096636D01*
G01X11263307Y7102224D01*
G01X11257465Y7096636D01*
G01X11263307Y7056504D02*
G01X11263307Y6976494D01*
G01X11316647Y7096636D02*
G01X11316647Y6976494D01*
G01X11404531Y7119496D02*
G01X11393101Y7108066D01*
G01X11381671Y7090794D01*
G01X11370241Y7067934D01*
G01X11364399Y7039486D01*
G01X11364399Y7016626D01*
G01X11370241Y6987924D01*
G01X11381671Y6965064D01*
G01X11393101Y6948046D01*
G01X11404531Y6936616D01*
G01X11486573Y7096636D02*
G01X11469555Y7090794D01*
G01X11458125Y7073776D01*
G01X11452283Y7045074D01*
G01X11452283Y7028056D01*
G01X11458125Y6999354D01*
G01X11469555Y6982336D01*
G01X11486573Y6976494D01*
G01X11498003Y6976494D01*
G01X11515275Y6982336D01*
G01X11526705Y6999354D01*
G01X11532293Y7028056D01*
G01X11532293Y7045074D01*
G01X11526705Y7073776D01*
G01X11515275Y7090794D01*
G01X11498003Y7096636D01*
G01X11486573Y7096636D01*
G01X11585887Y7005196D02*
G01X11580045Y6999354D01*
G01X11585887Y6993766D01*
G01X11591475Y6999354D01*
G01X11585887Y7005196D01*
G01X11719237Y7096636D02*
G01X11662087Y6976494D01*
G01X11639227Y7096636D02*
G01X11719237Y7096636D01*
G01X11801279Y7096636D02*
G01X11784261Y7090794D01*
G01X11772831Y7073776D01*
G01X11766989Y7045074D01*
G01X11766989Y7028056D01*
G01X11772831Y6999354D01*
G01X11784261Y6982336D01*
G01X11801279Y6976494D01*
G01X11812709Y6976494D01*
G01X11829981Y6982336D01*
G01X11841411Y6999354D01*
G01X11846999Y7028056D01*
G01X11846999Y7045074D01*
G01X11841411Y7073776D01*
G01X11829981Y7090794D01*
G01X11812709Y7096636D01*
G01X11801279Y7096636D01*
G01X11929041Y7096636D02*
G01X11912023Y7090794D01*
G01X11900593Y7073776D01*
G01X11894751Y7045074D01*
G01X11894751Y7028056D01*
G01X11900593Y6999354D01*
G01X11912023Y6982336D01*
G01X11929041Y6976494D01*
G01X11940471Y6976494D01*
G01X11957743Y6982336D01*
G01X11969173Y6999354D01*
G01X11974761Y7028056D01*
G01X11974761Y7045074D01*
G01X11969173Y7073776D01*
G01X11957743Y7090794D01*
G01X11940471Y7096636D01*
G01X11929041Y7096636D01*
G01X12022513Y7056504D02*
G01X12085505Y6976494D01*
G01X12085505Y7056504D02*
G01X12022513Y6976494D01*
G01X12139099Y7067934D02*
G01X12139099Y7073776D01*
G01X12144687Y7085206D01*
G01X12150529Y7090794D01*
G01X12161959Y7096636D01*
G01X12184819Y7096636D01*
G01X12196249Y7090794D01*
G01X12201837Y7085206D01*
G01X12207679Y7073776D01*
G01X12207679Y7062346D01*
G01X12201837Y7050916D01*
G01X12190407Y7033644D01*
G01X12133257Y6976494D01*
G01X12213267Y6976494D01*
G01X12266861Y7005196D02*
G01X12261019Y6999354D01*
G01X12266861Y6993766D01*
G01X12272449Y6999354D01*
G01X12266861Y7005196D01*
G01X12388781Y7096636D02*
G01X12331631Y7096636D01*
G01X12326043Y7045074D01*
G01X12331631Y7050916D01*
G01X12348903Y7056504D01*
G01X12365921Y7056504D01*
G01X12383193Y7050916D01*
G01X12394623Y7039486D01*
G01X12400211Y7022214D01*
G01X12400211Y7010784D01*
G01X12394623Y6993766D01*
G01X12383193Y6982336D01*
G01X12365921Y6976494D01*
G01X12348903Y6976494D01*
G01X12331631Y6982336D01*
G01X12326043Y6987924D01*
G01X12320201Y6999354D01*
G01X12482253Y7096636D02*
G01X12465235Y7090794D01*
G01X12453805Y7073776D01*
G01X12447963Y7045074D01*
G01X12447963Y7028056D01*
G01X12453805Y6999354D01*
G01X12465235Y6982336D01*
G01X12482253Y6976494D01*
G01X12493683Y6976494D01*
G01X12510955Y6982336D01*
G01X12522385Y6999354D01*
G01X12527973Y7028056D01*
G01X12527973Y7045074D01*
G01X12522385Y7073776D01*
G01X12510955Y7090794D01*
G01X12493683Y7096636D01*
G01X12482253Y7096636D01*
G01X12610015Y7096636D02*
G01X12592997Y7090794D01*
G01X12581567Y7073776D01*
G01X12575725Y7045074D01*
G01X12575725Y7028056D01*
G01X12581567Y6999354D01*
G01X12592997Y6982336D01*
G01X12610015Y6976494D01*
G01X12621445Y6976494D01*
G01X12638717Y6982336D01*
G01X12650147Y6999354D01*
G01X12655735Y7028056D01*
G01X12655735Y7045074D01*
G01X12650147Y7073776D01*
G01X12638717Y7090794D01*
G01X12621445Y7096636D01*
G01X12610015Y7096636D01*
G01X12703487Y7056504D02*
G01X12703487Y6976494D01*
G01X12703487Y7033644D02*
G01X12720759Y7050916D01*
G01X12732189Y7056504D01*
G01X12749207Y7056504D01*
G01X12760637Y7050916D01*
G01X12766479Y7033644D01*
G01X12766479Y6976494D01*
G01X12766479Y7033644D02*
G01X12783497Y7050916D01*
G01X12794927Y7056504D01*
G01X12812199Y7056504D01*
G01X12823629Y7050916D01*
G01X12829217Y7033644D01*
G01X12829217Y6976494D01*
G01X12876969Y7056504D02*
G01X12876969Y6976494D01*
G01X12876969Y7033644D02*
G01X12894241Y7050916D01*
G01X12905671Y7056504D01*
G01X12922689Y7056504D01*
G01X12934119Y7050916D01*
G01X12939961Y7033644D01*
G01X12939961Y6976494D01*
G01X12939961Y7033644D02*
G01X12956979Y7050916D01*
G01X12968409Y7056504D01*
G01X12985681Y7056504D01*
G01X12997111Y7050916D01*
G01X13002699Y7033644D01*
G01X13002699Y6976494D01*
G01X13050451Y7119496D02*
G01X13061881Y7108066D01*
G01X13073311Y7090794D01*
G01X13084741Y7067934D01*
G01X13090583Y7039486D01*
G01X13090583Y7016626D01*
G01X13084741Y6987924D01*
G01X13073311Y6965064D01*
G01X13061881Y6948046D01*
G01X13050451Y6936616D01*
G01X13981761Y7096636D02*
G01X13981761Y6976494D01*
G01X13981761Y7096636D02*
G01X14033323Y7096636D01*
G01X14050341Y7090794D01*
G01X14056183Y7085206D01*
G01X14061771Y7073776D01*
G01X14061771Y7056504D01*
G01X14056183Y7045074D01*
G01X14050341Y7039486D01*
G01X14033323Y7033644D01*
G01X13981761Y7033644D01*
G01X14149655Y7096636D02*
G01X14149655Y6976494D01*
G01X14109523Y7096636D02*
G01X14189533Y7096636D01*
G01X14237285Y7096636D02*
G01X14237285Y6976494D01*
G01X14317295Y7096636D02*
G01X14317295Y6976494D01*
G01X14237285Y7039486D02*
G01X14317295Y7039486D01*
G01X15523178Y7079364D02*
G01X15511748Y7090794D01*
G01X15494730Y7096636D01*
G01X15471870Y7096636D01*
G01X15454598Y7090794D01*
G01X15443168Y7079364D01*
G01X15443168Y7067934D01*
G01X15449010Y7056504D01*
G01X15454598Y7050916D01*
G01X15466028Y7045074D01*
G01X15500318Y7033644D01*
G01X15511748Y7028056D01*
G01X15517590Y7022214D01*
G01X15523178Y7010784D01*
G01X15523178Y6993766D01*
G01X15511748Y6982336D01*
G01X15494730Y6976494D01*
G01X15471870Y6976494D01*
G01X15454598Y6982336D01*
G01X15443168Y6993766D01*
G01X15570930Y7096636D02*
G01X15570930Y6976494D01*
G01X15647384Y7056504D02*
G01X15635954Y7050916D01*
G01X15624524Y7039486D01*
G01X15618682Y7022214D01*
G01X15618682Y7010784D01*
G01X15624524Y6993766D01*
G01X15635954Y6982336D01*
G01X15647384Y6976494D01*
G01X15664402Y6976494D01*
G01X15675832Y6982336D01*
G01X15687262Y6993766D01*
G01X15693104Y7010784D01*
G01X15693104Y7022214D01*
G01X15687262Y7039486D01*
G01X15675832Y7050916D01*
G01X15664402Y7056504D01*
G01X15647384Y7056504D01*
G01X15758128Y7096636D02*
G01X15758128Y6999354D01*
G01X15763716Y6982336D01*
G01X15775146Y6976494D01*
G01X15786576Y6976494D01*
G01X15740856Y7056504D02*
G01X15780988Y7056504D01*
G01X16874349Y7096636D02*
G01X16874349Y6976494D01*
G01X16874349Y7096636D02*
G01X16925911Y7096636D01*
G01X16942929Y7090794D01*
G01X16948771Y7085206D01*
G01X16954359Y7073776D01*
G01X16954359Y7056504D01*
G01X16948771Y7045074D01*
G01X16942929Y7039486D01*
G01X16925911Y7033644D01*
G01X16874349Y7033644D01*
G01X17070691Y7056504D02*
G01X17070691Y6976494D01*
G01X17070691Y7039486D02*
G01X17059261Y7050916D01*
G01X17047831Y7056504D01*
G01X17030813Y7056504D01*
G01X17019383Y7050916D01*
G01X17007953Y7039486D01*
G01X17002111Y7022214D01*
G01X17002111Y7010784D01*
G01X17007953Y6993766D01*
G01X17019383Y6982336D01*
G01X17030813Y6976494D01*
G01X17047831Y6976494D01*
G01X17059261Y6982336D01*
G01X17070691Y6993766D01*
G01X17187023Y7096636D02*
G01X17187023Y6976494D01*
G01X17187023Y7039486D02*
G01X17175593Y7050916D01*
G01X17164163Y7056504D01*
G01X17147145Y7056504D01*
G01X17135715Y7050916D01*
G01X17124285Y7039486D01*
G01X17118443Y7022214D01*
G01X17118443Y7010784D01*
G01X17124285Y6993766D01*
G01X17135715Y6982336D01*
G01X17147145Y6976494D01*
G01X17164163Y6976494D01*
G01X17175593Y6982336D01*
G01X17187023Y6993766D01*
G01X18577818Y7096636D02*
G01X18566388Y7090794D01*
G01X18554958Y7079364D01*
G01X18549370Y7067934D01*
G01X18543528Y7050916D01*
G01X18543528Y7022214D01*
G01X18549370Y7005196D01*
G01X18554958Y6993766D01*
G01X18566388Y6982336D01*
G01X18577818Y6976494D01*
G01X18600678Y6976494D01*
G01X18612108Y6982336D01*
G01X18623538Y6993766D01*
G01X18629380Y7005196D01*
G01X18634968Y7022214D01*
G01X18634968Y7050916D01*
G01X18629380Y7067934D01*
G01X18623538Y7079364D01*
G01X18612108Y7090794D01*
G01X18600678Y7096636D01*
G01X18577818Y7096636D01*
G01X18682720Y7056504D02*
G01X18717010Y6976494D01*
G01X18751300Y7056504D02*
G01X18717010Y6976494D01*
G01X18867632Y7056504D02*
G01X18867632Y6976494D01*
G01X18867632Y7039486D02*
G01X18856202Y7050916D01*
G01X18844772Y7056504D01*
G01X18827754Y7056504D01*
G01X18816324Y7050916D01*
G01X18804894Y7039486D01*
G01X18799052Y7022214D01*
G01X18799052Y7010784D01*
G01X18804894Y6993766D01*
G01X18816324Y6982336D01*
G01X18827754Y6976494D01*
G01X18844772Y6976494D01*
G01X18856202Y6982336D01*
G01X18867632Y6993766D01*
G01X18915384Y7096636D02*
G01X18915384Y6976494D01*
G01X20503029Y7096636D02*
G01X20503029Y6976494D01*
G01X20462897Y7096636D02*
G01X20542907Y7096636D01*
G01X20619361Y7056504D02*
G01X20607931Y7050916D01*
G01X20596501Y7039486D01*
G01X20590659Y7022214D01*
G01X20590659Y7010784D01*
G01X20596501Y6993766D01*
G01X20607931Y6982336D01*
G01X20619361Y6976494D01*
G01X20636379Y6976494D01*
G01X20647809Y6982336D01*
G01X20659239Y6993766D01*
G01X20665081Y7010784D01*
G01X20665081Y7022214D01*
G01X20659239Y7039486D01*
G01X20647809Y7050916D01*
G01X20636379Y7056504D01*
G01X20619361Y7056504D01*
G01X20712833Y7056504D02*
G01X20712833Y6936616D01*
G01X20712833Y7039486D02*
G01X20724263Y7050916D01*
G01X20735693Y7056504D01*
G01X20752965Y7056504D01*
G01X20764395Y7050916D01*
G01X20775825Y7039486D01*
G01X20781413Y7022214D01*
G01X20781413Y7010784D01*
G01X20775825Y6993766D01*
G01X20764395Y6982336D01*
G01X20752965Y6976494D01*
G01X20735693Y6976494D01*
G01X20724263Y6982336D01*
G01X20712833Y6993766D01*
G01X20957181Y7096636D02*
G01X20957181Y6976494D01*
G01X20957181Y6976494D02*
G01X21025761Y6976494D01*
G01X21142093Y7056504D02*
G01X21142093Y6976494D01*
G01X21142093Y7039486D02*
G01X21130663Y7050916D01*
G01X21119233Y7056504D01*
G01X21102215Y7056504D01*
G01X21090785Y7050916D01*
G01X21079355Y7039486D01*
G01X21073513Y7022214D01*
G01X21073513Y7010784D01*
G01X21079355Y6993766D01*
G01X21090785Y6982336D01*
G01X21102215Y6976494D01*
G01X21119233Y6976494D01*
G01X21130663Y6982336D01*
G01X21142093Y6993766D01*
G01X21195687Y7056504D02*
G01X21229977Y6976494D01*
G01X21264267Y7056504D02*
G01X21229977Y6976494D01*
G01X21218547Y6953634D01*
G01X21207117Y6942204D01*
G01X21195687Y6936616D01*
G01X21189845Y6936616D01*
G01X21312019Y7022214D02*
G01X21380599Y7022214D01*
G01X21380599Y7033644D01*
G01X21375011Y7045074D01*
G01X21369169Y7050916D01*
G01X21357739Y7056504D01*
G01X21340721Y7056504D01*
G01X21329291Y7050916D01*
G01X21317861Y7039486D01*
G01X21312019Y7022214D01*
G01X21312019Y7010784D01*
G01X21317861Y6993766D01*
G01X21329291Y6982336D01*
G01X21340721Y6976494D01*
G01X21357739Y6976494D01*
G01X21369169Y6982336D01*
G01X21380599Y6993766D01*
G01X21428351Y7056504D02*
G01X21428351Y6976494D01*
G01X21428351Y7022214D02*
G01X21434193Y7039486D01*
G01X21445623Y7050916D01*
G01X21457053Y7056504D01*
G01X21474071Y7056504D01*
G01X21521823Y7028056D02*
G01X21624693Y7028056D01*
G01X21672445Y7096636D02*
G01X21672445Y6976494D01*
G01X21672445Y7096636D02*
G01X21724007Y7096636D01*
G01X21741025Y7090794D01*
G01X21746867Y7085206D01*
G01X21752455Y7073776D01*
G01X21752455Y7062346D01*
G01X21746867Y7050916D01*
G01X21741025Y7045074D01*
G01X21724007Y7039486D01*
G01X21672445Y7039486D02*
G01X21724007Y7039486D01*
G01X21741025Y7033644D01*
G01X21746867Y7028056D01*
G01X21752455Y7016626D01*
G01X21752455Y6999354D01*
G01X21746867Y6987924D01*
G01X21741025Y6982336D01*
G01X21724007Y6976494D01*
G01X21672445Y6976494D01*
G01X21828909Y7056504D02*
G01X21817479Y7050916D01*
G01X21806049Y7039486D01*
G01X21800207Y7022214D01*
G01X21800207Y7010784D01*
G01X21806049Y6993766D01*
G01X21817479Y6982336D01*
G01X21828909Y6976494D01*
G01X21845927Y6976494D01*
G01X21857357Y6982336D01*
G01X21868787Y6993766D01*
G01X21874629Y7010784D01*
G01X21874629Y7022214D01*
G01X21868787Y7039486D01*
G01X21857357Y7050916D01*
G01X21845927Y7056504D01*
G01X21828909Y7056504D01*
G01X21939653Y7096636D02*
G01X21939653Y6999354D01*
G01X21945241Y6982336D01*
G01X21956671Y6976494D01*
G01X21968101Y6976494D01*
G01X21922381Y7056504D02*
G01X21962513Y7056504D01*
G01X22033125Y7096636D02*
G01X22033125Y6999354D01*
G01X22038713Y6982336D01*
G01X22050143Y6976494D01*
G01X22061573Y6976494D01*
G01X22015853Y7056504D02*
G01X22055985Y7056504D01*
G01X22138027Y7056504D02*
G01X22126597Y7050916D01*
G01X22115167Y7039486D01*
G01X22109325Y7022214D01*
G01X22109325Y7010784D01*
G01X22115167Y6993766D01*
G01X22126597Y6982336D01*
G01X22138027Y6976494D01*
G01X22155045Y6976494D01*
G01X22166475Y6982336D01*
G01X22177905Y6993766D01*
G01X22183747Y7010784D01*
G01X22183747Y7022214D01*
G01X22177905Y7039486D01*
G01X22166475Y7050916D01*
G01X22155045Y7056504D01*
G01X22138027Y7056504D01*
G01X22231499Y7056504D02*
G01X22231499Y6976494D01*
G01X22231499Y7033644D02*
G01X22248771Y7050916D01*
G01X22260201Y7056504D01*
G01X22277219Y7056504D01*
G01X22288649Y7050916D01*
G01X22294491Y7033644D01*
G01X22294491Y6976494D01*
G01X22294491Y7033644D02*
G01X22311509Y7050916D01*
G01X22322939Y7056504D01*
G01X22340211Y7056504D01*
G01X22351641Y7050916D01*
G01X22357229Y7033644D01*
G01X22357229Y6976494D01*
G01X22532997Y7096636D02*
G01X22532997Y6976494D01*
G01X22532997Y6976494D02*
G01X22601577Y6976494D01*
G01X22717909Y7056504D02*
G01X22717909Y6976494D01*
G01X22717909Y7039486D02*
G01X22706479Y7050916D01*
G01X22695049Y7056504D01*
G01X22678031Y7056504D01*
G01X22666601Y7050916D01*
G01X22655171Y7039486D01*
G01X22649329Y7022214D01*
G01X22649329Y7010784D01*
G01X22655171Y6993766D01*
G01X22666601Y6982336D01*
G01X22678031Y6976494D01*
G01X22695049Y6976494D01*
G01X22706479Y6982336D01*
G01X22717909Y6993766D01*
G01X22771503Y7056504D02*
G01X22805793Y6976494D01*
G01X22840083Y7056504D02*
G01X22805793Y6976494D01*
G01X22794363Y6953634D01*
G01X22782933Y6942204D01*
G01X22771503Y6936616D01*
G01X22765661Y6936616D01*
G01X22887835Y7022214D02*
G01X22956415Y7022214D01*
G01X22956415Y7033644D01*
G01X22950827Y7045074D01*
G01X22944985Y7050916D01*
G01X22933555Y7056504D01*
G01X22916537Y7056504D01*
G01X22905107Y7050916D01*
G01X22893677Y7039486D01*
G01X22887835Y7022214D01*
G01X22887835Y7010784D01*
G01X22893677Y6993766D01*
G01X22905107Y6982336D01*
G01X22916537Y6976494D01*
G01X22933555Y6976494D01*
G01X22944985Y6982336D01*
G01X22956415Y6993766D01*
G01X23004167Y7056504D02*
G01X23004167Y6976494D01*
G01X23004167Y7022214D02*
G01X23010009Y7039486D01*
G01X23021439Y7050916D01*
G01X23032869Y7056504D01*
G01X23049887Y7056504D01*
G01X8736624Y6516065D02*
G01X8679474Y6436055D01*
G01X8765326Y6436055D01*
G01X8736624Y6516065D02*
G01X8736624Y6395923D01*
G01X10168059Y6475933D02*
G01X10162217Y6458915D01*
G01X10150787Y6447485D01*
G01X10133769Y6441643D01*
G01X10127927Y6441643D01*
G01X10110909Y6447485D01*
G01X10099479Y6458915D01*
G01X10093637Y6475933D01*
G01X10093637Y6481775D01*
G01X10099479Y6498793D01*
G01X10110909Y6510223D01*
G01X10127927Y6516065D01*
G01X10133769Y6516065D01*
G01X10150787Y6510223D01*
G01X10162217Y6498793D01*
G01X10168059Y6475933D01*
G01X10168059Y6447485D01*
G01X10162217Y6418783D01*
G01X10150787Y6401765D01*
G01X10133769Y6395923D01*
G01X10122339Y6395923D01*
G01X10105067Y6401765D01*
G01X10099479Y6413195D01*
G01X10272961Y6516065D02*
G01X10215811Y6436055D01*
G01X10301663Y6436055D01*
G01X10272961Y6516065D02*
G01X10272961Y6395923D01*
G01X10355257Y6424625D02*
G01X10349415Y6418783D01*
G01X10355257Y6413195D01*
G01X10360845Y6418783D01*
G01X10355257Y6424625D01*
G01X10420027Y6516065D02*
G01X10483019Y6516065D01*
G01X10448729Y6470345D01*
G01X10465747Y6470345D01*
G01X10477177Y6464503D01*
G01X10483019Y6458915D01*
G01X10488607Y6441643D01*
G01X10488607Y6430213D01*
G01X10483019Y6413195D01*
G01X10471589Y6401765D01*
G01X10454317Y6395923D01*
G01X10437299Y6395923D01*
G01X10420027Y6401765D01*
G01X10414439Y6407353D01*
G01X10408597Y6418783D01*
G01X10536359Y6475933D02*
G01X10536359Y6395923D01*
G01X10536359Y6453073D02*
G01X10553631Y6470345D01*
G01X10565061Y6475933D01*
G01X10582079Y6475933D01*
G01X10593509Y6470345D01*
G01X10599351Y6453073D01*
G01X10599351Y6395923D01*
G01X10599351Y6453073D02*
G01X10616369Y6470345D01*
G01X10627799Y6475933D01*
G01X10645071Y6475933D01*
G01X10656501Y6470345D01*
G01X10662089Y6453073D01*
G01X10662089Y6395923D01*
G01X10709841Y6516065D02*
G01X10715683Y6510223D01*
G01X10721271Y6516065D01*
G01X10715683Y6521653D01*
G01X10709841Y6516065D01*
G01X10715683Y6475933D02*
G01X10715683Y6395923D01*
G01X10769023Y6516065D02*
G01X10769023Y6395923D01*
G01X10856907Y6538925D02*
G01X10845477Y6527495D01*
G01X10834047Y6510223D01*
G01X10822617Y6487363D01*
G01X10816775Y6458915D01*
G01X10816775Y6436055D01*
G01X10822617Y6407353D01*
G01X10834047Y6384493D01*
G01X10845477Y6367475D01*
G01X10856907Y6356045D01*
G01X10910501Y6487363D02*
G01X10910501Y6493205D01*
G01X10916089Y6504635D01*
G01X10921931Y6510223D01*
G01X10933361Y6516065D01*
G01X10956221Y6516065D01*
G01X10967651Y6510223D01*
G01X10973239Y6504635D01*
G01X10979081Y6493205D01*
G01X10979081Y6481775D01*
G01X10973239Y6470345D01*
G01X10961809Y6453073D01*
G01X10904659Y6395923D01*
G01X10984669Y6395923D01*
G01X11038263Y6424625D02*
G01X11032421Y6418783D01*
G01X11038263Y6413195D01*
G01X11043851Y6418783D01*
G01X11038263Y6424625D01*
G01X11103033Y6516065D02*
G01X11166025Y6516065D01*
G01X11131735Y6470345D01*
G01X11148753Y6470345D01*
G01X11160183Y6464503D01*
G01X11166025Y6458915D01*
G01X11171613Y6441643D01*
G01X11171613Y6430213D01*
G01X11166025Y6413195D01*
G01X11154595Y6401765D01*
G01X11137323Y6395923D01*
G01X11120305Y6395923D01*
G01X11103033Y6401765D01*
G01X11097445Y6407353D01*
G01X11091603Y6418783D01*
G01X11293787Y6475933D02*
G01X11287945Y6458915D01*
G01X11276515Y6447485D01*
G01X11259497Y6441643D01*
G01X11253655Y6441643D01*
G01X11236637Y6447485D01*
G01X11225207Y6458915D01*
G01X11219365Y6475933D01*
G01X11219365Y6481775D01*
G01X11225207Y6498793D01*
G01X11236637Y6510223D01*
G01X11253655Y6516065D01*
G01X11259497Y6516065D01*
G01X11276515Y6510223D01*
G01X11287945Y6498793D01*
G01X11293787Y6475933D01*
G01X11293787Y6447485D01*
G01X11287945Y6418783D01*
G01X11276515Y6401765D01*
G01X11259497Y6395923D01*
G01X11248067Y6395923D01*
G01X11230795Y6401765D01*
G01X11225207Y6413195D01*
G01X11410119Y6498793D02*
G01X11404531Y6510223D01*
G01X11387259Y6516065D01*
G01X11375829Y6516065D01*
G01X11358811Y6510223D01*
G01X11347381Y6493205D01*
G01X11341539Y6464503D01*
G01X11341539Y6436055D01*
G01X11347381Y6413195D01*
G01X11358811Y6401765D01*
G01X11375829Y6395923D01*
G01X11381671Y6395923D01*
G01X11398689Y6401765D01*
G01X11410119Y6413195D01*
G01X11415961Y6430213D01*
G01X11415961Y6436055D01*
G01X11410119Y6453073D01*
G01X11398689Y6464503D01*
G01X11381671Y6470345D01*
G01X11375829Y6470345D01*
G01X11358811Y6464503D01*
G01X11347381Y6453073D01*
G01X11341539Y6436055D01*
G01X11463713Y6475933D02*
G01X11463713Y6395923D01*
G01X11463713Y6453073D02*
G01X11480985Y6470345D01*
G01X11492415Y6475933D01*
G01X11509433Y6475933D01*
G01X11520863Y6470345D01*
G01X11526705Y6453073D01*
G01X11526705Y6395923D01*
G01X11526705Y6453073D02*
G01X11543723Y6470345D01*
G01X11555153Y6475933D01*
G01X11572425Y6475933D01*
G01X11583855Y6470345D01*
G01X11589443Y6453073D01*
G01X11589443Y6395923D01*
G01X11637195Y6475933D02*
G01X11637195Y6395923D01*
G01X11637195Y6453073D02*
G01X11654467Y6470345D01*
G01X11665897Y6475933D01*
G01X11682915Y6475933D01*
G01X11694345Y6470345D01*
G01X11700187Y6453073D01*
G01X11700187Y6395923D01*
G01X11700187Y6453073D02*
G01X11717205Y6470345D01*
G01X11728635Y6475933D01*
G01X11745907Y6475933D01*
G01X11757337Y6470345D01*
G01X11762925Y6453073D01*
G01X11762925Y6395923D01*
G01X11810677Y6538925D02*
G01X11822107Y6527495D01*
G01X11833537Y6510223D01*
G01X11844967Y6487363D01*
G01X11850809Y6458915D01*
G01X11850809Y6436055D01*
G01X11844967Y6407353D01*
G01X11833537Y6384493D01*
G01X11822107Y6367475D01*
G01X11810677Y6356045D01*
G01X13981761Y6516065D02*
G01X13981761Y6395923D01*
G01X13981761Y6516065D02*
G01X14061771Y6395923D01*
G01X14061771Y6516065D02*
G01X14061771Y6395923D01*
G01X14109523Y6516065D02*
G01X14109523Y6395923D01*
G01X14109523Y6516065D02*
G01X14161085Y6516065D01*
G01X14178103Y6510223D01*
G01X14183945Y6504635D01*
G01X14189533Y6493205D01*
G01X14189533Y6475933D01*
G01X14183945Y6464503D01*
G01X14178103Y6458915D01*
G01X14161085Y6453073D01*
G01X14109523Y6453073D01*
G01X14277417Y6516065D02*
G01X14277417Y6395923D01*
G01X14237285Y6516065D02*
G01X14317295Y6516065D01*
G01X14365047Y6516065D02*
G01X14365047Y6395923D01*
G01X14445057Y6516065D02*
G01X14445057Y6395923D01*
G01X14365047Y6458915D02*
G01X14445057Y6458915D01*
G01X15443168Y6516065D02*
G01X15443168Y6395923D01*
G01X15443168Y6516065D02*
G01X15494730Y6516065D01*
G01X15511748Y6510223D01*
G01X15517590Y6504635D01*
G01X15523178Y6493205D01*
G01X15523178Y6481775D01*
G01X15517590Y6470345D01*
G01X15511748Y6464503D01*
G01X15494730Y6458915D01*
G01X15443168Y6458915D01*
G01X15483300Y6458915D02*
G01X15523178Y6395923D01*
G01X15599632Y6475933D02*
G01X15588202Y6470345D01*
G01X15576772Y6458915D01*
G01X15570930Y6441643D01*
G01X15570930Y6430213D01*
G01X15576772Y6413195D01*
G01X15588202Y6401765D01*
G01X15599632Y6395923D01*
G01X15616650Y6395923D01*
G01X15628080Y6401765D01*
G01X15639510Y6413195D01*
G01X15645352Y6430213D01*
G01X15645352Y6441643D01*
G01X15639510Y6458915D01*
G01X15628080Y6470345D01*
G01X15616650Y6475933D01*
G01X15599632Y6475933D01*
G01X15693104Y6475933D02*
G01X15693104Y6418783D01*
G01X15698946Y6401765D01*
G01X15710376Y6395923D01*
G01X15727394Y6395923D01*
G01X15738824Y6401765D01*
G01X15756096Y6418783D01*
G01X15756096Y6475933D02*
G01X15756096Y6395923D01*
G01X15803848Y6475933D02*
G01X15803848Y6395923D01*
G01X15803848Y6453073D02*
G01X15821120Y6470345D01*
G01X15832550Y6475933D01*
G01X15849568Y6475933D01*
G01X15860998Y6470345D01*
G01X15866840Y6453073D01*
G01X15866840Y6395923D01*
G01X15983172Y6516065D02*
G01X15983172Y6395923D01*
G01X15983172Y6458915D02*
G01X15971742Y6470345D01*
G01X15960312Y6475933D01*
G01X15943294Y6475933D01*
G01X15931864Y6470345D01*
G01X15920434Y6458915D01*
G01X15914592Y6441643D01*
G01X15914592Y6430213D01*
G01X15920434Y6413195D01*
G01X15931864Y6401765D01*
G01X15943294Y6395923D01*
G01X15960312Y6395923D01*
G01X15971742Y6401765D01*
G01X15983172Y6413195D01*
G01X16874349Y6516065D02*
G01X16920069Y6395923D01*
G01X16965789Y6516065D02*
G01X16920069Y6395923D01*
G01X17013541Y6516065D02*
G01X17019383Y6510223D01*
G01X17024971Y6516065D01*
G01X17019383Y6521653D01*
G01X17013541Y6516065D01*
G01X17019383Y6475933D02*
G01X17019383Y6395923D01*
G01X17141303Y6475933D02*
G01X17141303Y6395923D01*
G01X17141303Y6458915D02*
G01X17129873Y6470345D01*
G01X17118443Y6475933D01*
G01X17101425Y6475933D01*
G01X17089995Y6470345D01*
G01X17078565Y6458915D01*
G01X17072723Y6441643D01*
G01X17072723Y6430213D01*
G01X17078565Y6413195D01*
G01X17089995Y6401765D01*
G01X17101425Y6395923D01*
G01X17118443Y6395923D01*
G01X17129873Y6401765D01*
G01X17141303Y6413195D01*
G01X20503029Y6516065D02*
G01X20503029Y6395923D01*
G01X20462897Y6516065D02*
G01X20542907Y6516065D01*
G01X20619361Y6475933D02*
G01X20607931Y6470345D01*
G01X20596501Y6458915D01*
G01X20590659Y6441643D01*
G01X20590659Y6430213D01*
G01X20596501Y6413195D01*
G01X20607931Y6401765D01*
G01X20619361Y6395923D01*
G01X20636379Y6395923D01*
G01X20647809Y6401765D01*
G01X20659239Y6413195D01*
G01X20665081Y6430213D01*
G01X20665081Y6441643D01*
G01X20659239Y6458915D01*
G01X20647809Y6470345D01*
G01X20636379Y6475933D01*
G01X20619361Y6475933D01*
G01X20712833Y6475933D02*
G01X20712833Y6356045D01*
G01X20712833Y6458915D02*
G01X20724263Y6470345D01*
G01X20735693Y6475933D01*
G01X20752965Y6475933D01*
G01X20764395Y6470345D01*
G01X20775825Y6458915D01*
G01X20781413Y6441643D01*
G01X20781413Y6430213D01*
G01X20775825Y6413195D01*
G01X20764395Y6401765D01*
G01X20752965Y6395923D01*
G01X20735693Y6395923D01*
G01X20724263Y6401765D01*
G01X20712833Y6413195D01*
G01X20957181Y6516065D02*
G01X20957181Y6395923D01*
G01X20957181Y6395923D02*
G01X21025761Y6395923D01*
G01X21142093Y6475933D02*
G01X21142093Y6395923D01*
G01X21142093Y6458915D02*
G01X21130663Y6470345D01*
G01X21119233Y6475933D01*
G01X21102215Y6475933D01*
G01X21090785Y6470345D01*
G01X21079355Y6458915D01*
G01X21073513Y6441643D01*
G01X21073513Y6430213D01*
G01X21079355Y6413195D01*
G01X21090785Y6401765D01*
G01X21102215Y6395923D01*
G01X21119233Y6395923D01*
G01X21130663Y6401765D01*
G01X21142093Y6413195D01*
G01X21195687Y6475933D02*
G01X21229977Y6395923D01*
G01X21264267Y6475933D02*
G01X21229977Y6395923D01*
G01X21218547Y6373063D01*
G01X21207117Y6361633D01*
G01X21195687Y6356045D01*
G01X21189845Y6356045D01*
G01X21312019Y6441643D02*
G01X21380599Y6441643D01*
G01X21380599Y6453073D01*
G01X21375011Y6464503D01*
G01X21369169Y6470345D01*
G01X21357739Y6475933D01*
G01X21340721Y6475933D01*
G01X21329291Y6470345D01*
G01X21317861Y6458915D01*
G01X21312019Y6441643D01*
G01X21312019Y6430213D01*
G01X21317861Y6413195D01*
G01X21329291Y6401765D01*
G01X21340721Y6395923D01*
G01X21357739Y6395923D01*
G01X21369169Y6401765D01*
G01X21380599Y6413195D01*
G01X21428351Y6475933D02*
G01X21428351Y6395923D01*
G01X21428351Y6441643D02*
G01X21434193Y6458915D01*
G01X21445623Y6470345D01*
G01X21457053Y6475933D01*
G01X21474071Y6475933D01*
G01X21521823Y6447485D02*
G01X21624693Y6447485D01*
G01X21672445Y6516065D02*
G01X21672445Y6395923D01*
G01X21672445Y6516065D02*
G01X21724007Y6516065D01*
G01X21741025Y6510223D01*
G01X21746867Y6504635D01*
G01X21752455Y6493205D01*
G01X21752455Y6481775D01*
G01X21746867Y6470345D01*
G01X21741025Y6464503D01*
G01X21724007Y6458915D01*
G01X21672445Y6458915D02*
G01X21724007Y6458915D01*
G01X21741025Y6453073D01*
G01X21746867Y6447485D01*
G01X21752455Y6436055D01*
G01X21752455Y6418783D01*
G01X21746867Y6407353D01*
G01X21741025Y6401765D01*
G01X21724007Y6395923D01*
G01X21672445Y6395923D01*
G01X21828909Y6475933D02*
G01X21817479Y6470345D01*
G01X21806049Y6458915D01*
G01X21800207Y6441643D01*
G01X21800207Y6430213D01*
G01X21806049Y6413195D01*
G01X21817479Y6401765D01*
G01X21828909Y6395923D01*
G01X21845927Y6395923D01*
G01X21857357Y6401765D01*
G01X21868787Y6413195D01*
G01X21874629Y6430213D01*
G01X21874629Y6441643D01*
G01X21868787Y6458915D01*
G01X21857357Y6470345D01*
G01X21845927Y6475933D01*
G01X21828909Y6475933D01*
G01X21939653Y6516065D02*
G01X21939653Y6418783D01*
G01X21945241Y6401765D01*
G01X21956671Y6395923D01*
G01X21968101Y6395923D01*
G01X21922381Y6475933D02*
G01X21962513Y6475933D01*
G01X22033125Y6516065D02*
G01X22033125Y6418783D01*
G01X22038713Y6401765D01*
G01X22050143Y6395923D01*
G01X22061573Y6395923D01*
G01X22015853Y6475933D02*
G01X22055985Y6475933D01*
G01X22138027Y6475933D02*
G01X22126597Y6470345D01*
G01X22115167Y6458915D01*
G01X22109325Y6441643D01*
G01X22109325Y6430213D01*
G01X22115167Y6413195D01*
G01X22126597Y6401765D01*
G01X22138027Y6395923D01*
G01X22155045Y6395923D01*
G01X22166475Y6401765D01*
G01X22177905Y6413195D01*
G01X22183747Y6430213D01*
G01X22183747Y6441643D01*
G01X22177905Y6458915D01*
G01X22166475Y6470345D01*
G01X22155045Y6475933D01*
G01X22138027Y6475933D01*
G01X22231499Y6475933D02*
G01X22231499Y6395923D01*
G01X22231499Y6453073D02*
G01X22248771Y6470345D01*
G01X22260201Y6475933D01*
G01X22277219Y6475933D01*
G01X22288649Y6470345D01*
G01X22294491Y6453073D01*
G01X22294491Y6395923D01*
G01X22294491Y6453073D02*
G01X22311509Y6470345D01*
G01X22322939Y6475933D01*
G01X22340211Y6475933D01*
G01X22351641Y6470345D01*
G01X22357229Y6453073D01*
G01X22357229Y6395923D01*
G01X22532997Y6516065D02*
G01X22532997Y6395923D01*
G01X22532997Y6395923D02*
G01X22601577Y6395923D01*
G01X22717909Y6475933D02*
G01X22717909Y6395923D01*
G01X22717909Y6458915D02*
G01X22706479Y6470345D01*
G01X22695049Y6475933D01*
G01X22678031Y6475933D01*
G01X22666601Y6470345D01*
G01X22655171Y6458915D01*
G01X22649329Y6441643D01*
G01X22649329Y6430213D01*
G01X22655171Y6413195D01*
G01X22666601Y6401765D01*
G01X22678031Y6395923D01*
G01X22695049Y6395923D01*
G01X22706479Y6401765D01*
G01X22717909Y6413195D01*
G01X22771503Y6475933D02*
G01X22805793Y6395923D01*
G01X22840083Y6475933D02*
G01X22805793Y6395923D01*
G01X22794363Y6373063D01*
G01X22782933Y6361633D01*
G01X22771503Y6356045D01*
G01X22765661Y6356045D01*
G01X22887835Y6441643D02*
G01X22956415Y6441643D01*
G01X22956415Y6453073D01*
G01X22950827Y6464503D01*
G01X22944985Y6470345D01*
G01X22933555Y6475933D01*
G01X22916537Y6475933D01*
G01X22905107Y6470345D01*
G01X22893677Y6458915D01*
G01X22887835Y6441643D01*
G01X22887835Y6430213D01*
G01X22893677Y6413195D01*
G01X22905107Y6401765D01*
G01X22916537Y6395923D01*
G01X22933555Y6395923D01*
G01X22944985Y6401765D01*
G01X22956415Y6413195D01*
G01X23004167Y6475933D02*
G01X23004167Y6395923D01*
G01X23004167Y6441643D02*
G01X23010009Y6458915D01*
G01X23021439Y6470345D01*
G01X23032869Y6475933D01*
G01X23049887Y6475933D01*
G01X8748054Y5918222D02*
G01X8742466Y5929652D01*
G01X8725194Y5935494D01*
G01X8713764Y5935494D01*
G01X8696746Y5929652D01*
G01X8685316Y5912634D01*
G01X8679474Y5883932D01*
G01X8679474Y5855484D01*
G01X8685316Y5832624D01*
G01X8696746Y5821194D01*
G01X8713764Y5815352D01*
G01X8719606Y5815352D01*
G01X8736624Y5821194D01*
G01X8748054Y5832624D01*
G01X8753896Y5849642D01*
G01X8753896Y5855484D01*
G01X8748054Y5872502D01*
G01X8736624Y5883932D01*
G01X8719606Y5889774D01*
G01X8713764Y5889774D01*
G01X8696746Y5883932D01*
G01X8685316Y5872502D01*
G01X8679474Y5855484D01*
G01X10099479Y5906792D02*
G01X10099479Y5912634D01*
G01X10105067Y5924064D01*
G01X10110909Y5929652D01*
G01X10122339Y5935494D01*
G01X10145199Y5935494D01*
G01X10156629Y5929652D01*
G01X10162217Y5924064D01*
G01X10168059Y5912634D01*
G01X10168059Y5901204D01*
G01X10162217Y5889774D01*
G01X10150787Y5872502D01*
G01X10093637Y5815352D01*
G01X10173647Y5815352D01*
G01X10232829Y5935494D02*
G01X10295821Y5935494D01*
G01X10261531Y5889774D01*
G01X10278549Y5889774D01*
G01X10289979Y5883932D01*
G01X10295821Y5878344D01*
G01X10301409Y5861072D01*
G01X10301409Y5849642D01*
G01X10295821Y5832624D01*
G01X10284391Y5821194D01*
G01X10267119Y5815352D01*
G01X10250101Y5815352D01*
G01X10232829Y5821194D01*
G01X10227241Y5826782D01*
G01X10221399Y5838212D01*
G01X10355003Y5844054D02*
G01X10349161Y5838212D01*
G01X10355003Y5832624D01*
G01X10360591Y5838212D01*
G01X10355003Y5844054D01*
G01X10476923Y5918222D02*
G01X10471335Y5929652D01*
G01X10454063Y5935494D01*
G01X10442633Y5935494D01*
G01X10425615Y5929652D01*
G01X10414185Y5912634D01*
G01X10408343Y5883932D01*
G01X10408343Y5855484D01*
G01X10414185Y5832624D01*
G01X10425615Y5821194D01*
G01X10442633Y5815352D01*
G01X10448475Y5815352D01*
G01X10465493Y5821194D01*
G01X10476923Y5832624D01*
G01X10482765Y5849642D01*
G01X10482765Y5855484D01*
G01X10476923Y5872502D01*
G01X10465493Y5883932D01*
G01X10448475Y5889774D01*
G01X10442633Y5889774D01*
G01X10425615Y5883932D01*
G01X10414185Y5872502D01*
G01X10408343Y5855484D01*
G01X10530517Y5895362D02*
G01X10593509Y5815352D01*
G01X10593509Y5895362D02*
G01X10530517Y5815352D01*
G01X10709841Y5935494D02*
G01X10652691Y5935494D01*
G01X10647103Y5883932D01*
G01X10652691Y5889774D01*
G01X10669963Y5895362D01*
G01X10686981Y5895362D01*
G01X10704253Y5889774D01*
G01X10715683Y5878344D01*
G01X10721271Y5861072D01*
G01X10721271Y5849642D01*
G01X10715683Y5832624D01*
G01X10704253Y5821194D01*
G01X10686981Y5815352D01*
G01X10669963Y5815352D01*
G01X10652691Y5821194D01*
G01X10647103Y5826782D01*
G01X10641261Y5838212D01*
G01X10843445Y5895362D02*
G01X10837603Y5878344D01*
G01X10826173Y5866914D01*
G01X10809155Y5861072D01*
G01X10803313Y5861072D01*
G01X10786295Y5866914D01*
G01X10774865Y5878344D01*
G01X10769023Y5895362D01*
G01X10769023Y5901204D01*
G01X10774865Y5918222D01*
G01X10786295Y5929652D01*
G01X10803313Y5935494D01*
G01X10809155Y5935494D01*
G01X10826173Y5929652D01*
G01X10837603Y5918222D01*
G01X10843445Y5895362D01*
G01X10843445Y5866914D01*
G01X10837603Y5838212D01*
G01X10826173Y5821194D01*
G01X10809155Y5815352D01*
G01X10797725Y5815352D01*
G01X10780453Y5821194D01*
G01X10774865Y5832624D01*
G01X10897039Y5844054D02*
G01X10891197Y5838212D01*
G01X10897039Y5832624D01*
G01X10902627Y5838212D01*
G01X10897039Y5844054D01*
G01X10950379Y5912634D02*
G01X10961809Y5918222D01*
G01X10979081Y5935494D01*
G01X10979081Y5815352D01*
G01X11026833Y5895362D02*
G01X11026833Y5815352D01*
G01X11026833Y5872502D02*
G01X11044105Y5889774D01*
G01X11055535Y5895362D01*
G01X11072553Y5895362D01*
G01X11083983Y5889774D01*
G01X11089825Y5872502D01*
G01X11089825Y5815352D01*
G01X11089825Y5872502D02*
G01X11106843Y5889774D01*
G01X11118273Y5895362D01*
G01X11135545Y5895362D01*
G01X11146975Y5889774D01*
G01X11152563Y5872502D01*
G01X11152563Y5815352D01*
G01X11200315Y5935494D02*
G01X11206157Y5929652D01*
G01X11211745Y5935494D01*
G01X11206157Y5941082D01*
G01X11200315Y5935494D01*
G01X11206157Y5895362D02*
G01X11206157Y5815352D01*
G01X11259497Y5935494D02*
G01X11259497Y5815352D01*
G01X11347381Y5958354D02*
G01X11335951Y5946924D01*
G01X11324521Y5929652D01*
G01X11313091Y5906792D01*
G01X11307249Y5878344D01*
G01X11307249Y5855484D01*
G01X11313091Y5826782D01*
G01X11324521Y5803922D01*
G01X11335951Y5786904D01*
G01X11347381Y5775474D01*
G01X11429423Y5935494D02*
G01X11412405Y5929652D01*
G01X11400975Y5912634D01*
G01X11395133Y5883932D01*
G01X11395133Y5866914D01*
G01X11400975Y5838212D01*
G01X11412405Y5821194D01*
G01X11429423Y5815352D01*
G01X11440853Y5815352D01*
G01X11458125Y5821194D01*
G01X11469555Y5838212D01*
G01X11475143Y5866914D01*
G01X11475143Y5883932D01*
G01X11469555Y5912634D01*
G01X11458125Y5929652D01*
G01X11440853Y5935494D01*
G01X11429423Y5935494D01*
G01X11528737Y5844054D02*
G01X11522895Y5838212D01*
G01X11528737Y5832624D01*
G01X11534325Y5838212D01*
G01X11528737Y5844054D01*
G01X11650657Y5918222D02*
G01X11645069Y5929652D01*
G01X11627797Y5935494D01*
G01X11616367Y5935494D01*
G01X11599349Y5929652D01*
G01X11587919Y5912634D01*
G01X11582077Y5883932D01*
G01X11582077Y5855484D01*
G01X11587919Y5832624D01*
G01X11599349Y5821194D01*
G01X11616367Y5815352D01*
G01X11622209Y5815352D01*
G01X11639227Y5821194D01*
G01X11650657Y5832624D01*
G01X11656499Y5849642D01*
G01X11656499Y5855484D01*
G01X11650657Y5872502D01*
G01X11639227Y5883932D01*
G01X11622209Y5889774D01*
G01X11616367Y5889774D01*
G01X11599349Y5883932D01*
G01X11587919Y5872502D01*
G01X11582077Y5855484D01*
G01X11738541Y5935494D02*
G01X11721523Y5929652D01*
G01X11710093Y5912634D01*
G01X11704251Y5883932D01*
G01X11704251Y5866914D01*
G01X11710093Y5838212D01*
G01X11721523Y5821194D01*
G01X11738541Y5815352D01*
G01X11749971Y5815352D01*
G01X11767243Y5821194D01*
G01X11778673Y5838212D01*
G01X11784261Y5866914D01*
G01X11784261Y5883932D01*
G01X11778673Y5912634D01*
G01X11767243Y5929652D01*
G01X11749971Y5935494D01*
G01X11738541Y5935494D01*
G01X11866303Y5935494D02*
G01X11849285Y5929652D01*
G01X11837855Y5912634D01*
G01X11832013Y5883932D01*
G01X11832013Y5866914D01*
G01X11837855Y5838212D01*
G01X11849285Y5821194D01*
G01X11866303Y5815352D01*
G01X11877733Y5815352D01*
G01X11895005Y5821194D01*
G01X11906435Y5838212D01*
G01X11912023Y5866914D01*
G01X11912023Y5883932D01*
G01X11906435Y5912634D01*
G01X11895005Y5929652D01*
G01X11877733Y5935494D01*
G01X11866303Y5935494D01*
G01X11959775Y5895362D02*
G01X12022767Y5815352D01*
G01X12022767Y5895362D02*
G01X11959775Y5815352D01*
G01X12070519Y5912634D02*
G01X12081949Y5918222D01*
G01X12099221Y5935494D01*
G01X12099221Y5815352D01*
G01X12152815Y5844054D02*
G01X12146973Y5838212D01*
G01X12152815Y5832624D01*
G01X12158403Y5838212D01*
G01X12152815Y5844054D01*
G01X12274735Y5935494D02*
G01X12217585Y5935494D01*
G01X12211997Y5883932D01*
G01X12217585Y5889774D01*
G01X12234857Y5895362D01*
G01X12251875Y5895362D01*
G01X12269147Y5889774D01*
G01X12280577Y5878344D01*
G01X12286165Y5861072D01*
G01X12286165Y5849642D01*
G01X12280577Y5832624D01*
G01X12269147Y5821194D01*
G01X12251875Y5815352D01*
G01X12234857Y5815352D01*
G01X12217585Y5821194D01*
G01X12211997Y5826782D01*
G01X12206155Y5838212D01*
G01X12368207Y5935494D02*
G01X12351189Y5929652D01*
G01X12339759Y5912634D01*
G01X12333917Y5883932D01*
G01X12333917Y5866914D01*
G01X12339759Y5838212D01*
G01X12351189Y5821194D01*
G01X12368207Y5815352D01*
G01X12379637Y5815352D01*
G01X12396909Y5821194D01*
G01X12408339Y5838212D01*
G01X12413927Y5866914D01*
G01X12413927Y5883932D01*
G01X12408339Y5912634D01*
G01X12396909Y5929652D01*
G01X12379637Y5935494D01*
G01X12368207Y5935494D01*
G01X12495969Y5935494D02*
G01X12478951Y5929652D01*
G01X12467521Y5912634D01*
G01X12461679Y5883932D01*
G01X12461679Y5866914D01*
G01X12467521Y5838212D01*
G01X12478951Y5821194D01*
G01X12495969Y5815352D01*
G01X12507399Y5815352D01*
G01X12524671Y5821194D01*
G01X12536101Y5838212D01*
G01X12541689Y5866914D01*
G01X12541689Y5883932D01*
G01X12536101Y5912634D01*
G01X12524671Y5929652D01*
G01X12507399Y5935494D01*
G01X12495969Y5935494D01*
G01X12589441Y5895362D02*
G01X12589441Y5815352D01*
G01X12589441Y5872502D02*
G01X12606713Y5889774D01*
G01X12618143Y5895362D01*
G01X12635161Y5895362D01*
G01X12646591Y5889774D01*
G01X12652433Y5872502D01*
G01X12652433Y5815352D01*
G01X12652433Y5872502D02*
G01X12669451Y5889774D01*
G01X12680881Y5895362D01*
G01X12698153Y5895362D01*
G01X12709583Y5889774D01*
G01X12715171Y5872502D01*
G01X12715171Y5815352D01*
G01X12762923Y5895362D02*
G01X12762923Y5815352D01*
G01X12762923Y5872502D02*
G01X12780195Y5889774D01*
G01X12791625Y5895362D01*
G01X12808643Y5895362D01*
G01X12820073Y5889774D01*
G01X12825915Y5872502D01*
G01X12825915Y5815352D01*
G01X12825915Y5872502D02*
G01X12842933Y5889774D01*
G01X12854363Y5895362D01*
G01X12871635Y5895362D01*
G01X12883065Y5889774D01*
G01X12888653Y5872502D01*
G01X12888653Y5815352D01*
G01X12936405Y5958354D02*
G01X12947835Y5946924D01*
G01X12959265Y5929652D01*
G01X12970695Y5906792D01*
G01X12976537Y5878344D01*
G01X12976537Y5855484D01*
G01X12970695Y5826782D01*
G01X12959265Y5803922D01*
G01X12947835Y5786904D01*
G01X12936405Y5775474D01*
G01X13981761Y5935494D02*
G01X13981761Y5815352D01*
G01X13981761Y5935494D02*
G01X14033323Y5935494D01*
G01X14050341Y5929652D01*
G01X14056183Y5924064D01*
G01X14061771Y5912634D01*
G01X14061771Y5895362D01*
G01X14056183Y5883932D01*
G01X14050341Y5878344D01*
G01X14033323Y5872502D01*
G01X13981761Y5872502D01*
G01X14149655Y5935494D02*
G01X14149655Y5815352D01*
G01X14109523Y5935494D02*
G01X14189533Y5935494D01*
G01X14237285Y5935494D02*
G01X14237285Y5815352D01*
G01X14317295Y5935494D02*
G01X14317295Y5815352D01*
G01X14237285Y5878344D02*
G01X14317295Y5878344D01*
G01X15523178Y5918222D02*
G01X15511748Y5929652D01*
G01X15494730Y5935494D01*
G01X15471870Y5935494D01*
G01X15454598Y5929652D01*
G01X15443168Y5918222D01*
G01X15443168Y5906792D01*
G01X15449010Y5895362D01*
G01X15454598Y5889774D01*
G01X15466028Y5883932D01*
G01X15500318Y5872502D01*
G01X15511748Y5866914D01*
G01X15517590Y5861072D01*
G01X15523178Y5849642D01*
G01X15523178Y5832624D01*
G01X15511748Y5821194D01*
G01X15494730Y5815352D01*
G01X15471870Y5815352D01*
G01X15454598Y5821194D01*
G01X15443168Y5832624D01*
G01X15570930Y5935494D02*
G01X15570930Y5815352D01*
G01X15647384Y5895362D02*
G01X15635954Y5889774D01*
G01X15624524Y5878344D01*
G01X15618682Y5861072D01*
G01X15618682Y5849642D01*
G01X15624524Y5832624D01*
G01X15635954Y5821194D01*
G01X15647384Y5815352D01*
G01X15664402Y5815352D01*
G01X15675832Y5821194D01*
G01X15687262Y5832624D01*
G01X15693104Y5849642D01*
G01X15693104Y5861072D01*
G01X15687262Y5878344D01*
G01X15675832Y5889774D01*
G01X15664402Y5895362D01*
G01X15647384Y5895362D01*
G01X15758128Y5935494D02*
G01X15758128Y5838212D01*
G01X15763716Y5821194D01*
G01X15775146Y5815352D01*
G01X15786576Y5815352D01*
G01X15740856Y5895362D02*
G01X15780988Y5895362D01*
G01X16874349Y5935494D02*
G01X16874349Y5815352D01*
G01X16874349Y5935494D02*
G01X16925911Y5935494D01*
G01X16942929Y5929652D01*
G01X16948771Y5924064D01*
G01X16954359Y5912634D01*
G01X16954359Y5895362D01*
G01X16948771Y5883932D01*
G01X16942929Y5878344D01*
G01X16925911Y5872502D01*
G01X16874349Y5872502D01*
G01X17070691Y5895362D02*
G01X17070691Y5815352D01*
G01X17070691Y5878344D02*
G01X17059261Y5889774D01*
G01X17047831Y5895362D01*
G01X17030813Y5895362D01*
G01X17019383Y5889774D01*
G01X17007953Y5878344D01*
G01X17002111Y5861072D01*
G01X17002111Y5849642D01*
G01X17007953Y5832624D01*
G01X17019383Y5821194D01*
G01X17030813Y5815352D01*
G01X17047831Y5815352D01*
G01X17059261Y5821194D01*
G01X17070691Y5832624D01*
G01X17187023Y5935494D02*
G01X17187023Y5815352D01*
G01X17187023Y5878344D02*
G01X17175593Y5889774D01*
G01X17164163Y5895362D01*
G01X17147145Y5895362D01*
G01X17135715Y5889774D01*
G01X17124285Y5878344D01*
G01X17118443Y5861072D01*
G01X17118443Y5849642D01*
G01X17124285Y5832624D01*
G01X17135715Y5821194D01*
G01X17147145Y5815352D01*
G01X17164163Y5815352D01*
G01X17175593Y5821194D01*
G01X17187023Y5832624D01*
G01X18577818Y5935494D02*
G01X18566388Y5929652D01*
G01X18554958Y5918222D01*
G01X18549370Y5906792D01*
G01X18543528Y5889774D01*
G01X18543528Y5861072D01*
G01X18549370Y5844054D01*
G01X18554958Y5832624D01*
G01X18566388Y5821194D01*
G01X18577818Y5815352D01*
G01X18600678Y5815352D01*
G01X18612108Y5821194D01*
G01X18623538Y5832624D01*
G01X18629380Y5844054D01*
G01X18634968Y5861072D01*
G01X18634968Y5889774D01*
G01X18629380Y5906792D01*
G01X18623538Y5918222D01*
G01X18612108Y5929652D01*
G01X18600678Y5935494D01*
G01X18577818Y5935494D01*
G01X18682720Y5895362D02*
G01X18717010Y5815352D01*
G01X18751300Y5895362D02*
G01X18717010Y5815352D01*
G01X18867632Y5895362D02*
G01X18867632Y5815352D01*
G01X18867632Y5878344D02*
G01X18856202Y5889774D01*
G01X18844772Y5895362D01*
G01X18827754Y5895362D01*
G01X18816324Y5889774D01*
G01X18804894Y5878344D01*
G01X18799052Y5861072D01*
G01X18799052Y5849642D01*
G01X18804894Y5832624D01*
G01X18816324Y5821194D01*
G01X18827754Y5815352D01*
G01X18844772Y5815352D01*
G01X18856202Y5821194D01*
G01X18867632Y5832624D01*
G01X18915384Y5935494D02*
G01X18915384Y5815352D01*
G01X20503029Y5935494D02*
G01X20503029Y5815352D01*
G01X20462897Y5935494D02*
G01X20542907Y5935494D01*
G01X20619361Y5895362D02*
G01X20607931Y5889774D01*
G01X20596501Y5878344D01*
G01X20590659Y5861072D01*
G01X20590659Y5849642D01*
G01X20596501Y5832624D01*
G01X20607931Y5821194D01*
G01X20619361Y5815352D01*
G01X20636379Y5815352D01*
G01X20647809Y5821194D01*
G01X20659239Y5832624D01*
G01X20665081Y5849642D01*
G01X20665081Y5861072D01*
G01X20659239Y5878344D01*
G01X20647809Y5889774D01*
G01X20636379Y5895362D01*
G01X20619361Y5895362D01*
G01X20712833Y5895362D02*
G01X20712833Y5775474D01*
G01X20712833Y5878344D02*
G01X20724263Y5889774D01*
G01X20735693Y5895362D01*
G01X20752965Y5895362D01*
G01X20764395Y5889774D01*
G01X20775825Y5878344D01*
G01X20781413Y5861072D01*
G01X20781413Y5849642D01*
G01X20775825Y5832624D01*
G01X20764395Y5821194D01*
G01X20752965Y5815352D01*
G01X20735693Y5815352D01*
G01X20724263Y5821194D01*
G01X20712833Y5832624D01*
G01X20957181Y5935494D02*
G01X20957181Y5815352D01*
G01X20957181Y5815352D02*
G01X21025761Y5815352D01*
G01X21142093Y5895362D02*
G01X21142093Y5815352D01*
G01X21142093Y5878344D02*
G01X21130663Y5889774D01*
G01X21119233Y5895362D01*
G01X21102215Y5895362D01*
G01X21090785Y5889774D01*
G01X21079355Y5878344D01*
G01X21073513Y5861072D01*
G01X21073513Y5849642D01*
G01X21079355Y5832624D01*
G01X21090785Y5821194D01*
G01X21102215Y5815352D01*
G01X21119233Y5815352D01*
G01X21130663Y5821194D01*
G01X21142093Y5832624D01*
G01X21195687Y5895362D02*
G01X21229977Y5815352D01*
G01X21264267Y5895362D02*
G01X21229977Y5815352D01*
G01X21218547Y5792492D01*
G01X21207117Y5781062D01*
G01X21195687Y5775474D01*
G01X21189845Y5775474D01*
G01X21312019Y5861072D02*
G01X21380599Y5861072D01*
G01X21380599Y5872502D01*
G01X21375011Y5883932D01*
G01X21369169Y5889774D01*
G01X21357739Y5895362D01*
G01X21340721Y5895362D01*
G01X21329291Y5889774D01*
G01X21317861Y5878344D01*
G01X21312019Y5861072D01*
G01X21312019Y5849642D01*
G01X21317861Y5832624D01*
G01X21329291Y5821194D01*
G01X21340721Y5815352D01*
G01X21357739Y5815352D01*
G01X21369169Y5821194D01*
G01X21380599Y5832624D01*
G01X21428351Y5895362D02*
G01X21428351Y5815352D01*
G01X21428351Y5861072D02*
G01X21434193Y5878344D01*
G01X21445623Y5889774D01*
G01X21457053Y5895362D01*
G01X21474071Y5895362D01*
G01X21521823Y5866914D02*
G01X21624693Y5866914D01*
G01X21672445Y5935494D02*
G01X21672445Y5815352D01*
G01X21672445Y5935494D02*
G01X21724007Y5935494D01*
G01X21741025Y5929652D01*
G01X21746867Y5924064D01*
G01X21752455Y5912634D01*
G01X21752455Y5901204D01*
G01X21746867Y5889774D01*
G01X21741025Y5883932D01*
G01X21724007Y5878344D01*
G01X21672445Y5878344D02*
G01X21724007Y5878344D01*
G01X21741025Y5872502D01*
G01X21746867Y5866914D01*
G01X21752455Y5855484D01*
G01X21752455Y5838212D01*
G01X21746867Y5826782D01*
G01X21741025Y5821194D01*
G01X21724007Y5815352D01*
G01X21672445Y5815352D01*
G01X21828909Y5895362D02*
G01X21817479Y5889774D01*
G01X21806049Y5878344D01*
G01X21800207Y5861072D01*
G01X21800207Y5849642D01*
G01X21806049Y5832624D01*
G01X21817479Y5821194D01*
G01X21828909Y5815352D01*
G01X21845927Y5815352D01*
G01X21857357Y5821194D01*
G01X21868787Y5832624D01*
G01X21874629Y5849642D01*
G01X21874629Y5861072D01*
G01X21868787Y5878344D01*
G01X21857357Y5889774D01*
G01X21845927Y5895362D01*
G01X21828909Y5895362D01*
G01X21939653Y5935494D02*
G01X21939653Y5838212D01*
G01X21945241Y5821194D01*
G01X21956671Y5815352D01*
G01X21968101Y5815352D01*
G01X21922381Y5895362D02*
G01X21962513Y5895362D01*
G01X22033125Y5935494D02*
G01X22033125Y5838212D01*
G01X22038713Y5821194D01*
G01X22050143Y5815352D01*
G01X22061573Y5815352D01*
G01X22015853Y5895362D02*
G01X22055985Y5895362D01*
G01X22138027Y5895362D02*
G01X22126597Y5889774D01*
G01X22115167Y5878344D01*
G01X22109325Y5861072D01*
G01X22109325Y5849642D01*
G01X22115167Y5832624D01*
G01X22126597Y5821194D01*
G01X22138027Y5815352D01*
G01X22155045Y5815352D01*
G01X22166475Y5821194D01*
G01X22177905Y5832624D01*
G01X22183747Y5849642D01*
G01X22183747Y5861072D01*
G01X22177905Y5878344D01*
G01X22166475Y5889774D01*
G01X22155045Y5895362D01*
G01X22138027Y5895362D01*
G01X22231499Y5895362D02*
G01X22231499Y5815352D01*
G01X22231499Y5872502D02*
G01X22248771Y5889774D01*
G01X22260201Y5895362D01*
G01X22277219Y5895362D01*
G01X22288649Y5889774D01*
G01X22294491Y5872502D01*
G01X22294491Y5815352D01*
G01X22294491Y5872502D02*
G01X22311509Y5889774D01*
G01X22322939Y5895362D01*
G01X22340211Y5895362D01*
G01X22351641Y5889774D01*
G01X22357229Y5872502D01*
G01X22357229Y5815352D01*
G01X22532997Y5935494D02*
G01X22532997Y5815352D01*
G01X22532997Y5815352D02*
G01X22601577Y5815352D01*
G01X22717909Y5895362D02*
G01X22717909Y5815352D01*
G01X22717909Y5878344D02*
G01X22706479Y5889774D01*
G01X22695049Y5895362D01*
G01X22678031Y5895362D01*
G01X22666601Y5889774D01*
G01X22655171Y5878344D01*
G01X22649329Y5861072D01*
G01X22649329Y5849642D01*
G01X22655171Y5832624D01*
G01X22666601Y5821194D01*
G01X22678031Y5815352D01*
G01X22695049Y5815352D01*
G01X22706479Y5821194D01*
G01X22717909Y5832624D01*
G01X22771503Y5895362D02*
G01X22805793Y5815352D01*
G01X22840083Y5895362D02*
G01X22805793Y5815352D01*
G01X22794363Y5792492D01*
G01X22782933Y5781062D01*
G01X22771503Y5775474D01*
G01X22765661Y5775474D01*
G01X22887835Y5861072D02*
G01X22956415Y5861072D01*
G01X22956415Y5872502D01*
G01X22950827Y5883932D01*
G01X22944985Y5889774D01*
G01X22933555Y5895362D01*
G01X22916537Y5895362D01*
G01X22905107Y5889774D01*
G01X22893677Y5878344D01*
G01X22887835Y5861072D01*
G01X22887835Y5849642D01*
G01X22893677Y5832624D01*
G01X22905107Y5821194D01*
G01X22916537Y5815352D01*
G01X22933555Y5815352D01*
G01X22944985Y5821194D01*
G01X22956415Y5832624D01*
G01X23004167Y5895362D02*
G01X23004167Y5815352D01*
G01X23004167Y5861072D02*
G01X23010009Y5878344D01*
G01X23021439Y5889774D01*
G01X23032869Y5895362D01*
G01X23049887Y5895362D01*
G01X8748054Y5337650D02*
G01X8742466Y5349080D01*
G01X8725194Y5354922D01*
G01X8713764Y5354922D01*
G01X8696746Y5349080D01*
G01X8685316Y5332062D01*
G01X8679474Y5303360D01*
G01X8679474Y5274912D01*
G01X8685316Y5252052D01*
G01X8696746Y5240622D01*
G01X8713764Y5234780D01*
G01X8719606Y5234780D01*
G01X8736624Y5240622D01*
G01X8748054Y5252052D01*
G01X8753896Y5269070D01*
G01X8753896Y5274912D01*
G01X8748054Y5291930D01*
G01X8736624Y5303360D01*
G01X8719606Y5309202D01*
G01X8713764Y5309202D01*
G01X8696746Y5303360D01*
G01X8685316Y5291930D01*
G01X8679474Y5274912D01*
G01X10099479Y5326220D02*
G01X10099479Y5332062D01*
G01X10105067Y5343492D01*
G01X10110909Y5349080D01*
G01X10122339Y5354922D01*
G01X10145199Y5354922D01*
G01X10156629Y5349080D01*
G01X10162217Y5343492D01*
G01X10168059Y5332062D01*
G01X10168059Y5320632D01*
G01X10162217Y5309202D01*
G01X10150787Y5291930D01*
G01X10093637Y5234780D01*
G01X10173647Y5234780D01*
G01X10232829Y5354922D02*
G01X10295821Y5354922D01*
G01X10261531Y5309202D01*
G01X10278549Y5309202D01*
G01X10289979Y5303360D01*
G01X10295821Y5297772D01*
G01X10301409Y5280500D01*
G01X10301409Y5269070D01*
G01X10295821Y5252052D01*
G01X10284391Y5240622D01*
G01X10267119Y5234780D01*
G01X10250101Y5234780D01*
G01X10232829Y5240622D01*
G01X10227241Y5246210D01*
G01X10221399Y5257640D01*
G01X10355003Y5263482D02*
G01X10349161Y5257640D01*
G01X10355003Y5252052D01*
G01X10360591Y5257640D01*
G01X10355003Y5263482D01*
G01X10476923Y5337650D02*
G01X10471335Y5349080D01*
G01X10454063Y5354922D01*
G01X10442633Y5354922D01*
G01X10425615Y5349080D01*
G01X10414185Y5332062D01*
G01X10408343Y5303360D01*
G01X10408343Y5274912D01*
G01X10414185Y5252052D01*
G01X10425615Y5240622D01*
G01X10442633Y5234780D01*
G01X10448475Y5234780D01*
G01X10465493Y5240622D01*
G01X10476923Y5252052D01*
G01X10482765Y5269070D01*
G01X10482765Y5274912D01*
G01X10476923Y5291930D01*
G01X10465493Y5303360D01*
G01X10448475Y5309202D01*
G01X10442633Y5309202D01*
G01X10425615Y5303360D01*
G01X10414185Y5291930D01*
G01X10408343Y5274912D01*
G01X10530517Y5314790D02*
G01X10593509Y5234780D01*
G01X10593509Y5314790D02*
G01X10530517Y5234780D01*
G01X10698411Y5354922D02*
G01X10641261Y5274912D01*
G01X10727113Y5274912D01*
G01X10698411Y5354922D02*
G01X10698411Y5234780D01*
G01X10854875Y5354922D02*
G01X10797725Y5234780D01*
G01X10774865Y5354922D02*
G01X10854875Y5354922D01*
G01X10908469Y5263482D02*
G01X10902627Y5257640D01*
G01X10908469Y5252052D01*
G01X10914057Y5257640D01*
G01X10908469Y5263482D01*
G01X10967651Y5326220D02*
G01X10967651Y5332062D01*
G01X10973239Y5343492D01*
G01X10979081Y5349080D01*
G01X10990511Y5354922D01*
G01X11013371Y5354922D01*
G01X11024801Y5349080D01*
G01X11030389Y5343492D01*
G01X11036231Y5332062D01*
G01X11036231Y5320632D01*
G01X11030389Y5309202D01*
G01X11018959Y5291930D01*
G01X10961809Y5234780D01*
G01X11041819Y5234780D01*
G01X11089571Y5314790D02*
G01X11089571Y5234780D01*
G01X11089571Y5291930D02*
G01X11106843Y5309202D01*
G01X11118273Y5314790D01*
G01X11135291Y5314790D01*
G01X11146721Y5309202D01*
G01X11152563Y5291930D01*
G01X11152563Y5234780D01*
G01X11152563Y5291930D02*
G01X11169581Y5309202D01*
G01X11181011Y5314790D01*
G01X11198283Y5314790D01*
G01X11209713Y5309202D01*
G01X11215301Y5291930D01*
G01X11215301Y5234780D01*
G01X11263053Y5354922D02*
G01X11268895Y5349080D01*
G01X11274483Y5354922D01*
G01X11268895Y5360510D01*
G01X11263053Y5354922D01*
G01X11268895Y5314790D02*
G01X11268895Y5234780D01*
G01X11322235Y5354922D02*
G01X11322235Y5234780D01*
G01X11410119Y5377782D02*
G01X11398689Y5366352D01*
G01X11387259Y5349080D01*
G01X11375829Y5326220D01*
G01X11369987Y5297772D01*
G01X11369987Y5274912D01*
G01X11375829Y5246210D01*
G01X11387259Y5223350D01*
G01X11398689Y5206332D01*
G01X11410119Y5194902D01*
G01X11492161Y5354922D02*
G01X11475143Y5349080D01*
G01X11463713Y5332062D01*
G01X11457871Y5303360D01*
G01X11457871Y5286342D01*
G01X11463713Y5257640D01*
G01X11475143Y5240622D01*
G01X11492161Y5234780D01*
G01X11503591Y5234780D01*
G01X11520863Y5240622D01*
G01X11532293Y5257640D01*
G01X11537881Y5286342D01*
G01X11537881Y5303360D01*
G01X11532293Y5332062D01*
G01X11520863Y5349080D01*
G01X11503591Y5354922D01*
G01X11492161Y5354922D01*
G01X11591475Y5263482D02*
G01X11585633Y5257640D01*
G01X11591475Y5252052D01*
G01X11597063Y5257640D01*
G01X11591475Y5263482D01*
G01X11713395Y5337650D02*
G01X11707807Y5349080D01*
G01X11690535Y5354922D01*
G01X11679105Y5354922D01*
G01X11662087Y5349080D01*
G01X11650657Y5332062D01*
G01X11644815Y5303360D01*
G01X11644815Y5274912D01*
G01X11650657Y5252052D01*
G01X11662087Y5240622D01*
G01X11679105Y5234780D01*
G01X11684947Y5234780D01*
G01X11701965Y5240622D01*
G01X11713395Y5252052D01*
G01X11719237Y5269070D01*
G01X11719237Y5274912D01*
G01X11713395Y5291930D01*
G01X11701965Y5303360D01*
G01X11684947Y5309202D01*
G01X11679105Y5309202D01*
G01X11662087Y5303360D01*
G01X11650657Y5291930D01*
G01X11644815Y5274912D01*
G01X11801279Y5354922D02*
G01X11784261Y5349080D01*
G01X11772831Y5332062D01*
G01X11766989Y5303360D01*
G01X11766989Y5286342D01*
G01X11772831Y5257640D01*
G01X11784261Y5240622D01*
G01X11801279Y5234780D01*
G01X11812709Y5234780D01*
G01X11829981Y5240622D01*
G01X11841411Y5257640D01*
G01X11846999Y5286342D01*
G01X11846999Y5303360D01*
G01X11841411Y5332062D01*
G01X11829981Y5349080D01*
G01X11812709Y5354922D01*
G01X11801279Y5354922D01*
G01X11929041Y5354922D02*
G01X11912023Y5349080D01*
G01X11900593Y5332062D01*
G01X11894751Y5303360D01*
G01X11894751Y5286342D01*
G01X11900593Y5257640D01*
G01X11912023Y5240622D01*
G01X11929041Y5234780D01*
G01X11940471Y5234780D01*
G01X11957743Y5240622D01*
G01X11969173Y5257640D01*
G01X11974761Y5286342D01*
G01X11974761Y5303360D01*
G01X11969173Y5332062D01*
G01X11957743Y5349080D01*
G01X11940471Y5354922D01*
G01X11929041Y5354922D01*
G01X12022513Y5314790D02*
G01X12085505Y5234780D01*
G01X12085505Y5314790D02*
G01X12022513Y5234780D01*
G01X12133257Y5332062D02*
G01X12144687Y5337650D01*
G01X12161959Y5354922D01*
G01X12161959Y5234780D01*
G01X12215553Y5263482D02*
G01X12209711Y5257640D01*
G01X12215553Y5252052D01*
G01X12221141Y5257640D01*
G01X12215553Y5263482D01*
G01X12274735Y5326220D02*
G01X12274735Y5332062D01*
G01X12280323Y5343492D01*
G01X12286165Y5349080D01*
G01X12297595Y5354922D01*
G01X12320455Y5354922D01*
G01X12331885Y5349080D01*
G01X12337473Y5343492D01*
G01X12343315Y5332062D01*
G01X12343315Y5320632D01*
G01X12337473Y5309202D01*
G01X12326043Y5291930D01*
G01X12268893Y5234780D01*
G01X12348903Y5234780D01*
G01X12430945Y5354922D02*
G01X12413927Y5349080D01*
G01X12402497Y5332062D01*
G01X12396655Y5303360D01*
G01X12396655Y5286342D01*
G01X12402497Y5257640D01*
G01X12413927Y5240622D01*
G01X12430945Y5234780D01*
G01X12442375Y5234780D01*
G01X12459647Y5240622D01*
G01X12471077Y5257640D01*
G01X12476665Y5286342D01*
G01X12476665Y5303360D01*
G01X12471077Y5332062D01*
G01X12459647Y5349080D01*
G01X12442375Y5354922D01*
G01X12430945Y5354922D01*
G01X12558707Y5354922D02*
G01X12541689Y5349080D01*
G01X12530259Y5332062D01*
G01X12524417Y5303360D01*
G01X12524417Y5286342D01*
G01X12530259Y5257640D01*
G01X12541689Y5240622D01*
G01X12558707Y5234780D01*
G01X12570137Y5234780D01*
G01X12587409Y5240622D01*
G01X12598839Y5257640D01*
G01X12604427Y5286342D01*
G01X12604427Y5303360D01*
G01X12598839Y5332062D01*
G01X12587409Y5349080D01*
G01X12570137Y5354922D01*
G01X12558707Y5354922D01*
G01X12652179Y5314790D02*
G01X12652179Y5234780D01*
G01X12652179Y5291930D02*
G01X12669451Y5309202D01*
G01X12680881Y5314790D01*
G01X12697899Y5314790D01*
G01X12709329Y5309202D01*
G01X12715171Y5291930D01*
G01X12715171Y5234780D01*
G01X12715171Y5291930D02*
G01X12732189Y5309202D01*
G01X12743619Y5314790D01*
G01X12760891Y5314790D01*
G01X12772321Y5309202D01*
G01X12777909Y5291930D01*
G01X12777909Y5234780D01*
G01X12825661Y5314790D02*
G01X12825661Y5234780D01*
G01X12825661Y5291930D02*
G01X12842933Y5309202D01*
G01X12854363Y5314790D01*
G01X12871381Y5314790D01*
G01X12882811Y5309202D01*
G01X12888653Y5291930D01*
G01X12888653Y5234780D01*
G01X12888653Y5291930D02*
G01X12905671Y5309202D01*
G01X12917101Y5314790D01*
G01X12934373Y5314790D01*
G01X12945803Y5309202D01*
G01X12951391Y5291930D01*
G01X12951391Y5234780D01*
G01X12999143Y5377782D02*
G01X13010573Y5366352D01*
G01X13022003Y5349080D01*
G01X13033433Y5326220D01*
G01X13039275Y5297772D01*
G01X13039275Y5274912D01*
G01X13033433Y5246210D01*
G01X13022003Y5223350D01*
G01X13010573Y5206332D01*
G01X12999143Y5194902D01*
G01X13981761Y5354922D02*
G01X13981761Y5234780D01*
G01X13981761Y5354922D02*
G01X14033323Y5354922D01*
G01X14050341Y5349080D01*
G01X14056183Y5343492D01*
G01X14061771Y5332062D01*
G01X14061771Y5314790D01*
G01X14056183Y5303360D01*
G01X14050341Y5297772D01*
G01X14033323Y5291930D01*
G01X13981761Y5291930D01*
G01X14149655Y5354922D02*
G01X14149655Y5234780D01*
G01X14109523Y5354922D02*
G01X14189533Y5354922D01*
G01X14237285Y5354922D02*
G01X14237285Y5234780D01*
G01X14317295Y5354922D02*
G01X14317295Y5234780D01*
G01X14237285Y5297772D02*
G01X14317295Y5297772D01*
G01X15523178Y5337650D02*
G01X15511748Y5349080D01*
G01X15494730Y5354922D01*
G01X15471870Y5354922D01*
G01X15454598Y5349080D01*
G01X15443168Y5337650D01*
G01X15443168Y5326220D01*
G01X15449010Y5314790D01*
G01X15454598Y5309202D01*
G01X15466028Y5303360D01*
G01X15500318Y5291930D01*
G01X15511748Y5286342D01*
G01X15517590Y5280500D01*
G01X15523178Y5269070D01*
G01X15523178Y5252052D01*
G01X15511748Y5240622D01*
G01X15494730Y5234780D01*
G01X15471870Y5234780D01*
G01X15454598Y5240622D01*
G01X15443168Y5252052D01*
G01X15570930Y5354922D02*
G01X15570930Y5234780D01*
G01X15647384Y5314790D02*
G01X15635954Y5309202D01*
G01X15624524Y5297772D01*
G01X15618682Y5280500D01*
G01X15618682Y5269070D01*
G01X15624524Y5252052D01*
G01X15635954Y5240622D01*
G01X15647384Y5234780D01*
G01X15664402Y5234780D01*
G01X15675832Y5240622D01*
G01X15687262Y5252052D01*
G01X15693104Y5269070D01*
G01X15693104Y5280500D01*
G01X15687262Y5297772D01*
G01X15675832Y5309202D01*
G01X15664402Y5314790D01*
G01X15647384Y5314790D01*
G01X15758128Y5354922D02*
G01X15758128Y5257640D01*
G01X15763716Y5240622D01*
G01X15775146Y5234780D01*
G01X15786576Y5234780D01*
G01X15740856Y5314790D02*
G01X15780988Y5314790D01*
G01X16874349Y5354922D02*
G01X16874349Y5234780D01*
G01X16874349Y5354922D02*
G01X16925911Y5354922D01*
G01X16942929Y5349080D01*
G01X16948771Y5343492D01*
G01X16954359Y5332062D01*
G01X16954359Y5314790D01*
G01X16948771Y5303360D01*
G01X16942929Y5297772D01*
G01X16925911Y5291930D01*
G01X16874349Y5291930D01*
G01X17070691Y5314790D02*
G01X17070691Y5234780D01*
G01X17070691Y5297772D02*
G01X17059261Y5309202D01*
G01X17047831Y5314790D01*
G01X17030813Y5314790D01*
G01X17019383Y5309202D01*
G01X17007953Y5297772D01*
G01X17002111Y5280500D01*
G01X17002111Y5269070D01*
G01X17007953Y5252052D01*
G01X17019383Y5240622D01*
G01X17030813Y5234780D01*
G01X17047831Y5234780D01*
G01X17059261Y5240622D01*
G01X17070691Y5252052D01*
G01X17187023Y5354922D02*
G01X17187023Y5234780D01*
G01X17187023Y5297772D02*
G01X17175593Y5309202D01*
G01X17164163Y5314790D01*
G01X17147145Y5314790D01*
G01X17135715Y5309202D01*
G01X17124285Y5297772D01*
G01X17118443Y5280500D01*
G01X17118443Y5269070D01*
G01X17124285Y5252052D01*
G01X17135715Y5240622D01*
G01X17147145Y5234780D01*
G01X17164163Y5234780D01*
G01X17175593Y5240622D01*
G01X17187023Y5252052D01*
G01X18577818Y5354922D02*
G01X18566388Y5349080D01*
G01X18554958Y5337650D01*
G01X18549370Y5326220D01*
G01X18543528Y5309202D01*
G01X18543528Y5280500D01*
G01X18549370Y5263482D01*
G01X18554958Y5252052D01*
G01X18566388Y5240622D01*
G01X18577818Y5234780D01*
G01X18600678Y5234780D01*
G01X18612108Y5240622D01*
G01X18623538Y5252052D01*
G01X18629380Y5263482D01*
G01X18634968Y5280500D01*
G01X18634968Y5309202D01*
G01X18629380Y5326220D01*
G01X18623538Y5337650D01*
G01X18612108Y5349080D01*
G01X18600678Y5354922D01*
G01X18577818Y5354922D01*
G01X18682720Y5314790D02*
G01X18717010Y5234780D01*
G01X18751300Y5314790D02*
G01X18717010Y5234780D01*
G01X18867632Y5314790D02*
G01X18867632Y5234780D01*
G01X18867632Y5297772D02*
G01X18856202Y5309202D01*
G01X18844772Y5314790D01*
G01X18827754Y5314790D01*
G01X18816324Y5309202D01*
G01X18804894Y5297772D01*
G01X18799052Y5280500D01*
G01X18799052Y5269070D01*
G01X18804894Y5252052D01*
G01X18816324Y5240622D01*
G01X18827754Y5234780D01*
G01X18844772Y5234780D01*
G01X18856202Y5240622D01*
G01X18867632Y5252052D01*
G01X18915384Y5354922D02*
G01X18915384Y5234780D01*
G01X20503029Y5354922D02*
G01X20503029Y5234780D01*
G01X20462897Y5354922D02*
G01X20542907Y5354922D01*
G01X20619361Y5314790D02*
G01X20607931Y5309202D01*
G01X20596501Y5297772D01*
G01X20590659Y5280500D01*
G01X20590659Y5269070D01*
G01X20596501Y5252052D01*
G01X20607931Y5240622D01*
G01X20619361Y5234780D01*
G01X20636379Y5234780D01*
G01X20647809Y5240622D01*
G01X20659239Y5252052D01*
G01X20665081Y5269070D01*
G01X20665081Y5280500D01*
G01X20659239Y5297772D01*
G01X20647809Y5309202D01*
G01X20636379Y5314790D01*
G01X20619361Y5314790D01*
G01X20712833Y5314790D02*
G01X20712833Y5194902D01*
G01X20712833Y5297772D02*
G01X20724263Y5309202D01*
G01X20735693Y5314790D01*
G01X20752965Y5314790D01*
G01X20764395Y5309202D01*
G01X20775825Y5297772D01*
G01X20781413Y5280500D01*
G01X20781413Y5269070D01*
G01X20775825Y5252052D01*
G01X20764395Y5240622D01*
G01X20752965Y5234780D01*
G01X20735693Y5234780D01*
G01X20724263Y5240622D01*
G01X20712833Y5252052D01*
G01X20957181Y5354922D02*
G01X20957181Y5234780D01*
G01X20957181Y5234780D02*
G01X21025761Y5234780D01*
G01X21142093Y5314790D02*
G01X21142093Y5234780D01*
G01X21142093Y5297772D02*
G01X21130663Y5309202D01*
G01X21119233Y5314790D01*
G01X21102215Y5314790D01*
G01X21090785Y5309202D01*
G01X21079355Y5297772D01*
G01X21073513Y5280500D01*
G01X21073513Y5269070D01*
G01X21079355Y5252052D01*
G01X21090785Y5240622D01*
G01X21102215Y5234780D01*
G01X21119233Y5234780D01*
G01X21130663Y5240622D01*
G01X21142093Y5252052D01*
G01X21195687Y5314790D02*
G01X21229977Y5234780D01*
G01X21264267Y5314790D02*
G01X21229977Y5234780D01*
G01X21218547Y5211920D01*
G01X21207117Y5200490D01*
G01X21195687Y5194902D01*
G01X21189845Y5194902D01*
G01X21312019Y5280500D02*
G01X21380599Y5280500D01*
G01X21380599Y5291930D01*
G01X21375011Y5303360D01*
G01X21369169Y5309202D01*
G01X21357739Y5314790D01*
G01X21340721Y5314790D01*
G01X21329291Y5309202D01*
G01X21317861Y5297772D01*
G01X21312019Y5280500D01*
G01X21312019Y5269070D01*
G01X21317861Y5252052D01*
G01X21329291Y5240622D01*
G01X21340721Y5234780D01*
G01X21357739Y5234780D01*
G01X21369169Y5240622D01*
G01X21380599Y5252052D01*
G01X21428351Y5314790D02*
G01X21428351Y5234780D01*
G01X21428351Y5280500D02*
G01X21434193Y5297772D01*
G01X21445623Y5309202D01*
G01X21457053Y5314790D01*
G01X21474071Y5314790D01*
G01X21521823Y5286342D02*
G01X21624693Y5286342D01*
G01X21672445Y5354922D02*
G01X21672445Y5234780D01*
G01X21672445Y5354922D02*
G01X21724007Y5354922D01*
G01X21741025Y5349080D01*
G01X21746867Y5343492D01*
G01X21752455Y5332062D01*
G01X21752455Y5320632D01*
G01X21746867Y5309202D01*
G01X21741025Y5303360D01*
G01X21724007Y5297772D01*
G01X21672445Y5297772D02*
G01X21724007Y5297772D01*
G01X21741025Y5291930D01*
G01X21746867Y5286342D01*
G01X21752455Y5274912D01*
G01X21752455Y5257640D01*
G01X21746867Y5246210D01*
G01X21741025Y5240622D01*
G01X21724007Y5234780D01*
G01X21672445Y5234780D01*
G01X21828909Y5314790D02*
G01X21817479Y5309202D01*
G01X21806049Y5297772D01*
G01X21800207Y5280500D01*
G01X21800207Y5269070D01*
G01X21806049Y5252052D01*
G01X21817479Y5240622D01*
G01X21828909Y5234780D01*
G01X21845927Y5234780D01*
G01X21857357Y5240622D01*
G01X21868787Y5252052D01*
G01X21874629Y5269070D01*
G01X21874629Y5280500D01*
G01X21868787Y5297772D01*
G01X21857357Y5309202D01*
G01X21845927Y5314790D01*
G01X21828909Y5314790D01*
G01X21939653Y5354922D02*
G01X21939653Y5257640D01*
G01X21945241Y5240622D01*
G01X21956671Y5234780D01*
G01X21968101Y5234780D01*
G01X21922381Y5314790D02*
G01X21962513Y5314790D01*
G01X22033125Y5354922D02*
G01X22033125Y5257640D01*
G01X22038713Y5240622D01*
G01X22050143Y5234780D01*
G01X22061573Y5234780D01*
G01X22015853Y5314790D02*
G01X22055985Y5314790D01*
G01X22138027Y5314790D02*
G01X22126597Y5309202D01*
G01X22115167Y5297772D01*
G01X22109325Y5280500D01*
G01X22109325Y5269070D01*
G01X22115167Y5252052D01*
G01X22126597Y5240622D01*
G01X22138027Y5234780D01*
G01X22155045Y5234780D01*
G01X22166475Y5240622D01*
G01X22177905Y5252052D01*
G01X22183747Y5269070D01*
G01X22183747Y5280500D01*
G01X22177905Y5297772D01*
G01X22166475Y5309202D01*
G01X22155045Y5314790D01*
G01X22138027Y5314790D01*
G01X22231499Y5314790D02*
G01X22231499Y5234780D01*
G01X22231499Y5291930D02*
G01X22248771Y5309202D01*
G01X22260201Y5314790D01*
G01X22277219Y5314790D01*
G01X22288649Y5309202D01*
G01X22294491Y5291930D01*
G01X22294491Y5234780D01*
G01X22294491Y5291930D02*
G01X22311509Y5309202D01*
G01X22322939Y5314790D01*
G01X22340211Y5314790D01*
G01X22351641Y5309202D01*
G01X22357229Y5291930D01*
G01X22357229Y5234780D01*
G01X22532997Y5354922D02*
G01X22532997Y5234780D01*
G01X22532997Y5234780D02*
G01X22601577Y5234780D01*
G01X22717909Y5314790D02*
G01X22717909Y5234780D01*
G01X22717909Y5297772D02*
G01X22706479Y5309202D01*
G01X22695049Y5314790D01*
G01X22678031Y5314790D01*
G01X22666601Y5309202D01*
G01X22655171Y5297772D01*
G01X22649329Y5280500D01*
G01X22649329Y5269070D01*
G01X22655171Y5252052D01*
G01X22666601Y5240622D01*
G01X22678031Y5234780D01*
G01X22695049Y5234780D01*
G01X22706479Y5240622D01*
G01X22717909Y5252052D01*
G01X22771503Y5314790D02*
G01X22805793Y5234780D01*
G01X22840083Y5314790D02*
G01X22805793Y5234780D01*
G01X22794363Y5211920D01*
G01X22782933Y5200490D01*
G01X22771503Y5194902D01*
G01X22765661Y5194902D01*
G01X22887835Y5280500D02*
G01X22956415Y5280500D01*
G01X22956415Y5291930D01*
G01X22950827Y5303360D01*
G01X22944985Y5309202D01*
G01X22933555Y5314790D01*
G01X22916537Y5314790D01*
G01X22905107Y5309202D01*
G01X22893677Y5297772D01*
G01X22887835Y5280500D01*
G01X22887835Y5269070D01*
G01X22893677Y5252052D01*
G01X22905107Y5240622D01*
G01X22916537Y5234780D01*
G01X22933555Y5234780D01*
G01X22944985Y5240622D01*
G01X22956415Y5252052D01*
G01X23004167Y5314790D02*
G01X23004167Y5234780D01*
G01X23004167Y5280500D02*
G01X23010009Y5297772D01*
G01X23021439Y5309202D01*
G01X23032869Y5314790D01*
G01X23049887Y5314790D01*
G01X8748054Y4757079D02*
G01X8742466Y4768509D01*
G01X8725194Y4774351D01*
G01X8713764Y4774351D01*
G01X8696746Y4768509D01*
G01X8685316Y4751491D01*
G01X8679474Y4722789D01*
G01X8679474Y4694341D01*
G01X8685316Y4671481D01*
G01X8696746Y4660051D01*
G01X8713764Y4654209D01*
G01X8719606Y4654209D01*
G01X8736624Y4660051D01*
G01X8748054Y4671481D01*
G01X8753896Y4688499D01*
G01X8753896Y4694341D01*
G01X8748054Y4711359D01*
G01X8736624Y4722789D01*
G01X8719606Y4728631D01*
G01X8713764Y4728631D01*
G01X8696746Y4722789D01*
G01X8685316Y4711359D01*
G01X8679474Y4694341D01*
G01X10099479Y4745649D02*
G01X10099479Y4751491D01*
G01X10105067Y4762921D01*
G01X10110909Y4768509D01*
G01X10122339Y4774351D01*
G01X10145199Y4774351D01*
G01X10156629Y4768509D01*
G01X10162217Y4762921D01*
G01X10168059Y4751491D01*
G01X10168059Y4740061D01*
G01X10162217Y4728631D01*
G01X10150787Y4711359D01*
G01X10093637Y4654209D01*
G01X10173647Y4654209D01*
G01X10301409Y4774351D02*
G01X10244259Y4654209D01*
G01X10221399Y4774351D02*
G01X10301409Y4774351D01*
G01X10355003Y4682911D02*
G01X10349161Y4677069D01*
G01X10355003Y4671481D01*
G01X10360591Y4677069D01*
G01X10355003Y4682911D01*
G01X10476923Y4757079D02*
G01X10471335Y4768509D01*
G01X10454063Y4774351D01*
G01X10442633Y4774351D01*
G01X10425615Y4768509D01*
G01X10414185Y4751491D01*
G01X10408343Y4722789D01*
G01X10408343Y4694341D01*
G01X10414185Y4671481D01*
G01X10425615Y4660051D01*
G01X10442633Y4654209D01*
G01X10448475Y4654209D01*
G01X10465493Y4660051D01*
G01X10476923Y4671481D01*
G01X10482765Y4688499D01*
G01X10482765Y4694341D01*
G01X10476923Y4711359D01*
G01X10465493Y4722789D01*
G01X10448475Y4728631D01*
G01X10442633Y4728631D01*
G01X10425615Y4722789D01*
G01X10414185Y4711359D01*
G01X10408343Y4694341D01*
G01X10530517Y4734219D02*
G01X10530517Y4654209D01*
G01X10530517Y4711359D02*
G01X10547789Y4728631D01*
G01X10559219Y4734219D01*
G01X10576237Y4734219D01*
G01X10587667Y4728631D01*
G01X10593509Y4711359D01*
G01X10593509Y4654209D01*
G01X10593509Y4711359D02*
G01X10610527Y4728631D01*
G01X10621957Y4734219D01*
G01X10639229Y4734219D01*
G01X10650659Y4728631D01*
G01X10656247Y4711359D01*
G01X10656247Y4654209D01*
G01X10703999Y4774351D02*
G01X10709841Y4768509D01*
G01X10715429Y4774351D01*
G01X10709841Y4779939D01*
G01X10703999Y4774351D01*
G01X10709841Y4734219D02*
G01X10709841Y4654209D01*
G01X10763181Y4774351D02*
G01X10763181Y4654209D01*
G01X10851065Y4797211D02*
G01X10839635Y4785781D01*
G01X10828205Y4768509D01*
G01X10816775Y4745649D01*
G01X10810933Y4717201D01*
G01X10810933Y4694341D01*
G01X10816775Y4665639D01*
G01X10828205Y4642779D01*
G01X10839635Y4625761D01*
G01X10851065Y4614331D01*
G01X10933107Y4774351D02*
G01X10916089Y4768509D01*
G01X10904659Y4751491D01*
G01X10898817Y4722789D01*
G01X10898817Y4705771D01*
G01X10904659Y4677069D01*
G01X10916089Y4660051D01*
G01X10933107Y4654209D01*
G01X10944537Y4654209D01*
G01X10961809Y4660051D01*
G01X10973239Y4677069D01*
G01X10978827Y4705771D01*
G01X10978827Y4722789D01*
G01X10973239Y4751491D01*
G01X10961809Y4768509D01*
G01X10944537Y4774351D01*
G01X10933107Y4774351D01*
G01X11032421Y4682911D02*
G01X11026579Y4677069D01*
G01X11032421Y4671481D01*
G01X11038009Y4677069D01*
G01X11032421Y4682911D01*
G01X11165771Y4774351D02*
G01X11108621Y4654209D01*
G01X11085761Y4774351D02*
G01X11165771Y4774351D01*
G01X11247813Y4774351D02*
G01X11230795Y4768509D01*
G01X11219365Y4751491D01*
G01X11213523Y4722789D01*
G01X11213523Y4705771D01*
G01X11219365Y4677069D01*
G01X11230795Y4660051D01*
G01X11247813Y4654209D01*
G01X11259243Y4654209D01*
G01X11276515Y4660051D01*
G01X11287945Y4677069D01*
G01X11293533Y4705771D01*
G01X11293533Y4722789D01*
G01X11287945Y4751491D01*
G01X11276515Y4768509D01*
G01X11259243Y4774351D01*
G01X11247813Y4774351D01*
G01X11375575Y4774351D02*
G01X11358557Y4768509D01*
G01X11347127Y4751491D01*
G01X11341285Y4722789D01*
G01X11341285Y4705771D01*
G01X11347127Y4677069D01*
G01X11358557Y4660051D01*
G01X11375575Y4654209D01*
G01X11387005Y4654209D01*
G01X11404277Y4660051D01*
G01X11415707Y4677069D01*
G01X11421295Y4705771D01*
G01X11421295Y4722789D01*
G01X11415707Y4751491D01*
G01X11404277Y4768509D01*
G01X11387005Y4774351D01*
G01X11375575Y4774351D01*
G01X11469047Y4734219D02*
G01X11469047Y4654209D01*
G01X11469047Y4711359D02*
G01X11486319Y4728631D01*
G01X11497749Y4734219D01*
G01X11514767Y4734219D01*
G01X11526197Y4728631D01*
G01X11532039Y4711359D01*
G01X11532039Y4654209D01*
G01X11532039Y4711359D02*
G01X11549057Y4728631D01*
G01X11560487Y4734219D01*
G01X11577759Y4734219D01*
G01X11589189Y4728631D01*
G01X11594777Y4711359D01*
G01X11594777Y4654209D01*
G01X11642529Y4734219D02*
G01X11642529Y4654209D01*
G01X11642529Y4711359D02*
G01X11659801Y4728631D01*
G01X11671231Y4734219D01*
G01X11688249Y4734219D01*
G01X11699679Y4728631D01*
G01X11705521Y4711359D01*
G01X11705521Y4654209D01*
G01X11705521Y4711359D02*
G01X11722539Y4728631D01*
G01X11733969Y4734219D01*
G01X11751241Y4734219D01*
G01X11762671Y4728631D01*
G01X11768259Y4711359D01*
G01X11768259Y4654209D01*
G01X11816011Y4797211D02*
G01X11827441Y4785781D01*
G01X11838871Y4768509D01*
G01X11850301Y4745649D01*
G01X11856143Y4717201D01*
G01X11856143Y4694341D01*
G01X11850301Y4665639D01*
G01X11838871Y4642779D01*
G01X11827441Y4625761D01*
G01X11816011Y4614331D01*
G01X13981761Y4774351D02*
G01X13981761Y4654209D01*
G01X13981761Y4774351D02*
G01X14061771Y4654209D01*
G01X14061771Y4774351D02*
G01X14061771Y4654209D01*
G01X14109523Y4774351D02*
G01X14109523Y4654209D01*
G01X14109523Y4774351D02*
G01X14161085Y4774351D01*
G01X14178103Y4768509D01*
G01X14183945Y4762921D01*
G01X14189533Y4751491D01*
G01X14189533Y4734219D01*
G01X14183945Y4722789D01*
G01X14178103Y4717201D01*
G01X14161085Y4711359D01*
G01X14109523Y4711359D01*
G01X14277417Y4774351D02*
G01X14277417Y4654209D01*
G01X14237285Y4774351D02*
G01X14317295Y4774351D01*
G01X14365047Y4774351D02*
G01X14365047Y4654209D01*
G01X14445057Y4774351D02*
G01X14445057Y4654209D01*
G01X14365047Y4717201D02*
G01X14445057Y4717201D01*
G01X15443168Y4774351D02*
G01X15443168Y4654209D01*
G01X15443168Y4774351D02*
G01X15494730Y4774351D01*
G01X15511748Y4768509D01*
G01X15517590Y4762921D01*
G01X15523178Y4751491D01*
G01X15523178Y4740061D01*
G01X15517590Y4728631D01*
G01X15511748Y4722789D01*
G01X15494730Y4717201D01*
G01X15443168Y4717201D01*
G01X15483300Y4717201D02*
G01X15523178Y4654209D01*
G01X15599632Y4734219D02*
G01X15588202Y4728631D01*
G01X15576772Y4717201D01*
G01X15570930Y4699929D01*
G01X15570930Y4688499D01*
G01X15576772Y4671481D01*
G01X15588202Y4660051D01*
G01X15599632Y4654209D01*
G01X15616650Y4654209D01*
G01X15628080Y4660051D01*
G01X15639510Y4671481D01*
G01X15645352Y4688499D01*
G01X15645352Y4699929D01*
G01X15639510Y4717201D01*
G01X15628080Y4728631D01*
G01X15616650Y4734219D01*
G01X15599632Y4734219D01*
G01X15693104Y4734219D02*
G01X15693104Y4677069D01*
G01X15698946Y4660051D01*
G01X15710376Y4654209D01*
G01X15727394Y4654209D01*
G01X15738824Y4660051D01*
G01X15756096Y4677069D01*
G01X15756096Y4734219D02*
G01X15756096Y4654209D01*
G01X15803848Y4734219D02*
G01X15803848Y4654209D01*
G01X15803848Y4711359D02*
G01X15821120Y4728631D01*
G01X15832550Y4734219D01*
G01X15849568Y4734219D01*
G01X15860998Y4728631D01*
G01X15866840Y4711359D01*
G01X15866840Y4654209D01*
G01X15983172Y4774351D02*
G01X15983172Y4654209D01*
G01X15983172Y4717201D02*
G01X15971742Y4728631D01*
G01X15960312Y4734219D01*
G01X15943294Y4734219D01*
G01X15931864Y4728631D01*
G01X15920434Y4717201D01*
G01X15914592Y4699929D01*
G01X15914592Y4688499D01*
G01X15920434Y4671481D01*
G01X15931864Y4660051D01*
G01X15943294Y4654209D01*
G01X15960312Y4654209D01*
G01X15971742Y4660051D01*
G01X15983172Y4671481D01*
G01X16874349Y4774351D02*
G01X16920069Y4654209D01*
G01X16965789Y4774351D02*
G01X16920069Y4654209D01*
G01X17013541Y4774351D02*
G01X17019383Y4768509D01*
G01X17024971Y4774351D01*
G01X17019383Y4779939D01*
G01X17013541Y4774351D01*
G01X17019383Y4734219D02*
G01X17019383Y4654209D01*
G01X17141303Y4734219D02*
G01X17141303Y4654209D01*
G01X17141303Y4717201D02*
G01X17129873Y4728631D01*
G01X17118443Y4734219D01*
G01X17101425Y4734219D01*
G01X17089995Y4728631D01*
G01X17078565Y4717201D01*
G01X17072723Y4699929D01*
G01X17072723Y4688499D01*
G01X17078565Y4671481D01*
G01X17089995Y4660051D01*
G01X17101425Y4654209D01*
G01X17118443Y4654209D01*
G01X17129873Y4660051D01*
G01X17141303Y4671481D01*
G01X20503029Y4774351D02*
G01X20503029Y4654209D01*
G01X20462897Y4774351D02*
G01X20542907Y4774351D01*
G01X20619361Y4734219D02*
G01X20607931Y4728631D01*
G01X20596501Y4717201D01*
G01X20590659Y4699929D01*
G01X20590659Y4688499D01*
G01X20596501Y4671481D01*
G01X20607931Y4660051D01*
G01X20619361Y4654209D01*
G01X20636379Y4654209D01*
G01X20647809Y4660051D01*
G01X20659239Y4671481D01*
G01X20665081Y4688499D01*
G01X20665081Y4699929D01*
G01X20659239Y4717201D01*
G01X20647809Y4728631D01*
G01X20636379Y4734219D01*
G01X20619361Y4734219D01*
G01X20712833Y4734219D02*
G01X20712833Y4614331D01*
G01X20712833Y4717201D02*
G01X20724263Y4728631D01*
G01X20735693Y4734219D01*
G01X20752965Y4734219D01*
G01X20764395Y4728631D01*
G01X20775825Y4717201D01*
G01X20781413Y4699929D01*
G01X20781413Y4688499D01*
G01X20775825Y4671481D01*
G01X20764395Y4660051D01*
G01X20752965Y4654209D01*
G01X20735693Y4654209D01*
G01X20724263Y4660051D01*
G01X20712833Y4671481D01*
G01X20957181Y4774351D02*
G01X20957181Y4654209D01*
G01X20957181Y4654209D02*
G01X21025761Y4654209D01*
G01X21142093Y4734219D02*
G01X21142093Y4654209D01*
G01X21142093Y4717201D02*
G01X21130663Y4728631D01*
G01X21119233Y4734219D01*
G01X21102215Y4734219D01*
G01X21090785Y4728631D01*
G01X21079355Y4717201D01*
G01X21073513Y4699929D01*
G01X21073513Y4688499D01*
G01X21079355Y4671481D01*
G01X21090785Y4660051D01*
G01X21102215Y4654209D01*
G01X21119233Y4654209D01*
G01X21130663Y4660051D01*
G01X21142093Y4671481D01*
G01X21195687Y4734219D02*
G01X21229977Y4654209D01*
G01X21264267Y4734219D02*
G01X21229977Y4654209D01*
G01X21218547Y4631349D01*
G01X21207117Y4619919D01*
G01X21195687Y4614331D01*
G01X21189845Y4614331D01*
G01X21312019Y4699929D02*
G01X21380599Y4699929D01*
G01X21380599Y4711359D01*
G01X21375011Y4722789D01*
G01X21369169Y4728631D01*
G01X21357739Y4734219D01*
G01X21340721Y4734219D01*
G01X21329291Y4728631D01*
G01X21317861Y4717201D01*
G01X21312019Y4699929D01*
G01X21312019Y4688499D01*
G01X21317861Y4671481D01*
G01X21329291Y4660051D01*
G01X21340721Y4654209D01*
G01X21357739Y4654209D01*
G01X21369169Y4660051D01*
G01X21380599Y4671481D01*
G01X21428351Y4734219D02*
G01X21428351Y4654209D01*
G01X21428351Y4699929D02*
G01X21434193Y4717201D01*
G01X21445623Y4728631D01*
G01X21457053Y4734219D01*
G01X21474071Y4734219D01*
G01X21521823Y4705771D02*
G01X21624693Y4705771D01*
G01X21672445Y4774351D02*
G01X21672445Y4654209D01*
G01X21672445Y4774351D02*
G01X21724007Y4774351D01*
G01X21741025Y4768509D01*
G01X21746867Y4762921D01*
G01X21752455Y4751491D01*
G01X21752455Y4740061D01*
G01X21746867Y4728631D01*
G01X21741025Y4722789D01*
G01X21724007Y4717201D01*
G01X21672445Y4717201D02*
G01X21724007Y4717201D01*
G01X21741025Y4711359D01*
G01X21746867Y4705771D01*
G01X21752455Y4694341D01*
G01X21752455Y4677069D01*
G01X21746867Y4665639D01*
G01X21741025Y4660051D01*
G01X21724007Y4654209D01*
G01X21672445Y4654209D01*
G01X21828909Y4734219D02*
G01X21817479Y4728631D01*
G01X21806049Y4717201D01*
G01X21800207Y4699929D01*
G01X21800207Y4688499D01*
G01X21806049Y4671481D01*
G01X21817479Y4660051D01*
G01X21828909Y4654209D01*
G01X21845927Y4654209D01*
G01X21857357Y4660051D01*
G01X21868787Y4671481D01*
G01X21874629Y4688499D01*
G01X21874629Y4699929D01*
G01X21868787Y4717201D01*
G01X21857357Y4728631D01*
G01X21845927Y4734219D01*
G01X21828909Y4734219D01*
G01X21939653Y4774351D02*
G01X21939653Y4677069D01*
G01X21945241Y4660051D01*
G01X21956671Y4654209D01*
G01X21968101Y4654209D01*
G01X21922381Y4734219D02*
G01X21962513Y4734219D01*
G01X22033125Y4774351D02*
G01X22033125Y4677069D01*
G01X22038713Y4660051D01*
G01X22050143Y4654209D01*
G01X22061573Y4654209D01*
G01X22015853Y4734219D02*
G01X22055985Y4734219D01*
G01X22138027Y4734219D02*
G01X22126597Y4728631D01*
G01X22115167Y4717201D01*
G01X22109325Y4699929D01*
G01X22109325Y4688499D01*
G01X22115167Y4671481D01*
G01X22126597Y4660051D01*
G01X22138027Y4654209D01*
G01X22155045Y4654209D01*
G01X22166475Y4660051D01*
G01X22177905Y4671481D01*
G01X22183747Y4688499D01*
G01X22183747Y4699929D01*
G01X22177905Y4717201D01*
G01X22166475Y4728631D01*
G01X22155045Y4734219D01*
G01X22138027Y4734219D01*
G01X22231499Y4734219D02*
G01X22231499Y4654209D01*
G01X22231499Y4711359D02*
G01X22248771Y4728631D01*
G01X22260201Y4734219D01*
G01X22277219Y4734219D01*
G01X22288649Y4728631D01*
G01X22294491Y4711359D01*
G01X22294491Y4654209D01*
G01X22294491Y4711359D02*
G01X22311509Y4728631D01*
G01X22322939Y4734219D01*
G01X22340211Y4734219D01*
G01X22351641Y4728631D01*
G01X22357229Y4711359D01*
G01X22357229Y4654209D01*
G01X22532997Y4774351D02*
G01X22532997Y4654209D01*
G01X22532997Y4654209D02*
G01X22601577Y4654209D01*
G01X22717909Y4734219D02*
G01X22717909Y4654209D01*
G01X22717909Y4717201D02*
G01X22706479Y4728631D01*
G01X22695049Y4734219D01*
G01X22678031Y4734219D01*
G01X22666601Y4728631D01*
G01X22655171Y4717201D01*
G01X22649329Y4699929D01*
G01X22649329Y4688499D01*
G01X22655171Y4671481D01*
G01X22666601Y4660051D01*
G01X22678031Y4654209D01*
G01X22695049Y4654209D01*
G01X22706479Y4660051D01*
G01X22717909Y4671481D01*
G01X22771503Y4734219D02*
G01X22805793Y4654209D01*
G01X22840083Y4734219D02*
G01X22805793Y4654209D01*
G01X22794363Y4631349D01*
G01X22782933Y4619919D01*
G01X22771503Y4614331D01*
G01X22765661Y4614331D01*
G01X22887835Y4699929D02*
G01X22956415Y4699929D01*
G01X22956415Y4711359D01*
G01X22950827Y4722789D01*
G01X22944985Y4728631D01*
G01X22933555Y4734219D01*
G01X22916537Y4734219D01*
G01X22905107Y4728631D01*
G01X22893677Y4717201D01*
G01X22887835Y4699929D01*
G01X22887835Y4688499D01*
G01X22893677Y4671481D01*
G01X22905107Y4660051D01*
G01X22916537Y4654209D01*
G01X22933555Y4654209D01*
G01X22944985Y4660051D01*
G01X22956415Y4671481D01*
G01X23004167Y4734219D02*
G01X23004167Y4654209D01*
G01X23004167Y4699929D02*
G01X23010009Y4717201D01*
G01X23021439Y4728631D01*
G01X23032869Y4734219D01*
G01X23049887Y4734219D01*
G01X8685316Y4165077D02*
G01X8685316Y4170919D01*
G01X8690904Y4182349D01*
G01X8696746Y4187937D01*
G01X8708176Y4193779D01*
G01X8731036Y4193779D01*
G01X8742466Y4187937D01*
G01X8748054Y4182349D01*
G01X8753896Y4170919D01*
G01X8753896Y4159489D01*
G01X8748054Y4148059D01*
G01X8736624Y4130787D01*
G01X8679474Y4073637D01*
G01X8759484Y4073637D01*
G01X8818666Y4193779D02*
G01X8881658Y4193779D01*
G01X8847368Y4148059D01*
G01X8864386Y4148059D01*
G01X8875816Y4142217D01*
G01X8881658Y4136629D01*
G01X8887246Y4119357D01*
G01X8887246Y4107927D01*
G01X8881658Y4090909D01*
G01X8870228Y4079479D01*
G01X8852956Y4073637D01*
G01X8835938Y4073637D01*
G01X8818666Y4079479D01*
G01X8813078Y4085067D01*
G01X8807236Y4096497D01*
G01X10093637Y4170919D02*
G01X10105067Y4176507D01*
G01X10122339Y4193779D01*
G01X10122339Y4073637D01*
G01X10175933Y4165077D02*
G01X10175933Y4170919D01*
G01X10181521Y4182349D01*
G01X10187363Y4187937D01*
G01X10198793Y4193779D01*
G01X10221653Y4193779D01*
G01X10233083Y4187937D01*
G01X10238671Y4182349D01*
G01X10244513Y4170919D01*
G01X10244513Y4159489D01*
G01X10238671Y4148059D01*
G01X10227241Y4130787D01*
G01X10170091Y4073637D01*
G01X10250101Y4073637D01*
G01X10303695Y4102339D02*
G01X10297853Y4096497D01*
G01X10303695Y4090909D01*
G01X10309283Y4096497D01*
G01X10303695Y4102339D01*
G01X10391325Y4193779D02*
G01X10374307Y4187937D01*
G01X10362877Y4170919D01*
G01X10357035Y4142217D01*
G01X10357035Y4125199D01*
G01X10362877Y4096497D01*
G01X10374307Y4079479D01*
G01X10391325Y4073637D01*
G01X10402755Y4073637D01*
G01X10420027Y4079479D01*
G01X10431457Y4096497D01*
G01X10437045Y4125199D01*
G01X10437045Y4142217D01*
G01X10431457Y4170919D01*
G01X10420027Y4187937D01*
G01X10402755Y4193779D01*
G01X10391325Y4193779D01*
G01X10484797Y4153647D02*
G01X10484797Y4073637D01*
G01X10484797Y4130787D02*
G01X10502069Y4148059D01*
G01X10513499Y4153647D01*
G01X10530517Y4153647D01*
G01X10541947Y4148059D01*
G01X10547789Y4130787D01*
G01X10547789Y4073637D01*
G01X10547789Y4130787D02*
G01X10564807Y4148059D01*
G01X10576237Y4153647D01*
G01X10593509Y4153647D01*
G01X10604939Y4148059D01*
G01X10610527Y4130787D01*
G01X10610527Y4073637D01*
G01X10658279Y4193779D02*
G01X10664121Y4187937D01*
G01X10669709Y4193779D01*
G01X10664121Y4199367D01*
G01X10658279Y4193779D01*
G01X10664121Y4153647D02*
G01X10664121Y4073637D01*
G01X10717461Y4193779D02*
G01X10717461Y4073637D01*
G01X10805345Y4216639D02*
G01X10793915Y4205209D01*
G01X10782485Y4187937D01*
G01X10771055Y4165077D01*
G01X10765213Y4136629D01*
G01X10765213Y4113769D01*
G01X10771055Y4085067D01*
G01X10782485Y4062207D01*
G01X10793915Y4045189D01*
G01X10805345Y4033759D01*
G01X10887387Y4193779D02*
G01X10870369Y4187937D01*
G01X10858939Y4170919D01*
G01X10853097Y4142217D01*
G01X10853097Y4125199D01*
G01X10858939Y4096497D01*
G01X10870369Y4079479D01*
G01X10887387Y4073637D01*
G01X10898817Y4073637D01*
G01X10916089Y4079479D01*
G01X10927519Y4096497D01*
G01X10933107Y4125199D01*
G01X10933107Y4142217D01*
G01X10927519Y4170919D01*
G01X10916089Y4187937D01*
G01X10898817Y4193779D01*
G01X10887387Y4193779D01*
G01X10986701Y4102339D02*
G01X10980859Y4096497D01*
G01X10986701Y4090909D01*
G01X10992289Y4096497D01*
G01X10986701Y4102339D01*
G01X11051471Y4193779D02*
G01X11114463Y4193779D01*
G01X11080173Y4148059D01*
G01X11097191Y4148059D01*
G01X11108621Y4142217D01*
G01X11114463Y4136629D01*
G01X11120051Y4119357D01*
G01X11120051Y4107927D01*
G01X11114463Y4090909D01*
G01X11103033Y4079479D01*
G01X11085761Y4073637D01*
G01X11068743Y4073637D01*
G01X11051471Y4079479D01*
G01X11045883Y4085067D01*
G01X11040041Y4096497D01*
G01X11202093Y4193779D02*
G01X11185075Y4187937D01*
G01X11173645Y4170919D01*
G01X11167803Y4142217D01*
G01X11167803Y4125199D01*
G01X11173645Y4096497D01*
G01X11185075Y4079479D01*
G01X11202093Y4073637D01*
G01X11213523Y4073637D01*
G01X11230795Y4079479D01*
G01X11242225Y4096497D01*
G01X11247813Y4125199D01*
G01X11247813Y4142217D01*
G01X11242225Y4170919D01*
G01X11230795Y4187937D01*
G01X11213523Y4193779D01*
G01X11202093Y4193779D01*
G01X11364145Y4193779D02*
G01X11306995Y4193779D01*
G01X11301407Y4142217D01*
G01X11306995Y4148059D01*
G01X11324267Y4153647D01*
G01X11341285Y4153647D01*
G01X11358557Y4148059D01*
G01X11369987Y4136629D01*
G01X11375575Y4119357D01*
G01X11375575Y4107927D01*
G01X11369987Y4090909D01*
G01X11358557Y4079479D01*
G01X11341285Y4073637D01*
G01X11324267Y4073637D01*
G01X11306995Y4079479D01*
G01X11301407Y4085067D01*
G01X11295565Y4096497D01*
G01X11423327Y4153647D02*
G01X11423327Y4073637D01*
G01X11423327Y4130787D02*
G01X11440599Y4148059D01*
G01X11452029Y4153647D01*
G01X11469047Y4153647D01*
G01X11480477Y4148059D01*
G01X11486319Y4130787D01*
G01X11486319Y4073637D01*
G01X11486319Y4130787D02*
G01X11503337Y4148059D01*
G01X11514767Y4153647D01*
G01X11532039Y4153647D01*
G01X11543469Y4148059D01*
G01X11549057Y4130787D01*
G01X11549057Y4073637D01*
G01X11596809Y4153647D02*
G01X11596809Y4073637D01*
G01X11596809Y4130787D02*
G01X11614081Y4148059D01*
G01X11625511Y4153647D01*
G01X11642529Y4153647D01*
G01X11653959Y4148059D01*
G01X11659801Y4130787D01*
G01X11659801Y4073637D01*
G01X11659801Y4130787D02*
G01X11676819Y4148059D01*
G01X11688249Y4153647D01*
G01X11705521Y4153647D01*
G01X11716951Y4148059D01*
G01X11722539Y4130787D01*
G01X11722539Y4073637D01*
G01X11770291Y4216639D02*
G01X11781721Y4205209D01*
G01X11793151Y4187937D01*
G01X11804581Y4165077D01*
G01X11810423Y4136629D01*
G01X11810423Y4113769D01*
G01X11804581Y4085067D01*
G01X11793151Y4062207D01*
G01X11781721Y4045189D01*
G01X11770291Y4033759D01*
G01X13981761Y4193779D02*
G01X13981761Y4073637D01*
G01X13981761Y4193779D02*
G01X14033323Y4193779D01*
G01X14050341Y4187937D01*
G01X14056183Y4182349D01*
G01X14061771Y4170919D01*
G01X14061771Y4153647D01*
G01X14056183Y4142217D01*
G01X14050341Y4136629D01*
G01X14033323Y4130787D01*
G01X13981761Y4130787D01*
G01X14149655Y4193779D02*
G01X14149655Y4073637D01*
G01X14109523Y4193779D02*
G01X14189533Y4193779D01*
G01X14237285Y4193779D02*
G01X14237285Y4073637D01*
G01X14317295Y4193779D02*
G01X14317295Y4073637D01*
G01X14237285Y4136629D02*
G01X14317295Y4136629D01*
G01X15443168Y4193779D02*
G01X15443168Y4073637D01*
G01X15443168Y4193779D02*
G01X15494730Y4193779D01*
G01X15511748Y4187937D01*
G01X15517590Y4182349D01*
G01X15523178Y4170919D01*
G01X15523178Y4159489D01*
G01X15517590Y4148059D01*
G01X15511748Y4142217D01*
G01X15494730Y4136629D01*
G01X15443168Y4136629D01*
G01X15483300Y4136629D02*
G01X15523178Y4073637D01*
G01X15599632Y4153647D02*
G01X15588202Y4148059D01*
G01X15576772Y4136629D01*
G01X15570930Y4119357D01*
G01X15570930Y4107927D01*
G01X15576772Y4090909D01*
G01X15588202Y4079479D01*
G01X15599632Y4073637D01*
G01X15616650Y4073637D01*
G01X15628080Y4079479D01*
G01X15639510Y4090909D01*
G01X15645352Y4107927D01*
G01X15645352Y4119357D01*
G01X15639510Y4136629D01*
G01X15628080Y4148059D01*
G01X15616650Y4153647D01*
G01X15599632Y4153647D01*
G01X15693104Y4153647D02*
G01X15693104Y4096497D01*
G01X15698946Y4079479D01*
G01X15710376Y4073637D01*
G01X15727394Y4073637D01*
G01X15738824Y4079479D01*
G01X15756096Y4096497D01*
G01X15756096Y4153647D02*
G01X15756096Y4073637D01*
G01X15803848Y4153647D02*
G01X15803848Y4073637D01*
G01X15803848Y4130787D02*
G01X15821120Y4148059D01*
G01X15832550Y4153647D01*
G01X15849568Y4153647D01*
G01X15860998Y4148059D01*
G01X15866840Y4130787D01*
G01X15866840Y4073637D01*
G01X15983172Y4193779D02*
G01X15983172Y4073637D01*
G01X15983172Y4136629D02*
G01X15971742Y4148059D01*
G01X15960312Y4153647D01*
G01X15943294Y4153647D01*
G01X15931864Y4148059D01*
G01X15920434Y4136629D01*
G01X15914592Y4119357D01*
G01X15914592Y4107927D01*
G01X15920434Y4090909D01*
G01X15931864Y4079479D01*
G01X15943294Y4073637D01*
G01X15960312Y4073637D01*
G01X15971742Y4079479D01*
G01X15983172Y4090909D01*
G01X16874349Y4193779D02*
G01X16920069Y4073637D01*
G01X16965789Y4193779D02*
G01X16920069Y4073637D01*
G01X17013541Y4193779D02*
G01X17019383Y4187937D01*
G01X17024971Y4193779D01*
G01X17019383Y4199367D01*
G01X17013541Y4193779D01*
G01X17019383Y4153647D02*
G01X17019383Y4073637D01*
G01X17141303Y4153647D02*
G01X17141303Y4073637D01*
G01X17141303Y4136629D02*
G01X17129873Y4148059D01*
G01X17118443Y4153647D01*
G01X17101425Y4153647D01*
G01X17089995Y4148059D01*
G01X17078565Y4136629D01*
G01X17072723Y4119357D01*
G01X17072723Y4107927D01*
G01X17078565Y4090909D01*
G01X17089995Y4079479D01*
G01X17101425Y4073637D01*
G01X17118443Y4073637D01*
G01X17129873Y4079479D01*
G01X17141303Y4090909D01*
G01X20503029Y4193779D02*
G01X20503029Y4073637D01*
G01X20462897Y4193779D02*
G01X20542907Y4193779D01*
G01X20619361Y4153647D02*
G01X20607931Y4148059D01*
G01X20596501Y4136629D01*
G01X20590659Y4119357D01*
G01X20590659Y4107927D01*
G01X20596501Y4090909D01*
G01X20607931Y4079479D01*
G01X20619361Y4073637D01*
G01X20636379Y4073637D01*
G01X20647809Y4079479D01*
G01X20659239Y4090909D01*
G01X20665081Y4107927D01*
G01X20665081Y4119357D01*
G01X20659239Y4136629D01*
G01X20647809Y4148059D01*
G01X20636379Y4153647D01*
G01X20619361Y4153647D01*
G01X20712833Y4153647D02*
G01X20712833Y4033759D01*
G01X20712833Y4136629D02*
G01X20724263Y4148059D01*
G01X20735693Y4153647D01*
G01X20752965Y4153647D01*
G01X20764395Y4148059D01*
G01X20775825Y4136629D01*
G01X20781413Y4119357D01*
G01X20781413Y4107927D01*
G01X20775825Y4090909D01*
G01X20764395Y4079479D01*
G01X20752965Y4073637D01*
G01X20735693Y4073637D01*
G01X20724263Y4079479D01*
G01X20712833Y4090909D01*
G01X20957181Y4193779D02*
G01X20957181Y4073637D01*
G01X20957181Y4073637D02*
G01X21025761Y4073637D01*
G01X21142093Y4153647D02*
G01X21142093Y4073637D01*
G01X21142093Y4136629D02*
G01X21130663Y4148059D01*
G01X21119233Y4153647D01*
G01X21102215Y4153647D01*
G01X21090785Y4148059D01*
G01X21079355Y4136629D01*
G01X21073513Y4119357D01*
G01X21073513Y4107927D01*
G01X21079355Y4090909D01*
G01X21090785Y4079479D01*
G01X21102215Y4073637D01*
G01X21119233Y4073637D01*
G01X21130663Y4079479D01*
G01X21142093Y4090909D01*
G01X21195687Y4153647D02*
G01X21229977Y4073637D01*
G01X21264267Y4153647D02*
G01X21229977Y4073637D01*
G01X21218547Y4050777D01*
G01X21207117Y4039347D01*
G01X21195687Y4033759D01*
G01X21189845Y4033759D01*
G01X21312019Y4119357D02*
G01X21380599Y4119357D01*
G01X21380599Y4130787D01*
G01X21375011Y4142217D01*
G01X21369169Y4148059D01*
G01X21357739Y4153647D01*
G01X21340721Y4153647D01*
G01X21329291Y4148059D01*
G01X21317861Y4136629D01*
G01X21312019Y4119357D01*
G01X21312019Y4107927D01*
G01X21317861Y4090909D01*
G01X21329291Y4079479D01*
G01X21340721Y4073637D01*
G01X21357739Y4073637D01*
G01X21369169Y4079479D01*
G01X21380599Y4090909D01*
G01X21428351Y4153647D02*
G01X21428351Y4073637D01*
G01X21428351Y4119357D02*
G01X21434193Y4136629D01*
G01X21445623Y4148059D01*
G01X21457053Y4153647D01*
G01X21474071Y4153647D01*
G01X21521823Y4125199D02*
G01X21624693Y4125199D01*
G01X21672445Y4193779D02*
G01X21672445Y4073637D01*
G01X21672445Y4193779D02*
G01X21724007Y4193779D01*
G01X21741025Y4187937D01*
G01X21746867Y4182349D01*
G01X21752455Y4170919D01*
G01X21752455Y4159489D01*
G01X21746867Y4148059D01*
G01X21741025Y4142217D01*
G01X21724007Y4136629D01*
G01X21672445Y4136629D02*
G01X21724007Y4136629D01*
G01X21741025Y4130787D01*
G01X21746867Y4125199D01*
G01X21752455Y4113769D01*
G01X21752455Y4096497D01*
G01X21746867Y4085067D01*
G01X21741025Y4079479D01*
G01X21724007Y4073637D01*
G01X21672445Y4073637D01*
G01X21828909Y4153647D02*
G01X21817479Y4148059D01*
G01X21806049Y4136629D01*
G01X21800207Y4119357D01*
G01X21800207Y4107927D01*
G01X21806049Y4090909D01*
G01X21817479Y4079479D01*
G01X21828909Y4073637D01*
G01X21845927Y4073637D01*
G01X21857357Y4079479D01*
G01X21868787Y4090909D01*
G01X21874629Y4107927D01*
G01X21874629Y4119357D01*
G01X21868787Y4136629D01*
G01X21857357Y4148059D01*
G01X21845927Y4153647D01*
G01X21828909Y4153647D01*
G01X21939653Y4193779D02*
G01X21939653Y4096497D01*
G01X21945241Y4079479D01*
G01X21956671Y4073637D01*
G01X21968101Y4073637D01*
G01X21922381Y4153647D02*
G01X21962513Y4153647D01*
G01X22033125Y4193779D02*
G01X22033125Y4096497D01*
G01X22038713Y4079479D01*
G01X22050143Y4073637D01*
G01X22061573Y4073637D01*
G01X22015853Y4153647D02*
G01X22055985Y4153647D01*
G01X22138027Y4153647D02*
G01X22126597Y4148059D01*
G01X22115167Y4136629D01*
G01X22109325Y4119357D01*
G01X22109325Y4107927D01*
G01X22115167Y4090909D01*
G01X22126597Y4079479D01*
G01X22138027Y4073637D01*
G01X22155045Y4073637D01*
G01X22166475Y4079479D01*
G01X22177905Y4090909D01*
G01X22183747Y4107927D01*
G01X22183747Y4119357D01*
G01X22177905Y4136629D01*
G01X22166475Y4148059D01*
G01X22155045Y4153647D01*
G01X22138027Y4153647D01*
G01X22231499Y4153647D02*
G01X22231499Y4073637D01*
G01X22231499Y4130787D02*
G01X22248771Y4148059D01*
G01X22260201Y4153647D01*
G01X22277219Y4153647D01*
G01X22288649Y4148059D01*
G01X22294491Y4130787D01*
G01X22294491Y4073637D01*
G01X22294491Y4130787D02*
G01X22311509Y4148059D01*
G01X22322939Y4153647D01*
G01X22340211Y4153647D01*
G01X22351641Y4148059D01*
G01X22357229Y4130787D01*
G01X22357229Y4073637D01*
G01X22532997Y4193779D02*
G01X22532997Y4073637D01*
G01X22532997Y4073637D02*
G01X22601577Y4073637D01*
G01X22717909Y4153647D02*
G01X22717909Y4073637D01*
G01X22717909Y4136629D02*
G01X22706479Y4148059D01*
G01X22695049Y4153647D01*
G01X22678031Y4153647D01*
G01X22666601Y4148059D01*
G01X22655171Y4136629D01*
G01X22649329Y4119357D01*
G01X22649329Y4107927D01*
G01X22655171Y4090909D01*
G01X22666601Y4079479D01*
G01X22678031Y4073637D01*
G01X22695049Y4073637D01*
G01X22706479Y4079479D01*
G01X22717909Y4090909D01*
G01X22771503Y4153647D02*
G01X22805793Y4073637D01*
G01X22840083Y4153647D02*
G01X22805793Y4073637D01*
G01X22794363Y4050777D01*
G01X22782933Y4039347D01*
G01X22771503Y4033759D01*
G01X22765661Y4033759D01*
G01X22887835Y4119357D02*
G01X22956415Y4119357D01*
G01X22956415Y4130787D01*
G01X22950827Y4142217D01*
G01X22944985Y4148059D01*
G01X22933555Y4153647D01*
G01X22916537Y4153647D01*
G01X22905107Y4148059D01*
G01X22893677Y4136629D01*
G01X22887835Y4119357D01*
G01X22887835Y4107927D01*
G01X22893677Y4090909D01*
G01X22905107Y4079479D01*
G01X22916537Y4073637D01*
G01X22933555Y4073637D01*
G01X22944985Y4079479D01*
G01X22956415Y4090909D01*
G01X23004167Y4153647D02*
G01X23004167Y4073637D01*
G01X23004167Y4119357D02*
G01X23010009Y4136629D01*
G01X23021439Y4148059D01*
G01X23032869Y4153647D01*
G01X23049887Y4153647D01*

G04 Image Start*
G36*
G01X7514863Y5174310D02*
G01X7409249Y5185791D01*
G01X7366374Y5088585D01*
G01X7323499Y5185791D01*
G01X7217886Y5174310D01*
G01X7280649Y5260035D01*
G01X7240927Y5314289D01*
G01X7272420Y5314289D01*
G01X7312120Y5260035D01*
G01X7272420Y5205781D01*
G01X7339247Y5213045D01*
G01X7339247Y5213045D01*
G01X7366374Y5151552D01*
G01X7393501Y5213045D01*
G01X7460329Y5205781D01*
G01X7420629Y5260035D01*
G01X7460303Y5314264D01*
G01X7393476Y5307000D01*
G01X7366374Y5368518D01*
G01X7339247Y5307025D01*
G01X7272420Y5314289D01*
G01X7240927Y5314289D01*
G01X7217886Y5345760D01*
G01X7323524Y5334279D01*
G01X7366374Y5431485D01*
G01X7409249Y5334279D01*
G01X7514863Y5345760D01*
G01X7452099Y5260035D01*
G01X7514863Y5174310D01*
G37*
G36*
G01X7385869Y6288615D02*
G01X7378129Y6288026D01*
G01X7370286Y6287828D01*
G01X7362443Y6288026D01*
G01X7354702Y6288615D01*
G01X7347075Y6289584D01*
G01X7339570Y6290924D01*
G01X7324964Y6294679D01*
G01X7310962Y6299803D01*
G01X7297640Y6306220D01*
G01X7285074Y6313853D01*
G01X7273342Y6322626D01*
G01X7262520Y6332462D01*
G01X7252684Y6343284D01*
G01X7243911Y6355016D01*
G01X7236278Y6367582D01*
G01X7229861Y6380904D01*
G01X7224737Y6394906D01*
G01X7220982Y6409512D01*
G01X7219642Y6417017D01*
G01X7218672Y6424645D01*
G01X7218084Y6432385D01*
G01X7217886Y6440228D01*
G01X7243286Y6440228D01*
G01X7243943Y6427261D01*
G01X7245870Y6414665D01*
G01X7249005Y6402504D01*
G01X7253282Y6390841D01*
G01X7258637Y6379742D01*
G01X7265005Y6369270D01*
G01X7272323Y6359491D01*
G01X7280525Y6350467D01*
G01X7289549Y6342265D01*
G01X7299328Y6334947D01*
G01X7309800Y6328579D01*
G01X7320899Y6323224D01*
G01X7332562Y6318947D01*
G01X7344723Y6315813D01*
G01X7344723Y6315813D01*
G01X7357319Y6313885D01*
G01X7370286Y6313228D01*
G01X7383252Y6313885D01*
G01X7395848Y6315813D01*
G01X7408010Y6318947D01*
G01X7419672Y6323224D01*
G01X7430772Y6328579D01*
G01X7441243Y6334947D01*
G01X7451023Y6342265D01*
G01X7460046Y6350467D01*
G01X7468249Y6359491D01*
G01X7475566Y6369270D01*
G01X7481935Y6379742D01*
G01X7487290Y6390841D01*
G01X7491566Y6402504D01*
G01X7494701Y6414665D01*
G01X7496629Y6427261D01*
G01X7497286Y6440228D01*
G01X7496629Y6453194D01*
G01X7494701Y6465791D01*
G01X7491566Y6477952D01*
G01X7487290Y6489615D01*
G01X7481935Y6500714D01*
G01X7475566Y6511185D01*
G01X7468249Y6520965D01*
G01X7460046Y6529988D01*
G01X7451023Y6538191D01*
G01X7441243Y6545509D01*
G01X7430772Y6551877D01*
G01X7419672Y6557232D01*
G01X7408010Y6561509D01*
G01X7395848Y6564643D01*
G01X7383252Y6566571D01*
G01X7370286Y6567228D01*
G01X7357319Y6566571D01*
G01X7344723Y6564643D01*
G01X7332562Y6561509D01*
G01X7320899Y6557232D01*
G01X7309800Y6551877D01*
G01X7299328Y6545509D01*
G01X7289549Y6538191D01*
G01X7280525Y6529988D01*
G01X7272323Y6520965D01*
G01X7265005Y6511185D01*
G01X7258637Y6500714D01*
G01X7253282Y6489615D01*
G01X7249005Y6477952D01*
G01X7245870Y6465791D01*
G01X7243943Y6453194D01*
G01X7243286Y6440228D01*
G01X7217886Y6440228D01*
G01X7218084Y6448071D01*
G01X7218672Y6455811D01*
G01X7219642Y6463439D01*
G01X7220982Y6470944D01*
G01X7224737Y6485550D01*
G01X7229861Y6499552D01*
G01X7236278Y6512874D01*
G01X7243911Y6525439D01*
G01X7252684Y6537172D01*
G01X7262520Y6547994D01*
G01X7273342Y6557830D01*
G01X7285074Y6566602D01*
G01X7297640Y6574236D01*
G01X7310962Y6580653D01*
G01X7324964Y6585777D01*
G01X7339570Y6589532D01*
G01X7347075Y6590872D01*
G01X7354702Y6591841D01*
G01X7362443Y6592430D01*
G01X7370286Y6592628D01*
G01X7378129Y6592430D01*
G01X7385869Y6591841D01*
G01X7393496Y6590872D01*
G01X7401002Y6589532D01*
G01X7415608Y6585777D01*
G01X7429610Y6580653D01*
G01X7442932Y6574236D01*
G01X7455497Y6566602D01*
G01X7467229Y6557830D01*
G01X7478052Y6547994D01*
G01X7487887Y6537172D01*
G01X7496660Y6525439D01*
G01X7504293Y6512874D01*
G01X7510710Y6499552D01*
G01X7515835Y6485550D01*
G01X7519590Y6470944D01*
G01X7520930Y6463439D01*
G01X7521899Y6455811D01*
G01X7522487Y6448071D01*
G01X7522686Y6440228D01*
G01X7522487Y6432385D01*
G01X7521899Y6424645D01*
G01X7520930Y6417017D01*
G01X7519590Y6409512D01*
G01X7515835Y6394906D01*
G01X7510710Y6380904D01*
G01X7504293Y6367582D01*
G01X7496660Y6355016D01*
G01X7487887Y6343284D01*
G01X7478052Y6332462D01*
G01X7467229Y6322626D01*
G01X7455497Y6313853D01*
G01X7442932Y6306220D01*
G01X7429610Y6299803D01*
G01X7415608Y6294679D01*
G01X7401002Y6290924D01*
G01X7393496Y6289584D01*
G01X7385869Y6288615D01*
G37*
G36*
G01X7522686Y4048676D02*
G01X7439577Y4048676D01*
G01X7439577Y3965542D01*
G01X7301020Y3965542D01*
G01X7301020Y4048651D01*
G01X7217886Y4048651D01*
G01X7217886Y4161808D01*
G01X7243286Y4161808D01*
G01X7243286Y4074076D01*
G01X7326420Y4074076D01*
G01X7326420Y3990942D01*
G01X7326420Y3990942D01*
G01X7414152Y3990942D01*
G01X7414152Y4074051D01*
G01X7497286Y4074051D01*
G01X7497286Y4161808D01*
G01X7414152Y4161808D01*
G01X7414152Y4244942D01*
G01X7326420Y4244942D01*
G01X7326420Y4161808D01*
G01X7243286Y4161808D01*
G01X7217886Y4161808D01*
G01X7217886Y4187208D01*
G01X7301020Y4187208D01*
G01X7301020Y4270342D01*
G01X7439552Y4270342D01*
G01X7439552Y4187208D01*
G01X7522686Y4187208D01*
G01X7522686Y4048676D01*
G37*
G36*
G01X7522686Y4850914D02*
G01X7452658Y4698514D01*
G01X7522686Y4546114D01*
G01X7370286Y4616141D01*
G01X7217886Y4546114D01*
G01X7241648Y4597828D01*
G01X7269600Y4597828D01*
G01X7359669Y4639230D01*
G01X7370286Y4644107D01*
G01X7380903Y4639230D01*
G01X7470971Y4597828D01*
G01X7429569Y4687896D01*
G01X7424693Y4698514D01*
G01X7429569Y4709131D01*
G01X7470971Y4799199D01*
G01X7380903Y4757797D01*
G01X7370286Y4752920D01*
G01X7359669Y4757797D01*
G01X7269600Y4799199D01*
G01X7311002Y4709131D01*
G01X7315879Y4698514D01*
G01X7315879Y4698514D01*
G01X7311002Y4687896D01*
G01X7269600Y4597828D01*
G01X7241648Y4597828D01*
G01X7287914Y4698514D01*
G01X7217886Y4850914D01*
G01X7370286Y4780886D01*
G01X7522686Y4850914D01*
G37*
G36*
G01X7217886Y6012056D02*
G01X7522686Y6012056D01*
G01X7370286Y5748100D01*
G01X7232551Y5986656D01*
G01X7261879Y5986656D01*
G01X7370286Y5798900D01*
G01X7478693Y5986656D01*
G01X7478693Y5986656D01*
G01X7261879Y5986656D01*
G01X7232551Y5986656D01*
G01X7217886Y6012056D01*
G37*
G36*
G01X7217886Y7173199D02*
G01X7497286Y7173199D01*
G01X7497286Y6893799D01*
G01X7217886Y6893799D01*
G01X7217886Y7147799D01*
G01X7243286Y7147799D01*
G01X7243286Y6919199D01*
G01X7471886Y6919199D01*
G01X7471886Y7147799D01*
G01X7471886Y7147799D01*
G01X7243286Y7147799D01*
G01X7217886Y7147799D01*
G01X7217886Y7173199D01*
G37*

G04 PolygonModel Start*
G54D17*
G01X6927600Y3834914D02*
G01X23640619Y3834914D01*
G01X6927600Y4415485D02*
G01X23640619Y4415485D01*
G01X6927600Y4996056D02*
G01X23640619Y4996056D01*
G01X6927600Y5576628D02*
G01X23640619Y5576628D01*
G01X6927600Y6157199D02*
G01X23640619Y6157199D01*
G01X6927600Y6737771D02*
G01X23640619Y6737771D01*
G01X6927600Y7318342D02*
G01X23640619Y7318342D01*
G01X6927600Y7898914D02*
G01X23640619Y7898914D01*
G01X6927600Y7898914D02*
G01X6927600Y3860314D01*
G01X8379029Y7898914D02*
G01X8379029Y3860314D01*
G01X9793192Y7898914D02*
G01X9793192Y3860314D01*
G01X13681315Y7898914D02*
G01X13681315Y3860314D01*
G01X15142722Y7898914D02*
G01X15142722Y3860314D01*
G01X16573903Y7898914D02*
G01X16573903Y3860314D01*
G01X18243082Y7898914D02*
G01X18243082Y3860314D01*
G01X20162451Y7898914D02*
G01X20162451Y3860314D01*
G01X23640619Y7898914D02*
G01X23640619Y3860314D01*

M02*

